<svg width="13" height="14" viewBox="0 0 13 14" fill="none" xmlns="http://www.w3.org/2000/svg">
<path d="M11.2649 0.75H1.82356C0.956875 0.75 0.25 1.45687 0.25 2.30144V9.36035C0.25 10.227 0.956875 10.9118 1.82356 10.9118H4.18391V12.955C4.18391 13.1947 4.46051 13.3348 4.65401 13.1935L7.72492 10.8897H11.2654C12.1321 10.8897 12.839 10.1828 12.839 9.33822V2.30144C12.8385 1.45687 12.1525 0.75 11.2649 0.75ZM6.76308 7.83104H4.00934C3.6848 7.83104 3.41926 7.56796 3.41926 7.24095C3.41926 6.91395 3.6848 6.65087 4.00934 6.65087H6.76308C7.09009 6.65087 7.35317 6.91641 7.35317 7.24095C7.35317 7.5655 7.09009 7.83104 6.76308 7.83104ZM9.12343 5.47069H4.00934C3.6848 5.47069 3.41926 5.20761 3.41926 4.88061C3.41926 4.5536 3.6848 4.29052 4.00934 4.29052H9.12343C9.45043 4.29052 9.71351 4.55606 9.71351 4.88061C9.71351 5.20515 9.45043 5.47069 9.12343 5.47069Z" fill="#747474"/>
</svg>
