<svg width="14" height="14" viewBox="0 0 14 14" fill="none" xmlns="http://www.w3.org/2000/svg">
<path fill-rule="evenodd" clip-rule="evenodd" d="M5.18459 6.51875C4.91116 6.51875 4.69495 6.73125 4.69495 7C4.69495 7.2625 4.91116 7.48125 5.18459 7.48125H9V10.4688C9 12 7.73456 13.25 6.17024 13.25H3.0734C1.51544 13.25 0.25 12.0063 0.25 10.475V3.53125C0.25 1.99375 1.5218 0.75 3.07976 0.75H6.18296C7.73456 0.75 9 1.99375 9 3.525V6.51875H5.18459ZM11.2689 4.83763L13.0939 6.65638C13.1876 6.75013 13.2376 6.86888 13.2376 7.00013C13.2376 7.12513 13.1876 7.25013 13.0939 7.33763L11.2689 9.15637C11.1751 9.25012 11.0501 9.30013 10.9314 9.30013C10.8064 9.30013 10.6814 9.25012 10.5876 9.15637C10.4001 8.96887 10.4001 8.66263 10.5876 8.47513L11.5876 7.48138H9.00012V6.51888H11.5876L10.5876 5.52513C10.4001 5.33763 10.4001 5.03138 10.5876 4.84388C10.7751 4.65013 11.0814 4.65013 11.2689 4.83763Z" fill="#E6192A"/>
</svg>
