<svg width="15" height="14" viewBox="0 0 15 14" fill="none" xmlns="http://www.w3.org/2000/svg">
<path d="M7.1875 9.1875C6.69022 9.1875 6.21331 8.98996 5.86167 8.63833C5.51004 8.28669 5.3125 7.80978 5.3125 7.3125V6.0625M7.1875 9.1875C7.68478 9.1875 8.16169 8.98996 8.51333 8.63833C8.86496 8.28669 9.0625 7.80978 9.0625 7.3125V6.0625M7.1875 9.1875V6.0625M5.3125 6.0625C5.3125 5.56522 5.51004 5.08831 5.86167 4.73667C6.21331 4.38504 6.69022 4.1875 7.1875 4.1875C7.68478 4.1875 8.16169 4.38504 8.51333 4.73667C8.86496 5.08831 9.0625 5.56522 9.0625 6.0625M5.3125 6.0625H9.0625M9.1075 6.6875H10M4.375 6.6875H5.3125M9.0625 8.25L9.6875 8.5625M5.3125 8.25L4.6875 8.5625M9.0625 5.125L9.6875 4.8125M5.3125 5.125L4.6875 4.8125M11.5625 11.0625L13.75 13.25" stroke="#747474" stroke-width="1.5" stroke-linecap="round"/>
<path d="M4.2179 1.54376C5.46546 0.823834 6.93218 0.581958 8.34484 0.863187C9.75749 1.14442 11.0198 1.92957 11.8965 3.07239C12.7732 4.21522 13.2046 5.63777 13.1103 7.07506C13.016 8.51235 12.4025 9.86636 11.384 10.8849C10.3655 11.9034 9.01149 12.5169 7.57421 12.6112C6.13692 12.7055 4.71436 12.2741 3.57154 11.3973C2.42872 10.5206 1.64356 9.25835 1.36233 7.84569C1.0811 6.43303 1.32298 4.96631 2.0429 3.71876" stroke="#747474" stroke-width="1.5" stroke-linecap="round"/>
</svg>
