<svg width="13" height="14" viewBox="0 0 13 14" fill="none" xmlns="http://www.w3.org/2000/svg">
<path fill-rule="evenodd" clip-rule="evenodd" d="M11.7515 7.98762C11.975 8.10637 12.1475 8.29387 12.2688 8.48137C12.5052 8.86887 12.486 9.34387 12.2561 9.76262L11.809 10.5126C11.5726 10.9126 11.1319 11.1626 10.6784 11.1626C10.4549 11.1626 10.2058 11.1001 10.0014 10.9751C9.8353 10.8689 9.64368 10.8314 9.43929 10.8314C8.80695 10.8314 8.27681 11.3501 8.25765 11.9689C8.25765 12.6876 7.67002 13.2501 6.93549 13.2501H6.06683C5.32591 13.2501 4.73828 12.6876 4.73828 11.9689C4.72551 11.3501 4.19537 10.8314 3.56303 10.8314C3.35225 10.8314 3.16064 10.8689 3.00096 10.9751C2.79656 11.1001 2.54107 11.1626 2.32391 11.1626C1.86403 11.1626 1.42331 10.9126 1.18698 10.5126L0.746262 9.76262C0.509935 9.35637 0.49716 8.86887 0.733488 8.48137C0.835684 8.29387 1.0273 8.10637 1.24447 7.98762C1.42331 7.90012 1.53828 7.75637 1.64686 7.58762C1.96622 7.05012 1.77461 6.34387 1.23169 6.02512C0.599356 5.66887 0.394965 4.87512 0.759037 4.25637L1.18698 3.51887C1.55744 2.90012 2.34946 2.68137 2.98818 3.04387C3.54387 3.34387 4.26563 3.14387 4.59138 2.61262C4.69357 2.43762 4.75106 2.25012 4.73828 2.06262C4.72551 1.81887 4.79577 1.58762 4.91713 1.40012C5.15345 1.01262 5.5814 0.762622 6.04767 0.750122H6.94827C7.42092 0.750122 7.84887 1.01262 8.08519 1.40012C8.20016 1.58762 8.27681 1.81887 8.25765 2.06262C8.24487 2.25012 8.30236 2.43762 8.40456 2.61262C8.7303 3.14387 9.45206 3.34387 10.0141 3.04387C10.6465 2.68137 11.4449 2.90012 11.809 3.51887L12.2369 4.25637C12.6074 4.87512 12.403 5.66887 11.7642 6.02512C11.2213 6.34387 11.0297 7.05012 11.3555 7.58762C11.4577 7.75637 11.5726 7.90012 11.7515 7.98762ZM4.69357 7.00637C4.69357 7.98762 5.50475 8.76887 6.50755 8.76887C7.51034 8.76887 8.30236 7.98762 8.30236 7.00637C8.30236 6.02512 7.51034 5.23762 6.50755 5.23762C5.50475 5.23762 4.69357 6.02512 4.69357 7.00637Z" fill="#747474"/>
</svg>
