<svg width="13" height="14" viewBox="0 0 13 14" fill="none" xmlns="http://www.w3.org/2000/svg">
<path d="M0.875 1.75C0.875 1.65054 0.914509 1.55516 0.984835 1.48483C1.05516 1.41451 1.15054 1.375 1.25 1.375H11.75C11.8495 1.375 11.9448 1.41451 12.0152 1.48483C12.0855 1.55516 12.125 1.65054 12.125 1.75V10.375C12.125 10.4242 12.1153 10.473 12.0965 10.5185C12.0776 10.564 12.05 10.6053 12.0152 10.6402C11.9803 10.675 11.939 10.7026 11.8935 10.7215C11.848 10.7403 11.7992 10.75 11.75 10.75H9.1625C9.11122 10.7499 9.06047 10.7604 9.01338 10.7807C8.9663 10.801 8.92388 10.8308 8.88875 10.8681L6.77313 13.1162C6.73806 13.1535 6.69574 13.1832 6.64877 13.2035C6.6018 13.2238 6.55117 13.2343 6.5 13.2343C6.44883 13.2343 6.3982 13.2238 6.35123 13.2035C6.30426 13.1832 6.26194 13.1535 6.22687 13.1162L4.11125 10.8681C4.07612 10.8308 4.0337 10.801 3.98662 10.7807C3.93953 10.7604 3.88878 10.7499 3.8375 10.75H1.25C1.15054 10.75 1.05516 10.7105 0.984835 10.6402C0.914509 10.5698 0.875 10.4745 0.875 10.375V1.75Z" stroke="#747474" stroke-width="1.5"/>
<path d="M6.5 3.875L7.39063 5.48437L9 6.375L7.39063 7.26563L6.5 8.875L5.60937 7.26563L4 6.375L5.60937 5.48437L6.5 3.875Z" stroke="#747474" stroke-width="1.5" stroke-linecap="round" stroke-linejoin="round"/>
</svg>
