<svg width="13" height="16" viewBox="0 0 13 16" fill="none" xmlns="http://www.w3.org/2000/svg">
<path d="M7.75 4.875V0.7875C8.32816 1.00583 8.85331 1.34457 9.29062 1.78125L11.4681 3.96C11.9053 4.3968 12.2443 4.92181 12.4625 5.5H8.375C8.20924 5.5 8.05027 5.43415 7.93306 5.31694C7.81585 5.19973 7.75 5.04076 7.75 4.875ZM12.75 7.05312V12.375C12.749 13.2035 12.4194 13.9978 11.8336 14.5836C11.2478 15.1694 10.4535 15.499 9.625 15.5H3.375C2.5465 15.499 1.75222 15.1694 1.16639 14.5836C0.580551 13.9978 0.250992 13.2035 0.25 12.375V3.625C0.250992 2.7965 0.580551 2.00222 1.16639 1.41639C1.75222 0.830551 2.5465 0.500992 3.375 0.5L6.19688 0.5C6.29875 0.5 6.39937 0.508125 6.5 0.515V4.875C6.5 5.37228 6.69754 5.84919 7.04917 6.20083C7.40081 6.55246 7.87772 6.75 8.375 6.75H12.735C12.7419 6.85063 12.75 6.95125 12.75 7.05312ZM7.75 12.375C7.75 12.2092 7.68415 12.0503 7.56694 11.9331C7.44973 11.8158 7.29076 11.75 7.125 11.75H4C3.83424 11.75 3.67527 11.8158 3.55806 11.9331C3.44085 12.0503 3.375 12.2092 3.375 12.375C3.375 12.5408 3.44085 12.6997 3.55806 12.8169C3.67527 12.9342 3.83424 13 4 13H7.125C7.29076 13 7.44973 12.9342 7.56694 12.8169C7.68415 12.6997 7.75 12.5408 7.75 12.375ZM9.625 9.875C9.625 9.70924 9.55915 9.55027 9.44194 9.43306C9.32473 9.31585 9.16576 9.25 9 9.25H4C3.83424 9.25 3.67527 9.31585 3.55806 9.43306C3.44085 9.55027 3.375 9.70924 3.375 9.875C3.375 10.0408 3.44085 10.1997 3.55806 10.3169C3.67527 10.4342 3.83424 10.5 4 10.5H9C9.16576 10.5 9.32473 10.4342 9.44194 10.3169C9.55915 10.1997 9.625 10.0408 9.625 9.875Z" fill="#747474"/>
</svg>
