<svg width="52" height="52" viewBox="0 0 52 52" fill="none" xmlns="http://www.w3.org/2000/svg">
<g filter="url(#filter0_d_7566_84163)">
<rect x="2" y="1" width="48" height="48" rx="10" fill="white"/>
<path d="M36 23H16M36 24V21.2C36 20.0799 36 19.5198 35.782 19.092C35.5903 18.7157 35.2843 18.4097 34.908 18.218C34.4802 18 33.9201 18 32.8 18H19.2C18.0799 18 17.5198 18 17.092 18.218C16.7157 18.4097 16.4097 18.7157 16.218 19.092C16 19.5198 16 20.0799 16 21.2V28.8C16 29.9201 16 30.4802 16.218 30.908C16.4097 31.2843 16.7157 31.5903 17.092 31.782C17.5198 32 18.0799 32 19.2 32H25.5M32 34C32 34 35 32.5701 35 30.4252V27.9229L32.8124 27.1412C32.2868 26.9529 31.712 26.9529 31.1864 27.1412L29 27.9229V30.4252C29 32.5701 32 34 32 34Z" stroke="#344054" stroke-width="2" stroke-linecap="round" stroke-linejoin="round"/>
<rect x="2.5" y="1.5" width="47" height="47" rx="9.5" stroke="#EAECF0"/>
</g>
<defs>
<filter id="filter0_d_7566_84163" x="0" y="0" width="52" height="52" filterUnits="userSpaceOnUse" color-interpolation-filters="sRGB">
<feFlood flood-opacity="0" result="BackgroundImageFix"/>
<feColorMatrix in="SourceAlpha" type="matrix" values="0 0 0 0 0 0 0 0 0 0 0 0 0 0 0 0 0 0 127 0" result="hardAlpha"/>
<feOffset dy="1"/>
<feGaussianBlur stdDeviation="1"/>
<feColorMatrix type="matrix" values="0 0 0 0 0.0627451 0 0 0 0 0.0941176 0 0 0 0 0.156863 0 0 0 0.05 0"/>
<feBlend mode="normal" in2="BackgroundImageFix" result="effect1_dropShadow_7566_84163"/>
<feBlend mode="normal" in="SourceGraphic" in2="effect1_dropShadow_7566_84163" result="shape"/>
</filter>
</defs>
</svg>
