<svg width="35" height="35" viewBox="0 0 35 35" fill="none" xmlns="http://www.w3.org/2000/svg">
<rect x="0.644531" y="0.80957" width="34.1463" height="34.1463" rx="17.0731" fill="#191919"/>
<path d="M17.7177 25.531C13.4992 25.531 10.0703 22.1022 10.0703 17.8837C10.0703 13.6652 13.4992 10.2363 17.7177 10.2363C18.0093 10.2363 18.2512 10.4782 18.2512 10.7699C18.2512 11.0615 18.0093 11.3034 17.7177 11.3034C14.0896 11.3034 11.1374 14.2556 11.1374 17.8837C11.1374 21.5117 14.0896 24.4639 17.7177 24.4639C21.3457 24.4639 24.2979 21.5117 24.2979 17.8837C24.2979 17.592 24.5398 17.3501 24.8315 17.3501C25.1231 17.3501 25.365 17.592 25.365 17.8837C25.365 22.1022 21.9361 25.531 17.7177 25.531Z" fill="white"/>
<path d="M18.9966 17.1359C18.8614 17.1359 18.7263 17.0861 18.6196 16.9794C18.4133 16.7731 18.4133 16.4317 18.6196 16.2253L24.4529 10.392C24.6592 10.1857 25.0007 10.1857 25.207 10.392C25.4133 10.5983 25.4133 10.9398 25.207 11.1461L19.3736 16.9794C19.274 17.079 19.1389 17.1359 18.9966 17.1359Z" fill="white"/>
<path d="M21.864 17.7052H18.4281C18.1364 17.7052 17.8945 17.4633 17.8945 17.1717V13.7357C17.8945 13.444 18.1364 13.2021 18.4281 13.2021C18.7197 13.2021 18.9616 13.444 18.9616 13.7357V16.6381H21.864C22.1557 16.6381 22.3976 16.88 22.3976 17.1717C22.3976 17.4633 22.1557 17.7052 21.864 17.7052Z" fill="white"/>
</svg>
