<svg xmlns="http://www.w3.org/2000/svg" width="56" height="57" viewBox="0 0 56 57" fill="none">
  <g clip-path="url(#clip0_2829_13675)">
    <path d="M28.5683 21.5214C28.823 22.0692 29.4741 22.3054 30.0218 22.0508C30.5687 21.7949 30.8062 21.1438 30.5512 20.5969C30.2953 20.0492 29.6446 19.8129 29.0977 20.0675C28.5495 20.3234 28.3137 20.9746 28.5683 21.5214Z" fill="#191919"/>
    <path d="M28.172 18.086C28.7202 17.83 28.9564 17.1789 28.7014 16.632C28.4467 16.0843 27.796 15.848 27.2479 16.1027C26.701 16.3578 26.4639 17.0084 26.7185 17.5566C26.9744 18.1035 27.6251 18.3406 28.172 18.086Z" fill="#191919"/>
    <path d="M54.9064 32.7522H52.7189C50.9095 32.7522 49.4376 34.224 49.4376 36.0334V38.7674H40.8662L36.9308 30.8971L48.522 25.492C50.1618 24.7268 50.8732 22.7708 50.1084 21.1315C50.0828 21.0755 43.7569 7.51128 43.6369 7.25408C42.3607 4.51543 39.1094 3.33025 36.3707 4.60814L0.632374 21.2485C0.0820801 21.5045 -0.154615 22.1607 0.106006 22.7089L2.93096 28.657C3.08691 28.9847 3.39495 29.2141 3.75384 29.2688L7.97973 29.9148L7.28845 30.237C6.74115 30.492 6.50402 31.1431 6.75909 31.6904L10.4569 39.6214C10.712 40.1683 11.3631 40.4059 11.9108 40.1504L14.8853 38.7631L15.3472 39.7543C15.6027 40.3029 16.2542 40.5383 16.8007 40.2837L29.9893 34.1339L35.0757 44.307C35.7281 45.6127 37.0402 46.4236 38.5001 46.4236H49.4376V49.158C49.4376 50.9674 50.9095 52.4393 52.7189 52.4393H54.9064C55.5101 52.4393 56.0001 51.9496 56.0001 51.3455V33.8455C56.0001 33.2418 55.5105 32.7522 54.9064 32.7522ZM2.55498 22.7661L37.2948 6.59099C38.9376 5.82451 40.888 6.53417 41.6545 8.17821L45.815 17.0996L20.2511 29.0197C19.6611 29.2949 19.0104 29.3884 18.3687 29.2897C17.6774 29.1842 12.5662 28.4032 11.8818 28.2985L4.65789 27.1941L2.55498 22.7661ZM11.9775 37.7057L9.20422 31.7575L11.1875 30.8334L13.9608 36.7807L11.9775 37.7057ZM13.5715 30.7697L18.0371 31.452C19.1057 31.6161 20.1913 31.4614 21.1757 31.0026L46.7395 19.0824L48.126 22.056C48.3815 22.6033 48.1452 23.254 47.5975 23.5095L16.8682 37.839L13.5715 30.7697ZM38.5001 44.2361C37.8746 44.2361 37.3124 43.8888 37.0329 43.3295L31.9726 33.2089L34.9475 31.822L39.2119 40.3503C39.3969 40.7212 39.7759 40.9549 40.1899 40.9549H49.4376V44.2361H38.5001ZM53.8126 50.2518H52.7189C52.116 50.2518 51.6251 49.7613 51.6251 49.158V36.0334C51.6251 35.4301 52.116 34.9397 52.7189 34.9397H53.8126V50.2518Z" fill="#191919"/>
    <path d="M32.1374 16.2364L38.0851 13.4627C38.6328 13.2077 38.8695 12.557 38.614 12.0093C38.3589 11.4619 37.7082 11.2253 37.1605 11.4803L31.2128 14.254C30.6655 14.5095 30.4284 15.1602 30.6839 15.7075C30.9398 16.2565 31.5913 16.4911 32.1374 16.2364Z" fill="#191919"/>
    <path d="M32.5323 19.6723C32.7882 20.2214 33.4398 20.4559 33.9858 20.2013L39.9339 17.4276C40.4812 17.1725 40.7179 16.5218 40.4629 15.9741C40.2074 15.4268 39.5567 15.1901 39.0094 15.4452L33.0613 18.2188C32.5139 18.4743 32.2773 19.125 32.5323 19.6723Z" fill="#191919"/>
  </g>
  <defs>
    <clipPath id="clip0_2829_13675">
      <rect width="56" height="56" fill="white" transform="translate(0 0.15625)"/>
    </clipPath>
  </defs>
</svg>