<svg xmlns="http://www.w3.org/2000/svg" width="73" height="73" viewBox="0 0 73 73" fill="none">
  <g clip-path="url(#clip0_2829_13587)">
    <path d="M18.4297 4.58594H12.8047C6.02008 4.58594 0.5 10.106 0.5 16.8906V63.2969C0.5 66.205 2.86536 68.5703 5.77344 68.5703H25.4609C28.369 68.5703 30.7344 66.205 30.7344 63.2969V16.8906C30.7344 10.106 25.2143 4.58594 18.4297 4.58594ZM11.6517 6.76233C11.02 11.4249 7.33899 15.1059 2.67639 15.7376C3.20813 11.0355 6.94952 7.29407 11.6517 6.76233ZM2.60938 34.3281C2.60938 32.4055 3.02905 30.579 3.78107 28.9355L6.55402 32.8812C6.28156 33.3481 6.125 33.8903 6.125 34.4688V49.9375C6.125 50.4187 6.23377 50.8752 6.42658 51.2839L3.20813 55.8646C2.83185 55.3439 2.60938 54.7056 2.60938 54.0156V34.3281ZM9.28906 53.1016H21.9453C22.4276 53.1016 22.8846 52.9928 23.2939 52.7989L26.2937 57.0676C26.0284 57.1401 25.7493 57.1797 25.4609 57.1797H5.77344C5.48505 57.1797 5.20599 57.1401 4.94067 57.0676L7.94049 52.7989C8.34973 52.9928 8.80676 53.1016 9.28906 53.1016ZM8.23438 49.9375V34.4688C8.23438 33.887 8.70734 33.4141 9.28906 33.4141H21.9453C22.527 33.4141 23 33.887 23 34.4688V49.9375C23 50.5192 22.527 50.9922 21.9453 50.9922H9.28906C8.70734 50.9922 8.23438 50.5192 8.23438 49.9375ZM23.0659 31.5101C22.7171 31.3777 22.3397 31.3047 21.9453 31.3047H9.28906C8.89465 31.3047 8.51727 31.3777 8.16846 31.5101L4.93738 26.9118C7.289 23.5346 11.199 21.3203 15.6172 21.3203C20.0353 21.3203 23.9454 23.5346 26.297 26.9118L23.0659 31.5101ZM28.625 63.2969C28.625 65.0415 27.2056 66.4609 25.4609 66.4609H5.77344C4.02881 66.4609 2.60938 65.0415 2.60938 63.2969V58.2316C3.49158 58.8952 4.58691 59.2891 5.77344 59.2891H25.4609C26.6475 59.2891 27.7428 58.8952 28.625 58.2316V63.2969ZM28.625 54.0156C28.625 54.7056 28.4025 55.3439 28.0262 55.8641L24.8078 51.2839C25.0006 50.8752 25.1094 50.4187 25.1094 49.9375V34.4688C25.1094 33.8903 24.9528 33.3481 24.6804 32.8812L27.4533 28.9355C28.2053 30.579 28.625 32.4055 28.625 34.3281V54.0156ZM28.625 26.6344C25.9888 22.1943 21.145 19.2109 15.6172 19.2109C10.0894 19.2109 5.24554 22.1943 2.60938 26.6344V17.869C8.4931 17.2394 13.1535 12.579 13.7836 6.69531H17.8721C18.1715 9.4743 19.3811 12.0731 21.3422 14.1006C23.3038 16.1293 25.8608 17.4251 28.625 17.8162V26.6344ZM20.015 6.81946C24.4892 7.52094 28.0048 11.1431 28.5492 15.6667C24.1376 14.8691 20.6566 11.2601 20.015 6.81946Z" fill="#191919"/>
    <path d="M60.1953 4.58594H54.5703C47.7857 4.58594 42.2656 10.106 42.2656 16.8906V63.2969C42.2656 66.205 44.631 68.5703 47.5391 68.5703H67.2266C70.1346 68.5703 72.5 66.205 72.5 63.2969V16.8906C72.5 10.106 66.9799 4.58594 60.1953 4.58594ZM70.3148 15.6667C65.9033 14.8691 62.4222 11.2601 61.7806 6.81946C66.2548 7.52094 69.7705 11.1431 70.3148 15.6667ZM53.4173 6.76233C52.7856 11.4249 49.1046 15.1059 44.442 15.7376C44.9738 11.0355 48.7151 7.29407 53.4173 6.76233ZM44.375 34.3281C44.375 32.4055 44.7947 30.579 45.5467 28.9355L48.3196 32.8812C48.0472 33.3481 47.8906 33.8903 47.8906 34.4688V49.9375C47.8906 50.4187 47.9994 50.8752 48.1922 51.2839L44.9738 55.8646C44.5975 55.3439 44.375 54.7056 44.375 54.0156V34.3281ZM51.0547 53.1016H63.7109C64.1932 53.1016 64.6503 52.9928 65.0595 52.7989L68.0593 57.0676C67.794 57.1401 67.515 57.1797 67.2266 57.1797H47.5391C47.2507 57.1797 46.9716 57.1401 46.7063 57.0676L49.7061 52.7989C50.1154 52.9928 50.5724 53.1016 51.0547 53.1016ZM50 49.9375V34.4688C50 33.887 50.473 33.4141 51.0547 33.4141H63.7109C64.2927 33.4141 64.7656 33.887 64.7656 34.4688V49.9375C64.7656 50.5192 64.2927 50.9922 63.7109 50.9922H51.0547C50.473 50.9922 50 50.5192 50 49.9375ZM64.8315 31.5101C64.4827 31.3777 64.1053 31.3047 63.7109 31.3047H51.0547C50.6603 31.3047 50.2829 31.3777 49.9341 31.5101L46.703 26.9118C49.0546 23.5346 52.9647 21.3203 57.3828 21.3203C61.801 21.3203 65.711 23.5346 68.0626 26.9118L64.8315 31.5101ZM70.3906 63.2969C70.3906 65.0415 68.9712 66.4609 67.2266 66.4609H47.5391C45.7944 66.4609 44.375 65.0415 44.375 63.2969V58.2316C45.2572 58.8952 46.3525 59.2891 47.5391 59.2891H67.2266C68.4131 59.2891 69.5084 58.8952 70.3906 58.2316V63.2969ZM70.3906 54.0156C70.3906 54.7056 70.1682 55.3439 69.7919 55.8641L66.5734 51.2839C66.7662 50.8752 66.875 50.4187 66.875 49.9375V34.4688C66.875 33.8903 66.7184 33.3481 66.446 32.8812L69.2189 28.9355C69.971 30.579 70.3906 32.4055 70.3906 34.3281V54.0156ZM70.3906 26.6344C67.7545 22.1943 62.9106 19.2109 57.3828 19.2109C51.855 19.2109 47.0112 22.1943 44.375 26.6344V17.869C50.2587 17.2394 54.9191 12.579 55.5492 6.69531H59.6378C59.9371 9.4743 61.1467 12.0731 63.1078 14.1006C65.0694 16.1293 67.6265 17.4251 70.3906 17.8162V26.6344Z" fill="#191919"/>
    <path d="M35.5156 70.0469H37.625V72.1562H35.5156V70.0469Z" fill="#191919"/>
    <path d="M35.5156 4.375H37.625V67.9375H35.5156V4.375Z" fill="#191919"/>
    <path d="M35.5156 0.15625H37.625V2.26562H35.5156V0.15625Z" fill="#191919"/>
    <path d="M4.64844 62.2422H6.75781V64.3516H4.64844V62.2422Z" fill="#191919"/>
    <path d="M24.4766 62.2422H26.5859V64.3516H24.4766V62.2422Z" fill="#191919"/>
    <path d="M46.6953 62.2422H48.8047V64.3516H46.6953V62.2422Z" fill="#191919"/>
    <path d="M66.5234 62.2422H68.6328V64.3516H66.5234V62.2422Z" fill="#191919"/>
  </g>
  <defs>
    <clipPath id="clip0_2829_13587">
      <rect width="72" height="72" fill="white" transform="translate(0.5 0.15625)"/>
    </clipPath>
  </defs>
</svg>