<svg width="50" height="58" viewBox="0 0 50 58" fill="none" xmlns="http://www.w3.org/2000/svg">
<path d="M24.8743 58.0215L24.0188 57.6421C23.0667 57.224 0.833332 47.1827 0.833332 28.9997V13.2334C0.83418 11.7161 1.31373 10.2378 2.20368 9.009C3.09363 7.78016 4.34862 6.86345 5.78992 6.3894L25 0.0214844L44.2101 6.3894C45.6514 6.86345 46.9064 7.78016 47.7963 9.009C48.6863 10.2378 49.1658 11.7161 49.1667 13.2334V28.9997C49.1667 49.7275 26.7207 57.4076 25.7637 57.7267L24.8743 58.0215ZM25 5.08923L7.31967 10.9521C6.83862 11.1092 6.41963 11.4145 6.1227 11.8243C5.82577 12.2341 5.66614 12.7273 5.66667 13.2334V28.9997C5.66667 42.2769 21.23 50.8899 25.1136 52.8305C28.9899 51.2717 44.3333 44.1353 44.3333 28.9997V13.2334C44.3339 12.7273 44.1742 12.2341 43.8773 11.8243C43.5804 11.4145 43.1614 11.1092 42.6803 10.9521L25 5.08923Z" fill="#000000"/>
</svg>
