<svg width="58" height="54" viewBox="0 0 58 54" fill="none" xmlns="http://www.w3.org/2000/svg">
<path d="M45.9167 10.0827H38.6667V7.66602C38.6667 5.7432 37.9028 3.89913 36.5432 2.53949C35.1836 1.17985 33.3395 0.416016 31.4167 0.416016H26.5833C24.6605 0.416016 22.8164 1.17985 21.4568 2.53949C20.0972 3.89913 19.3333 5.7432 19.3333 7.66602V10.0827H12.0833C8.87981 10.0865 5.8086 11.3608 3.54336 13.626C1.27813 15.8913 0.00383732 18.9625 0 22.166L0 41.4994C0.00383732 44.7029 1.27813 47.7741 3.54336 50.0393C5.8086 52.3046 8.87981 53.5788 12.0833 53.5827H45.9167C49.1202 53.5788 52.1914 52.3046 54.4566 50.0393C56.7219 47.7741 57.9962 44.7029 58 41.4994V22.166C57.9962 18.9625 56.7219 15.8913 54.4566 13.626C52.1914 11.3608 49.1202 10.0865 45.9167 10.0827ZM24.1667 7.66602C24.1667 7.02508 24.4213 6.41039 24.8745 5.95717C25.3277 5.50396 25.9424 5.24935 26.5833 5.24935H31.4167C32.0576 5.24935 32.6723 5.50396 33.1255 5.95717C33.5787 6.41039 33.8333 7.02508 33.8333 7.66602V10.0827H24.1667V7.66602ZM53.1667 41.4994C53.1667 43.4222 52.4028 45.2662 51.0432 46.6259C49.6836 47.9855 47.8395 48.7494 45.9167 48.7494H12.0833C10.1605 48.7494 8.31645 47.9855 6.95681 46.6259C5.59717 45.2662 4.83333 43.4222 4.83333 41.4994V22.166C4.83333 20.2432 5.59717 18.3991 6.95681 17.0395C8.31645 15.6799 10.1605 14.916 12.0833 14.916H45.9167C47.8395 14.916 49.6836 15.6799 51.0432 17.0395C52.4028 18.3991 53.1667 20.2432 53.1667 22.166V41.4994ZM38.6667 31.8327C38.6667 32.4736 38.4121 33.0883 37.9588 33.5415C37.5056 33.9947 36.8909 34.2494 36.25 34.2494H31.4167V39.0827C31.4167 39.7236 31.1621 40.3383 30.7088 40.7915C30.2556 41.2447 29.6409 41.4994 29 41.4994C28.3591 41.4994 27.7444 41.2447 27.2912 40.7915C26.8379 40.3383 26.5833 39.7236 26.5833 39.0827V34.2494H21.75C21.1091 34.2494 20.4944 33.9947 20.0412 33.5415C19.5879 33.0883 19.3333 32.4736 19.3333 31.8327C19.3333 31.1917 19.5879 30.5771 20.0412 30.1238C20.4944 29.6706 21.1091 29.416 21.75 29.416H26.5833V24.5827C26.5833 23.9417 26.8379 23.3271 27.2912 22.8738C27.7444 22.4206 28.3591 22.166 29 22.166C29.6409 22.166 30.2556 22.4206 30.7088 22.8738C31.1621 23.3271 31.4167 23.9417 31.4167 24.5827V29.416H36.25C36.8909 29.416 37.5056 29.6706 37.9588 30.1238C38.4121 30.5771 38.6667 31.1917 38.6667 31.8327Z" fill="#000000"/>
</svg>
