<svg width="58" height="56" viewBox="0 0 58 56" fill="none" xmlns="http://www.w3.org/2000/svg">
<path d="M26.5833 53.584C26.5833 53.106 26.7251 52.6387 26.9906 52.2413C27.2562 51.8439 27.6336 51.5342 28.0752 51.3512C28.5168 51.1683 29.0027 51.1205 29.4715 51.2137C29.9403 51.307 30.3709 51.5371 30.7088 51.8751C31.0468 52.2131 31.277 52.6437 31.3702 53.1125C31.4635 53.5813 31.4156 54.0672 31.2327 54.5088C31.0498 54.9504 30.74 55.3278 30.3426 55.5933C29.9452 55.8589 29.478 56.0006 29 56.0006C28.3591 56.0006 27.7444 55.746 27.2912 55.2928C26.8379 54.8396 26.5833 54.2249 26.5833 53.584ZM37.5429 48.4558C37.996 48.0026 38.2505 47.388 38.2505 46.7472C38.2505 46.1064 37.996 45.4918 37.5429 45.0386C35.277 42.7733 32.2041 41.5008 29 41.5008C25.7959 41.5008 22.723 42.7733 20.4571 45.0386C20.0169 45.4944 19.7733 46.1049 19.7788 46.7385C19.7843 47.3721 20.0385 47.9783 20.4865 48.4263C20.9346 48.8744 21.5407 49.1286 22.1744 49.1341C22.808 49.1396 23.4185 48.896 23.8742 48.4558C25.2558 47.1388 27.0913 46.4041 29 46.4041C30.9087 46.4041 32.7442 47.1388 34.1257 48.4558C34.5789 48.9088 35.1935 49.1633 35.8343 49.1633C36.4751 49.1633 37.0897 48.9088 37.5429 48.4558ZM44.3797 41.6214C44.8327 41.1683 45.0872 40.5537 45.0872 39.9129C45.0872 39.2721 44.8327 38.6575 44.3797 38.2043C40.2976 34.1312 34.7665 31.8438 29 31.8438C23.2335 31.8438 17.7024 34.1312 13.6203 38.2043C13.1801 38.6601 12.9365 39.2705 12.942 39.9042C12.9475 40.5378 13.2017 41.1439 13.6498 41.592C14.0978 42.0401 14.704 42.2942 15.3376 42.2997C15.9713 42.3052 16.5817 42.0617 17.0375 41.6214C20.2135 38.4551 24.5153 36.677 29 36.677C33.4847 36.677 37.7865 38.4551 40.9625 41.6214C41.4157 42.0745 42.0303 42.329 42.6711 42.329C43.3119 42.329 43.9265 42.0745 44.3797 41.6214ZM14.4686 51.5564C14.5197 51.2431 14.5086 50.9229 14.4359 50.6139C14.3633 50.305 14.2305 50.0134 14.0451 49.7558C13.8598 49.4981 13.6255 49.2795 13.3556 49.1125C13.0858 48.9454 12.7857 48.8331 12.4724 48.782C10.6463 48.4932 8.94942 47.6613 7.60283 46.3944C6.25624 45.1276 5.32234 43.4846 4.92275 41.6794C4.66271 39.9534 4.94732 38.1891 5.73696 36.6324C6.5266 35.0756 7.78198 33.8038 9.32833 32.9939C10.4415 32.3831 11.2696 31.3588 11.6336 30.1423C11.9977 28.9259 11.8684 27.615 11.2737 26.4931C10.3341 24.7035 9.77892 22.7372 9.64396 20.7203C9.50901 18.7035 9.79722 16.6808 10.4901 14.7819C11.183 12.883 12.2652 11.15 13.6673 9.69405C15.0695 8.23809 16.7605 7.09138 18.632 6.32751C20.5034 5.56363 22.5139 5.19948 24.5344 5.25841C26.5548 5.31734 28.5407 5.79806 30.3644 6.66971C32.1881 7.54137 33.8095 8.78469 35.1244 10.3199C36.4393 11.8551 37.4186 13.6483 37.9997 15.5843C38.3573 16.7508 38.9945 17.8124 39.8558 18.6766C40.7171 19.5408 41.7764 20.1816 42.9417 20.5433C46.0988 21.5044 48.8312 23.5184 50.6834 26.2497C52.5356 28.981 53.3959 32.2646 53.1208 35.5532C52.9047 38.0228 52.0247 40.388 50.5739 42.3982C49.1231 44.4084 47.1557 45.9888 44.8799 46.972C44.3164 47.2561 43.8863 47.7494 43.6817 48.3464C43.4771 48.9435 43.5142 49.5969 43.785 50.1669C44.0558 50.737 44.5389 51.1785 45.131 51.397C45.7231 51.6156 46.3772 51.5938 46.9534 51.3364C50.0052 49.999 52.6381 47.8604 54.5728 45.1476C56.5074 42.4347 57.6717 39.2488 57.942 35.9278C58.307 31.5432 57.1579 27.166 54.6864 23.526C52.2149 19.886 48.5703 17.2033 44.3603 15.925C43.9458 15.7962 43.5695 15.5668 43.265 15.2573C42.9606 14.9478 42.7375 14.5678 42.6155 14.1512C41.3361 10.0431 38.7229 6.4791 35.1896 4.02365C31.6563 1.56819 27.4048 0.361574 23.1084 0.594854C18.812 0.828135 14.7162 2.48798 11.4695 5.31157C8.22279 8.13515 6.0108 11.9611 5.18375 16.1836C4.33891 20.456 5.00346 24.8892 7.06392 28.7261C4.63519 29.996 2.66284 31.9916 1.42142 34.435C0.179997 36.8785 -0.268713 39.6481 0.137749 42.3585C0.689918 45.1815 2.09347 47.7676 4.15957 49.7688C6.22566 51.7701 8.85515 53.0906 11.6943 53.5525C12.0075 53.6036 12.3277 53.5926 12.6367 53.5199C12.9456 53.4472 13.2372 53.3144 13.4949 53.1291C13.7525 52.9437 13.9711 52.7094 14.1381 52.4396C14.3052 52.1697 14.4175 51.8696 14.4686 51.5564Z" fill="#000000"/>
</svg>
