<svg width="58" height="58" viewBox="0 0 58 58" fill="none" xmlns="http://www.w3.org/2000/svg">
<path d="M55.6969 41.5587L45.2618 51.0683C40.3535 55.5391 33.9953 57.9993 27.3591 57.9993H2.41667C1.08025 57.9993 0 56.919 0 55.5826C0 54.2462 1.08025 53.1659 2.41667 53.1659H27.3567C32.7869 53.1659 37.9876 51.1528 42.0041 47.494L52.3571 38.0642C53.1957 37.2232 53.3962 35.7828 52.7341 34.8645C52.2991 34.2628 51.6659 33.9003 50.9458 33.8398C50.2425 33.7939 49.5441 34.038 49.0414 34.5407L38.8092 43.9318C37.5091 45.1595 35.7594 45.9159 33.8333 45.9159H21.75C20.4136 45.9159 19.3333 44.8357 19.3333 43.4993C19.3333 42.1628 20.4136 41.0826 21.75 41.0826H33.8333C34.4423 41.0826 36.25 40.8047 36.25 38.6659C36.25 37.3319 35.1673 36.2493 33.8333 36.2493H21.9627C16.1554 36.2493 10.6913 38.5137 6.583 42.6196L4.17117 45.1643C3.69508 45.6646 3.05708 45.9183 2.41667 45.9183C1.81975 45.9183 1.22042 45.6984 0.754 45.2562C-0.212667 44.3354 -0.25375 42.8057 0.664583 41.839L3.12233 39.2508C8.19008 34.1854 14.8649 31.4208 21.9651 31.4208H33.8358C36.8228 31.4208 39.3941 33.2381 40.5033 35.8239L45.7016 31.0534C47.1298 29.6203 49.2203 28.8422 51.3348 29.0258C53.4615 29.195 55.4021 30.2946 56.6588 32.0418C58.6984 34.879 58.2852 38.968 55.6993 41.5611L55.6969 41.5587ZM9.68117 5.22409C9.57967 3.82001 10.0968 2.43767 11.1022 1.43476C12.1051 0.429423 13.4874 -0.0974104 14.8939 0.0137562C21.8467 0.50434 26.4577 2.90167 29 7.53442C31.5448 2.90167 36.1533 0.50434 43.1085 0.0137562C44.5368 -0.102244 45.8973 0.429423 46.8978 1.43476C47.9032 2.43767 48.4203 3.82001 48.3188 5.22651C47.5672 15.8913 42.3255 21.0436 31.4167 21.6792V24.1635C31.4167 25.4999 30.3364 26.5802 29 26.5802C27.6636 26.5802 26.5833 25.4999 26.5833 24.1635V21.6792C15.6745 21.0412 10.4328 15.8913 9.68117 5.22409ZM31.494 16.8386C39.6164 16.2973 42.9345 12.8825 43.5 4.88576C35.4549 5.40292 32.0353 8.71617 31.494 16.8386ZM14.5508 4.83259C15.0679 12.8777 18.3812 16.2973 26.5036 16.8386C25.9623 8.71617 22.5475 5.39809 14.5508 4.83259Z" fill="#000000"/>
</svg>
