<svg width="58" height="50" viewBox="0 0 58 50" fill="none" xmlns="http://www.w3.org/2000/svg">
<path d="M50.75 0.833984H7.25C3.25283 0.833984 0 4.08682 0 8.08398V49.1673H4.83333V41.9173H53.1667V49.1673H58V8.08398C58 4.08682 54.7472 0.833984 50.75 0.833984ZM7.25 5.66732H50.75C52.084 5.66732 53.1667 6.7524 53.1667 8.08398V27.4173H48.3333V25.0007C48.3333 21.0035 45.0805 17.7507 41.0833 17.7507H33.8333C31.9773 17.7507 30.2833 18.4515 29 19.6018C27.7168 18.4515 26.0227 17.7507 24.1667 17.7507H16.9167C12.9195 17.7507 9.66667 21.0035 9.66667 25.0007V27.4173H4.83333V8.08398C4.83333 6.7524 5.91842 5.66732 7.25 5.66732ZM26.5833 27.4173H14.5V25.0007C14.5 23.6691 15.5851 22.584 16.9167 22.584H24.1667C25.4983 22.584 26.5833 23.6691 26.5833 25.0007V27.4173ZM31.4167 25.0007C31.4167 23.6691 32.4993 22.584 33.8333 22.584H41.0833C42.4173 22.584 43.5 23.6691 43.5 25.0007V27.4173H31.4167V25.0007ZM4.83333 37.084V32.2507H53.1667V37.084H4.83333Z" fill="#000000"/>
</svg>
