<svg xmlns="http://www.w3.org/2000/svg" width="36" height="37" viewBox="0 0 36 37" fill="none">
  <g clip-path="url(#clip0_2832_13822)">
    <path d="M35.7677 23.152C35.527 22.9886 35.1987 23.0517 35.0344 23.2919C34.9902 23.3566 33.9279 24.8774 31.977 24.8774C30.026 24.8774 28.9637 23.3566 28.9205 23.2936C28.7262 22.9857 28.2374 22.9861 28.0433 23.2941C28.0326 23.3099 26.9582 24.8775 24.9898 24.8775C23.3399 24.8775 22.3257 23.79 22.0258 23.4162V15.2285H35.4717C35.7636 15.2285 36.0001 14.992 36.0001 14.7001C36.0001 14.4082 35.7636 14.1717 35.4717 14.1717H31.2226V10.3207C31.2226 6.82701 28.414 3.95755 24.9618 3.92416C23.2634 3.90707 21.6618 4.5583 20.4525 5.75594C19.867 6.3358 19.4101 7.00926 19.0932 7.74184C18.1165 5.51765 15.92 3.94884 13.3728 3.92416C13.3518 3.92395 13.3309 3.92387 13.3099 3.92387C11.6347 3.92387 10.0577 4.57307 8.86334 5.75594C7.65383 6.95385 6.98762 8.54875 6.98762 10.2468V14.1718H0.568509C0.276642 14.1718 0.0401105 14.4083 0.0401105 14.7002C0.0401105 14.992 0.276642 15.2286 0.568509 15.2286H6.98762V17.3152C6.98762 17.607 7.22415 17.8436 7.51602 17.8436C7.80788 17.8436 8.04441 17.607 8.04441 17.3152V10.2468C8.04441 8.83288 8.59932 7.50468 9.60704 6.50673C10.6144 5.50914 11.947 4.96408 13.3626 4.98088C16.2376 5.00866 18.5767 7.40413 18.5767 10.3207V14.1717H17.2411V10.2468C17.2411 8.11633 15.5085 6.35331 13.3789 6.31682C13.3564 6.31647 13.3342 6.31626 13.3117 6.31626C12.2919 6.31626 11.3256 6.71514 10.5844 7.44379C9.81896 8.1962 9.38 9.23985 9.38 10.3071V24.4886C8.67561 24.1349 8.22413 23.6354 8.04434 23.4101V19.4286C8.04434 19.1368 7.80781 18.9002 7.51595 18.9002C7.22408 18.9002 6.98755 19.1368 6.98755 19.4286V23.4155C6.68661 23.7907 5.67256 24.8774 4.02331 24.8774C2.07235 24.8774 1.01007 23.3566 0.9669 23.2936C0.804056 23.0515 0.475767 22.9872 0.23361 23.15C-0.00854579 23.3128 -0.0728817 23.641 0.089962 23.8833C0.146212 23.967 1.4979 25.9342 4.02324 25.9342C5.74977 25.9342 6.92764 25.0148 7.51806 24.4063C8.10847 25.0148 9.28642 25.9342 11.0129 25.9342C12.739 25.9342 13.9155 25.0153 14.5054 24.4066C15.096 25.0152 16.2738 25.9342 17.9999 25.9342C19.7264 25.9342 20.9043 25.0148 21.4947 24.4063C22.0851 25.0148 23.2631 25.9342 24.9895 25.9342C26.7156 25.9342 27.8922 25.0153 28.4821 24.4066C29.0726 25.0152 30.2504 25.9342 31.9765 25.9342C34.502 25.9342 35.8536 23.967 35.9098 23.8833C36.0725 23.6417 36.0085 23.3153 35.7677 23.152ZM10.4368 18.9003H18.5767V20.3797H10.4368V18.9003ZM18.5767 17.8435H10.4368V15.2285H18.5767V17.8435ZM11.3253 8.19747C11.879 7.65311 12.6017 7.36054 13.3607 7.37348C14.9177 7.40019 16.1844 8.68916 16.1844 10.2469V14.1719H10.4369V10.3072C10.4368 9.52138 10.7607 8.75244 11.3253 8.19747ZM14.9438 23.2936C14.7496 22.9874 14.2632 22.9872 14.0677 23.2924C14.0235 23.3571 12.9636 24.8774 11.0131 24.8774C10.8112 24.8774 10.6195 24.8604 10.4368 24.8312V21.4364H18.5767V24.8311C18.394 24.8603 18.2021 24.8774 18.0001 24.8774C16.0492 24.8774 14.9869 23.3566 14.9438 23.2936ZM19.6335 24.4884V10.2468C19.6335 8.83288 20.1884 7.50468 21.1961 6.50673C22.2035 5.50914 23.5362 4.96408 24.9516 4.98088C27.8267 5.00866 30.1658 7.40413 30.1658 10.3207V14.1717H28.8302V12.9971C28.8302 12.7053 28.5937 12.4687 28.3018 12.4687C28.0099 12.4687 27.7734 12.7053 27.7734 12.9971V14.1717H22.0258V10.3071C22.0258 9.52131 22.3496 8.75237 22.9142 8.19733C23.468 7.65297 24.1894 7.3604 24.9497 7.37334C26.5067 7.40005 27.7734 8.68902 27.7734 10.2467V10.8836C27.7734 11.1755 28.0099 11.412 28.3018 11.412C28.5937 11.412 28.8302 11.1755 28.8302 10.8836V10.2467C28.8302 8.11626 27.0976 6.35324 24.9679 6.31675C24.9454 6.3164 24.9232 6.31619 24.9008 6.31619C23.881 6.31619 22.9147 6.71507 22.1734 7.44372C21.4081 8.19613 20.969 9.23978 20.969 10.3071V23.4094C20.7888 23.6356 20.3373 24.1349 19.6335 24.4884Z" fill="#4B4B4B"/>
    <path d="M14.5081 31.332C12.5572 31.332 11.4949 29.8112 11.4517 29.7482C11.2577 29.4421 10.7716 29.4419 10.5759 29.7465C10.5317 29.8113 9.46932 31.3321 7.51843 31.3321C5.56754 31.3321 4.50519 29.8113 4.46202 29.7483C4.29917 29.5061 3.97088 29.4418 3.72873 29.6046C3.48657 29.7674 3.42224 30.0957 3.58508 30.3378C3.64133 30.4216 4.99295 32.3888 7.51836 32.3888C9.24488 32.3888 10.4228 31.4694 11.0132 30.8609C11.6036 31.4694 12.7815 32.3888 14.5081 32.3888C14.7999 32.3888 15.0365 32.1523 15.0365 31.8604C15.0365 31.5685 14.8 31.332 14.5081 31.332Z" fill="#4B4B4B"/>
    <path d="M32.2723 29.6061C32.0313 29.4431 31.7032 29.5065 31.5391 29.7468C31.495 29.8115 30.4352 31.3319 28.4845 31.3319C26.5336 31.3319 25.4713 29.8111 25.4281 29.7481C25.2339 29.4404 24.7454 29.4405 24.5512 29.7481C24.5405 29.7639 23.4635 31.3319 21.4948 31.3319C19.5438 31.3319 18.4815 29.8111 18.4384 29.7481C18.2442 29.4419 17.7578 29.4417 17.5623 29.7468C17.5581 29.7529 17.1317 30.3698 16.3451 30.8289C16.0931 30.976 16.008 31.2996 16.1552 31.5516C16.3023 31.8035 16.6258 31.8885 16.8779 31.7416C17.3633 31.4582 17.7386 31.1289 17.9995 30.8603C18.5898 31.4688 19.7678 32.3887 21.4948 32.3887C23.2213 32.3887 24.3992 31.4693 24.9896 30.8608C25.58 31.4693 26.758 32.3887 28.4844 32.3887C31.0102 32.3887 32.3593 30.4211 32.4154 30.3373C32.5777 30.0955 32.5133 29.7692 32.2723 29.6061Z" fill="#4B4B4B"/>
  </g>
  <defs>
    <clipPath id="clip0_2832_13822">
      <rect width="36" height="36" fill="white" transform="translate(0 0.15625)"/>
    </clipPath>
  </defs>
</svg>