<svg width="58" height="58" viewBox="0 0 58 58" fill="none" xmlns="http://www.w3.org/2000/svg">
<path d="M55.8758 17.2112L50.0419 11.3749L54.8753 6.54158L51.4581 3.12441L46.6247 7.95774L40.7909 2.12391C40.1177 1.45056 39.3184 0.916414 38.4387 0.551991C37.559 0.187567 36.6161 0 35.664 0C34.7118 0 33.7689 0.187567 32.8892 0.551991C32.0095 0.916414 31.2102 1.45056 30.537 2.12391L23.7027 8.95824L34.6622 19.9202L19.9206 34.6619L8.95858 23.7023L2.12425 30.5367C0.765084 31.8962 0.00154781 33.74 0.00154781 35.6624C0.00154781 37.5849 0.765084 39.4286 2.12425 40.7882L7.95808 46.6244L3.12475 51.4577L6.54192 54.8749L11.3752 50.0416L17.2091 55.8754C17.8823 56.5488 18.6816 57.0829 19.5613 57.4473C20.441 57.8118 21.3839 57.9993 22.336 57.9993C23.2882 57.9993 24.2311 57.8118 25.1108 57.4473C25.9905 57.0829 26.7898 56.5488 27.463 55.8754L34.2973 49.0411L23.3377 38.0791L38.0794 23.3374L49.039 34.297L55.8733 27.4627C57.2325 26.1031 57.996 24.2593 57.996 22.3369C57.996 20.4145 57.2325 18.5707 55.8733 17.2112H55.8758ZM24.0458 52.4582C23.8214 52.6829 23.5549 52.8612 23.2615 52.9828C22.9681 53.1044 22.6536 53.167 22.336 53.167C22.0185 53.167 21.704 53.1044 21.4106 52.9828C21.1172 52.8612 20.8507 52.6829 20.6263 52.4582L5.54142 37.371C5.08836 36.9178 4.83385 36.3032 4.83385 35.6624C4.83385 35.0216 5.08836 34.407 5.54142 33.9538L8.95858 30.5367L27.463 49.0411L24.0458 52.4582ZM52.4586 24.0431L49.0414 27.4627L30.537 8.95824L33.9542 5.54108C34.1786 5.31638 34.4451 5.13813 34.7385 5.01652C35.0319 4.8949 35.3464 4.8323 35.664 4.8323C35.9815 4.8323 36.296 4.8949 36.5894 5.01652C36.8828 5.13813 37.1493 5.31638 37.3738 5.54108L52.4586 20.6283C52.9109 21.0814 53.1649 21.6955 53.1649 22.3357C53.1649 22.9759 52.9109 23.59 52.4586 24.0431Z" fill="#000000"/>
</svg>
