<svg width="58" height="54" viewBox="0 0 58 54" fill="none" xmlns="http://www.w3.org/2000/svg">
<path d="M58 31.8327C57.9942 26.7069 55.9555 21.7928 52.331 18.1683C48.7066 14.5439 43.7924 12.5051 38.6667 12.4993V7.66602H55.5833C56.2243 7.66602 56.839 7.4114 57.2922 6.95819C57.7454 6.50498 58 5.89029 58 5.24935C58 4.60841 57.7454 3.99372 57.2922 3.54051C56.839 3.08729 56.2243 2.83268 55.5833 2.83268H38.6667C38.6667 2.19174 38.4121 1.57705 37.9588 1.12384C37.5056 0.670628 36.8909 0.416016 36.25 0.416016C35.6091 0.416016 34.9944 0.670628 34.5412 1.12384C34.0879 1.57705 33.8333 2.19174 33.8333 2.83268H16.9167C16.2757 2.83268 15.661 3.08729 15.2078 3.54051C14.7546 3.99372 14.5 4.60841 14.5 5.24935C14.5 5.89029 14.7546 6.50498 15.2078 6.95819C15.661 7.4114 16.2757 7.66602 16.9167 7.66602H33.8333V12.4993H4.83333V10.0827C4.83333 9.44174 4.57872 8.82705 4.12551 8.37384C3.6723 7.92063 3.05761 7.66602 2.41667 7.66602C1.77573 7.66602 1.16104 7.92063 0.707825 8.37384C0.254612 8.82705 0 9.44174 0 10.0827C0 10.0827 0.029 15.351 0.0845833 15.554C0.338042 17.4178 1.12724 19.1679 2.35634 20.5918C3.58543 22.0157 5.20152 23.052 7.00833 23.5749L16.9167 26.4049V29.416C16.9201 32.4138 17.8511 35.337 19.5818 37.7847C21.3125 40.2323 23.7582 42.0845 26.5833 43.0871V48.7494H16.9167C16.2757 48.7494 15.661 49.004 15.2078 49.4572C14.7546 49.9104 14.5 50.5251 14.5 51.166C14.5 51.807 14.7546 52.4216 15.2078 52.8749C15.661 53.3281 16.2757 53.5827 16.9167 53.5827H50.75C52.6728 53.5827 54.5169 52.8188 55.8765 51.4592C57.2362 50.0996 58 48.2555 58 46.3327C58 45.6917 57.7454 45.0771 57.2922 44.6238C56.839 44.1706 56.2243 43.916 55.5833 43.916C54.9424 43.916 54.3277 44.1706 53.8745 44.6238C53.4213 45.0771 53.1667 45.6917 53.1667 46.3327C53.1667 46.9736 52.9121 47.5883 52.4588 48.0415C52.0056 48.4947 51.3909 48.7494 50.75 48.7494H45.9167V43.916C49.1202 43.9122 52.1914 42.6379 54.4566 40.3727C56.7219 38.1074 57.9962 35.0362 58 31.8327ZM52.9637 29.416H41.0833C40.4424 29.416 39.8277 29.1614 39.3745 28.7082C38.9213 28.255 38.6667 27.6403 38.6667 26.9993V17.3327C42.0921 17.3371 45.4057 18.5522 48.0219 20.7633C50.6381 22.9744 52.3885 26.0392 52.9637 29.416ZM21.75 29.416V24.5827C21.7498 24.0578 21.5787 23.5473 21.2626 23.1283C20.9465 22.7093 20.5025 22.4046 19.9979 22.2603L8.3375 18.9277C7.38788 18.6555 6.54446 18.0988 5.92083 17.3327H33.8333V26.9993C33.8333 28.9222 34.5972 30.7662 35.9568 32.1259C37.3164 33.4855 39.1605 34.2494 41.0833 34.2494H52.751C52.2513 35.6627 51.3258 36.8864 50.1018 37.752C48.8779 38.6176 47.4158 39.0825 45.9167 39.0827H31.4167C28.8529 39.0827 26.3942 38.0642 24.5813 36.2514C22.7684 34.4385 21.75 31.9798 21.75 29.416ZM41.0833 48.7494H31.4167V43.916H41.0833V48.7494Z" fill="#000000"/>
</svg>
