<svg width="44" height="58" viewBox="0 0 44 58" fill="none" xmlns="http://www.w3.org/2000/svg">
<path d="M36.4855 5.52427C33.5357 2.889 29.9232 1.10801 26.0366 0.37298C22.1501 -0.362055 18.1366 -0.0233085 14.4282 1.35276C10.7199 2.72884 7.45693 5.09013 4.9906 8.18254C2.52429 11.2749 0.947953 14.9814 0.43125 18.9029C-0.0327995 22.3415 0.338332 25.8412 1.51324 29.106C2.68814 32.3707 4.63224 35.3044 7.181 37.6587C8.75715 39.0409 10.029 40.7354 10.9159 42.6349C11.8028 44.5344 12.2855 46.5974 12.3333 48.6932V49.0823C12.3359 51.4465 13.2762 53.7133 14.948 55.3851C16.6198 57.0569 18.8865 57.9972 21.2508 57.9998H22.7492C25.1135 57.9972 27.3802 57.0569 29.052 55.3851C30.7238 53.7133 31.6641 51.4465 31.6667 49.0823V47.7555C31.7028 45.903 32.1388 44.0803 32.9446 42.4119C33.7504 40.7435 34.9072 39.2688 36.3357 38.0889C38.6523 36.0599 40.5113 33.5619 41.7895 30.7603C43.0678 27.9586 43.7362 24.9173 43.7504 21.8379C43.7645 18.7585 43.1242 15.7112 41.8717 12.8979C40.6193 10.0846 38.7833 7.56959 36.4855 5.51944V5.52427ZM22.7492 53.1664H21.2508C20.168 53.1652 19.13 52.7344 18.3643 51.9688C17.5987 51.2031 17.1679 50.1651 17.1667 49.0823C17.1667 49.0823 17.1497 48.4539 17.1473 48.3331H26.8333V49.0823C26.8321 50.1651 26.4014 51.2031 25.6357 51.9688C24.87 52.7344 23.832 53.1652 22.7492 53.1664ZM33.1408 34.459C30.3893 36.8456 28.4022 39.9902 27.4278 43.4998H24.4167V26.1384C25.8254 25.6404 27.0458 24.7193 27.911 23.5011C28.7761 22.283 29.2438 20.8272 29.25 19.3331C29.25 18.6922 28.9954 18.0775 28.5422 17.6243C28.089 17.171 27.4743 16.9164 26.8333 16.9164C26.1924 16.9164 25.5777 17.171 25.1245 17.6243C24.6713 18.0775 24.4167 18.6922 24.4167 19.3331C24.4167 19.974 24.1621 20.5887 23.7088 21.0419C23.2556 21.4952 22.6409 21.7498 22 21.7498C21.3591 21.7498 20.7444 21.4952 20.2912 21.0419C19.8379 20.5887 19.5833 19.974 19.5833 19.3331C19.5833 18.6922 19.3287 18.0775 18.8755 17.6243C18.4223 17.171 17.8076 16.9164 17.1667 16.9164C16.5257 16.9164 15.911 17.171 15.4578 17.6243C15.0046 18.0775 14.75 18.6922 14.75 19.3331C14.7562 20.8272 15.2239 22.283 16.089 23.5011C16.9542 24.7193 18.1746 25.6404 19.5833 26.1384V43.4998H16.3885C15.2986 39.897 13.2544 36.6562 10.4725 34.1207C8.11131 31.9205 6.42875 29.0909 5.62338 25.9656C4.81802 22.8403 4.92346 19.5499 5.92726 16.4826C6.93106 13.4153 8.79132 10.6992 11.2885 8.65473C13.7857 6.61027 16.8157 5.3228 20.0208 4.94427C20.6852 4.8701 21.3532 4.83299 22.0217 4.8331C26.1725 4.82076 30.1796 6.35228 33.2641 9.12994C35.0517 10.724 36.48 12.6797 37.4545 14.8676C38.4289 17.0555 38.9271 19.4256 38.9162 21.8206C38.9052 24.2157 38.3853 26.581 37.3908 28.7599C36.3964 30.9388 34.9502 32.8814 33.1481 34.459H33.1408Z" fill="#000000"/>
</svg>
