<svg width="24" height="24" viewBox="0 0 24 24" fill="none" xmlns="http://www.w3.org/2000/svg">
<path fill-rule="evenodd" clip-rule="evenodd" d="M4.23926 10.3905C4.25367 6.14992 7.70302 2.72392 11.9436 2.73833C16.1842 2.75274 19.6102 6.20209 19.5958 10.4427V10.5296C19.5436 13.2861 18.0044 15.834 16.1175 17.8253C15.0383 18.9459 13.8332 19.938 12.5262 20.7818C12.1767 21.0841 11.6583 21.0841 11.3088 20.7818C9.36033 19.5135 7.6502 17.9123 6.25665 16.0514C5.01461 14.4286 4.30943 12.4589 4.23926 10.4166V10.3905Z" stroke="black" stroke-width="1.5" stroke-linecap="round" stroke-linejoin="round"/>
<path d="M11.9174 12.9999C13.2765 12.9999 14.3783 11.8981 14.3783 10.539C14.3783 9.17989 13.2765 8.07812 11.9174 8.07812C10.5583 8.07812 9.45654 9.17989 9.45654 10.539C9.45654 11.8981 10.5583 12.9999 11.9174 12.9999Z" stroke="black" stroke-width="1.5" stroke-linecap="round" stroke-linejoin="round"/>
</svg>
