<svg xmlns="http://www.w3.org/2000/svg" width="16" height="16" viewBox="0 0 16 16" fill="none">
<path d="M12.1273 11.8335H5.02731C4.36731 11.8335 3.73398 11.5535 3.28731 11.0668C2.84065 10.5802 2.61398 9.92683 2.66732 9.26683L3.22065 2.62683C3.24065 2.42016 3.16731 2.22017 3.02731 2.06683C2.88731 1.9135 2.69398 1.8335 2.48731 1.8335H1.33398C1.06065 1.8335 0.833984 1.60683 0.833984 1.3335C0.833984 1.06016 1.06065 0.833496 1.33398 0.833496H2.49399C2.98065 0.833496 3.44065 1.04016 3.76731 1.39349C3.94731 1.59349 4.08065 1.82683 4.15398 2.08683H12.4807C13.154 2.08683 13.774 2.3535 14.2273 2.8335C14.674 3.32016 14.9007 3.9535 14.8473 4.62683L14.4873 9.62683C14.414 10.8468 13.3473 11.8335 12.1273 11.8335ZM4.18732 3.08016L3.66732 9.34682C3.63398 9.73349 3.76065 10.1002 4.02065 10.3868C4.28065 10.6735 4.64065 10.8268 5.02731 10.8268H12.1273C12.8207 10.8268 13.4473 10.2402 13.5007 9.54683L13.8606 4.54683C13.8873 4.1535 13.7607 3.78017 13.5007 3.50684C13.2407 3.22684 12.8806 3.07349 12.4873 3.07349H4.18732V3.08016Z" fill="#000000"/>
<path d="M10.8333 15.1667C10.1 15.1667 9.5 14.5667 9.5 13.8333C9.5 13.1 10.1 12.5 10.8333 12.5C11.5667 12.5 12.1667 13.1 12.1667 13.8333C12.1667 14.5667 11.5667 15.1667 10.8333 15.1667ZM10.8333 13.5C10.6467 13.5 10.5 13.6467 10.5 13.8333C10.5 14.02 10.6467 14.1667 10.8333 14.1667C11.02 14.1667 11.1667 14.02 11.1667 13.8333C11.1667 13.6467 11.02 13.5 10.8333 13.5Z" fill="#000000"/>
<path d="M5.49935 15.1667C4.76602 15.1667 4.16602 14.5667 4.16602 13.8333C4.16602 13.1 4.76602 12.5 5.49935 12.5C6.23268 12.5 6.83268 13.1 6.83268 13.8333C6.83268 14.5667 6.23268 15.1667 5.49935 15.1667ZM5.49935 13.5C5.31268 13.5 5.16602 13.6467 5.16602 13.8333C5.16602 14.02 5.31268 14.1667 5.49935 14.1667C5.68602 14.1667 5.83268 14.02 5.83268 13.8333C5.83268 13.6467 5.68602 13.5 5.49935 13.5Z" fill="#000000"/>
<path d="M14 5.8335H6C5.72667 5.8335 5.5 5.60683 5.5 5.3335C5.5 5.06016 5.72667 4.8335 6 4.8335H14C14.2733 4.8335 14.5 5.06016 14.5 5.3335C14.5 5.60683 14.2733 5.8335 14 5.8335Z" fill="#000000"/>
</svg>