<svg width="173" height="46" viewBox="0 0 173 46" fill="none" xmlns="http://www.w3.org/2000/svg">
<path d="M0 9.96546V15.5981H5.63265V12.5651L12.5651 6.49922L19.0644 12.5651V15.1648H24.697V10.3987L12.5651 0L0 9.96546Z" fill="#DDB057"/>
<path d="M5.19937 19.0644H0V30.763L5.19937 27.2967V19.0644Z" fill="#DDB057"/>
<path d="M19.4976 19.0644L0 36.3956V45.0612L24.697 44.6279V27.73L19.9309 31.6295V40.7284H5.19937V39.4286L24.697 22.0973V19.0644H19.4976Z" fill="#DDB057"/>
<path d="M38.0444 22.9385H34.332L39.9886 6.55258H44.4531L50.1018 22.9385H46.3894L42.2849 10.297H42.1569L38.0444 22.9385ZM37.8124 16.4977H46.5814V19.202H37.8124V16.4977ZM57.8827 22.9385H52.074V6.55258H57.9307C59.5789 6.55258 60.9977 6.88062 62.1872 7.53669C63.3767 8.18743 64.2914 9.12354 64.9315 10.345C65.5769 11.5665 65.8996 13.028 65.8996 14.7295C65.8996 16.4364 65.5769 17.9032 64.9315 19.13C64.2914 20.3568 63.3713 21.2983 62.1712 21.9544C60.9764 22.6104 59.5469 22.9385 57.8827 22.9385ZM55.5384 19.9701H57.7387C58.7628 19.9701 59.6242 19.7888 60.323 19.4261C61.0271 19.058 61.5551 18.49 61.9072 17.7219C62.2645 16.9484 62.4432 15.951 62.4432 14.7295C62.4432 13.5187 62.2645 12.5293 61.9072 11.7612C61.5551 10.9931 61.0297 10.4277 60.331 10.065C59.6322 9.70228 58.7708 9.52092 57.7467 9.52092H55.5384V19.9701ZM83.5237 14.7455C83.5237 16.5324 83.185 18.0526 82.5075 19.3061C81.8355 20.5595 80.918 21.517 79.7552 22.1784C78.5978 22.8345 77.2963 23.1625 75.8508 23.1625C74.3946 23.1625 73.0878 22.8318 71.9303 22.1704C70.7728 21.509 69.8581 20.5515 69.186 19.2981C68.5139 18.0446 68.1779 16.5271 68.1779 14.7455C68.1779 12.9587 68.5139 11.4385 69.186 10.185C69.8581 8.93152 70.7728 7.97674 71.9303 7.32067C73.0878 6.65926 74.3946 6.32855 75.8508 6.32855C77.2963 6.32855 78.5978 6.65926 79.7552 7.32067C80.918 7.97674 81.8355 8.93152 82.5075 10.185C83.185 11.4385 83.5237 12.9587 83.5237 14.7455ZM80.0113 14.7455C80.0113 13.5881 79.8379 12.6119 79.4912 11.8172C79.1498 11.0224 78.6671 10.4197 78.043 10.009C77.419 9.59826 76.6882 9.39291 75.8508 9.39291C75.0133 9.39291 74.2826 9.59826 73.6585 10.009C73.0344 10.4197 72.5491 11.0224 72.2023 11.8172C71.861 12.6119 71.6903 13.5881 71.6903 14.7455C71.6903 15.903 71.861 16.8791 72.2023 17.6739C72.5491 18.4686 73.0344 19.0714 73.6585 19.4821C74.2826 19.8928 75.0133 20.0981 75.8508 20.0981C76.6882 20.0981 77.419 19.8928 78.043 19.4821C78.6671 19.0714 79.1498 18.4686 79.4912 17.6739C79.8379 16.8791 80.0113 15.903 80.0113 14.7455ZM85.9139 22.9385V20.8822L94.0909 9.40891H85.8979V6.55258H98.4434V8.60882L90.2584 20.0821H98.4594V22.9385H85.9139ZM104.582 6.55258V22.9385H101.118V6.55258H104.582ZM107.432 22.9385V6.55258H110.897V20.0821H117.922V22.9385H107.432ZM120.216 22.9385V6.55258H123.68V20.0821H130.705V22.9385H120.216ZM136.464 6.55258V22.9385H132.999V6.55258H136.464ZM154.372 14.7455C154.372 16.5324 154.033 18.0526 153.356 19.3061C152.684 20.5595 151.766 21.517 150.603 22.1784C149.446 22.8345 148.144 23.1625 146.699 23.1625C145.243 23.1625 143.936 22.8318 142.779 22.1704C141.621 21.509 140.706 20.5515 140.034 19.2981C139.362 18.0446 139.026 16.5271 139.026 14.7455C139.026 12.9587 139.362 11.4385 140.034 10.185C140.706 8.93152 141.621 7.97674 142.779 7.32067C143.936 6.65926 145.243 6.32855 146.699 6.32855C148.144 6.32855 149.446 6.65926 150.603 7.32067C151.766 7.97674 152.684 8.93152 153.356 10.185C154.033 11.4385 154.372 12.9587 154.372 14.7455ZM150.859 14.7455C150.859 13.5881 150.686 12.6119 150.339 11.8172C149.998 11.0224 149.515 10.4197 148.891 10.009C148.267 9.59826 147.536 9.39291 146.699 9.39291C145.862 9.39291 145.131 9.59826 144.507 10.009C143.883 10.4197 143.397 11.0224 143.051 11.8172C142.709 12.6119 142.539 13.5881 142.539 14.7455C142.539 15.903 142.709 16.8791 143.051 17.6739C143.397 18.4686 143.883 19.0714 144.507 19.4821C145.131 19.8928 145.862 20.0981 146.699 20.0981C147.536 20.0981 148.267 19.8928 148.891 19.4821C149.515 19.0714 149.998 18.4686 150.339 17.6739C150.686 16.8791 150.859 15.903 150.859 14.7455ZM170.644 6.55258V22.9385H167.651L160.523 12.6253H160.403V22.9385H156.938V6.55258H159.979L167.051 16.8578H167.195V6.55258H170.644Z" fill="black"/>
<path d="M36.1399 41.2861V29.6795H37.5454V34.8481H43.7341V29.6795H45.1396V41.2861H43.7341V36.0949H37.5454V41.2861H36.1399ZM57.7465 35.4828C57.7465 36.7069 57.5255 37.7648 57.0835 38.6565C56.6414 39.5482 56.035 40.2358 55.2643 40.7194C54.4935 41.203 53.6132 41.4448 52.6233 41.4448C51.6334 41.4448 50.7531 41.203 49.9823 40.7194C49.2116 40.2358 48.6051 39.5482 48.1631 38.6565C47.721 37.7648 47.5 36.7069 47.5 35.4828C47.5 34.2587 47.721 33.2008 48.1631 32.3091C48.6051 31.4174 49.2116 30.7298 49.9823 30.2462C50.7531 29.7626 51.6334 29.5208 52.6233 29.5208C53.6132 29.5208 54.4935 29.7626 55.2643 30.2462C56.035 30.7298 56.6414 31.4174 57.0835 32.3091C57.5255 33.2008 57.7465 34.2587 57.7465 35.4828ZM56.3864 35.4828C56.3864 34.4778 56.2183 33.6296 55.882 32.9382C55.5495 32.2468 55.098 31.7235 54.5275 31.3683C53.9608 31.0132 53.326 30.8356 52.6233 30.8356C51.9205 30.8356 51.2839 31.0132 50.7134 31.3683C50.1467 31.7235 49.6952 32.2468 49.3589 32.9382C49.0264 33.6296 48.8602 34.4778 48.8602 35.4828C48.8602 36.4878 49.0264 37.336 49.3589 38.0274C49.6952 38.7188 50.1467 39.2421 50.7134 39.5973C51.2839 39.9524 51.9205 40.13 52.6233 40.13C53.326 40.13 53.9608 39.9524 54.5275 39.5973C55.098 39.2421 55.5495 38.7188 55.882 38.0274C56.2183 37.336 56.3864 36.4878 56.3864 35.4828ZM60.1098 29.6795H61.7873L65.7318 39.3139H65.8678L69.8123 29.6795H71.4898V41.2861H70.175V32.4678H70.0616L66.4345 41.2861H65.1651L61.538 32.4678H61.4246V41.2861H60.1098V29.6795ZM74.3079 41.2861V29.6795H81.3127V30.9263H75.7134V34.8481H80.95V36.0949H75.7134V40.0393H81.4034V41.2861H74.3079ZM90.1934 32.5811C90.1254 32.0068 89.8496 31.561 89.366 31.2436C88.8823 30.9263 88.2892 30.7676 87.5864 30.7676C87.0726 30.7676 86.623 30.8507 86.2376 31.0169C85.856 31.1832 85.5575 31.4118 85.3422 31.7027C85.1306 31.9936 85.0248 32.3242 85.0248 32.6945C85.0248 33.0043 85.0985 33.2706 85.2458 33.4936C85.3969 33.7127 85.5896 33.8959 85.8239 34.0433C86.0581 34.1869 86.3037 34.3059 86.5606 34.4003C86.8175 34.491 87.0537 34.5647 87.269 34.6214L88.4478 34.9387C88.7501 35.0181 89.0864 35.1276 89.4566 35.2674C89.8307 35.4072 90.1877 35.598 90.5278 35.8398C90.8716 36.0779 91.1549 36.3839 91.3779 36.7579C91.6008 37.132 91.7122 37.591 91.7122 38.1351C91.7122 38.7623 91.5479 39.329 91.2192 39.8353C90.8942 40.3416 90.4182 40.744 89.791 41.0424C89.1676 41.3409 88.4101 41.4902 87.5184 41.4902C86.6872 41.4902 85.9675 41.356 85.3592 41.0878C84.7546 40.8195 84.2786 40.4455 83.931 39.9656C83.5872 39.4858 83.3926 38.9285 83.3473 38.2938H84.7981C84.8359 38.7321 84.9832 39.0948 85.2401 39.3819C85.5008 39.6653 85.8295 39.8769 86.2263 40.0167C86.6268 40.1527 87.0575 40.2207 87.5184 40.2207C88.0549 40.2207 88.5366 40.1338 88.9636 39.96C89.3905 39.7824 89.7287 39.5368 89.978 39.2232C90.2274 38.9059 90.3521 38.5356 90.3521 38.1124C90.3521 37.7271 90.2444 37.4135 90.029 37.1717C89.8137 36.9299 89.5303 36.7334 89.1789 36.5823C88.8276 36.4311 88.4478 36.2989 88.0398 36.1855L86.6116 35.7775C85.7049 35.5168 84.987 35.1446 84.4581 34.661C83.9291 34.1774 83.6646 33.5446 83.6646 32.7625C83.6646 32.1126 83.8403 31.5459 84.1917 31.0623C84.5468 30.5749 85.0229 30.1971 85.6199 29.9288C86.2206 29.6568 86.8912 29.5208 87.6318 29.5208C88.3798 29.5208 89.0448 29.6549 89.6267 29.9231C90.2085 30.1876 90.6694 30.5503 91.0095 31.0113C91.3533 31.4722 91.5347 31.9955 91.5535 32.5811H90.1934ZM101.617 41.4448C100.854 41.4448 100.197 41.305 99.6451 41.0254C99.0934 40.7458 98.6684 40.3624 98.3699 39.875C98.0714 39.3876 97.9222 38.8303 97.9222 38.2031C97.9222 37.7195 98.0242 37.2907 98.2282 36.9166C98.436 36.5388 98.7213 36.1893 99.084 35.8682C99.4505 35.5432 99.8718 35.2183 100.348 34.8934L102.025 33.6466C102.354 33.4312 102.617 33.2008 102.813 32.9552C103.013 32.7096 103.113 32.3884 103.113 31.9917C103.113 31.697 102.983 31.4118 102.722 31.136C102.466 30.8601 102.127 30.7222 101.708 30.7222C101.413 30.7222 101.153 30.7978 100.926 30.9489C100.703 31.0963 100.527 31.2852 100.399 31.5157C100.274 31.7424 100.212 31.9766 100.212 32.2184C100.212 32.4904 100.285 32.7663 100.433 33.0458C100.584 33.3217 100.775 33.605 101.005 33.8959C101.239 34.1831 101.481 34.4778 101.731 34.78L107.058 41.2861H105.448L101.051 35.9815C100.643 35.4903 100.272 35.0445 99.9398 34.644C99.6073 34.2435 99.3428 33.8487 99.1463 33.4596C98.9499 33.0704 98.8516 32.6491 98.8516 32.1957C98.8516 31.6744 98.9669 31.2172 99.1973 30.8243C99.4316 30.4275 99.7584 30.1196 100.178 29.9005C100.601 29.6776 101.096 29.5661 101.663 29.5661C102.244 29.5661 102.745 29.6795 103.164 29.9061C103.584 30.1291 103.907 30.4257 104.134 30.7959C104.36 31.1624 104.474 31.561 104.474 31.9917C104.474 32.5471 104.336 33.0288 104.06 33.4369C103.784 33.8449 103.408 34.2246 102.932 34.576L100.62 36.2989C100.098 36.6843 99.7452 37.0583 99.5601 37.421C99.3749 37.7837 99.2824 38.0444 99.2824 38.2031C99.2824 38.5658 99.3768 38.904 99.5657 39.2176C99.7546 39.5312 100.021 39.7843 100.365 39.977C100.709 40.1697 101.111 40.266 101.572 40.266C102.01 40.266 102.437 40.1734 102.853 39.9883C103.268 39.7994 103.644 39.5274 103.981 39.1722C104.321 38.8171 104.589 38.3901 104.785 37.8914C104.986 37.3927 105.086 36.8316 105.086 36.2082H106.378C106.378 36.979 106.289 37.608 106.111 38.0954C105.934 38.5828 105.734 38.9644 105.511 39.2402C105.288 39.516 105.108 39.722 104.972 39.858C104.927 39.9146 104.885 39.9713 104.848 40.028C104.81 40.0847 104.768 40.1413 104.723 40.198C104.349 40.6174 103.877 40.931 103.306 41.1388C102.736 41.3428 102.173 41.4448 101.617 41.4448ZM113.208 41.2861V29.6795H117.13C118.037 29.6795 118.781 29.8344 119.363 30.1442C119.945 30.4502 120.376 30.8715 120.655 31.408C120.935 31.9445 121.075 32.5547 121.075 33.2385C121.075 33.9224 120.935 34.5288 120.655 35.0577C120.376 35.5867 119.947 36.0023 119.369 36.3046C118.791 36.603 118.052 36.7523 117.153 36.7523H113.979V35.4828H117.108C117.727 35.4828 118.226 35.3921 118.604 35.2108C118.985 35.0294 119.261 34.7725 119.431 34.44C119.605 34.1037 119.692 33.7033 119.692 33.2385C119.692 32.7738 119.605 32.3677 119.431 32.0201C119.257 31.6725 118.98 31.4042 118.598 31.2153C118.216 31.0226 117.712 30.9263 117.085 30.9263H114.614V41.2861H113.208ZM118.672 36.0722L121.528 41.2861H119.896L117.085 36.0722H118.672ZM123.417 41.2861V29.6795H130.421V30.9263H124.822V34.8481H130.059V36.0949H124.822V40.0393H130.512V41.2861H123.417ZM133.431 41.2861H131.957L136.219 29.6795H137.67L141.932 41.2861H140.458L136.99 31.5157H136.899L133.431 41.2861ZM133.975 36.7523H139.914V37.9991H133.975V36.7523ZM143.74 41.2861V29.6795H145.145V40.0393H150.54V41.2861H143.74ZM150.539 30.9263V29.6795H159.244V30.9263H155.594V41.2861H154.189V30.9263H150.539ZM160.416 29.6795H162.025L165.244 35.0974H165.38L168.599 29.6795H170.209L166.015 36.5029V41.2861H164.61V36.5029L160.416 29.6795Z" fill="black"/>
</svg>
