<svg width="97" height="24" viewBox="0 0 97 24" fill="none" xmlns="http://www.w3.org/2000/svg">
<g clip-path="url(#clip0_896_15565)">
<path d="M8.83958 12.7023H5.52747L7.2915 6.96093L8.83958 12.7023ZM3.80954 19.0295L4.94026 15.2487H9.40252L10.4605 19.0198H14.5854L10.4871 4.6421C10.2445 3.79251 9.73494 3.40039 8.83958 3.40039H2.98939V4.75829H3.47468C4.08615 4.75829 4.41615 5.00034 4.41615 5.46265C4.41615 5.77005 4.34821 6.02662 4.10556 6.72615L0 19.0295H3.80954Z" fill="#003781"/>
<path d="M19.3581 19.0295V4.59853C19.3581 3.84576 18.9165 3.40039 18.1861 3.40039H14.5586V4.75829H14.8012C15.4103 4.75829 15.6699 5.01728 15.6699 5.63208V19.0295H19.3581Z" fill="#003781"/>
<path d="M25.6277 19.0295V4.59853C25.6277 3.84576 25.1788 3.40039 24.4533 3.40039H20.8379V4.75829H21.0805C21.692 4.75829 21.9516 5.01728 21.9516 5.63208V19.0295H25.6277Z" fill="#003781"/>
<path d="M32.0607 4.82716C32.0607 3.77908 31.2818 3.13281 29.9472 3.13281C28.6127 3.13281 27.8289 3.76698 27.8289 4.82716C27.8289 5.88733 28.6321 6.5215 29.9472 6.5215C31.2624 6.5215 32.0607 5.89217 32.0607 4.82716ZM31.9903 19.0306V8.51115C31.9903 7.76079 31.5438 7.31784 30.8135 7.31784H27.2441V8.64911H27.4552C28.0643 8.64911 28.3239 8.92989 28.3239 9.53986V19.0306H31.9903Z" fill="#003781"/>
<path d="M40.0651 13.4054V15.6831C39.4512 16.3148 38.7039 16.7021 38.0706 16.7021C37.4373 16.7021 37.1776 16.3778 37.1776 15.4919C37.1776 14.606 37.362 14.2308 38.022 13.9766C38.6792 13.7098 39.3646 13.5181 40.0651 13.4054ZM35.1054 10.6703C36.2326 10.1124 37.4659 9.80054 38.7233 9.75531C39.7133 9.75531 40.0651 10.1063 40.0651 11.1301V11.3916C38.5631 11.6336 38.0924 11.7256 37.2456 11.912C36.7713 12.0162 36.3069 12.1611 35.8576 12.3452C34.3751 12.9383 33.6738 14.0807 33.6738 15.8356C33.6738 18.0624 34.6444 19.1371 36.6317 19.1371C37.3077 19.1399 37.978 19.0142 38.6068 18.7668C39.1772 18.5078 39.7075 18.1687 40.1816 17.7599V17.9245C40.1816 18.6506 40.5553 19.021 41.2856 19.021H44.6463V17.7696H44.4813C43.848 17.7696 43.615 17.4864 43.615 16.7384V11.1592C43.615 8.18441 42.5789 7.14844 39.592 7.14844C38.645 7.15315 37.7016 7.26439 36.7797 7.48004C35.9086 7.67382 35.0696 7.99003 34.2877 8.4192L35.1054 10.6703Z" fill="#003781"/>
<path d="M49.9961 19.0309V11.111C50.61 10.4309 51.2409 10.1235 51.9689 10.1235C52.7477 10.1235 52.9394 10.4309 52.9394 11.6097V19.0309H56.6034V11.0675C56.6034 9.21337 56.4699 8.62761 55.8754 7.99828C55.3902 7.45367 54.6307 7.17773 53.6625 7.17773C52.2285 7.17773 51.2191 7.62068 49.8627 8.8866V8.41945C49.8627 7.6933 49.4817 7.31812 48.732 7.31812H45.25V8.64939H45.4611C46.0701 8.64939 46.3322 8.93017 46.3322 9.54013V19.0309H49.9961Z" fill="#003781"/>
<path d="M67.4719 16.5709H62.3594L67.2487 9.73299V7.3125H59.5811C58.7124 7.3125 58.312 7.70946 58.312 8.57842V10.7085H59.6733V10.5003C59.6733 9.96052 59.9547 9.70395 60.5395 9.70395H63.1746L58.2344 16.6193V19.0398H67.4549L67.4719 16.5709Z" fill="#003781"/>
<path d="M86.7072 18.7322V5.48968C86.7072 4.43434 86.3311 4.07853 85.3047 4.07853H82.1964V5.56713H82.3832C83.0917 5.56713 83.2301 5.72688 83.2301 6.5789V18.7322H86.7072ZM88.2407 18.7322H91.6911V8.41847C91.6911 7.3825 91.2907 7.00974 90.2789 7.00974H88.2407V18.7322ZM81.7062 18.7322V7.01943H79.6607C78.6489 7.01943 78.2534 7.39218 78.2534 8.42815V18.7322H81.7062ZM94.9571 12.0008C94.9571 17.8366 90.7496 22.0797 84.9722 22.0797C79.1949 22.0797 74.9777 17.8366 74.9777 12.0008C74.9777 6.16499 79.1924 1.92187 84.9722 1.92187C90.7521 1.92187 94.9571 6.1892 94.9571 12.0008ZM97.0002 12.0008C97.0002 5.1387 91.8537 0 84.9722 0C78.0908 0 72.9395 5.1387 72.9395 12.0008C72.9395 18.8629 78.086 23.9992 84.9722 23.9992C91.8585 23.9992 97.0002 18.8798 97.0002 12.0008Z" fill="#003781"/>
</g>
<defs>
<clipPath id="clip0_896_15565">
<rect width="97" height="24" fill="white"/>
</clipPath>
</defs>
</svg>
