<svg width="1440" height="800" viewBox="0 0 1440 800" fill="none" xmlns="http://www.w3.org/2000/svg">
<g opacity="0.05">
<path fill-rule="evenodd" clip-rule="evenodd" d="M213.222 291.836C213.176 281.517 194.973 269.912 187.197 263.93C171.822 252.097 155.831 241.17 139.989 230.068C124.146 218.967 108.261 207.895 93.1542 195.707C83.3453 187.795 71.8198 178.885 65.1674 167.587C50.9958 143.512 95.6776 147.088 107.252 146.561C136.695 145.216 170.468 145.83 198.067 133.293C214.542 125.808 221.112 113.256 217.573 94.962C216.433 89.0124 213.057 82.1661 215.917 76.37C218.97 70.1797 225.996 66.6076 231.828 64.2121C253.096 55.4849 277.55 54.4737 300.054 53.3783C324.319 52.1746 348.813 52.5267 372.908 52.4334C383.124 52.3943 393.794 48.5212 403.523 45.3734C416.278 41.2475 428.881 36.6131 441.53 32.1321C469.357 22.2974 498.031 11.9391 527.472 9.44135C545.909 7.87647 566.06 9.99207 580.383 23.6035C587.574 30.4378 591.338 40.5975 595.496 49.6226C600.528 60.5256 605.362 71.5339 610.719 82.2654C627.979 116.828 652.621 150.602 692.618 152.3C698.669 152.556 704.611 151.722 710.633 151.566C714.468 151.469 717.882 152.447 719.307 156.681C722.892 167.302 711.626 184.067 707.006 192.493C696.892 210.938 685.487 228.555 674.802 246.629C667.734 258.582 655.498 274.917 655.37 289.44C655.256 302.381 671.566 311.734 680.445 318.108C688.766 324.075 703.841 332.426 704.754 344.566C705.196 350.453 701.517 355.331 697.676 359.117C690.944 365.737 683.188 370.408 677.132 377.961C667.2 390.354 658.903 407.405 660.251 424.104C661.187 435.675 667.443 443.253 675.401 450.497C678.746 453.542 681.46 455.697 681.637 460.641C681.922 468.493 679.008 476.802 676.607 484.081C668.019 510.133 655.82 535.325 642.25 558.846C635.47 570.601 628.144 582.32 619.154 592.347C613.266 598.931 605.324 606.768 596.342 606.759C585.943 606.759 574.94 602.798 564.831 599.837C545.952 594.303 527.301 587.905 508.724 581.342C465.762 566.156 423.205 549.741 381.051 532.096C351.359 519.646 321.037 507.178 293.122 490.627C287.678 487.376 282.539 483.586 277.775 479.308C272.686 474.815 266.37 472.805 259.965 471.306C220.217 462.004 176.67 469.146 136.755 473.624C126.624 474.758 116.493 475.899 106.333 476.693C97.5995 477.376 87.1433 479.335 78.6547 476.392C61.9282 470.599 76.5503 449.248 82.7322 440.548C104.497 409.915 132.578 383.998 158.606 357.54C170.981 344.939 183.45 332.372 195.152 319.059C201.246 312.137 213.262 300.882 213.222 291.836Z" stroke="#101828"/>
<path fill-rule="evenodd" clip-rule="evenodd" d="M220.722 290.097C214.05 279.178 202.346 271.107 192.63 263.512C178.648 252.577 164.228 242.251 150.023 231.626C136.593 221.579 123.133 211.418 110.695 200.009C103.111 193.051 93.5949 184.731 90.0025 174.44C82.2099 152.135 124.132 155.519 134.481 154.936C160.21 153.492 189.38 153.161 213.183 141.418C228.046 134.084 234.152 121.923 230.982 105.038C229.887 99.1967 227.912 94.2093 230.412 88.3978C233.302 81.6718 239.951 77.4785 246.045 74.5186C265.137 65.2448 287.705 63.2745 308.4 61.6351C329.781 59.9416 352.057 58.7474 372.75 59.9867C381.024 60.48 390.549 57.6795 398.738 55.5318C411.339 52.2229 423.811 48.4057 436.349 44.8562C461.829 37.6369 487.972 30.6823 514.48 29.8911C533.618 29.3196 553.571 32.4179 569.493 44.393C585.629 56.5365 592.788 75.3609 601.736 93.2558C617.19 124.194 638.063 161.809 673.815 168.346C679.237 169.338 684.447 168.8 689.863 169.044C692.648 169.167 695.818 169.558 697.23 172.455C700.897 179.975 690.85 193.725 687.469 199.485C678.127 215.404 667.624 230.543 657.834 246.155C650.058 258.551 640.203 272.325 637.195 287.02C633.546 304.851 657.391 317.539 665.778 330.095C680.316 351.867 652.772 364.272 639.193 374.653C623.599 386.571 610.727 408.313 624.706 426.753C630.053 433.804 636.633 438.006 639.021 447.207C642.756 461.598 639.932 478.043 636.901 492.268C632.336 513.652 625.111 534.805 615.29 554.132C608.253 567.969 596.58 589.666 579.486 588.038C567.978 586.953 556.279 582.985 545.074 579.478C528.296 574.228 511.729 568.245 495.251 562.031C457.213 547.725 419.594 531.95 382.714 514.6C357.55 502.757 287.357 454.361 282.075 452.634C266.327 447.49 248.422 448.396 232.186 449.193C210.589 450.252 189.1 452.995 167.629 455.537C157.408 456.74 147.136 458.211 136.861 458.803C129.548 459.225 119.943 459.586 113.537 455.101C101.034 446.35 114.964 426.329 120.725 417.858C138.373 391.889 160.698 369.401 181.63 346.408C191.902 335.118 202.332 323.847 211.656 311.652C215.417 306.728 224.845 296.841 220.722 290.097Z" stroke="#101828"/>
<path fill-rule="evenodd" clip-rule="evenodd" d="M229.951 284.497C211.732 262.646 186.586 246.395 164.884 228.146C153.991 218.984 143.03 209.572 133.635 198.659C128.748 192.984 122.645 185.808 121.704 177.897C119.188 156.736 156.972 159.597 168.281 158.794C190.147 157.235 214.847 156.053 234.684 145.254C246.803 138.652 252.772 127.817 250.507 113.576C249.502 107.258 247.939 101.89 250.507 95.6853C253.108 89.3997 258.529 84.9646 264.018 81.6398C279.792 72.0775 299.395 69.0204 317.155 66.7427C337.989 64.0897 358.979 63.0539 379.957 63.6435C398.33 64.1521 416.615 58.4321 434.554 54.662C458.319 49.6702 482.515 45.3103 506.834 45.9693C526.04 46.4928 545.397 50.606 561.816 61.5373C578.5 72.6702 588.531 89.3335 597.575 107.315C611.246 134.497 628.284 170.923 658.277 181.246C662.64 182.751 666.705 182.916 671.204 183.178C673.39 183.304 676.211 183.343 677.295 185.748C679.903 191.537 670.263 202.76 667.572 206.671C658.985 219.158 649.676 231.083 640.874 243.404C632.658 254.907 623.708 266.895 618.604 280.374C610.482 301.843 636.449 314.396 635.722 334.853C635.268 347.554 623.739 356.662 614.61 362.963C603.369 370.71 587.184 375.805 581.558 389.943C577.367 400.474 583.944 406.604 589.008 414.595C597.589 428.135 598.174 446.49 597.281 462.163C596.077 483.342 591.373 504.835 583.364 524.303C579.735 533.128 575.291 542.308 568.746 549.162C562.615 555.586 556.812 557.232 548.618 555.917C523.535 551.885 498.209 540.647 474.156 530.609C443.934 517.996 414.13 504.071 385.215 488.403C365.498 477.719 345.336 466.414 328.03 451.653C323.52 447.804 318.901 443.622 315.603 438.546C313.109 434.731 312.051 431.58 307.848 429.402C295.392 422.948 278.066 424.636 264.72 425.307C243.38 426.375 222.142 429.218 200.934 431.779C188.557 433.283 165.243 438.016 155.36 426.664C146.83 416.861 157.124 400.146 162.382 391.511C175.682 369.672 192.791 350.506 208.665 330.77C215.94 321.726 223.5 312.612 229.509 302.556C231.044 299.992 233.503 296.595 233.925 293.481C234.399 289.913 232.188 287.189 229.951 284.497Z" stroke="#101828"/>
<path fill-rule="evenodd" clip-rule="evenodd" d="M231.519 289.583C214.684 270.263 194.402 254.391 176.329 236.312C168.225 228.205 160.042 219.702 153.867 209.813C150.546 204.495 147.019 197.801 147.935 191.191C150.563 172.221 181.639 173.934 194.194 172.823C212.849 171.191 234.281 169.547 250.776 159.318C261.582 152.618 265.634 142.723 263.617 129.961C261.451 116.272 266.293 106.336 277.313 98.6991C291.129 89.1325 308.569 85.2329 324.611 82.4626C343.938 79.1409 363.51 77.6684 383.088 78.0632C402.129 78.4487 420.576 75.0821 439.491 72.893C464.569 69.9932 490.452 68.5629 515.248 74.507C536.837 79.6833 556.337 91.0897 570.955 108.729C586.223 127.14 593.782 150.335 606.18 170.703C613.913 183.408 624.696 200.213 639.145 205.151C643.965 206.799 652.747 204.576 648.898 212.68C646.698 217.314 642.581 221.379 639.328 225.167C634.072 231.289 628.642 237.242 623.298 243.279C611.907 256.149 599.709 269.293 591.171 284.533C580.414 303.721 596.404 318.488 594.455 337.943C593.408 348.413 586.509 356.769 579.21 363.334C574.487 367.585 569.32 371.268 564.044 374.704C558.534 378.293 552.014 381.027 547.209 385.668C540.361 392.271 543.334 400.088 544.618 408.625C546.878 423.628 547.375 438.867 546.096 453.998C544.533 472.544 540.866 491.62 533.142 508.474C530.137 515.035 526.331 521.991 520.678 526.391C515.026 530.79 509.179 530.489 502.702 529.164C483.49 525.249 464.318 516.141 446.094 507.507C423.284 496.7 400.922 484.622 379.567 470.882C364.826 461.397 350.037 451.15 337.705 438.289C334.118 434.546 330.705 430.538 327.946 426.063C326.052 422.995 325.036 419.035 322.291 416.728C313.702 409.529 296.459 411.679 286.387 412.097C266.285 412.931 246.499 416.897 226.423 417.861C215.466 418.388 198.305 419.712 190.259 409.869C182.692 400.615 189.546 386.041 194.068 377.125C202.957 359.594 214.898 343.974 225.601 327.678C230.001 320.972 234.823 313.956 237.674 306.298C240.207 299.475 235.833 294.536 231.519 289.583Z" stroke="#101828"/>
<path fill-rule="evenodd" clip-rule="evenodd" d="M235.659 289.899C222.259 272.898 206.105 257.807 192.608 240.529C184.707 230.411 171.102 213.401 177.212 199.136C183.915 183.461 207.28 183.034 220.785 181.771C236.86 180.268 255.737 178.214 269.493 168.427C273.844 165.333 277.55 161.237 279.121 155.843C280.803 150.07 278.964 145.018 278.725 139.239C278.223 127.115 285.083 117.382 294.161 110.697C306.991 101.247 323.034 96.7783 338.187 93.6632C355.355 90.1496 372.808 88.4174 390.297 88.4913C407.01 88.5514 423.546 88.1606 440.276 87.7095C462.155 87.1081 484.343 88.0794 505.566 94.2104C526.473 100.254 545.481 111.581 560.412 128.243C574.979 144.501 584.806 164.373 593.414 184.616C598.298 196.105 606.549 213.275 618.198 219.078C623.379 221.661 628.462 221.483 622.954 228.201C616.017 236.659 606.669 243.446 598.634 250.68C587.044 261.12 575.164 271.765 565.436 284.177C559.224 292.103 556.455 299.795 556.883 310.058C557.214 317.875 558.713 325.612 557.955 333.46C556.179 351.88 542.428 364.512 530.271 376.275C522.45 383.841 515.308 389.611 511.282 400.373C506.521 413.092 504.523 426.93 501.341 440.136C497.845 454.638 493.808 469.724 486.179 482.497C479.387 493.869 471.128 498.969 458.765 495.905C439.484 491.13 420.478 479.367 403.36 468.485C385.937 457.414 368.814 444.965 354.376 429.747C346.581 421.529 341.261 411.88 334.338 403.052C325.631 391.968 305.933 396.166 294.226 397.104C274.793 398.662 213.646 410.317 219.288 372.568C221.643 356.812 230.918 342.27 237.701 328.367C240.512 322.596 244.58 315.671 245.216 309.059C245.909 301.858 239.688 295.017 235.659 289.899Z" stroke="#101828"/>
<path fill-rule="evenodd" clip-rule="evenodd" d="M242.734 291.343C232.494 275.937 220.238 261.382 211.452 244.742C205.752 233.966 200.154 219.567 207.507 208.165C215.807 195.298 234.107 192.299 247.553 190.659C261.407 188.971 277.945 187.551 289.269 177.795C292.871 174.687 295.841 170.496 296.394 165.478C296.927 160.665 295.422 155.851 295.921 150.95C297.038 139.945 303.362 130.878 311.516 124.301C335.635 104.846 371.534 100.52 400.636 100.011C415.202 99.7584 430.193 101.085 444.854 102.036C463.877 103.269 482.93 105.917 501.073 112.298C539.648 125.86 565.503 155.938 583.561 193.367C589.244 205.148 593.593 217.895 602.499 227.362C607.09 232.251 606.087 235.762 601.393 240.221C594.054 247.188 585.103 252.513 576.957 258.329C565.372 266.599 553.539 274.992 543.293 284.899C536.231 291.729 531.217 298.308 529.695 308.549C528.61 315.85 528.863 323.29 528.211 330.637C526.968 344.593 522.713 358.444 515.18 370.021C509.195 379.197 502.07 387.536 494.706 395.487C485.133 405.84 477.036 416.357 469.765 428.644C460.127 444.908 446.583 474.908 423.88 466.969C398.84 458.208 375.37 435.948 359.305 414.381C353.91 407.139 349.481 398.258 342.205 392.918C331.312 384.937 320.26 385.217 307.303 385.25C287.906 385.295 245.698 389.738 245.242 359.076C245.062 346.928 250.044 335.442 252.429 323.757C255.12 310.67 249.728 301.843 242.734 291.343Z" stroke="#101828"/>
<path fill-rule="evenodd" clip-rule="evenodd" d="M250.361 292.717C240.232 272.637 217.519 239.643 234.794 217.314C243.919 205.514 260.059 201.08 273.599 198.437C284.495 196.3 297.635 195.497 305.867 186.436C311.918 179.774 309.232 170.078 311.551 161.739C314.428 151.4 321.032 142.94 329.148 136.582C351.826 118.811 383.359 113.357 410.64 112.197C438.974 110.994 470.193 116.619 496.855 127.439C530.099 140.935 555.005 166.489 572.422 198.849C575.636 204.823 578.556 210.953 581.641 216.999C583.714 221.054 586.788 224.978 588.422 229.244C591.143 236.357 587.938 242.171 582.799 246.807C575.408 253.481 566.328 258.231 557.902 263.24C546.379 270.094 534.599 276.825 523.88 284.867C516.677 290.279 509.137 296.108 506.559 305.497C504.8 311.901 504.435 318.683 504.497 325.315C504.634 339.535 503.927 351.034 497.636 364.058C487.285 385.439 471.368 404.665 454.552 420.662C441.355 433.216 420.473 452.718 401.244 444.325C383.992 436.809 373.9 418.819 362.534 404.274C357.008 397.203 350.8 390.745 343.505 385.716C334.309 379.375 325.652 376.715 314.756 375.677C296.417 373.931 268.765 373.477 263.096 350.268C261.003 341.703 262.198 332.831 261.1 324.154C259.666 312.682 255.471 302.845 250.361 292.717Z" stroke="#101828"/>
<path fill-rule="evenodd" clip-rule="evenodd" d="M260.894 293.46C253.681 271.489 244.206 243.8 261.626 224.273C270.064 214.813 281.933 209.525 293.42 205.573C301.648 202.741 314.711 201.908 319.755 193.201C323.459 186.793 323.972 177.953 327.324 171.088C331.929 161.65 338.905 153.876 347.089 147.79C368.411 131.932 396.182 125.804 421.507 124.05C476.535 120.242 532.527 150.565 561.973 200.454C570.753 215.325 582.087 231.153 567.898 246.346C552.407 262.92 529.07 270.685 510.581 282.462C503.517 286.959 494.514 292.364 490.573 300.506C488.202 305.399 488.04 311.539 487.932 316.926C487.647 330.648 486.567 342.988 481.337 355.791C473.261 375.577 460.383 393.83 445.79 408.783C433.063 421.821 414.913 437.143 396.43 427.744C382.258 420.521 373.27 405.189 362.259 393.888C350.005 381.301 334.85 372.82 318.207 368.675C302.018 364.654 284.261 361.943 275.729 344.86C272.803 339 269.745 331.412 268.648 324.926C266.877 314.232 264.283 303.709 260.894 293.46Z" stroke="#101828"/>
<path fill-rule="evenodd" clip-rule="evenodd" d="M272.637 293.615C269.301 271.429 268.93 248.295 284.433 230.81C291.668 222.652 300.815 216.857 310.064 211.606C316.868 207.742 323.895 204.483 328.978 198.149C333.686 192.285 337.265 185.475 341.811 179.457C347.808 171.482 354.983 164.578 363.061 159.01C383.31 145.081 407.942 138.567 431.508 136.307C442.916 135.209 455.29 134.637 466.621 137.631C477.564 140.52 488.384 145.087 498.446 150.413C519.836 161.724 538.373 178.289 551.812 199.233C561.026 213.598 566.009 227.566 554.076 242.139C540.624 258.565 519.531 267.629 502.145 278.29C490.221 285.602 476.857 292.769 474.63 308.308C472.856 320.673 471.415 332.408 466.827 344.095C459.997 361.334 449.955 376.95 437.297 390.017C425.721 401.92 411.077 412.022 394.518 405.664C381.399 400.617 371.221 389.312 359.759 381.23C346.985 372.203 332.95 367.226 318.172 363.224C304.89 359.613 292.384 354.064 283.8 342.284C282.043 339.876 280.198 337.255 278.843 334.562C277.115 331.126 277.249 327.72 276.91 323.868C276.026 313.704 274.146 303.656 272.637 293.615Z" stroke="#101828"/>
<path fill-rule="evenodd" clip-rule="evenodd" d="M285.585 291.802C285.87 270.729 290.674 250.813 303.829 234.39C309.454 227.364 316.17 221.578 322.358 215.14C327.341 209.95 332.05 205.128 337.78 200.851C351.372 190.724 362.418 177.62 376.862 168.602C396.144 156.546 418.23 149.883 440.146 147.218C450.847 145.916 461.902 145.461 472.729 146.932C482.027 148.195 490.933 152.628 499.194 157.164C515.385 166.049 531.106 178.678 541.619 194.654C564.798 229.878 519.1 255.487 495.645 270.484C484.858 277.383 468.376 285.373 463.957 299.038C460.799 308.8 458.874 318.728 454.807 328.189C443.88 353.596 421.7 383.479 392.141 379.501C379.493 377.801 367.965 370.896 356.158 366.261C344 361.486 331.452 358.825 318.815 355.905C307.005 353.177 297.592 349.295 289.964 338.888C286.318 333.918 286.64 327.969 286.315 321.872C285.785 311.856 285.457 301.784 285.585 291.802Z" stroke="#101828"/>
<path fill-rule="evenodd" clip-rule="evenodd" d="M297.375 289.102C302.124 257.294 319.76 222.568 345.692 204.096C376.196 182.366 409.243 164.068 445.689 158.808C462.586 156.368 481.096 155.168 497.04 163.144C509.174 169.211 523.269 178.279 529.947 191.031C546.285 222.222 509.945 247.053 489.241 261.483C478.094 269.252 463.905 276.822 455.503 288.167C450.629 294.744 448.14 303.445 444.205 310.669C432.279 332.562 412.648 350.219 388.194 353.377C376.887 354.836 365.498 353.031 354.277 351.597C342.79 350.129 331.161 349.332 319.746 347.284C310.634 345.648 299.895 342.878 296.539 332.589C292.307 319.623 295.437 302.092 297.375 289.102Z" stroke="#101828"/>
<path fill-rule="evenodd" clip-rule="evenodd" d="M308.938 283.993C315.864 254.088 330.529 224.917 355.183 207.064C368.257 197.598 383.434 191.063 398.006 184.606C414.523 177.289 431.779 171.609 449.405 168.791C471.35 165.282 506.893 162.118 518.358 188.501C529.738 214.689 500.981 237.867 483.976 251.075C473.073 259.536 461.405 267.302 450.988 276.552C445.339 281.567 440.988 287.361 436.208 293.243C422.997 309.539 404.163 322.441 384.966 329.328C366.36 336.004 343.343 338.96 323.704 336.754C315.23 335.805 309.172 332.606 306.61 323.509C303.058 310.864 306.075 296.346 308.938 283.993Z" stroke="#101828"/>
<path fill-rule="evenodd" clip-rule="evenodd" d="M320.426 275.938C327.306 249.608 342.146 225.558 363.792 209.755C388.056 192.04 419.299 182.196 448.016 177.19C463.28 174.531 496.359 167.322 504.139 187.954C511.919 208.586 489.427 228.919 476.482 240.111C460.771 253.675 443.831 266.772 426.912 278.942C412.211 289.523 396.525 300.341 380.603 308.512C371.623 313.148 362.268 316.933 352.65 319.822C345.528 321.944 336.471 325.109 329.004 323.53C310.17 319.54 317.136 288.528 320.426 275.938Z" stroke="#101828"/>
<path fill-rule="evenodd" clip-rule="evenodd" d="M334.609 268.053C349.705 218.259 397.532 193.77 443.582 185.234C454.283 183.252 484.281 176.109 490.262 191.319C496.058 206.067 477.625 223.557 468.994 231.844C442.252 257.521 409.213 276.559 377.905 295.42C368.133 301.307 350.508 314.082 338.386 308.189C325.224 301.779 331.482 278.378 334.609 268.053Z" stroke="#101828"/>
<path fill-rule="evenodd" clip-rule="evenodd" d="M350.071 258.469C363.199 221.8 401.383 200.769 436.489 193.836C445.087 192.139 466.925 186.857 473.438 197.09C479.465 206.556 465.082 220.272 459.701 225.722C447.722 237.859 433.525 247.858 419.5 257.468C406.532 266.359 393.424 275.473 379.779 282.993C372.592 286.951 359.113 295.398 350.946 289.285C342.153 282.71 347.156 266.612 350.071 258.469Z" stroke="#101828"/>
<path fill-rule="evenodd" clip-rule="evenodd" d="M367.111 247.756C377.116 223.81 403.915 208.26 427.554 203.092C433.915 201.705 447.663 198.106 453.029 204.501C457.969 210.39 450.007 219.025 446.474 223.012C430.813 240.687 407.88 256.475 386.868 266.172C381.585 268.609 372.088 273.394 366.653 268.474C361.078 263.421 364.812 253.255 367.111 247.756Z" stroke="#101828"/>
<path fill-rule="evenodd" clip-rule="evenodd" d="M385.185 237.697C390.823 225.806 405.56 216.835 417.766 213.979C426.357 211.971 436.683 213.706 429.196 224.056C421.759 234.328 407.959 243.709 396.262 247.868C387.338 251.04 380.344 247.911 385.185 237.697Z" stroke="#101828"/>
<path fill-rule="evenodd" clip-rule="evenodd" d="M-72.0318 320.055C-72.3934 296.563 -84.2243 272.148 -78.3815 248.21C-73.5837 228.551 -49.4294 226.91 -34.9391 218.003C-23.4243 210.926 -16.8896 198.391 -10.6624 186.364C-5.06727 175.566 -0.0416453 164.444 5.85242 153.824C9.6679 146.958 16.2197 133.476 24.4942 133.232C32.4156 132.998 39.6792 143.504 44.2806 149.714C50.28 157.81 55.5989 166.44 61.4246 174.665C71.2424 188.537 83.022 198.806 96.51 208.525C111.859 219.583 127.462 230.263 143.318 240.566C154.992 248.174 166.746 255.726 177.968 264.085C185.006 269.331 200.542 279.173 200.613 288.843C200.647 293.457 196.504 298.568 193.711 302.256C188.984 308.5 183.597 314.208 178.193 319.793C168.127 330.197 157.635 340.129 147.256 350.181C133.785 363.228 120.918 376.061 109.075 390.871C96.8317 406.202 85.1347 422.038 73.1985 437.657C65.1148 448.239 57.0397 460.122 45.3797 466.615C30.7755 474.731 18.788 466.173 4.01871 466.073C-8.68628 465.986 -7.74949 434.916 -9.36395 426.276C-10.9841 417.532 -14.5547 409.392 -15.9385 400.626C-17.6641 389.684 -17.6868 378.489 -18.1111 367.43C-18.6265 353.903 -18.8315 341.025 -32.5302 335.867C-40.3263 332.936 -48.7602 332.32 -56.8297 330.564C-62.0575 329.425 -71.9179 327.477 -72.0318 320.055Z" stroke="#101828"/>
<path fill-rule="evenodd" clip-rule="evenodd" d="M-65.7868 315.876C-67.1185 296.184 -74.9863 270.979 -67.5463 250.652C-61.1899 233.28 -41.3107 231.029 -27.9249 221.903C-16.8746 214.377 -11.9554 202.061 -6.43172 189.961C-2.0002 180.255 2.2973 170.455 7.32768 161.059C11.0349 154.135 16.6955 142.445 24.4036 141.012C31.3332 139.723 38.7647 150.044 42.6544 155.294C48.3293 162.959 53.1829 171.283 58.1961 179.433C67.005 193.748 76.0249 206.622 88.9174 217.138C101.867 227.699 116.034 235.596 130.352 243.815C141.554 250.245 152.698 256.862 163.341 264.287C171.269 269.814 182.667 276.889 186.294 286.746C189.166 294.543 174.602 307.483 170.307 312.05C161.467 321.44 152.099 330.255 142.715 339.015C131.274 349.691 119.468 359.027 109.364 371.205C91.2928 392.977 76.1874 420.091 52.9348 436.273C38.9102 446.033 23.3029 448.529 7.70411 447.069C1.52735 446.491 0.0444734 437.287 -0.734038 431.919C-2.02871 423.002 -2.19126 413.931 -3.1865 404.978C-4.119 396.596 -6.18933 388.633 -7.85757 380.414C-9.54577 372.087 -10.0191 363.555 -11.2625 355.17C-12.0324 349.965 -12.7938 343.908 -16.1617 339.723C-19.6465 335.391 -25.3955 333.575 -30.4201 332.196C-39.8564 329.631 -64.8457 329.773 -65.7868 315.876Z" stroke="#101828"/>
<path fill-rule="evenodd" clip-rule="evenodd" d="M-57.7463 307.633C-59.986 289.556 -63.1216 267.043 -53.9973 250.389C-46.5393 236.772 -30.6332 233.834 -19.2721 224.961C-9.82258 217.583 -6.25333 205.848 -1.56281 194.943C2.28604 185.998 6.15486 177.014 10.8197 168.502C14.3576 162.047 18.9168 153.295 25.9412 151.043C31.947 149.118 38.7317 157.739 42.0613 162.029C47.7304 169.341 52.3525 177.534 56.9431 185.619C64.4525 198.849 71.3627 212.98 82.0505 223.741C92.4358 234.183 104.773 240.346 117.341 247.277C126.967 252.587 136.534 258.101 145.604 264.433C152.568 269.292 161.199 275.049 164.828 283.134C167.966 290.107 159.909 298.36 155.883 303.279C149.236 311.397 141.857 318.844 134.582 326.322C126.73 334.389 118.034 341.83 110.436 350.096C94.4587 367.489 81.6939 386.747 62.0017 400.072C49.2483 408.704 32.0868 416.546 17.011 415.136C6.16912 414.119 6.88241 388.797 5.84102 380.706C4.12915 367.477 0.822386 353.577 -4.43019 341.391C-8.94097 330.949 -19.6601 327.729 -29.5205 325.387C-35.6975 323.917 -42.1712 323.123 -48.1456 320.85C-55.0615 318.216 -56.8076 315.209 -57.7463 307.633Z" stroke="#101828"/>
<path fill-rule="evenodd" clip-rule="evenodd" d="M-50.2479 299.159C-51.5814 283.877 -51.2815 265.805 -42.6436 252.585C-35.0735 241.006 -21.5954 237.957 -12.0094 228.836C-4.52791 221.719 -1.58957 210.116 2.43388 200.704C7.35111 189.197 14.2415 167.944 26.6459 163.614C38.1852 159.588 50.2526 185.304 54.4303 192.973C61.0437 205.11 66.5749 218.42 74.5961 229.629C81.5036 239.278 90.7584 244.613 100.581 250.345C113.106 257.667 132.121 266.348 138.817 280.617C143.808 291.25 127.578 307.057 122.035 314.424C116.238 322.119 111.872 331.241 105.89 338.665C96.4495 350.38 81.1524 359.812 68.5223 367.01C56.2435 374.012 40.2982 381.762 26.369 381.301C17.2141 380.999 15.4722 366.079 13.5191 358.79C10.7206 348.429 6.99988 339.144 -0.992757 332.097C-9.12817 324.924 -18.7171 321.543 -28.7971 318.585C-33.9713 317.077 -39.8737 315.901 -44.5025 312.856C-49.6168 309.542 -49.7339 305.033 -50.2479 299.159Z" stroke="#101828"/>
<path fill-rule="evenodd" clip-rule="evenodd" d="M-41.113 290.351C-41.039 277.148 -38.1785 263.069 -29.6966 252.885C-22.6322 244.402 -11.5744 241.566 -4.81164 232.895C0.545054 226.029 3.27179 216.391 6.85809 208.418C11.2442 198.648 17.4462 181.58 28.3532 178.19C38.9982 174.889 48.4137 193.688 52.4953 201.127C58.4724 212.034 63.3111 223.596 69.3424 234.473C74.0672 243.007 79.8451 248.507 87.5386 254.007C96.5698 260.467 109.17 267.624 113.995 278.312C117.473 286.051 109.054 298.417 105.997 305.234C103.947 309.813 102.072 314.464 101.041 319.427C100.239 323.292 100.159 326.869 97.8336 330.188C91.9788 338.535 79.1421 339.625 70.4325 342.376C58.8652 346.028 46.5921 350.178 34.4869 350.97C27.0467 351.465 23.2498 344.231 19.0032 339.141C13.9852 333.125 6.88086 328.798 0.675983 324.258C-7.51275 318.257 -16.4244 314.524 -25.6435 310.701C-29.8019 308.976 -34.6861 307.284 -37.9081 303.854C-41.2724 300.298 -41.1386 295.116 -41.113 290.351Z" stroke="#101828"/>
<path fill-rule="evenodd" clip-rule="evenodd" d="M-31.5165 282.513C-30.0464 271.425 -25.4649 260.827 -17.7265 252.988C-11.7945 246.97 -3.91654 243.581 0.844434 236.35C5.2806 229.61 8.37196 221.946 12.036 214.739C15.9137 207.12 21.6748 194.385 30.6183 192.312C40.2571 190.079 47.6821 202.925 51.7934 210.045C56.9875 219.042 60.9336 228.722 65.5778 238.029C69.0765 244.966 73.5394 251.311 78.8179 256.851C84.3538 262.692 91.8614 268.286 94.6622 276.317C97.1381 283.431 92.5053 292.037 91.6876 299.25C90.8129 306.956 92.3458 315.051 87.4965 321.668C77.4959 335.314 52.3975 332.784 38.049 333.075C23.8914 333.376 12.509 325.026 1.05242 317.082C-6.51499 311.837 -14.3958 307.396 -22.1541 302.509C-30.0634 297.523 -32.8101 292.272 -31.5165 282.513Z" stroke="#101828"/>
<path fill-rule="evenodd" clip-rule="evenodd" d="M-22.6 276.167C-18.2523 260.103 -4.67349 251.565 5.03384 239.425C12.9765 229.486 18.932 208.904 32.3084 206.182C47.4952 203.092 56.5867 230.362 61.8666 240.885C67.7252 252.555 78.1595 262.048 82.4986 274.402C84.7793 280.886 82.8207 286.936 81.6062 293.418C80.2749 300.534 79.2742 307.81 74.6785 313.538C65.6326 324.811 47.9656 324.733 35.242 325.043C22.0708 325.365 10.4192 317.64 -0.0749817 309.93C-11.2049 301.766 -27.0531 292.641 -22.6 276.167Z" stroke="#101828"/>
<path fill-rule="evenodd" clip-rule="evenodd" d="M-15.3181 271.811C-10.4191 260.365 -0.124404 251.061 8.22911 242.277C15.2014 234.954 22.702 220.213 33.3327 219.162C45.8271 217.923 53.3995 233.664 58.3157 243.316C63.1544 252.8 70.1266 262.814 72.8059 273.224C75.5999 284.067 68.1596 298.671 61.0639 306.344C53.1497 314.9 40.2016 318.062 29.0914 317.72C17.4585 317.373 6.78469 310.302 -2.0254 302.967C-11.4443 295.126 -21.0154 285.097 -15.3181 271.811Z" stroke="#101828"/>
<path fill-rule="evenodd" clip-rule="evenodd" d="M-8.56245 269.656C-3.88292 260.136 4.22866 252.083 11.7079 244.9C17.4797 239.355 25.9965 229.926 34.3237 229.695C43.4844 229.44 51.2482 237.354 54.8901 245.467C58.4802 253.469 62.2629 263.501 62.8004 272.28C63.9674 291.397 40.2076 312.811 22.3662 311.068C5.45028 309.416 -17.8928 288.622 -8.56245 269.656Z" stroke="#101828"/>
<path fill-rule="evenodd" clip-rule="evenodd" d="M-2.31312 268.606C4.14255 256.203 19.8235 238.52 34.3409 238.101C51.0044 237.621 55.1875 257.297 53.0155 271.557C50.809 286.111 31.5971 307.176 16.2782 304.33C1.327 301.552 -9.96397 283.315 -2.31312 268.606Z" stroke="#101828"/>
<path fill-rule="evenodd" clip-rule="evenodd" d="M4.28348 266.601C9.74928 256.216 21.4129 243.245 33.5778 242.852C48.0726 242.387 47.7991 259 44.5122 269.34C41.0943 280.075 26.0413 298.411 13.3495 295.516C1.00799 292.69 -0.954461 276.554 4.28348 266.601Z" stroke="#101828"/>
<path fill-rule="evenodd" clip-rule="evenodd" d="M10.0308 265.405C13.6386 257.995 22.6681 248.63 31.252 248.33C41.7441 247.97 39.7045 261.146 36.9937 267.506C33.7715 275.074 22.9709 288.223 13.9071 286.092C4.98328 283.994 7.05427 271.511 10.0308 265.405Z" stroke="#101828"/>
<path fill-rule="evenodd" clip-rule="evenodd" d="M503.594 688.789C480.371 703.656 454.118 715.928 429.361 728.401C393.183 746.627 356.471 764.363 318.456 777.94C298.075 785.217 271.665 795.709 249.796 790.008C241.8 787.924 234.509 781.621 227.34 777.525C217.454 771.878 207.423 766.51 197.409 761.131C177.322 750.347 157.171 739.672 137.429 728.197C127.922 722.67 118.698 715.709 108.801 710.993C103.017 708.236 96.0964 709.526 89.9164 709.7C75.6012 710.106 61.2944 710.876 46.9877 711.532C29.4884 712.332 11.9492 713.183 -5.57007 712.867C-13.4717 712.723 -32.8238 714.202 -37.1737 707.021C-39.514 703.154 -33.9983 696.181 -31.4413 692.954C-26.7465 687.024 -21.3505 681.68 -16.0257 676.391C-3.71151 664.158 9.36663 652.509 20.3126 638.844C25.9367 631.82 33.3053 623.238 29.6338 613.648C25.9281 603.962 19.5087 595.575 15.5921 585.923C11.0826 574.815 9.21269 563.255 7.08335 551.477C5.50702 542.771 1.83556 535.058 -1.61641 527.032C-5.4304 518.161 -9.38124 509.215 -12.0294 499.86C-13.7796 493.68 -16.6044 482.563 -10.4815 478.651C-1.78174 473.088 14.5317 477.592 24.4487 479.231C38.1539 481.493 51.7595 484.373 65.4277 486.854C75.3503 488.658 85.3072 490.637 95.3951 490.848C111.657 491.187 127.974 490.012 144.193 488.917C174.226 486.89 204.044 484.142 234.178 484.142C260.579 484.142 321.589 516.369 335.87 522.043C364.375 533.371 393.639 544.109 420.613 559.181C427.91 563.261 439.141 568.698 442.981 577.097C445.35 582.272 444.261 585.264 449.848 588.599C457.47 593.149 467.236 594.935 475.674 596.971C489.262 600.248 502.956 603.024 516.607 605.992C544.217 611.979 571.639 618.751 599.135 625.267C607.447 627.237 617.504 627.673 625.428 631.143C630.536 633.372 630.006 636.177 626.053 639.563C619.117 645.505 609.397 648.804 601.205 652.193C589.201 657.158 577.001 661.587 564.795 665.953C552.589 670.32 540.32 674.551 528.109 678.926C520.042 681.807 510.843 684.149 503.594 688.789Z" stroke="#101828"/>
<path fill-rule="evenodd" clip-rule="evenodd" d="M484.485 685.519C459.919 700.416 432.651 712.284 406.364 723.863C372.721 738.691 338.316 752.588 302.868 761.857C282.055 767.296 257.498 773.301 236.231 767.064C228.645 764.839 222.976 759.837 216.473 755.422C209.06 750.384 201.362 745.768 193.664 741.223C177.818 731.87 161.804 722.836 145.623 714.121C137.052 709.486 127.618 703.28 117.935 701.672C110.237 700.392 101.493 702.244 93.7606 702.783C79.8356 703.753 65.9136 704.752 51.983 705.602C35.9084 706.58 19.7881 707.484 3.67924 707.327C-5.29895 707.24 -20.7122 708.682 -27.0616 702.56C-32.6014 697.218 -12.4325 677.897 -8.88571 674.226C2.19092 662.765 13.8406 651.851 24.1503 639.595C30.2432 632.368 37.6618 623.578 40.2307 613.998C42.4175 605.834 38.1978 596.532 35.706 588.986C32.5897 579.533 30.075 569.734 26.454 560.48C23.2294 552.235 18.0974 544.89 13.5897 537.395C8.63162 529.15 3.61078 520.769 -0.0700253 511.774C-2.32526 506.239 -6.05739 496.97 -1.57542 491.694C3.60223 485.611 19.5629 489.586 26.1233 490.453C39.4324 492.236 52.6388 494.886 65.8566 497.259C87.8103 501.198 108.74 504.643 131.096 503.818C160.209 502.74 189.293 500.204 218.4 498.801C229.149 498.277 240.069 497.223 250.826 497.792C256.993 498.12 261.689 500.108 265.276 504.592C270.174 510.711 281.456 514.099 289.302 517.61C301.536 523.082 313.925 528.171 326.279 533.326C353.398 544.649 381.04 555.562 406.76 570.207C414.897 574.838 424.215 580.003 430.233 587.655C433.592 591.922 432.745 596.032 434.795 600.568C437.51 606.533 446.434 609.225 451.768 611.177C462.063 614.947 472.781 617.473 483.416 619.84C507.479 625.195 531.6 628.715 556.054 631.308C561.784 631.91 584.351 633.997 572.499 644.055C559.404 655.17 540.495 660.618 525.079 666.881C511.191 672.513 497.292 677.752 484.485 685.519Z" stroke="#101828"/>
<path fill-rule="evenodd" clip-rule="evenodd" d="M450.536 682.764C427.446 695.87 401.866 705.648 376.998 715.002C346.82 726.352 315.887 736.469 284.236 742.137C264.354 745.694 242.434 748.427 222.686 742.516C209.2 738.481 198.768 727.573 186.923 720.068C175.078 712.563 162.753 705.519 150.061 699.647C142.183 696.003 133.709 692.332 124.944 692.813C103.631 693.979 82.3448 696.76 61.0097 698.11C46.8957 699.012 32.7532 699.755 18.5964 699.532C10.0595 699.4 -1.66841 699.941 -9.22632 695.203C-17.5806 689.962 26.9021 645.217 31.1063 640.181C41.6469 627.553 54.4108 610.794 52.3729 592.835C50.4235 575.667 41.9751 562.85 32.4192 549.398C26.9963 541.746 9.60567 521.304 16.0504 511.351C19.7324 505.663 31.8684 507.632 37.6339 508.02C48.9964 508.784 60.2962 510.425 71.5988 511.851C88.0789 513.916 105.013 517.106 121.564 518.041C133.09 518.691 144.683 517.822 156.229 517.804C172.783 517.78 189.337 517.912 205.892 518.068C219.792 518.201 233.808 518.068 247.66 519.475C256.271 520.341 262.807 522.287 268.984 527.783C274.358 532.563 282.467 535.363 289.317 538.402C300.631 543.421 312.093 548.072 323.519 552.798C347.44 562.696 371.635 572.387 394.531 584.756C404.983 590.4 422.556 598.301 425.008 611.984C425.893 616.918 426.544 619.05 431.11 621.855C437.592 625.836 445.356 627.631 452.628 629.192C469.582 632.83 487.027 632.285 503.952 635.881C510.845 637.364 519.845 640.563 511.976 647.887C502.794 656.453 489.427 661.161 478.427 666.453C472.936 669.093 467.279 671.565 462.064 674.788C458.06 677.271 454.632 680.455 450.536 682.764Z" stroke="#101828"/>
<path fill-rule="evenodd" clip-rule="evenodd" d="M406.801 678.672C385.468 689.317 362.3 697.056 339.548 704.033C314.277 711.773 288.397 718.183 262.174 720.911C244.067 722.801 224.774 723.358 207.2 717.575C196.087 713.916 188.552 706.222 178.988 699.769C164.555 690.016 148.939 682.289 131.598 684.169C112.158 686.273 92.6534 687.851 73.0855 688.904C61.2821 689.54 49.4331 690.016 37.6155 689.573C30.1436 689.296 20.5173 688.829 14.0172 685.257C5.31996 680.474 37.9888 644.079 42.061 638.775C52.1603 625.619 59.5638 611.816 63.8896 595.517C67.4175 582.217 60.2106 571.762 52.7758 561.813C48.1536 555.635 33.2184 540.095 37.8948 532.073C40.4595 527.648 48.9116 527.877 53.4512 527.651C62.1028 527.223 70.7915 527.669 79.4432 527.865C92.2183 528.167 105.817 526.096 118.484 527.763C146.556 531.452 174.557 534.646 202.803 537.175C218.374 538.567 234.039 539.833 249.47 542.519C255.01 543.483 260.732 544.505 265.981 546.687C269.358 548.088 271.199 550.475 274.048 552.434C287.636 561.759 305.372 566.557 320.675 572.533C341.019 580.478 361.471 588.299 381.274 597.684C391.689 602.621 406.237 608.293 413.404 618.368C415.57 621.412 414.646 623.847 416.008 626.774C417.576 630.149 422.338 631.156 425.412 632.096C432.391 634.233 461.603 637.464 448.142 649.998C441.718 655.969 433.534 659.799 426.293 664.492C423.671 666.192 421.115 667.901 418.929 670.194C415.273 674.04 411.671 676.234 406.801 678.672Z" stroke="#101828"/>
<path fill-rule="evenodd" clip-rule="evenodd" d="M360.203 674.063C318.089 691.285 268.734 703.018 222.82 700.745C207.551 699.986 191.123 697.454 177.888 688.789C170.083 683.67 163.847 677.893 154.472 676.044C147.704 674.71 140.417 676.225 133.609 676.773C123.749 677.567 113.883 678.278 104.009 678.853C91.767 679.555 79.4852 680.097 67.2206 679.808C58.4569 679.6 46.3551 679.835 38.7422 674.867C29.653 668.941 52.7887 641.145 56.044 636.192C63.9339 624.188 69.4651 612.557 71.464 598.09C72.0523 593.875 74.034 589.554 73.777 585.306C73.5086 580.968 70.9757 577.105 68.637 573.693C65.5787 569.222 54.9675 558.618 58.0058 553.165C59.6848 550.155 65.987 549.775 69.2538 549.137C75.3818 547.932 81.5984 547.285 87.7635 546.328C98.2234 544.696 108.609 539.382 119.106 539.532C147.333 539.93 175.969 549.167 203.63 554.24C220.075 557.266 236.632 560.012 252.877 564.11C258.017 565.407 263.311 566.75 268.197 568.951C271.607 570.487 273.797 573.224 276.955 574.943C289.066 581.546 302.992 585.553 315.996 589.997C332.878 595.778 349.818 601.384 366.582 607.538C377.091 611.395 390.603 614.788 399.658 621.942C406.272 627.166 401.751 628.729 398.262 633.594C396.48 636.075 396.891 638.52 396.117 641.329C395.012 645.339 391.888 648.227 388.959 650.822C384.918 654.408 379.535 657.362 376.231 661.758C375.066 663.305 375.121 665.226 374.178 666.575C371.437 670.504 364.164 672.443 360.203 674.063Z" stroke="#101828"/>
<path fill-rule="evenodd" clip-rule="evenodd" d="M315.428 667.927C281.248 678.755 243.217 684.92 207.087 682.059C194.517 681.062 181.869 678.746 170.159 673.659C164.832 671.352 160.833 668.78 154.995 668.641C141.449 668.322 127.861 669.439 114.319 669.707C104.627 669.9 94.887 669.969 85.2182 669.147C78.7533 668.599 70.0109 667.943 64.7148 663.759C57.0185 657.666 70.9117 636.953 73.7394 631.231C78.4256 621.74 83.0747 611.19 81.2161 600.209C80.6461 596.85 79.637 593.884 79.5058 590.459C79.3804 587.517 79.731 584.8 78.7419 581.987C77.5191 578.499 72.0804 573.087 73.9503 569.876C75.2245 567.683 79.0042 567.581 81.5183 566.879C85.596 565.741 89.5775 564.248 93.4219 562.416C97.4695 560.476 100.916 557.479 105.109 555.877C111.916 553.281 119.535 553.037 126.69 553.048C155.237 553.097 184.147 559.039 211.97 565.253C226.459 568.488 241.028 571.936 255.109 576.843C259.385 578.333 264.23 579.83 267.99 582.583C270.336 584.297 271.927 586.444 274.592 587.733C297.359 598.739 323.68 602.826 347.849 610.774C354.14 612.843 389.004 623.298 370.775 633.131C359.701 639.107 348 641.824 337.895 649.998C334.817 652.483 332.764 654.54 331.561 658.332C330.769 660.856 332.676 659.576 330.014 662.214C326.784 665.385 319.41 666.665 315.428 667.927Z" stroke="#101828"/>
<path fill-rule="evenodd" clip-rule="evenodd" d="M279.888 661.525C239.871 670.363 197.493 670.783 156.844 662.948C146.597 660.975 135.932 661.447 125.559 660.945C115.481 660.465 97.5618 661.465 90.2416 653.287C84.9336 647.359 90.6932 634.762 92.6855 628.131C95.2237 619.684 97.4418 610.957 93.2743 602.752C90.8333 597.948 87.489 593.374 84.8707 588.614C83.6188 586.341 81.0405 582.857 82.1153 580.704C83.8932 577.152 92.211 575.656 96.247 573.98C109.147 568.626 122.807 567.26 136.598 567.298C162.072 567.368 187.677 571.044 212.665 576.029C224.161 578.323 235.818 580.77 246.905 584.758C253.179 587.014 257.807 591.365 263.798 593.945C283.089 602.257 303.815 606.698 323.438 614.299C329.117 616.5 350.332 623.828 339.645 632.467C329.297 640.831 314.205 639.837 303.446 647.705C302.229 648.606 300.722 649.684 300.016 651.14C299.599 652.011 300.334 653.669 300.016 654.164C296.712 659.549 284.967 660.405 279.888 661.525Z" stroke="#101828"/>
<path fill-rule="evenodd" clip-rule="evenodd" d="M253.962 655.684C233.432 658.655 212.451 659.392 191.575 659.579C180.164 659.682 167.628 660.449 156.463 657.399C149.604 655.521 142.98 653.879 135.91 652.695C128.303 651.421 116.055 650.494 111.422 643.589C107.962 638.429 110.333 627.822 110.459 621.547C110.593 614.666 109.256 609.563 104.652 604.639C101.757 601.538 88.4777 590.282 90.0122 587.036C91.4725 583.944 100.726 583.47 104.727 582.667C117.372 580.119 130.186 579.231 143.048 579.37C162.97 579.581 182.965 581.725 202.575 585.409C210.682 586.939 219.061 588.525 226.805 591.583C232.02 593.645 236.37 597.302 241.551 599.434C256.388 605.548 272.077 609.699 286.966 615.925C291.744 617.927 307.312 623.256 303.58 631.469C300.468 638.326 289.883 640.412 284.682 645.008C275.835 652.846 265.244 654.054 253.962 655.684Z" stroke="#101828"/>
<path fill-rule="evenodd" clip-rule="evenodd" d="M241.029 651.744C224.744 653.711 208.079 654.571 191.555 654.613C180.89 654.64 169.64 654.793 159.174 652.264C153.918 650.995 149.35 648.026 144.375 645.909C139.252 643.732 132.182 641.301 129.968 636.309C127.887 631.617 128.664 624.772 126.837 619.115C125.212 614.095 121.811 610.994 118.148 607.602C115.814 605.434 103.829 596.047 105.215 593.975C106.7 591.755 113.898 591.936 117.644 591.629C127.963 590.769 138.319 590.495 148.667 590.808C162.789 591.265 177.02 592.54 190.897 595.427C200.742 597.473 208.168 602.345 217.346 605.918C229.238 610.558 241.556 614.228 253.333 619.304C259.202 621.834 267.888 625.088 270.893 631.617C272.049 634.119 273.17 640.483 271.884 642.986C270.338 645.993 264.586 647.268 261.871 648.041C255.069 649.969 247.951 650.907 241.029 651.744Z" stroke="#101828"/>
</g>
<g opacity="0.05">
<path fill-rule="evenodd" clip-rule="evenodd" d="M1013.22 291.836C1013.18 281.517 994.973 269.912 987.197 263.93C971.822 252.097 955.831 241.17 939.989 230.068C924.146 218.967 908.261 207.895 893.154 195.707C883.345 187.795 871.82 178.885 865.167 167.587C850.996 143.512 895.678 147.088 907.252 146.561C936.695 145.216 970.468 145.83 998.067 133.293C1014.54 125.808 1021.11 113.256 1017.57 94.962C1016.43 89.0124 1013.06 82.1661 1015.92 76.37C1018.97 70.1797 1026 66.6076 1031.83 64.2121C1053.1 55.4849 1077.55 54.4737 1100.05 53.3783C1124.32 52.1746 1148.81 52.5267 1172.91 52.4334C1183.12 52.3943 1193.79 48.5212 1203.52 45.3734C1216.28 41.2475 1228.88 36.6131 1241.53 32.1321C1269.36 22.2974 1298.03 11.9391 1327.47 9.44135C1345.91 7.87647 1366.06 9.99207 1380.38 23.6035C1387.57 30.4378 1391.34 40.5975 1395.5 49.6226C1400.53 60.5256 1405.36 71.5339 1410.72 82.2654C1427.98 116.828 1452.62 150.602 1492.62 152.3C1498.67 152.556 1504.61 151.722 1510.63 151.566C1514.47 151.469 1517.88 152.447 1519.31 156.681C1522.89 167.302 1511.63 184.067 1507.01 192.493C1496.89 210.938 1485.49 228.555 1474.8 246.629C1467.73 258.582 1455.5 274.917 1455.37 289.44C1455.26 302.381 1471.57 311.734 1480.45 318.108C1488.77 324.075 1503.84 332.426 1504.75 344.566C1505.2 350.453 1501.52 355.331 1497.68 359.117C1490.94 365.737 1483.19 370.408 1477.13 377.961C1467.2 390.354 1458.9 407.405 1460.25 424.104C1461.19 435.675 1467.44 443.253 1475.4 450.497C1478.75 453.542 1481.46 455.697 1481.64 460.641C1481.92 468.493 1479.01 476.802 1476.61 484.081C1468.02 510.133 1455.82 535.325 1442.25 558.846C1435.47 570.601 1428.14 582.32 1419.15 592.347C1413.27 598.931 1405.32 606.768 1396.34 606.759C1385.94 606.759 1374.94 602.798 1364.83 599.837C1345.95 594.303 1327.3 587.905 1308.72 581.342C1265.76 566.156 1223.2 549.741 1181.05 532.096C1151.36 519.646 1121.04 507.178 1093.12 490.627C1087.68 487.376 1082.54 483.586 1077.78 479.308C1072.69 474.815 1066.37 472.805 1059.97 471.306C1020.22 462.004 976.67 469.146 936.755 473.624C926.624 474.758 916.493 475.899 906.333 476.693C897.6 477.376 887.143 479.335 878.655 476.392C861.928 470.599 876.55 449.248 882.732 440.548C904.497 409.915 932.578 383.998 958.606 357.54C970.981 344.939 983.45 332.372 995.152 319.059C1001.25 312.137 1013.26 300.882 1013.22 291.836Z" stroke="#101828"/>
<path fill-rule="evenodd" clip-rule="evenodd" d="M1020.72 290.097C1014.05 279.178 1002.35 271.107 992.63 263.512C978.648 252.577 964.228 242.251 950.023 231.626C936.593 221.579 923.133 211.418 910.695 200.009C903.111 193.051 893.595 184.731 890.003 174.44C882.21 152.135 924.132 155.519 934.481 154.936C960.21 153.492 989.38 153.161 1013.18 141.418C1028.05 134.084 1034.15 121.923 1030.98 105.038C1029.89 99.1967 1027.91 94.2093 1030.41 88.3978C1033.3 81.6718 1039.95 77.4785 1046.05 74.5186C1065.14 65.2448 1087.7 63.2745 1108.4 61.6351C1129.78 59.9416 1152.06 58.7474 1172.75 59.9867C1181.02 60.48 1190.55 57.6795 1198.74 55.5318C1211.34 52.2229 1223.81 48.4057 1236.35 44.8562C1261.83 37.6369 1287.97 30.6823 1314.48 29.8911C1333.62 29.3196 1353.57 32.4179 1369.49 44.393C1385.63 56.5365 1392.79 75.3609 1401.74 93.2558C1417.19 124.194 1438.06 161.809 1473.82 168.346C1479.24 169.338 1484.45 168.8 1489.86 169.044C1492.65 169.167 1495.82 169.558 1497.23 172.455C1500.9 179.975 1490.85 193.725 1487.47 199.485C1478.13 215.404 1467.62 230.543 1457.83 246.155C1450.06 258.551 1440.2 272.325 1437.2 287.02C1433.55 304.851 1457.39 317.539 1465.78 330.095C1480.32 351.867 1452.77 364.272 1439.19 374.653C1423.6 386.571 1410.73 408.313 1424.71 426.753C1430.05 433.804 1436.63 438.006 1439.02 447.207C1442.76 461.598 1439.93 478.043 1436.9 492.268C1432.34 513.652 1425.11 534.805 1415.29 554.132C1408.25 567.969 1396.58 589.666 1379.49 588.038C1367.98 586.953 1356.28 582.985 1345.07 579.478C1328.3 574.228 1311.73 568.245 1295.25 562.031C1257.21 547.725 1219.59 531.95 1182.71 514.6C1157.55 502.757 1087.36 454.361 1082.07 452.634C1066.33 447.49 1048.42 448.396 1032.19 449.193C1010.59 450.252 989.1 452.995 967.629 455.537C957.408 456.74 947.136 458.211 936.861 458.803C929.548 459.225 919.943 459.586 913.537 455.101C901.034 446.35 914.964 426.329 920.725 417.858C938.373 391.889 960.698 369.401 981.63 346.408C991.902 335.118 1002.33 323.847 1011.66 311.652C1015.42 306.728 1024.84 296.841 1020.72 290.097Z" stroke="#101828"/>
<path fill-rule="evenodd" clip-rule="evenodd" d="M1029.95 284.497C1011.73 262.646 986.586 246.395 964.884 228.146C953.991 218.984 943.03 209.572 933.635 198.659C928.748 192.984 922.645 185.808 921.704 177.897C919.188 156.736 956.972 159.597 968.281 158.794C990.147 157.235 1014.85 156.053 1034.68 145.254C1046.8 138.652 1052.77 127.817 1050.51 113.576C1049.5 107.258 1047.94 101.89 1050.51 95.6853C1053.11 89.3997 1058.53 84.9646 1064.02 81.6398C1079.79 72.0775 1099.39 69.0204 1117.15 66.7427C1137.99 64.0897 1158.98 63.0539 1179.96 63.6435C1198.33 64.1521 1216.61 58.4321 1234.55 54.662C1258.32 49.6702 1282.52 45.3103 1306.83 45.9693C1326.04 46.4928 1345.4 50.606 1361.82 61.5373C1378.5 72.6702 1388.53 89.3335 1397.57 107.315C1411.25 134.497 1428.28 170.923 1458.28 181.246C1462.64 182.751 1466.71 182.916 1471.2 183.178C1473.39 183.304 1476.21 183.343 1477.3 185.748C1479.9 191.537 1470.26 202.76 1467.57 206.671C1458.98 219.158 1449.68 231.083 1440.87 243.404C1432.66 254.907 1423.71 266.895 1418.6 280.374C1410.48 301.843 1436.45 314.396 1435.72 334.853C1435.27 347.554 1423.74 356.662 1414.61 362.963C1403.37 370.71 1387.18 375.805 1381.56 389.943C1377.37 400.474 1383.94 406.604 1389.01 414.595C1397.59 428.135 1398.17 446.49 1397.28 462.163C1396.08 483.342 1391.37 504.835 1383.36 524.303C1379.74 533.128 1375.29 542.308 1368.75 549.162C1362.61 555.586 1356.81 557.232 1348.62 555.917C1323.53 551.885 1298.21 540.647 1274.16 530.609C1243.93 517.996 1214.13 504.071 1185.21 488.403C1165.5 477.719 1145.34 466.414 1128.03 451.653C1123.52 447.804 1118.9 443.622 1115.6 438.546C1113.11 434.731 1112.05 431.58 1107.85 429.402C1095.39 422.948 1078.07 424.636 1064.72 425.307C1043.38 426.375 1022.14 429.218 1000.93 431.779C988.557 433.283 965.243 438.016 955.36 426.664C946.83 416.861 957.124 400.146 962.382 391.511C975.682 369.672 992.791 350.506 1008.67 330.77C1015.94 321.726 1023.5 312.612 1029.51 302.556C1031.04 299.992 1033.5 296.595 1033.93 293.481C1034.4 289.913 1032.19 287.189 1029.95 284.497Z" stroke="#101828"/>
<path fill-rule="evenodd" clip-rule="evenodd" d="M1031.52 289.583C1014.68 270.263 994.402 254.391 976.329 236.312C968.225 228.205 960.042 219.702 953.867 209.813C950.546 204.495 947.019 197.801 947.935 191.191C950.563 172.221 981.639 173.934 994.194 172.823C1012.85 171.191 1034.28 169.547 1050.78 159.318C1061.58 152.618 1065.63 142.723 1063.62 129.961C1061.45 116.272 1066.29 106.336 1077.31 98.6991C1091.13 89.1325 1108.57 85.2329 1124.61 82.4626C1143.94 79.1409 1163.51 77.6684 1183.09 78.0632C1202.13 78.4487 1220.58 75.0821 1239.49 72.893C1264.57 69.9932 1290.45 68.5629 1315.25 74.507C1336.84 79.6833 1356.34 91.0897 1370.96 108.729C1386.22 127.14 1393.78 150.335 1406.18 170.703C1413.91 183.408 1424.7 200.213 1439.15 205.151C1443.96 206.799 1452.75 204.576 1448.9 212.68C1446.7 217.314 1442.58 221.379 1439.33 225.167C1434.07 231.289 1428.64 237.242 1423.3 243.279C1411.91 256.149 1399.71 269.293 1391.17 284.533C1380.41 303.721 1396.4 318.488 1394.46 337.943C1393.41 348.413 1386.51 356.769 1379.21 363.334C1374.49 367.585 1369.32 371.268 1364.04 374.704C1358.53 378.293 1352.01 381.027 1347.21 385.668C1340.36 392.271 1343.33 400.088 1344.62 408.625C1346.88 423.628 1347.37 438.867 1346.1 453.998C1344.53 472.544 1340.87 491.62 1333.14 508.474C1330.14 515.035 1326.33 521.991 1320.68 526.391C1315.03 530.79 1309.18 530.489 1302.7 529.164C1283.49 525.249 1264.32 516.141 1246.09 507.507C1223.28 496.7 1200.92 484.622 1179.57 470.882C1164.83 461.397 1150.04 451.15 1137.7 438.289C1134.12 434.546 1130.71 430.538 1127.95 426.063C1126.05 422.995 1125.04 419.035 1122.29 416.728C1113.7 409.529 1096.46 411.679 1086.39 412.097C1066.28 412.931 1046.5 416.897 1026.42 417.861C1015.47 418.388 998.305 419.712 990.259 409.869C982.692 400.615 989.546 386.041 994.068 377.125C1002.96 359.594 1014.9 343.974 1025.6 327.678C1030 320.972 1034.82 313.956 1037.67 306.298C1040.21 299.475 1035.83 294.536 1031.52 289.583Z" stroke="#101828"/>
<path fill-rule="evenodd" clip-rule="evenodd" d="M1035.66 289.899C1022.26 272.898 1006.1 257.807 992.608 240.529C984.707 230.411 971.102 213.401 977.212 199.136C983.915 183.461 1007.28 183.034 1020.79 181.771C1036.86 180.268 1055.74 178.214 1069.49 168.427C1073.84 165.333 1077.55 161.237 1079.12 155.843C1080.8 150.07 1078.96 145.018 1078.72 139.239C1078.22 127.115 1085.08 117.382 1094.16 110.697C1106.99 101.247 1123.03 96.7783 1138.19 93.6632C1155.36 90.1496 1172.81 88.4174 1190.3 88.4913C1207.01 88.5514 1223.55 88.1606 1240.28 87.7095C1262.16 87.1081 1284.34 88.0794 1305.57 94.2104C1326.47 100.254 1345.48 111.581 1360.41 128.243C1374.98 144.501 1384.81 164.373 1393.41 184.616C1398.3 196.105 1406.55 213.275 1418.2 219.078C1423.38 221.661 1428.46 221.483 1422.95 228.201C1416.02 236.659 1406.67 243.446 1398.63 250.68C1387.04 261.12 1375.16 271.765 1365.44 284.177C1359.22 292.103 1356.46 299.795 1356.88 310.058C1357.21 317.875 1358.71 325.612 1357.95 333.46C1356.18 351.88 1342.43 364.512 1330.27 376.275C1322.45 383.841 1315.31 389.611 1311.28 400.373C1306.52 413.092 1304.52 426.93 1301.34 440.136C1297.85 454.638 1293.81 469.724 1286.18 482.497C1279.39 493.869 1271.13 498.969 1258.77 495.905C1239.48 491.13 1220.48 479.367 1203.36 468.485C1185.94 457.414 1168.81 444.965 1154.38 429.747C1146.58 421.529 1141.26 411.88 1134.34 403.052C1125.63 391.968 1105.93 396.166 1094.23 397.104C1074.79 398.662 1013.65 410.317 1019.29 372.568C1021.64 356.812 1030.92 342.27 1037.7 328.367C1040.51 322.596 1044.58 315.671 1045.22 309.059C1045.91 301.858 1039.69 295.017 1035.66 289.899Z" stroke="#101828"/>
<path fill-rule="evenodd" clip-rule="evenodd" d="M1042.73 291.343C1032.49 275.937 1020.24 261.382 1011.45 244.742C1005.75 233.966 1000.15 219.567 1007.51 208.165C1015.81 195.298 1034.11 192.299 1047.55 190.659C1061.41 188.971 1077.95 187.551 1089.27 177.795C1092.87 174.687 1095.84 170.496 1096.39 165.478C1096.93 160.665 1095.42 155.851 1095.92 150.95C1097.04 139.945 1103.36 130.878 1111.52 124.301C1135.64 104.846 1171.53 100.52 1200.64 100.011C1215.2 99.7584 1230.19 101.085 1244.85 102.036C1263.88 103.269 1282.93 105.917 1301.07 112.298C1339.65 125.86 1365.5 155.938 1383.56 193.367C1389.24 205.148 1393.59 217.895 1402.5 227.362C1407.09 232.251 1406.09 235.762 1401.39 240.221C1394.05 247.188 1385.1 252.513 1376.96 258.329C1365.37 266.599 1353.54 274.992 1343.29 284.899C1336.23 291.729 1331.22 298.308 1329.7 308.549C1328.61 315.85 1328.86 323.29 1328.21 330.637C1326.97 344.593 1322.71 358.444 1315.18 370.021C1309.2 379.197 1302.07 387.536 1294.71 395.487C1285.13 405.84 1277.04 416.357 1269.77 428.644C1260.13 444.908 1246.58 474.908 1223.88 466.969C1198.84 458.208 1175.37 435.948 1159.3 414.381C1153.91 407.139 1149.48 398.258 1142.2 392.918C1131.31 384.937 1120.26 385.217 1107.3 385.25C1087.91 385.295 1045.7 389.738 1045.24 359.076C1045.06 346.928 1050.04 335.442 1052.43 323.757C1055.12 310.67 1049.73 301.843 1042.73 291.343Z" stroke="#101828"/>
<path fill-rule="evenodd" clip-rule="evenodd" d="M1050.36 292.717C1040.23 272.637 1017.52 239.643 1034.79 217.314C1043.92 205.514 1060.06 201.08 1073.6 198.437C1084.49 196.3 1097.63 195.497 1105.87 186.436C1111.92 179.774 1109.23 170.078 1111.55 161.739C1114.43 151.4 1121.03 142.94 1129.15 136.582C1151.83 118.811 1183.36 113.357 1210.64 112.197C1238.97 110.994 1270.19 116.619 1296.86 127.439C1330.1 140.935 1355 166.489 1372.42 198.849C1375.64 204.823 1378.56 210.953 1381.64 216.999C1383.71 221.054 1386.79 224.978 1388.42 229.244C1391.14 236.357 1387.94 242.171 1382.8 246.807C1375.41 253.481 1366.33 258.231 1357.9 263.24C1346.38 270.094 1334.6 276.825 1323.88 284.867C1316.68 290.279 1309.14 296.108 1306.56 305.497C1304.8 311.901 1304.43 318.683 1304.5 325.315C1304.63 339.535 1303.93 351.034 1297.64 364.058C1287.29 385.439 1271.37 404.665 1254.55 420.662C1241.35 433.216 1220.47 452.718 1201.24 444.325C1183.99 436.809 1173.9 418.819 1162.53 404.274C1157.01 397.203 1150.8 390.745 1143.51 385.716C1134.31 379.375 1125.65 376.715 1114.76 375.677C1096.42 373.931 1068.77 373.477 1063.1 350.268C1061 341.703 1062.2 332.831 1061.1 324.154C1059.67 312.682 1055.47 302.845 1050.36 292.717Z" stroke="#101828"/>
<path fill-rule="evenodd" clip-rule="evenodd" d="M1060.89 293.46C1053.68 271.489 1044.21 243.8 1061.63 224.273C1070.06 214.813 1081.93 209.525 1093.42 205.573C1101.65 202.741 1114.71 201.908 1119.75 193.201C1123.46 186.793 1123.97 177.953 1127.32 171.088C1131.93 161.65 1138.91 153.876 1147.09 147.79C1168.41 131.932 1196.18 125.804 1221.51 124.05C1276.54 120.242 1332.53 150.565 1361.97 200.454C1370.75 215.325 1382.09 231.153 1367.9 246.346C1352.41 262.92 1329.07 270.685 1310.58 282.462C1303.52 286.959 1294.51 292.364 1290.57 300.506C1288.2 305.399 1288.04 311.539 1287.93 316.926C1287.65 330.648 1286.57 342.988 1281.34 355.791C1273.26 375.577 1260.38 393.83 1245.79 408.783C1233.06 421.821 1214.91 437.143 1196.43 427.744C1182.26 420.521 1173.27 405.189 1162.26 393.888C1150 381.301 1134.85 372.82 1118.21 368.675C1102.02 364.654 1084.26 361.943 1075.73 344.86C1072.8 339 1069.74 331.412 1068.65 324.926C1066.88 314.232 1064.28 303.709 1060.89 293.46Z" stroke="#101828"/>
<path fill-rule="evenodd" clip-rule="evenodd" d="M1072.64 293.615C1069.3 271.429 1068.93 248.295 1084.43 230.81C1091.67 222.652 1100.81 216.857 1110.06 211.606C1116.87 207.742 1123.9 204.483 1128.98 198.149C1133.69 192.285 1137.27 185.475 1141.81 179.457C1147.81 171.482 1154.98 164.578 1163.06 159.01C1183.31 145.081 1207.94 138.567 1231.51 136.307C1242.92 135.209 1255.29 134.637 1266.62 137.631C1277.56 140.52 1288.38 145.087 1298.45 150.413C1319.84 161.724 1338.37 178.289 1351.81 199.233C1361.03 213.598 1366.01 227.566 1354.08 242.139C1340.62 258.565 1319.53 267.629 1302.15 278.29C1290.22 285.602 1276.86 292.769 1274.63 308.308C1272.86 320.673 1271.42 332.408 1266.83 344.095C1260 361.334 1249.96 376.95 1237.3 390.017C1225.72 401.92 1211.08 412.022 1194.52 405.664C1181.4 400.617 1171.22 389.312 1159.76 381.23C1146.98 372.203 1132.95 367.226 1118.17 363.224C1104.89 359.613 1092.38 354.064 1083.8 342.284C1082.04 339.876 1080.2 337.255 1078.84 334.562C1077.11 331.126 1077.25 327.72 1076.91 323.868C1076.03 313.704 1074.15 303.656 1072.64 293.615Z" stroke="#101828"/>
<path fill-rule="evenodd" clip-rule="evenodd" d="M1085.59 291.802C1085.87 270.729 1090.67 250.813 1103.83 234.39C1109.45 227.364 1116.17 221.578 1122.36 215.14C1127.34 209.95 1132.05 205.128 1137.78 200.851C1151.37 190.724 1162.42 177.62 1176.86 168.602C1196.14 156.546 1218.23 149.883 1240.15 147.218C1250.85 145.916 1261.9 145.461 1272.73 146.932C1282.03 148.195 1290.93 152.628 1299.19 157.164C1315.39 166.049 1331.11 178.678 1341.62 194.654C1364.8 229.878 1319.1 255.487 1295.64 270.484C1284.86 277.383 1268.38 285.373 1263.96 299.038C1260.8 308.8 1258.87 318.728 1254.81 328.189C1243.88 353.596 1221.7 383.479 1192.14 379.501C1179.49 377.801 1167.97 370.896 1156.16 366.261C1144 361.486 1131.45 358.825 1118.81 355.905C1107 353.177 1097.59 349.295 1089.96 338.888C1086.32 333.918 1086.64 327.969 1086.32 321.872C1085.78 311.856 1085.46 301.784 1085.59 291.802Z" stroke="#101828"/>
<path fill-rule="evenodd" clip-rule="evenodd" d="M1097.37 289.102C1102.12 257.294 1119.76 222.568 1145.69 204.096C1176.2 182.366 1209.24 164.068 1245.69 158.808C1262.59 156.368 1281.1 155.168 1297.04 163.144C1309.17 169.211 1323.27 178.279 1329.95 191.031C1346.28 222.222 1309.94 247.053 1289.24 261.483C1278.09 269.252 1263.9 276.822 1255.5 288.167C1250.63 294.744 1248.14 303.445 1244.21 310.669C1232.28 332.562 1212.65 350.219 1188.19 353.377C1176.89 354.836 1165.5 353.031 1154.28 351.597C1142.79 350.129 1131.16 349.332 1119.75 347.284C1110.63 345.648 1099.89 342.878 1096.54 332.589C1092.31 319.623 1095.44 302.092 1097.37 289.102Z" stroke="#101828"/>
<path fill-rule="evenodd" clip-rule="evenodd" d="M1108.94 283.993C1115.86 254.088 1130.53 224.917 1155.18 207.064C1168.26 197.598 1183.43 191.063 1198.01 184.606C1214.52 177.289 1231.78 171.609 1249.4 168.791C1271.35 165.282 1306.89 162.118 1318.36 188.501C1329.74 214.689 1300.98 237.867 1283.98 251.075C1273.07 259.536 1261.4 267.302 1250.99 276.552C1245.34 281.567 1240.99 287.361 1236.21 293.243C1223 309.539 1204.16 322.441 1184.97 329.328C1166.36 336.004 1143.34 338.96 1123.7 336.754C1115.23 335.805 1109.17 332.606 1106.61 323.509C1103.06 310.864 1106.08 296.346 1108.94 283.993Z" stroke="#101828"/>
<path fill-rule="evenodd" clip-rule="evenodd" d="M1120.43 275.938C1127.31 249.608 1142.15 225.558 1163.79 209.755C1188.06 192.04 1219.3 182.196 1248.02 177.19C1263.28 174.531 1296.36 167.322 1304.14 187.954C1311.92 208.586 1289.43 228.919 1276.48 240.111C1260.77 253.675 1243.83 266.772 1226.91 278.942C1212.21 289.523 1196.53 300.341 1180.6 308.512C1171.62 313.148 1162.27 316.933 1152.65 319.822C1145.53 321.944 1136.47 325.109 1129 323.53C1110.17 319.54 1117.14 288.528 1120.43 275.938Z" stroke="#101828"/>
<path fill-rule="evenodd" clip-rule="evenodd" d="M1134.61 268.053C1149.7 218.259 1197.53 193.77 1243.58 185.234C1254.28 183.252 1284.28 176.109 1290.26 191.319C1296.06 206.067 1277.62 223.557 1268.99 231.844C1242.25 257.521 1209.21 276.559 1177.91 295.42C1168.13 301.307 1150.51 314.082 1138.39 308.189C1125.22 301.779 1131.48 278.378 1134.61 268.053Z" stroke="#101828"/>
<path fill-rule="evenodd" clip-rule="evenodd" d="M1150.07 258.469C1163.2 221.8 1201.38 200.769 1236.49 193.836C1245.09 192.139 1266.93 186.857 1273.44 197.09C1279.46 206.556 1265.08 220.272 1259.7 225.722C1247.72 237.859 1233.53 247.858 1219.5 257.468C1206.53 266.359 1193.42 275.473 1179.78 282.993C1172.59 286.951 1159.11 295.398 1150.95 289.285C1142.15 282.71 1147.16 266.612 1150.07 258.469Z" stroke="#101828"/>
<path fill-rule="evenodd" clip-rule="evenodd" d="M1167.11 247.756C1177.12 223.81 1203.91 208.26 1227.55 203.092C1233.92 201.705 1247.66 198.106 1253.03 204.501C1257.97 210.39 1250.01 219.025 1246.47 223.012C1230.81 240.687 1207.88 256.475 1186.87 266.172C1181.58 268.609 1172.09 273.394 1166.65 268.474C1161.08 263.421 1164.81 253.255 1167.11 247.756Z" stroke="#101828"/>
<path fill-rule="evenodd" clip-rule="evenodd" d="M1185.19 237.697C1190.82 225.806 1205.56 216.835 1217.77 213.979C1226.36 211.971 1236.68 213.706 1229.2 224.056C1221.76 234.328 1207.96 243.709 1196.26 247.868C1187.34 251.04 1180.34 247.911 1185.19 237.697Z" stroke="#101828"/>
<path fill-rule="evenodd" clip-rule="evenodd" d="M727.968 320.055C727.607 296.563 715.776 272.148 721.619 248.21C726.416 228.551 750.571 226.91 765.061 218.003C776.576 210.926 783.11 198.391 789.338 186.364C794.933 175.566 799.958 164.444 805.852 153.824C809.668 146.958 816.22 133.476 824.494 133.232C832.416 132.998 839.679 143.504 844.281 149.714C850.28 157.81 855.599 166.44 861.425 174.665C871.242 188.537 883.022 198.806 896.51 208.525C911.859 219.583 927.462 230.263 943.318 240.566C954.992 248.174 966.746 255.726 977.968 264.085C985.006 269.331 1000.54 279.173 1000.61 288.843C1000.65 293.457 996.504 298.568 993.711 302.256C988.984 308.5 983.597 314.208 978.193 319.793C968.127 330.197 957.635 340.129 947.256 350.181C933.785 363.228 920.918 376.061 909.075 390.871C896.832 406.202 885.135 422.038 873.199 437.657C865.115 448.239 857.04 460.122 845.38 466.615C830.775 474.731 818.788 466.173 804.019 466.073C791.314 465.986 792.251 434.916 790.636 426.276C789.016 417.532 785.445 409.392 784.061 400.626C782.336 389.684 782.313 378.489 781.889 367.43C781.374 353.903 781.169 341.025 767.47 335.867C759.674 332.936 751.24 332.32 743.17 330.564C737.943 329.425 728.082 327.477 727.968 320.055Z" stroke="#101828"/>
<path fill-rule="evenodd" clip-rule="evenodd" d="M734.213 315.876C732.881 296.184 725.014 270.979 732.454 250.652C738.81 233.28 758.689 231.029 772.075 221.903C783.125 214.377 788.045 202.061 793.568 189.961C798 180.255 802.297 170.455 807.328 161.059C811.035 154.135 816.695 142.445 824.404 141.012C831.333 139.723 838.765 150.044 842.654 155.294C848.329 162.959 853.183 171.283 858.196 179.433C867.005 193.748 876.025 206.622 888.917 217.138C901.867 227.699 916.034 235.596 930.352 243.815C941.554 250.245 952.698 256.862 963.341 264.287C971.269 269.814 982.667 276.889 986.294 286.746C989.166 294.543 974.602 307.483 970.307 312.05C961.467 321.44 952.099 330.255 942.715 339.015C931.274 349.691 919.468 359.027 909.364 371.205C891.293 392.977 876.187 420.091 852.935 436.273C838.91 446.033 823.303 448.529 807.704 447.069C801.527 446.491 800.044 437.287 799.266 431.919C797.971 423.002 797.809 413.931 796.814 404.978C795.881 396.596 793.811 388.633 792.142 380.414C790.454 372.087 789.981 363.555 788.738 355.17C787.968 349.965 787.206 343.908 783.838 339.723C780.354 335.391 774.605 333.575 769.58 332.196C760.144 329.631 735.154 329.773 734.213 315.876Z" stroke="#101828"/>
<path fill-rule="evenodd" clip-rule="evenodd" d="M742.254 307.633C740.014 289.556 736.878 267.043 746.003 250.389C753.461 236.772 769.367 233.834 780.728 224.961C790.177 217.583 793.747 205.848 798.437 194.943C802.286 185.998 806.155 177.014 810.82 168.502C814.358 162.047 818.917 153.295 825.941 151.043C831.947 149.118 838.732 157.739 842.061 162.029C847.73 169.341 852.352 177.534 856.943 185.619C864.453 198.849 871.363 212.98 882.051 223.741C892.436 234.183 904.773 240.346 917.341 247.277C926.967 252.587 936.534 258.101 945.604 264.433C952.568 269.292 961.199 275.049 964.828 283.134C967.966 290.107 959.909 298.36 955.883 303.279C949.236 311.397 941.857 318.844 934.582 326.322C926.73 334.389 918.034 341.83 910.436 350.096C894.459 367.489 881.694 386.747 862.002 400.072C849.248 408.704 832.087 416.546 817.011 415.136C806.169 414.119 806.882 388.797 805.841 380.706C804.129 367.477 800.822 353.577 795.57 341.391C791.059 330.949 780.34 327.729 770.48 325.387C764.303 323.917 757.829 323.123 751.854 320.85C744.938 318.216 743.192 315.209 742.254 307.633Z" stroke="#101828"/>
<path fill-rule="evenodd" clip-rule="evenodd" d="M749.752 299.159C748.419 283.877 748.718 265.805 757.356 252.585C764.926 241.006 778.405 237.957 787.991 228.836C795.472 221.719 798.41 210.116 802.434 200.704C807.351 189.197 814.242 167.944 826.646 163.614C838.185 159.588 850.253 185.304 854.43 192.973C861.044 205.11 866.575 218.42 874.596 229.629C881.504 239.278 890.758 244.613 900.581 250.345C913.106 257.667 932.121 266.348 938.817 280.617C943.808 291.25 927.578 307.057 922.035 314.424C916.238 322.119 911.872 331.241 905.89 338.665C896.449 350.38 881.152 359.812 868.522 367.01C856.244 374.012 840.298 381.762 826.369 381.301C817.214 380.999 815.472 366.079 813.519 358.79C810.721 348.429 807 339.144 799.007 332.097C790.872 324.924 781.283 321.543 771.203 318.585C766.029 317.077 760.126 315.901 755.497 312.856C750.383 309.542 750.266 305.033 749.752 299.159Z" stroke="#101828"/>
<path fill-rule="evenodd" clip-rule="evenodd" d="M758.887 290.351C758.961 277.148 761.821 263.069 770.303 252.885C777.368 244.402 788.426 241.566 795.188 232.895C800.545 226.029 803.272 216.391 806.858 208.418C811.244 198.648 817.446 181.58 828.353 178.19C838.998 174.889 848.414 193.688 852.495 201.127C858.472 212.034 863.311 223.596 869.342 234.473C874.067 243.007 879.845 248.507 887.539 254.007C896.57 260.467 909.17 267.624 913.995 278.312C917.473 286.051 909.054 298.417 905.997 305.234C903.947 309.813 902.072 314.464 901.041 319.427C900.239 323.292 900.159 326.869 897.834 330.188C891.979 338.535 879.142 339.625 870.432 342.376C858.865 346.028 846.592 350.178 834.487 350.97C827.047 351.465 823.25 344.231 819.003 339.141C813.985 333.125 806.881 328.798 800.676 324.258C792.487 318.257 783.576 314.524 774.356 310.701C770.198 308.976 765.314 307.284 762.092 303.854C758.728 300.298 758.861 295.116 758.887 290.351Z" stroke="#101828"/>
<path fill-rule="evenodd" clip-rule="evenodd" d="M768.483 282.513C769.954 271.425 774.535 260.827 782.273 252.988C788.205 246.97 796.083 243.581 800.844 236.35C805.281 229.61 808.372 221.946 812.036 214.739C815.914 207.12 821.675 194.385 830.618 192.312C840.257 190.079 847.682 202.925 851.793 210.045C856.987 219.042 860.934 228.722 865.578 238.029C869.076 244.966 873.539 251.311 878.818 256.851C884.354 262.692 891.861 268.286 894.662 276.317C897.138 283.431 892.505 292.037 891.688 299.25C890.813 306.956 892.346 315.051 887.496 321.668C877.496 335.314 852.397 332.784 838.049 333.075C823.891 333.376 812.509 325.026 801.052 317.082C793.485 311.837 785.604 307.396 777.846 302.509C769.937 297.523 767.19 292.272 768.483 282.513Z" stroke="#101828"/>
<path fill-rule="evenodd" clip-rule="evenodd" d="M777.4 276.167C781.748 260.103 795.327 251.565 805.034 239.425C812.976 229.486 818.932 208.904 832.308 206.182C847.495 203.092 856.587 230.362 861.867 240.885C867.725 252.555 878.159 262.048 882.499 274.402C884.779 280.886 882.821 286.936 881.606 293.418C880.275 300.534 879.274 307.81 874.679 313.538C865.633 324.811 847.966 324.733 835.242 325.043C822.071 325.365 810.419 317.64 799.925 309.93C788.795 301.766 772.947 292.641 777.4 276.167Z" stroke="#101828"/>
<path fill-rule="evenodd" clip-rule="evenodd" d="M784.682 271.811C789.581 260.365 799.876 251.061 808.229 242.277C815.201 234.954 822.702 220.213 833.333 219.162C845.827 217.923 853.4 233.664 858.316 243.316C863.154 252.8 870.127 262.814 872.806 273.224C875.6 284.067 868.16 298.671 861.064 306.344C853.15 314.9 840.202 318.062 829.091 317.72C817.458 317.373 806.785 310.302 797.975 302.967C788.556 295.126 778.985 285.097 784.682 271.811Z" stroke="#101828"/>
<path fill-rule="evenodd" clip-rule="evenodd" d="M791.438 269.656C796.117 260.136 804.229 252.083 811.708 244.9C817.48 239.355 825.997 229.926 834.324 229.695C843.484 229.44 851.248 237.354 854.89 245.467C858.48 253.469 862.263 263.501 862.8 272.28C863.967 291.397 840.208 312.811 822.366 311.068C805.45 309.416 782.107 288.622 791.438 269.656Z" stroke="#101828"/>
<path fill-rule="evenodd" clip-rule="evenodd" d="M797.687 268.606C804.143 256.203 819.823 238.52 834.341 238.101C851.004 237.621 855.187 257.297 853.015 271.557C850.809 286.111 831.597 307.176 816.278 304.33C801.327 301.552 790.036 283.315 797.687 268.606Z" stroke="#101828"/>
<path fill-rule="evenodd" clip-rule="evenodd" d="M804.283 266.601C809.749 256.216 821.413 243.245 833.578 242.852C848.073 242.387 847.799 259 844.512 269.34C841.094 280.075 826.041 298.411 813.349 295.516C801.008 292.69 799.046 276.554 804.283 266.601Z" stroke="#101828"/>
<path fill-rule="evenodd" clip-rule="evenodd" d="M810.031 265.405C813.639 257.995 822.668 248.63 831.252 248.33C841.744 247.97 839.705 261.146 836.994 267.506C833.771 275.074 822.971 288.223 813.907 286.092C804.983 283.994 807.054 271.511 810.031 265.405Z" stroke="#101828"/>
<path fill-rule="evenodd" clip-rule="evenodd" d="M1303.59 688.789C1280.37 703.656 1254.12 715.928 1229.36 728.401C1193.18 746.627 1156.47 764.363 1118.46 777.94C1098.08 785.217 1071.67 795.709 1049.8 790.008C1041.8 787.924 1034.51 781.621 1027.34 777.525C1017.45 771.878 1007.42 766.51 997.409 761.131C977.322 750.347 957.171 739.672 937.429 728.197C927.922 722.67 918.698 715.709 908.801 710.993C903.017 708.236 896.096 709.526 889.916 709.7C875.601 710.106 861.294 710.876 846.988 711.532C829.488 712.332 811.949 713.183 794.43 712.867C786.528 712.723 767.176 714.202 762.826 707.021C760.486 703.154 766.002 696.181 768.559 692.954C773.253 687.024 778.65 681.68 783.974 676.391C796.288 664.158 809.367 652.509 820.313 638.844C825.937 631.82 833.305 623.238 829.634 613.648C825.928 603.962 819.509 595.575 815.592 585.923C811.083 574.815 809.213 563.255 807.083 551.477C805.507 542.771 801.836 535.058 798.384 527.032C794.57 518.161 790.619 509.215 787.971 499.86C786.22 493.68 783.396 482.563 789.518 478.651C798.218 473.088 814.532 477.592 824.449 479.231C838.154 481.493 851.759 484.373 865.428 486.854C875.35 488.658 885.307 490.637 895.395 490.848C911.657 491.187 927.974 490.012 944.193 488.917C974.226 486.89 1004.04 484.142 1034.18 484.142C1060.58 484.142 1121.59 516.369 1135.87 522.043C1164.38 533.371 1193.64 544.109 1220.61 559.181C1227.91 563.261 1239.14 568.698 1242.98 577.097C1245.35 582.272 1244.26 585.264 1249.85 588.599C1257.47 593.149 1267.24 594.935 1275.67 596.971C1289.26 600.248 1302.96 603.024 1316.61 605.992C1344.22 611.979 1371.64 618.751 1399.14 625.267C1407.45 627.237 1417.5 627.673 1425.43 631.143C1430.54 633.372 1430.01 636.177 1426.05 639.563C1419.12 645.505 1409.4 648.804 1401.2 652.193C1389.2 657.158 1377 661.587 1364.79 665.953C1352.59 670.32 1340.32 674.551 1328.11 678.926C1320.04 681.807 1310.84 684.149 1303.59 688.789Z" stroke="#101828"/>
<path fill-rule="evenodd" clip-rule="evenodd" d="M1284.48 685.519C1259.92 700.416 1232.65 712.284 1206.36 723.863C1172.72 738.691 1138.32 752.588 1102.87 761.857C1082.05 767.296 1057.5 773.301 1036.23 767.064C1028.64 764.839 1022.98 759.837 1016.47 755.422C1009.06 750.384 1001.36 745.768 993.664 741.223C977.818 731.87 961.804 722.836 945.623 714.121C937.052 709.486 927.618 703.28 917.935 701.672C910.237 700.392 901.493 702.244 893.761 702.783C879.836 703.753 865.914 704.752 851.983 705.602C835.908 706.58 819.788 707.484 803.679 707.327C794.701 707.24 779.288 708.682 772.938 702.56C767.399 697.218 787.567 677.897 791.114 674.226C802.191 662.765 813.841 651.851 824.15 639.595C830.243 632.368 837.662 623.578 840.231 613.998C842.418 605.834 838.198 596.532 835.706 588.986C832.59 579.533 830.075 569.734 826.454 560.48C823.229 552.235 818.097 544.89 813.59 537.395C808.632 529.15 803.611 520.769 799.93 511.774C797.675 506.239 793.943 496.97 798.425 491.694C803.602 485.611 819.563 489.586 826.123 490.453C839.432 492.236 852.639 494.886 865.857 497.259C887.81 501.198 908.74 504.643 931.096 503.818C960.209 502.74 989.293 500.204 1018.4 498.801C1029.15 498.277 1040.07 497.223 1050.83 497.792C1056.99 498.12 1061.69 500.108 1065.28 504.592C1070.17 510.711 1081.46 514.099 1089.3 517.61C1101.54 523.082 1113.92 528.171 1126.28 533.326C1153.4 544.649 1181.04 555.562 1206.76 570.207C1214.9 574.838 1224.21 580.003 1230.23 587.655C1233.59 591.922 1232.75 596.032 1234.8 600.568C1237.51 606.533 1246.43 609.225 1251.77 611.177C1262.06 614.947 1272.78 617.473 1283.42 619.84C1307.48 625.195 1331.6 628.715 1356.05 631.308C1361.78 631.91 1384.35 633.997 1372.5 644.055C1359.4 655.17 1340.5 660.618 1325.08 666.881C1311.19 672.513 1297.29 677.752 1284.48 685.519Z" stroke="#101828"/>
<path fill-rule="evenodd" clip-rule="evenodd" d="M1250.54 682.764C1227.45 695.87 1201.87 705.648 1177 715.002C1146.82 726.352 1115.89 736.469 1084.24 742.137C1064.35 745.694 1042.43 748.427 1022.69 742.516C1009.2 738.481 998.768 727.573 986.923 720.068C975.078 712.563 962.753 705.519 950.061 699.647C942.183 696.003 933.709 692.332 924.944 692.813C903.631 693.979 882.345 696.76 861.01 698.11C846.896 699.012 832.753 699.755 818.596 699.532C810.06 699.4 798.332 699.941 790.774 695.203C782.419 689.962 826.902 645.217 831.106 640.181C841.647 627.553 854.411 610.794 852.373 592.835C850.424 575.667 841.975 562.85 832.419 549.398C826.996 541.746 809.606 521.304 816.05 511.351C819.732 505.663 831.868 507.632 837.634 508.02C848.996 508.784 860.296 510.425 871.599 511.851C888.079 513.916 905.013 517.106 921.564 518.041C933.09 518.691 944.683 517.822 956.229 517.804C972.783 517.78 989.337 517.912 1005.89 518.068C1019.79 518.201 1033.81 518.068 1047.66 519.475C1056.27 520.341 1062.81 522.287 1068.98 527.783C1074.36 532.563 1082.47 535.363 1089.32 538.402C1100.63 543.421 1112.09 548.072 1123.52 552.798C1147.44 562.696 1171.63 572.387 1194.53 584.756C1204.98 590.4 1222.56 598.301 1225.01 611.984C1225.89 616.918 1226.54 619.05 1231.11 621.855C1237.59 625.836 1245.36 627.631 1252.63 629.192C1269.58 632.83 1287.03 632.285 1303.95 635.881C1310.85 637.364 1319.84 640.563 1311.98 647.887C1302.79 656.453 1289.43 661.161 1278.43 666.453C1272.94 669.093 1267.28 671.565 1262.06 674.788C1258.06 677.271 1254.63 680.455 1250.54 682.764Z" stroke="#101828"/>
<path fill-rule="evenodd" clip-rule="evenodd" d="M1206.8 678.672C1185.47 689.317 1162.3 697.056 1139.55 704.033C1114.28 711.773 1088.4 718.183 1062.17 720.911C1044.07 722.801 1024.77 723.358 1007.2 717.575C996.087 713.916 988.552 706.222 978.988 699.769C964.555 690.016 948.939 682.289 931.598 684.169C912.158 686.273 892.653 687.851 873.086 688.904C861.282 689.54 849.433 690.016 837.615 689.573C830.144 689.296 820.517 688.829 814.017 685.257C805.32 680.474 837.989 644.079 842.061 638.775C852.16 625.619 859.564 611.816 863.89 595.517C867.417 582.217 860.211 571.762 852.776 561.813C848.154 555.635 833.218 540.095 837.895 532.073C840.459 527.648 848.912 527.877 853.451 527.651C862.103 527.223 870.792 527.669 879.443 527.865C892.218 528.167 905.817 526.096 918.484 527.763C946.556 531.452 974.557 534.646 1002.8 537.175C1018.37 538.567 1034.04 539.833 1049.47 542.519C1055.01 543.483 1060.73 544.505 1065.98 546.687C1069.36 548.088 1071.2 550.475 1074.05 552.434C1087.64 561.759 1105.37 566.557 1120.67 572.533C1141.02 580.478 1161.47 588.299 1181.27 597.684C1191.69 602.621 1206.24 608.293 1213.4 618.368C1215.57 621.412 1214.65 623.847 1216.01 626.774C1217.58 630.149 1222.34 631.156 1225.41 632.096C1232.39 634.233 1261.6 637.464 1248.14 649.998C1241.72 655.969 1233.53 659.799 1226.29 664.492C1223.67 666.192 1221.12 667.901 1218.93 670.194C1215.27 674.04 1211.67 676.234 1206.8 678.672Z" stroke="#101828"/>
<path fill-rule="evenodd" clip-rule="evenodd" d="M1160.2 674.063C1118.09 691.285 1068.73 703.018 1022.82 700.745C1007.55 699.986 991.123 697.454 977.888 688.789C970.083 683.67 963.847 677.893 954.472 676.044C947.704 674.71 940.417 676.225 933.609 676.773C923.749 677.567 913.883 678.278 904.009 678.853C891.767 679.555 879.485 680.097 867.221 679.808C858.457 679.6 846.355 679.835 838.742 674.867C829.653 668.941 852.789 641.145 856.044 636.192C863.934 624.188 869.465 612.557 871.464 598.09C872.052 593.875 874.034 589.554 873.777 585.306C873.509 580.968 870.976 577.105 868.637 573.693C865.579 569.222 854.967 558.618 858.006 553.165C859.685 550.155 865.987 549.775 869.254 549.137C875.382 547.932 881.598 547.285 887.763 546.328C898.223 544.696 908.609 539.382 919.106 539.532C947.333 539.93 975.969 549.167 1003.63 554.24C1020.08 557.266 1036.63 560.012 1052.88 564.11C1058.02 565.407 1063.31 566.75 1068.2 568.951C1071.61 570.487 1073.8 573.224 1076.96 574.943C1089.07 581.546 1102.99 585.553 1116 589.997C1132.88 595.778 1149.82 601.384 1166.58 607.538C1177.09 611.395 1190.6 614.788 1199.66 621.942C1206.27 627.166 1201.75 628.729 1198.26 633.594C1196.48 636.075 1196.89 638.52 1196.12 641.329C1195.01 645.339 1191.89 648.227 1188.96 650.822C1184.92 654.408 1179.54 657.362 1176.23 661.758C1175.07 663.305 1175.12 665.226 1174.18 666.575C1171.44 670.504 1164.16 672.443 1160.2 674.063Z" stroke="#101828"/>
<path fill-rule="evenodd" clip-rule="evenodd" d="M1115.43 667.927C1081.25 678.755 1043.22 684.92 1007.09 682.059C994.517 681.062 981.869 678.746 970.159 673.659C964.832 671.352 960.833 668.78 954.995 668.641C941.449 668.322 927.861 669.439 914.319 669.707C904.627 669.9 894.887 669.969 885.218 669.147C878.753 668.599 870.011 667.943 864.715 663.759C857.019 657.666 870.912 636.953 873.739 631.231C878.426 621.74 883.075 611.19 881.216 600.209C880.646 596.85 879.637 593.884 879.506 590.459C879.38 587.517 879.731 584.8 878.742 581.987C877.519 578.499 872.08 573.087 873.95 569.876C875.224 567.683 879.004 567.581 881.518 566.879C885.596 565.741 889.577 564.248 893.422 562.416C897.47 560.476 900.916 557.479 905.109 555.877C911.916 553.281 919.535 553.037 926.69 553.048C955.237 553.097 984.147 559.039 1011.97 565.253C1026.46 568.488 1041.03 571.936 1055.11 576.843C1059.38 578.333 1064.23 579.83 1067.99 582.583C1070.34 584.297 1071.93 586.444 1074.59 587.733C1097.36 598.739 1123.68 602.826 1147.85 610.774C1154.14 612.843 1189 623.298 1170.78 633.131C1159.7 639.107 1148 641.824 1137.9 649.998C1134.82 652.483 1132.76 654.54 1131.56 658.332C1130.77 660.856 1132.68 659.576 1130.01 662.214C1126.78 665.385 1119.41 666.665 1115.43 667.927Z" stroke="#101828"/>
<path fill-rule="evenodd" clip-rule="evenodd" d="M1079.89 661.525C1039.87 670.363 997.493 670.783 956.844 662.948C946.597 660.975 935.932 661.447 925.559 660.945C915.481 660.465 897.562 661.465 890.242 653.287C884.934 647.359 890.693 634.762 892.685 628.131C895.224 619.684 897.442 610.957 893.274 602.752C890.833 597.948 887.489 593.374 884.871 588.614C883.619 586.341 881.041 582.857 882.115 580.704C883.893 577.152 892.211 575.656 896.247 573.98C909.147 568.626 922.807 567.26 936.598 567.298C962.072 567.368 987.677 571.044 1012.66 576.029C1024.16 578.323 1035.82 580.77 1046.91 584.758C1053.18 587.014 1057.81 591.365 1063.8 593.945C1083.09 602.257 1103.82 606.698 1123.44 614.299C1129.12 616.5 1150.33 623.828 1139.64 632.467C1129.3 640.831 1114.21 639.837 1103.45 647.705C1102.23 648.606 1100.72 649.684 1100.02 651.14C1099.6 652.011 1100.33 653.669 1100.02 654.164C1096.71 659.549 1084.97 660.405 1079.89 661.525Z" stroke="#101828"/>
<path fill-rule="evenodd" clip-rule="evenodd" d="M1053.96 655.684C1033.43 658.655 1012.45 659.392 991.575 659.579C980.164 659.682 967.628 660.449 956.463 657.399C949.604 655.521 942.98 653.879 935.91 652.695C928.303 651.421 916.055 650.494 911.422 643.589C907.962 638.429 910.333 627.822 910.459 621.547C910.593 614.666 909.256 609.563 904.652 604.639C901.757 601.538 888.478 590.282 890.012 587.036C891.473 583.944 900.726 583.47 904.727 582.667C917.372 580.119 930.186 579.231 943.048 579.37C962.97 579.581 982.965 581.725 1002.57 585.409C1010.68 586.939 1019.06 588.525 1026.81 591.583C1032.02 593.645 1036.37 597.302 1041.55 599.434C1056.39 605.548 1072.08 609.699 1086.97 615.925C1091.74 617.927 1107.31 623.256 1103.58 631.469C1100.47 638.326 1089.88 640.412 1084.68 645.008C1075.83 652.846 1065.24 654.054 1053.96 655.684Z" stroke="#101828"/>
<path fill-rule="evenodd" clip-rule="evenodd" d="M1041.03 651.744C1024.74 653.711 1008.08 654.571 991.555 654.613C980.89 654.64 969.64 654.793 959.174 652.264C953.918 650.995 949.35 648.026 944.375 645.909C939.252 643.732 932.182 641.301 929.968 636.309C927.887 631.617 928.664 624.772 926.837 619.115C925.212 614.095 921.811 610.994 918.148 607.602C915.814 605.434 903.829 596.047 905.215 593.975C906.7 591.755 913.898 591.936 917.644 591.629C927.963 590.769 938.319 590.495 948.667 590.808C962.789 591.265 977.02 592.54 990.897 595.427C1000.74 597.473 1008.17 602.345 1017.35 605.918C1029.24 610.558 1041.56 614.228 1053.33 619.304C1059.2 621.834 1067.89 625.088 1070.89 631.617C1072.05 634.119 1073.17 640.483 1071.88 642.986C1070.34 645.993 1064.59 647.268 1061.87 648.041C1055.07 649.969 1047.95 650.907 1041.03 651.744Z" stroke="#101828"/>
</g>
</svg>
