<svg xmlns="http://www.w3.org/2000/svg" width="21" height="20" viewBox="0 0 21 20" fill="none">
  <path d="M14.8502 8.12508H7.96693C7.50026 8.12508 7.0336 7.96676 6.66693 7.66676L4.84193 6.20843C4.34193 5.80842 4.05859 5.21675 4.05859 4.58341C4.05859 3.95008 4.34193 3.35007 4.84193 2.9584L6.66693 1.50007C7.0336 1.2084 7.50026 1.04175 7.96693 1.04175H14.8502C16.0002 1.04175 16.9336 1.97508 16.9336 3.12508V6.04175C16.9336 7.19175 16.0002 8.12508 14.8502 8.12508ZM7.96693 2.29175C7.77526 2.29175 7.59193 2.35842 7.45027 2.47508L5.62526 3.93342C5.42526 4.09175 5.30859 4.33341 5.30859 4.58341C5.30859 4.83341 5.42526 5.07508 5.62526 5.23341L7.45027 6.69175C7.60027 6.80841 7.7836 6.87508 7.96693 6.87508H14.8502C15.3086 6.87508 15.6836 6.50008 15.6836 6.04175V3.12508C15.6836 2.66675 15.3086 2.29175 14.8502 2.29175H7.96693Z" fill="#191919"/>
  <path d="M13.0497 16.4583H6.16634C5.01634 16.4583 4.08301 15.525 4.08301 14.375V11.4583C4.08301 10.3083 5.01634 9.375 6.16634 9.375H13.0497C13.5247 9.375 13.983 9.53332 14.3497 9.83332L16.1747 11.2917C16.6747 11.6917 16.958 12.2833 16.958 12.9167C16.958 13.55 16.6747 14.15 16.1747 14.5417L14.3497 16C13.983 16.3 13.5247 16.4583 13.0497 16.4583ZM6.16634 10.625C5.70801 10.625 5.33301 11 5.33301 11.4583V14.375C5.33301 14.8333 5.70801 15.2083 6.16634 15.2083H13.0497C13.2414 15.2083 13.4247 15.1417 13.5663 15.025L15.3913 13.5667C15.5913 13.4083 15.708 13.1667 15.708 12.9167C15.708 12.6667 15.5913 12.425 15.3913 12.2667L13.5663 10.8083C13.4163 10.6917 13.233 10.625 13.0497 10.625H6.16634Z" fill="#191919"/>
  <path d="M10.5 10.625C10.1583 10.625 9.875 10.3417 9.875 10V7.5C9.875 7.15833 10.1583 6.875 10.5 6.875C10.8417 6.875 11.125 7.15833 11.125 7.5V10C11.125 10.3417 10.8417 10.625 10.5 10.625Z" fill="#191919"/>
  <path d="M10.5 18.9583C10.1583 18.9583 9.875 18.6749 9.875 18.3333V15.8333C9.875 15.4916 10.1583 15.2083 10.5 15.2083C10.8417 15.2083 11.125 15.4916 11.125 15.8333V18.3333C11.125 18.6749 10.8417 18.9583 10.5 18.9583Z" fill="#191919"/>
  <path d="M13 18.9583H8C7.65833 18.9583 7.375 18.6749 7.375 18.3333C7.375 17.9916 7.65833 17.7083 8 17.7083H13C13.3417 17.7083 13.625 17.9916 13.625 18.3333C13.625 18.6749 13.3417 18.9583 13 18.9583Z" fill="#191919"/>
</svg>