<svg xmlns="http://www.w3.org/2000/svg" width="17" height="18" viewBox="0 0 17 18" fill="none">
  <g clip-path="url(#clip0_13138_188)">
    <path d="M8.88207 0.935547C6.89672 0.936962 4.98201 1.67245 3.50626 3.00053V1.60752C3.50626 1.4293 3.43547 1.25838 3.30945 1.13236C3.18343 1.00634 3.01251 0.935547 2.83429 0.935547C2.65607 0.935547 2.48515 1.00634 2.35913 1.13236C2.23311 1.25838 2.16231 1.4293 2.16231 1.60752V3.62345C2.16231 4.15811 2.3747 4.67087 2.75276 5.04893C3.13082 5.42699 3.64358 5.63938 4.17824 5.63938H6.19417C6.37239 5.63938 6.54331 5.56858 6.66933 5.44256C6.79535 5.31654 6.86614 5.14562 6.86614 4.9674C6.86614 4.78918 6.79535 4.61826 6.66933 4.49224C6.54331 4.36622 6.37239 4.29543 6.19417 4.29543H4.17824C4.15558 4.29207 4.13314 4.28736 4.11104 4.28132C5.20604 3.17849 6.64985 2.48988 8.19603 2.33303C9.7422 2.17619 11.2949 2.56082 12.589 3.42129C13.8832 4.28176 14.8386 5.56472 15.2922 7.05117C15.7457 8.53762 15.6694 10.1354 15.0761 11.5718C14.4828 13.0082 13.4093 14.1942 12.039 14.9273C10.6686 15.6603 9.08635 15.8951 7.56219 15.5915C6.03803 15.2879 4.66649 14.4647 3.68169 13.2624C2.69689 12.0601 2.15987 10.5534 2.16231 8.99926C2.16231 8.82104 2.09151 8.65012 1.96549 8.5241C1.83947 8.39808 1.66855 8.32728 1.49034 8.32728C1.31212 8.32728 1.1412 8.39808 1.01518 8.5241C0.889157 8.65012 0.818359 8.82104 0.818359 8.99926C0.818359 10.5941 1.29129 12.1531 2.17734 13.4792C3.06339 14.8053 4.32277 15.8388 5.79622 16.4492C7.26967 17.0595 8.89102 17.2192 10.4552 16.908C12.0194 16.5969 13.4562 15.8289 14.584 14.7012C15.7117 13.5734 16.4797 12.1366 16.7908 10.5724C17.102 9.0082 16.9423 7.38686 16.332 5.91341C15.7216 4.43996 14.6881 3.18058 13.362 2.29453C12.036 1.40848 10.4769 0.935547 8.88207 0.935547V0.935547Z" fill="#3D3D3D"/>
    <path d="M8.88291 4.9668C8.70469 4.9668 8.53377 5.03759 8.40775 5.16361C8.28173 5.28963 8.21094 5.46055 8.21094 5.63877V8.99865C8.21098 9.17686 8.2818 9.34775 8.40783 9.47374L10.4238 11.4897C10.5505 11.6121 10.7202 11.6798 10.8964 11.6783C11.0726 11.6767 11.2412 11.6061 11.3657 11.4815C11.4903 11.3569 11.561 11.1884 11.5625 11.0122C11.5641 10.836 11.4963 10.6662 11.3739 10.5395L9.55489 8.72045V5.63877C9.55489 5.46055 9.48409 5.28963 9.35807 5.16361C9.23205 5.03759 9.06113 4.9668 8.88291 4.9668Z" fill="#3D3D3D"/>
  </g>
  <defs>
    <clipPath id="clip0_13138_188">
      <rect width="16.1274" height="16.1274" fill="white" transform="translate(0.818359 0.935547)"/>
    </clipPath>
  </defs>
</svg>