<svg xmlns="http://www.w3.org/2000/svg" width="33" height="32" viewBox="0 0 33 32" fill="none">
  <path d="M21.9136 26.9069C21.5669 26.9069 21.2069 26.8935 20.8203 26.8535C20.1269 26.8002 19.3403 26.6669 18.5269 26.4669L16.2869 25.9335C10.1403 24.4802 8.12693 21.2269 9.56693 15.0935L10.8736 9.50685C11.1669 8.24018 11.5136 7.21352 11.9403 6.36018C14.2336 1.62685 18.6203 2.05352 21.7403 2.78685L23.9669 3.30685C27.0869 4.04018 29.0603 5.20018 30.1669 6.97352C31.2603 8.74685 31.4336 11.0268 30.7003 14.1468L29.3936 19.7202C28.2469 24.6002 25.8603 26.9069 21.9136 26.9069ZM18.3269 4.33352C16.1003 4.33352 14.6869 5.25352 13.7403 7.22685C13.3936 7.94685 13.0869 8.84018 12.8203 9.96018L11.5136 15.5469C10.3269 20.5868 11.7003 22.7868 16.7403 23.9869L18.9803 24.5202C19.7003 24.6935 20.3803 24.8002 20.9936 24.8535C24.6069 25.2135 26.4203 23.6269 27.4336 19.2668L28.7403 13.6935C29.3403 11.1202 29.2603 9.32018 28.4603 8.02685C27.6603 6.73352 26.0869 5.85352 23.5003 5.25352L21.2736 4.73352C20.1669 4.46685 19.1803 4.33352 18.3269 4.33352Z" fill="#000"/>
  <path d="M11.9401 29.6667C8.5134 29.6667 6.32674 27.6134 4.92674 23.2801L3.22007 18.0134C1.32674 12.1467 3.02007 8.84007 8.86007 6.94673L10.9667 6.26673C11.6601 6.0534 12.1801 5.90673 12.6467 5.82673C13.0201 5.74673 13.4067 5.8934 13.6334 6.20007C13.8601 6.50673 13.9001 6.90673 13.7401 7.2534C13.3934 7.96007 13.0867 8.8534 12.8334 9.9734L11.5267 15.5601C10.3401 20.6001 11.7134 22.8001 16.7534 24.0001L18.9934 24.5334C19.7134 24.7067 20.3934 24.8134 21.0067 24.8667C21.4334 24.9067 21.7801 25.2001 21.9001 25.6134C22.0067 26.0267 21.8467 26.4534 21.5001 26.6934C20.6201 27.2934 19.5134 27.8001 18.1134 28.2534L16.0067 28.9467C14.4734 29.4267 13.1401 29.6667 11.9401 29.6667ZM11.2067 8.2934L9.48674 8.8534C4.72674 10.3867 3.5934 12.6267 5.12674 17.4001L6.8334 22.6667C8.38007 27.4267 10.6201 28.5734 15.3801 27.0401L17.4867 26.3467C17.5667 26.3201 17.6334 26.2934 17.7134 26.2667L16.3001 25.9334C10.1534 24.4801 8.14007 21.2267 9.58007 15.0934L10.8867 9.50673C10.9801 9.08007 11.0867 8.66673 11.2067 8.2934Z" fill="#000"/>
</svg>