<svg xmlns="http://www.w3.org/2000/svg" width="33" height="33" viewBox="0 0 33 33" fill="none">
<path opacity="0.4" d="M23.2363 7.51642H19.3123C18.3347 7.52287 17.4066 7.08802 16.7871 6.3333L15.4949 4.54678C14.8858 3.78543 13.9577 3.34854 12.9816 3.36366H10.2074C5.2282 3.36366 3.39063 6.28597 3.39063 11.2551V16.6265C3.38443 17.2172 30.0514 17.2164 30.0531 16.6265V15.0648C30.0769 10.0956 28.2867 7.51642 23.2363 7.51642Z" fill="#000"/>
<path fill-rule="evenodd" clip-rule="evenodd" d="M28.5001 9.42165C28.9267 9.92042 29.2563 10.4942 29.4722 11.1135C29.897 12.3864 30.0937 13.7241 30.0531 15.0652V22.0692C30.0514 22.6592 30.0079 23.2482 29.9227 23.8321C29.7606 24.8624 29.3982 25.851 28.8558 26.7425C28.6065 27.1732 28.3038 27.5706 27.9547 27.9256C26.375 29.3756 24.2773 30.1302 22.1338 30.0197H11.2981C9.15129 30.1294 7.05012 29.375 5.46531 27.9256C5.12051 27.57 4.82179 27.1725 4.57616 26.7425C4.03696 25.8517 3.68221 24.862 3.53289 23.8321C3.43795 23.2492 3.39037 22.6597 3.39063 22.0692V15.0652C3.3904 14.4802 3.42205 13.8956 3.48548 13.3141C3.49881 13.2121 3.51881 13.1117 3.5386 13.0124C3.5716 12.8468 3.60403 12.6841 3.60403 12.5214C3.72437 11.8196 3.94391 11.1385 4.25607 10.4983C5.18079 8.52248 7.07763 7.51684 10.1837 7.51684H23.2245C24.9642 7.38228 26.691 7.90601 28.0615 8.9839C28.2193 9.11773 28.3661 9.26413 28.5001 9.42165ZM10.0177 21.4185H23.4379H23.4617C23.7561 21.4313 24.0434 21.3258 24.2595 21.1258C24.4755 20.9257 24.6023 20.6477 24.6115 20.3537C24.6282 20.0953 24.5431 19.8405 24.3745 19.6438C24.1805 19.3794 23.873 19.2216 23.5446 19.2178H10.0177C9.40883 19.2178 8.9152 19.7105 8.9152 20.3182C8.9152 20.9258 9.40883 21.4185 10.0177 21.4185Z" fill="#000"/>
</svg>
