<svg width="65" height="65" viewBox="0 0 65 65" fill="none" xmlns="http://www.w3.org/2000/svg">
<g id="vuesax/bold/buliding">
<g id="buliding">
<path id="Vector" d="M58.9994 57.3337H5.66602C4.57268 57.3337 3.66602 58.2404 3.66602 59.3337C3.66602 60.4271 4.57268 61.3337 5.66602 61.3337H58.9994C60.0927 61.3337 60.9994 60.4271 60.9994 59.3337C60.9994 58.2404 60.0927 57.3337 58.9994 57.3337Z" fill="white"/>
<path id="Vector_2" d="M45.6654 6.00024H18.9987C10.9987 6.00024 8.33203 10.7736 8.33203 16.6669V59.3336H56.332V16.6669C56.332 10.7736 53.6654 6.00024 45.6654 6.00024ZM26.9987 46.6669H18.9987C17.9054 46.6669 16.9987 45.7602 16.9987 44.6669C16.9987 43.5736 17.9054 42.6669 18.9987 42.6669H26.9987C28.092 42.6669 28.9987 43.5736 28.9987 44.6669C28.9987 45.7602 28.092 46.6669 26.9987 46.6669ZM26.9987 34.6669H18.9987C17.9054 34.6669 16.9987 33.7602 16.9987 32.6669C16.9987 31.5736 17.9054 30.6669 18.9987 30.6669H26.9987C28.092 30.6669 28.9987 31.5736 28.9987 32.6669C28.9987 33.7602 28.092 34.6669 26.9987 34.6669ZM26.9987 22.6669H18.9987C17.9054 22.6669 16.9987 21.7602 16.9987 20.6669C16.9987 19.5736 17.9054 18.6669 18.9987 18.6669H26.9987C28.092 18.6669 28.9987 19.5736 28.9987 20.6669C28.9987 21.7602 28.092 22.6669 26.9987 22.6669ZM45.6654 46.6669H37.6654C36.572 46.6669 35.6654 45.7602 35.6654 44.6669C35.6654 43.5736 36.572 42.6669 37.6654 42.6669H45.6654C46.7587 42.6669 47.6654 43.5736 47.6654 44.6669C47.6654 45.7602 46.7587 46.6669 45.6654 46.6669ZM45.6654 34.6669H37.6654C36.572 34.6669 35.6654 33.7602 35.6654 32.6669C35.6654 31.5736 36.572 30.6669 37.6654 30.6669H45.6654C46.7587 30.6669 47.6654 31.5736 47.6654 32.6669C47.6654 33.7602 46.7587 34.6669 45.6654 34.6669ZM45.6654 22.6669H37.6654C36.572 22.6669 35.6654 21.7602 35.6654 20.6669C35.6654 19.5736 36.572 18.6669 37.6654 18.6669H45.6654C46.7587 18.6669 47.6654 19.5736 47.6654 20.6669C47.6654 21.7602 46.7587 22.6669 45.6654 22.6669Z" fill="white"/>
</g>
</g>
</svg>
