<svg width="247" height="65" viewBox="0 0 247 65" fill="none" xmlns="http://www.w3.org/2000/svg">
<path d="M58.9994 57.3337H5.66602C4.57268 57.3337 3.66602 58.2404 3.66602 59.3337C3.66602 60.4271 4.57268 61.3337 5.66602 61.3337H58.9994C60.0927 61.3337 60.9994 60.4271 60.9994 59.3337C60.9994 58.2404 60.0927 57.3337 58.9994 57.3337Z" fill="white"/>
<path d="M45.6654 6.00024H18.9987C10.9987 6.00024 8.33203 10.7736 8.33203 16.6669V59.3336H56.332V16.6669C56.332 10.7736 53.6654 6.00024 45.6654 6.00024ZM26.9987 46.6669H18.9987C17.9054 46.6669 16.9987 45.7602 16.9987 44.6669C16.9987 43.5736 17.9054 42.6669 18.9987 42.6669H26.9987C28.092 42.6669 28.9987 43.5736 28.9987 44.6669C28.9987 45.7602 28.092 46.6669 26.9987 46.6669ZM26.9987 34.6669H18.9987C17.9054 34.6669 16.9987 33.7602 16.9987 32.6669C16.9987 31.5736 17.9054 30.6669 18.9987 30.6669H26.9987C28.092 30.6669 28.9987 31.5736 28.9987 32.6669C28.9987 33.7602 28.092 34.6669 26.9987 34.6669ZM26.9987 22.6669H18.9987C17.9054 22.6669 16.9987 21.7602 16.9987 20.6669C16.9987 19.5736 17.9054 18.6669 18.9987 18.6669H26.9987C28.092 18.6669 28.9987 19.5736 28.9987 20.6669C28.9987 21.7602 28.092 22.6669 26.9987 22.6669ZM45.6654 46.6669H37.6654C36.572 46.6669 35.6654 45.7602 35.6654 44.6669C35.6654 43.5736 36.572 42.6669 37.6654 42.6669H45.6654C46.7587 42.6669 47.6654 43.5736 47.6654 44.6669C47.6654 45.7602 46.7587 46.6669 45.6654 46.6669ZM45.6654 34.6669H37.6654C36.572 34.6669 35.6654 33.7602 35.6654 32.6669C35.6654 31.5736 36.572 30.6669 37.6654 30.6669H45.6654C46.7587 30.6669 47.6654 31.5736 47.6654 32.6669C47.6654 33.7602 46.7587 34.6669 45.6654 34.6669ZM45.6654 22.6669H37.6654C36.572 22.6669 35.6654 21.7602 35.6654 20.6669C35.6654 19.5736 36.572 18.6669 37.6654 18.6669H45.6654C46.7587 18.6669 47.6654 19.5736 47.6654 20.6669C47.6654 21.7602 46.7587 22.6669 45.6654 22.6669Z" fill="white"/>
<path d="M92.7346 33.7272C92.5569 33.425 92.2902 32.9895 91.9346 32.4206C91.5969 31.8339 91.2146 31.1939 90.788 30.5006C90.3791 29.7895 89.9435 29.0517 89.4813 28.2872C89.0191 27.505 88.5746 26.7672 88.148 26.0739C87.7391 25.3628 87.3657 24.7317 87.028 24.1806C86.6902 23.6117 86.4324 23.185 86.2546 22.9006C86.5035 22.9361 86.7435 22.9717 86.9746 23.0072C87.2235 23.025 87.4724 23.0339 87.7213 23.0339C87.9702 23.0339 88.2102 23.025 88.4413 23.0072C88.6902 22.9717 88.9391 22.9361 89.188 22.9006C89.988 24.4472 90.7969 25.9672 91.6146 27.4606C92.4502 28.9539 93.3302 30.5095 94.2546 32.1272C94.6635 31.4872 95.0902 30.785 95.5346 30.0206C95.9791 29.2561 96.4235 28.4739 96.868 27.6739C97.3124 26.8739 97.7391 26.0739 98.148 25.2739C98.5569 24.4561 98.9391 23.665 99.2946 22.9006C99.7391 22.9895 100.086 23.0339 100.335 23.0339C100.584 23.0339 100.93 22.9895 101.375 22.9006C100.521 24.1983 99.7569 25.3717 99.0813 26.4206C98.4057 27.4695 97.8102 28.4206 97.2946 29.2739C96.7791 30.1272 96.3257 30.9006 95.9346 31.5939C95.5435 32.2695 95.2057 32.8828 94.9213 33.4339C94.9213 34.0917 94.9213 34.7939 94.9213 35.5406C94.9391 36.2872 94.9569 37.025 94.9746 37.7539C94.9924 38.465 95.0102 39.1317 95.028 39.7539C95.0635 40.3583 95.0991 40.8472 95.1346 41.2206C94.7257 41.185 94.2902 41.1672 93.828 41.1672C93.3657 41.1672 92.9302 41.185 92.5213 41.2206C92.628 40.2961 92.6902 39.1761 92.708 37.8606C92.7257 36.545 92.7346 35.1672 92.7346 33.7272ZM101.632 32.1006C101.632 30.5895 101.872 29.2472 102.352 28.0739C102.849 26.8828 103.534 25.8783 104.405 25.0606C105.294 24.2428 106.352 23.6206 107.578 23.1939C108.805 22.7672 110.147 22.5539 111.605 22.5539C113.081 22.5539 114.432 22.7672 115.658 23.1939C116.885 23.6206 117.934 24.2428 118.805 25.0606C119.694 25.8783 120.378 26.8828 120.858 28.0739C121.356 29.2472 121.605 30.5895 121.605 32.1006C121.605 33.6117 121.356 34.9628 120.858 36.1539C120.378 37.3272 119.694 38.3228 118.805 39.1406C117.934 39.9583 116.885 40.5717 115.658 40.9806C114.432 41.3717 113.081 41.5672 111.605 41.5672C110.147 41.5672 108.805 41.3717 107.578 40.9806C106.352 40.5717 105.294 39.9583 104.405 39.1406C103.534 38.3228 102.849 37.3272 102.352 36.1539C101.872 34.9628 101.632 33.6117 101.632 32.1006ZM118.992 32.1006C118.992 30.625 118.805 29.3539 118.432 28.2872C118.058 27.2028 117.534 26.3139 116.858 25.6206C116.201 24.9095 115.418 24.385 114.512 24.0472C113.623 23.7095 112.654 23.5406 111.605 23.5406C110.574 23.5406 109.605 23.7095 108.698 24.0472C107.809 24.385 107.027 24.9095 106.352 25.6206C105.694 26.3139 105.178 27.2028 104.805 28.2872C104.432 29.3539 104.245 30.625 104.245 32.1006C104.245 33.5761 104.432 34.8561 104.805 35.9406C105.178 37.0072 105.694 37.8961 106.352 38.6072C107.027 39.3006 107.809 39.8161 108.698 40.1539C109.605 40.4917 110.574 40.6606 111.605 40.6606C112.654 40.6606 113.623 40.4917 114.512 40.1539C115.418 39.8161 116.201 39.3006 116.858 38.6072C117.534 37.8961 118.058 37.0072 118.432 35.9406C118.805 34.8561 118.992 33.5761 118.992 32.1006ZM139.232 31.5672C139.232 29.0428 139.223 27.0961 139.205 25.7272C139.187 24.3583 139.143 23.4161 139.072 22.9006C139.267 22.9361 139.454 22.9717 139.632 23.0072C139.81 23.025 139.987 23.0339 140.165 23.0339C140.396 23.0339 140.663 22.9895 140.965 22.9006C140.912 23.5228 140.859 24.2695 140.805 25.1406C140.752 25.9939 140.707 26.9183 140.672 27.9139C140.636 28.8917 140.601 29.905 140.565 30.9539C140.53 31.985 140.503 32.9895 140.485 33.9672C140.467 35.1583 140.281 36.225 139.925 37.1672C139.587 38.1095 139.099 38.9095 138.459 39.5672C137.819 40.225 137.027 40.7228 136.085 41.0606C135.161 41.3983 134.094 41.5672 132.885 41.5672C130.219 41.5672 128.281 40.9628 127.072 39.7539C125.863 38.545 125.259 36.6339 125.259 34.0206C125.259 33.185 125.276 32.4472 125.312 31.8072C125.365 31.1495 125.392 30.4828 125.392 29.8072C125.392 28.3139 125.374 26.9895 125.339 25.8339C125.303 24.6783 125.267 23.7006 125.232 22.9006C125.445 22.9361 125.676 22.9717 125.925 23.0072C126.174 23.025 126.405 23.0339 126.619 23.0339C126.814 23.0339 127.001 23.025 127.179 23.0072C127.374 22.9717 127.57 22.9361 127.765 22.9006C127.73 23.2917 127.694 23.8072 127.659 24.4472C127.623 25.0695 127.587 25.7806 127.552 26.5806C127.516 27.3806 127.49 28.2428 127.472 29.1672C127.454 30.0917 127.445 31.0517 127.445 32.0472C127.445 32.6517 127.454 33.2828 127.472 33.9406C127.49 34.5806 127.552 35.2117 127.659 35.8339C127.765 36.4383 127.934 37.025 128.165 37.5939C128.414 38.145 128.761 38.6339 129.205 39.0606C129.65 39.4695 130.21 39.7983 130.885 40.0472C131.561 40.2783 132.396 40.3939 133.392 40.3939C134.37 40.3939 135.187 40.2517 135.845 39.9672C136.521 39.6828 137.072 39.3095 137.499 38.8472C137.925 38.385 138.254 37.8517 138.485 37.2472C138.734 36.6428 138.912 36.0117 139.019 35.3539C139.125 34.6961 139.187 34.0383 139.205 33.3806C139.223 32.7228 139.232 32.1183 139.232 31.5672ZM146.094 29.8072C146.094 28.6339 146.067 27.4872 146.014 26.3672C145.978 25.2295 145.934 24.0739 145.88 22.9006C146.396 22.9361 146.903 22.9717 147.4 23.0072C147.898 23.025 148.405 23.0339 148.92 23.0339C149.436 23.0339 149.943 23.0161 150.44 22.9806C150.938 22.9272 151.445 22.9006 151.96 22.9006C152.707 22.9006 153.418 22.9717 154.094 23.1139C154.769 23.2561 155.356 23.4961 155.854 23.8339C156.369 24.1539 156.769 24.5806 157.054 25.1139C157.356 25.6472 157.507 26.3139 157.507 27.1139C157.507 27.9672 157.312 28.705 156.92 29.3272C156.547 29.9317 156.085 30.4383 155.534 30.8472C154.983 31.2383 154.387 31.5495 153.747 31.7806C153.125 31.9939 152.556 32.1361 152.04 32.2072C152.254 32.4739 152.547 32.8472 152.92 33.3272C153.294 33.8072 153.712 34.3406 154.174 34.9272C154.636 35.4961 155.116 36.1006 155.614 36.7406C156.112 37.3628 156.592 37.9672 157.054 38.5539C157.516 39.1228 157.952 39.6472 158.36 40.1272C158.769 40.6072 159.098 40.9717 159.347 41.2206C159.08 41.185 158.814 41.1672 158.547 41.1672C158.28 41.1672 158.014 41.1672 157.747 41.1672C157.498 41.1672 157.24 41.1672 156.974 41.1672C156.707 41.1672 156.449 41.185 156.2 41.2206C155.934 40.8472 155.525 40.2872 154.974 39.5406C154.44 38.7939 153.845 37.9939 153.187 37.1406C152.529 36.2872 151.854 35.4428 151.16 34.6072C150.485 33.7539 149.863 33.0339 149.294 32.4472H148.28V34.3939C148.28 35.5672 148.298 36.7228 148.334 37.8606C148.387 38.9983 148.44 40.1183 148.494 41.2206C148.085 41.185 147.649 41.1672 147.187 41.1672C146.725 41.1672 146.289 41.185 145.88 41.2206C145.934 40.1183 145.978 38.9983 146.014 37.8606C146.067 36.7228 146.094 35.5672 146.094 34.3939V29.8072ZM148.28 31.3272C148.529 31.3806 148.796 31.4161 149.08 31.4339C149.383 31.4517 149.712 31.4606 150.067 31.4606C150.618 31.4606 151.187 31.3983 151.774 31.2739C152.378 31.1495 152.929 30.9361 153.427 30.6339C153.925 30.3139 154.334 29.8961 154.654 29.3806C154.992 28.8472 155.16 28.1806 155.16 27.3806C155.16 26.6872 155.027 26.1183 154.76 25.6739C154.512 25.2117 154.183 24.8472 153.774 24.5806C153.365 24.3139 152.92 24.1361 152.44 24.0472C151.96 23.9406 151.489 23.8872 151.027 23.8872C150.405 23.8872 149.889 23.905 149.48 23.9406C149.072 23.9583 148.725 23.985 148.44 24.0206C148.405 24.9983 148.369 25.9672 148.334 26.9272C148.298 27.8872 148.28 28.8472 148.28 29.8072V31.3272ZM169.818 29.8072C169.818 28.6339 169.791 27.4872 169.738 26.3672C169.702 25.2295 169.658 24.0739 169.604 22.9006C169.836 22.9361 170.058 22.9717 170.271 23.0072C170.484 23.025 170.698 23.0339 170.911 23.0339C171.124 23.0339 171.338 23.025 171.551 23.0072C171.764 22.9717 171.987 22.9361 172.218 22.9006C172.164 24.0739 172.111 25.2295 172.058 26.3672C172.022 27.4872 172.004 28.6339 172.004 29.8072C172.004 32.0472 172.013 33.9939 172.031 35.6472C172.049 37.2828 172.067 38.7495 172.084 40.0472C173.347 40.0472 174.556 40.0383 175.711 40.0206C176.867 39.985 178.111 39.8783 179.444 39.7006C179.356 40.0206 179.311 40.2872 179.311 40.5006C179.311 40.6961 179.356 40.9361 179.444 41.2206C178.627 41.185 177.809 41.1672 176.991 41.1672C176.173 41.1672 175.356 41.1672 174.538 41.1672C173.684 41.1672 172.858 41.1672 172.058 41.1672C171.276 41.1672 170.458 41.185 169.604 41.2206C169.658 40.1183 169.702 38.9983 169.738 37.8606C169.791 36.7228 169.818 35.5672 169.818 34.3939V29.8072ZM181.658 32.1006C181.658 30.5895 181.898 29.2472 182.378 28.0739C182.876 26.8828 183.56 25.8783 184.431 25.0606C185.32 24.2428 186.378 23.6206 187.604 23.1939C188.831 22.7672 190.173 22.5539 191.631 22.5539C193.107 22.5539 194.458 22.7672 195.684 23.1939C196.911 23.6206 197.96 24.2428 198.831 25.0606C199.72 25.8783 200.404 26.8828 200.884 28.0739C201.382 29.2472 201.631 30.5895 201.631 32.1006C201.631 33.6117 201.382 34.9628 200.884 36.1539C200.404 37.3272 199.72 38.3228 198.831 39.1406C197.96 39.9583 196.911 40.5717 195.684 40.9806C194.458 41.3717 193.107 41.5672 191.631 41.5672C190.173 41.5672 188.831 41.3717 187.604 40.9806C186.378 40.5717 185.32 39.9583 184.431 39.1406C183.56 38.3228 182.876 37.3272 182.378 36.1539C181.898 34.9628 181.658 33.6117 181.658 32.1006ZM199.018 32.1006C199.018 30.625 198.831 29.3539 198.458 28.2872C198.084 27.2028 197.56 26.3139 196.884 25.6206C196.227 24.9095 195.444 24.385 194.538 24.0472C193.649 23.7095 192.68 23.5406 191.631 23.5406C190.6 23.5406 189.631 23.7095 188.724 24.0472C187.836 24.385 187.053 24.9095 186.378 25.6206C185.72 26.3139 185.204 27.2028 184.831 28.2872C184.458 29.3539 184.271 30.625 184.271 32.1006C184.271 33.5761 184.458 34.8561 184.831 35.9406C185.204 37.0072 185.72 37.8961 186.378 38.6072C187.053 39.3006 187.836 39.8161 188.724 40.1539C189.631 40.4917 190.6 40.6606 191.631 40.6606C192.68 40.6606 193.649 40.4917 194.538 40.1539C195.444 39.8161 196.227 39.3006 196.884 38.6072C197.56 37.8961 198.084 37.0072 198.458 35.9406C198.831 34.8561 199.018 33.5761 199.018 32.1006ZM220.645 26.1539C220.378 25.8339 220.04 25.5139 219.631 25.1939C219.24 24.8739 218.796 24.5983 218.298 24.3672C217.818 24.1183 217.276 23.9228 216.671 23.7806C216.085 23.6206 215.454 23.5406 214.778 23.5406C213.676 23.5406 212.645 23.7095 211.685 24.0472C210.742 24.385 209.916 24.9095 209.205 25.6206C208.511 26.3139 207.96 27.2028 207.551 28.2872C207.16 29.3539 206.965 30.625 206.965 32.1006C206.965 33.3983 207.142 34.5717 207.498 35.6206C207.854 36.6695 208.369 37.5583 209.045 38.2872C209.738 38.9983 210.574 39.5495 211.551 39.9406C212.547 40.3317 213.667 40.5272 214.911 40.5272C215.285 40.5272 215.676 40.5095 216.085 40.4739C216.494 40.4383 216.885 40.385 217.258 40.3139C217.649 40.2428 218.005 40.1539 218.325 40.0472C218.662 39.9406 218.947 39.8161 219.178 39.6739C219.196 39.1406 219.205 38.6072 219.205 38.0739C219.222 37.5406 219.231 36.9983 219.231 36.4472C219.231 35.825 219.214 35.2028 219.178 34.5806C219.16 33.9583 219.134 33.3628 219.098 32.7939C219.542 32.8828 219.969 32.9272 220.378 32.9272C220.574 32.9272 220.769 32.9183 220.965 32.9006C221.16 32.8828 221.347 32.8472 221.525 32.7939C221.489 33.2028 221.462 33.8517 221.445 34.7406C221.427 35.6117 221.418 36.7672 221.418 38.2072C221.418 38.5628 221.418 38.9272 221.418 39.3006C221.436 39.6561 221.445 40.0117 221.445 40.3672C221.071 40.5095 220.6 40.6606 220.031 40.8206C219.48 40.9628 218.885 41.0783 218.245 41.1672C217.622 41.2739 216.991 41.3628 216.351 41.4339C215.729 41.5228 215.16 41.5672 214.645 41.5672C213.062 41.5672 211.631 41.3806 210.351 41.0072C209.089 40.6161 208.014 40.0206 207.125 39.2206C206.236 38.4206 205.551 37.425 205.071 36.2339C204.591 35.0428 204.351 33.665 204.351 32.1006C204.351 30.5895 204.6 29.2472 205.098 28.0739C205.596 26.8828 206.298 25.8783 207.205 25.0606C208.111 24.2428 209.205 23.6206 210.485 23.1939C211.782 22.7672 213.214 22.5539 214.778 22.5539C215.685 22.5539 216.485 22.6072 217.178 22.7139C217.889 22.8028 218.511 22.9272 219.045 23.0872C219.596 23.2472 220.076 23.4161 220.485 23.5939C220.894 23.7717 221.258 23.9406 221.578 24.1006C221.436 24.3495 221.302 24.6695 221.178 25.0606C221.071 25.4517 221 25.8161 220.965 26.1539H220.645ZM224.627 32.1006C224.627 30.5895 224.867 29.2472 225.347 28.0739C225.844 26.8828 226.529 25.8783 227.4 25.0606C228.289 24.2428 229.347 23.6206 230.573 23.1939C231.8 22.7672 233.142 22.5539 234.6 22.5539C236.075 22.5539 237.427 22.7672 238.653 23.1939C239.88 23.6206 240.929 24.2428 241.8 25.0606C242.689 25.8783 243.373 26.8828 243.853 28.0739C244.351 29.2472 244.6 30.5895 244.6 32.1006C244.6 33.6117 244.351 34.9628 243.853 36.1539C243.373 37.3272 242.689 38.3228 241.8 39.1406C240.929 39.9583 239.88 40.5717 238.653 40.9806C237.427 41.3717 236.075 41.5672 234.6 41.5672C233.142 41.5672 231.8 41.3717 230.573 40.9806C229.347 40.5717 228.289 39.9583 227.4 39.1406C226.529 38.3228 225.844 37.3272 225.347 36.1539C224.867 34.9628 224.627 33.6117 224.627 32.1006ZM241.987 32.1006C241.987 30.625 241.8 29.3539 241.427 28.2872C241.053 27.2028 240.529 26.3139 239.853 25.6206C239.195 24.9095 238.413 24.385 237.507 24.0472C236.618 23.7095 235.649 23.5406 234.6 23.5406C233.569 23.5406 232.6 23.7095 231.693 24.0472C230.804 24.385 230.022 24.9095 229.347 25.6206C228.689 26.3139 228.173 27.2028 227.8 28.2872C227.427 29.3539 227.24 30.625 227.24 32.1006C227.24 33.5761 227.427 34.8561 227.8 35.9406C228.173 37.0072 228.689 37.8961 229.347 38.6072C230.022 39.3006 230.804 39.8161 231.693 40.1539C232.6 40.4917 233.569 40.6606 234.6 40.6606C235.649 40.6606 236.618 40.4917 237.507 40.1539C238.413 39.8161 239.195 39.3006 239.853 38.6072C240.529 37.8961 241.053 37.0072 241.427 35.9406C241.8 34.8561 241.987 33.5761 241.987 32.1006Z" fill="white"/>
</svg>
