<svg width="247" height="65" viewBox="0 0 247 65" fill="none" xmlns="http://www.w3.org/2000/svg">
<path d="M58.9994 57.3333H5.66602C4.57268 57.3333 3.66602 58.24 3.66602 59.3333C3.66602 60.4266 4.57268 61.3333 5.66602 61.3333H58.9994C60.0927 61.3333 60.9994 60.4266 60.9994 59.3333C60.9994 58.24 60.0927 57.3333 58.9994 57.3333Z" fill="black"/>
<path d="M45.6654 5.99994H18.9987C10.9987 5.99994 8.33203 10.7733 8.33203 16.6666V59.3333H56.332V16.6666C56.332 10.7733 53.6654 5.99994 45.6654 5.99994ZM26.9987 46.6666H18.9987C17.9054 46.6666 16.9987 45.7599 16.9987 44.6666C16.9987 43.5733 17.9054 42.6666 18.9987 42.6666H26.9987C28.092 42.6666 28.9987 43.5733 28.9987 44.6666C28.9987 45.7599 28.092 46.6666 26.9987 46.6666ZM26.9987 34.6666H18.9987C17.9054 34.6666 16.9987 33.7599 16.9987 32.6666C16.9987 31.5733 17.9054 30.6666 18.9987 30.6666H26.9987C28.092 30.6666 28.9987 31.5733 28.9987 32.6666C28.9987 33.7599 28.092 34.6666 26.9987 34.6666ZM26.9987 22.6666H18.9987C17.9054 22.6666 16.9987 21.7599 16.9987 20.6666C16.9987 19.5733 17.9054 18.6666 18.9987 18.6666H26.9987C28.092 18.6666 28.9987 19.5733 28.9987 20.6666C28.9987 21.7599 28.092 22.6666 26.9987 22.6666ZM45.6654 46.6666H37.6654C36.572 46.6666 35.6654 45.7599 35.6654 44.6666C35.6654 43.5733 36.572 42.6666 37.6654 42.6666H45.6654C46.7587 42.6666 47.6654 43.5733 47.6654 44.6666C47.6654 45.7599 46.7587 46.6666 45.6654 46.6666ZM45.6654 34.6666H37.6654C36.572 34.6666 35.6654 33.7599 35.6654 32.6666C35.6654 31.5733 36.572 30.6666 37.6654 30.6666H45.6654C46.7587 30.6666 47.6654 31.5733 47.6654 32.6666C47.6654 33.7599 46.7587 34.6666 45.6654 34.6666ZM45.6654 22.6666H37.6654C36.572 22.6666 35.6654 21.7599 35.6654 20.6666C35.6654 19.5733 36.572 18.6666 37.6654 18.6666H45.6654C46.7587 18.6666 47.6654 19.5733 47.6654 20.6666C47.6654 21.7599 46.7587 22.6666 45.6654 22.6666Z" fill="black"/>
<path d="M92.7346 33.7267C92.5569 33.4245 92.2902 32.9889 91.9346 32.42C91.5969 31.8334 91.2146 31.1934 90.788 30.5C90.3791 29.7889 89.9435 29.0511 89.4813 28.2867C89.0191 27.5045 88.5746 26.7667 88.148 26.0734C87.7391 25.3622 87.3657 24.7311 87.028 24.18C86.6902 23.6111 86.4324 23.1845 86.2546 22.9C86.5035 22.9356 86.7435 22.9711 86.9746 23.0067C87.2235 23.0245 87.4724 23.0334 87.7213 23.0334C87.9702 23.0334 88.2102 23.0245 88.4413 23.0067C88.6902 22.9711 88.9391 22.9356 89.188 22.9C89.988 24.4467 90.7969 25.9667 91.6146 27.46C92.4502 28.9534 93.3302 30.5089 94.2546 32.1267C94.6635 31.4867 95.0902 30.7845 95.5346 30.02C95.9791 29.2556 96.4235 28.4734 96.868 27.6734C97.3124 26.8734 97.7391 26.0734 98.148 25.2734C98.5569 24.4556 98.9391 23.6645 99.2946 22.9C99.7391 22.9889 100.086 23.0334 100.335 23.0334C100.584 23.0334 100.93 22.9889 101.375 22.9C100.521 24.1978 99.7569 25.3711 99.0813 26.42C98.4057 27.4689 97.8102 28.42 97.2946 29.2734C96.7791 30.1267 96.3257 30.9 95.9346 31.5934C95.5435 32.2689 95.2057 32.8822 94.9213 33.4334C94.9213 34.0911 94.9213 34.7934 94.9213 35.54C94.9391 36.2867 94.9569 37.0245 94.9746 37.7534C94.9924 38.4645 95.0102 39.1311 95.028 39.7534C95.0635 40.3578 95.0991 40.8467 95.1346 41.22C94.7257 41.1845 94.2902 41.1667 93.828 41.1667C93.3657 41.1667 92.9302 41.1845 92.5213 41.22C92.628 40.2956 92.6902 39.1756 92.708 37.86C92.7257 36.5445 92.7346 35.1667 92.7346 33.7267ZM101.632 32.1C101.632 30.5889 101.872 29.2467 102.352 28.0734C102.849 26.8822 103.534 25.8778 104.405 25.06C105.294 24.2422 106.352 23.62 107.578 23.1934C108.805 22.7667 110.147 22.5534 111.605 22.5534C113.081 22.5534 114.432 22.7667 115.658 23.1934C116.885 23.62 117.934 24.2422 118.805 25.06C119.694 25.8778 120.378 26.8822 120.858 28.0734C121.356 29.2467 121.605 30.5889 121.605 32.1C121.605 33.6111 121.356 34.9622 120.858 36.1534C120.378 37.3267 119.694 38.3222 118.805 39.14C117.934 39.9578 116.885 40.5711 115.658 40.98C114.432 41.3711 113.081 41.5667 111.605 41.5667C110.147 41.5667 108.805 41.3711 107.578 40.98C106.352 40.5711 105.294 39.9578 104.405 39.14C103.534 38.3222 102.849 37.3267 102.352 36.1534C101.872 34.9622 101.632 33.6111 101.632 32.1ZM118.992 32.1C118.992 30.6245 118.805 29.3534 118.432 28.2867C118.058 27.2022 117.534 26.3134 116.858 25.62C116.201 24.9089 115.418 24.3845 114.512 24.0467C113.623 23.7089 112.654 23.54 111.605 23.54C110.574 23.54 109.605 23.7089 108.698 24.0467C107.809 24.3845 107.027 24.9089 106.352 25.62C105.694 26.3134 105.178 27.2022 104.805 28.2867C104.432 29.3534 104.245 30.6245 104.245 32.1C104.245 33.5756 104.432 34.8556 104.805 35.94C105.178 37.0067 105.694 37.8956 106.352 38.6067C107.027 39.3 107.809 39.8156 108.698 40.1534C109.605 40.4911 110.574 40.66 111.605 40.66C112.654 40.66 113.623 40.4911 114.512 40.1534C115.418 39.8156 116.201 39.3 116.858 38.6067C117.534 37.8956 118.058 37.0067 118.432 35.94C118.805 34.8556 118.992 33.5756 118.992 32.1ZM139.232 31.5667C139.232 29.0422 139.223 27.0956 139.205 25.7267C139.187 24.3578 139.143 23.4156 139.072 22.9C139.267 22.9356 139.454 22.9711 139.632 23.0067C139.81 23.0245 139.987 23.0334 140.165 23.0334C140.396 23.0334 140.663 22.9889 140.965 22.9C140.912 23.5222 140.859 24.2689 140.805 25.14C140.752 25.9934 140.707 26.9178 140.672 27.9134C140.636 28.8911 140.601 29.9045 140.565 30.9534C140.53 31.9845 140.503 32.9889 140.485 33.9667C140.467 35.1578 140.281 36.2245 139.925 37.1667C139.587 38.1089 139.099 38.9089 138.459 39.5667C137.819 40.2245 137.027 40.7222 136.085 41.06C135.161 41.3978 134.094 41.5667 132.885 41.5667C130.219 41.5667 128.281 40.9622 127.072 39.7534C125.863 38.5445 125.259 36.6334 125.259 34.02C125.259 33.1845 125.276 32.4467 125.312 31.8067C125.365 31.1489 125.392 30.4822 125.392 29.8067C125.392 28.3134 125.374 26.9889 125.339 25.8334C125.303 24.6778 125.267 23.7 125.232 22.9C125.445 22.9356 125.676 22.9711 125.925 23.0067C126.174 23.0245 126.405 23.0334 126.619 23.0334C126.814 23.0334 127.001 23.0245 127.179 23.0067C127.374 22.9711 127.57 22.9356 127.765 22.9C127.73 23.2911 127.694 23.8067 127.659 24.4467C127.623 25.0689 127.587 25.78 127.552 26.58C127.516 27.38 127.49 28.2422 127.472 29.1667C127.454 30.0911 127.445 31.0511 127.445 32.0467C127.445 32.6511 127.454 33.2822 127.472 33.94C127.49 34.58 127.552 35.2111 127.659 35.8334C127.765 36.4378 127.934 37.0245 128.165 37.5934C128.414 38.1445 128.761 38.6334 129.205 39.06C129.65 39.4689 130.21 39.7978 130.885 40.0467C131.561 40.2778 132.396 40.3934 133.392 40.3934C134.37 40.3934 135.187 40.2511 135.845 39.9667C136.521 39.6822 137.072 39.3089 137.499 38.8467C137.925 38.3845 138.254 37.8511 138.485 37.2467C138.734 36.6422 138.912 36.0111 139.019 35.3534C139.125 34.6956 139.187 34.0378 139.205 33.38C139.223 32.7222 139.232 32.1178 139.232 31.5667ZM146.094 29.8067C146.094 28.6334 146.067 27.4867 146.014 26.3667C145.978 25.2289 145.934 24.0734 145.88 22.9C146.396 22.9356 146.903 22.9711 147.4 23.0067C147.898 23.0245 148.405 23.0334 148.92 23.0334C149.436 23.0334 149.943 23.0156 150.44 22.98C150.938 22.9267 151.445 22.9 151.96 22.9C152.707 22.9 153.418 22.9711 154.094 23.1134C154.769 23.2556 155.356 23.4956 155.854 23.8334C156.369 24.1534 156.769 24.58 157.054 25.1134C157.356 25.6467 157.507 26.3134 157.507 27.1134C157.507 27.9667 157.312 28.7045 156.92 29.3267C156.547 29.9311 156.085 30.4378 155.534 30.8467C154.983 31.2378 154.387 31.5489 153.747 31.78C153.125 31.9934 152.556 32.1356 152.04 32.2067C152.254 32.4734 152.547 32.8467 152.92 33.3267C153.294 33.8067 153.712 34.34 154.174 34.9267C154.636 35.4956 155.116 36.1 155.614 36.74C156.112 37.3622 156.592 37.9667 157.054 38.5534C157.516 39.1222 157.952 39.6467 158.36 40.1267C158.769 40.6067 159.098 40.9711 159.347 41.22C159.08 41.1845 158.814 41.1667 158.547 41.1667C158.28 41.1667 158.014 41.1667 157.747 41.1667C157.498 41.1667 157.24 41.1667 156.974 41.1667C156.707 41.1667 156.449 41.1845 156.2 41.22C155.934 40.8467 155.525 40.2867 154.974 39.54C154.44 38.7934 153.845 37.9934 153.187 37.14C152.529 36.2867 151.854 35.4422 151.16 34.6067C150.485 33.7534 149.863 33.0334 149.294 32.4467H148.28V34.3934C148.28 35.5667 148.298 36.7222 148.334 37.86C148.387 38.9978 148.44 40.1178 148.494 41.22C148.085 41.1845 147.649 41.1667 147.187 41.1667C146.725 41.1667 146.289 41.1845 145.88 41.22C145.934 40.1178 145.978 38.9978 146.014 37.86C146.067 36.7222 146.094 35.5667 146.094 34.3934V29.8067ZM148.28 31.3267C148.529 31.38 148.796 31.4156 149.08 31.4334C149.383 31.4511 149.712 31.46 150.067 31.46C150.618 31.46 151.187 31.3978 151.774 31.2734C152.378 31.1489 152.929 30.9356 153.427 30.6334C153.925 30.3134 154.334 29.8956 154.654 29.38C154.992 28.8467 155.16 28.18 155.16 27.38C155.16 26.6867 155.027 26.1178 154.76 25.6734C154.512 25.2111 154.183 24.8467 153.774 24.58C153.365 24.3134 152.92 24.1356 152.44 24.0467C151.96 23.94 151.489 23.8867 151.027 23.8867C150.405 23.8867 149.889 23.9045 149.48 23.94C149.072 23.9578 148.725 23.9845 148.44 24.02C148.405 24.9978 148.369 25.9667 148.334 26.9267C148.298 27.8867 148.28 28.8467 148.28 29.8067V31.3267ZM169.818 29.8067C169.818 28.6334 169.791 27.4867 169.738 26.3667C169.702 25.2289 169.658 24.0734 169.604 22.9C169.836 22.9356 170.058 22.9711 170.271 23.0067C170.484 23.0245 170.698 23.0334 170.911 23.0334C171.124 23.0334 171.338 23.0245 171.551 23.0067C171.764 22.9711 171.987 22.9356 172.218 22.9C172.164 24.0734 172.111 25.2289 172.058 26.3667C172.022 27.4867 172.004 28.6334 172.004 29.8067C172.004 32.0467 172.013 33.9934 172.031 35.6467C172.049 37.2822 172.067 38.7489 172.084 40.0467C173.347 40.0467 174.556 40.0378 175.711 40.02C176.867 39.9845 178.111 39.8778 179.444 39.7C179.356 40.02 179.311 40.2867 179.311 40.5C179.311 40.6956 179.356 40.9356 179.444 41.22C178.627 41.1845 177.809 41.1667 176.991 41.1667C176.173 41.1667 175.356 41.1667 174.538 41.1667C173.684 41.1667 172.858 41.1667 172.058 41.1667C171.276 41.1667 170.458 41.1845 169.604 41.22C169.658 40.1178 169.702 38.9978 169.738 37.86C169.791 36.7222 169.818 35.5667 169.818 34.3934V29.8067ZM181.658 32.1C181.658 30.5889 181.898 29.2467 182.378 28.0734C182.876 26.8822 183.56 25.8778 184.431 25.06C185.32 24.2422 186.378 23.62 187.604 23.1934C188.831 22.7667 190.173 22.5534 191.631 22.5534C193.107 22.5534 194.458 22.7667 195.684 23.1934C196.911 23.62 197.96 24.2422 198.831 25.06C199.72 25.8778 200.404 26.8822 200.884 28.0734C201.382 29.2467 201.631 30.5889 201.631 32.1C201.631 33.6111 201.382 34.9622 200.884 36.1534C200.404 37.3267 199.72 38.3222 198.831 39.14C197.96 39.9578 196.911 40.5711 195.684 40.98C194.458 41.3711 193.107 41.5667 191.631 41.5667C190.173 41.5667 188.831 41.3711 187.604 40.98C186.378 40.5711 185.32 39.9578 184.431 39.14C183.56 38.3222 182.876 37.3267 182.378 36.1534C181.898 34.9622 181.658 33.6111 181.658 32.1ZM199.018 32.1C199.018 30.6245 198.831 29.3534 198.458 28.2867C198.084 27.2022 197.56 26.3134 196.884 25.62C196.227 24.9089 195.444 24.3845 194.538 24.0467C193.649 23.7089 192.68 23.54 191.631 23.54C190.6 23.54 189.631 23.7089 188.724 24.0467C187.836 24.3845 187.053 24.9089 186.378 25.62C185.72 26.3134 185.204 27.2022 184.831 28.2867C184.458 29.3534 184.271 30.6245 184.271 32.1C184.271 33.5756 184.458 34.8556 184.831 35.94C185.204 37.0067 185.72 37.8956 186.378 38.6067C187.053 39.3 187.836 39.8156 188.724 40.1534C189.631 40.4911 190.6 40.66 191.631 40.66C192.68 40.66 193.649 40.4911 194.538 40.1534C195.444 39.8156 196.227 39.3 196.884 38.6067C197.56 37.8956 198.084 37.0067 198.458 35.94C198.831 34.8556 199.018 33.5756 199.018 32.1ZM220.645 26.1534C220.378 25.8334 220.04 25.5134 219.631 25.1934C219.24 24.8734 218.796 24.5978 218.298 24.3667C217.818 24.1178 217.276 23.9222 216.671 23.78C216.085 23.62 215.454 23.54 214.778 23.54C213.676 23.54 212.645 23.7089 211.685 24.0467C210.742 24.3845 209.916 24.9089 209.205 25.62C208.511 26.3134 207.96 27.2022 207.551 28.2867C207.16 29.3534 206.965 30.6245 206.965 32.1C206.965 33.3978 207.142 34.5711 207.498 35.62C207.854 36.6689 208.369 37.5578 209.045 38.2867C209.738 38.9978 210.574 39.5489 211.551 39.94C212.547 40.3311 213.667 40.5267 214.911 40.5267C215.285 40.5267 215.676 40.5089 216.085 40.4734C216.494 40.4378 216.885 40.3845 217.258 40.3134C217.649 40.2422 218.005 40.1534 218.325 40.0467C218.662 39.94 218.947 39.8156 219.178 39.6734C219.196 39.14 219.205 38.6067 219.205 38.0734C219.222 37.54 219.231 36.9978 219.231 36.4467C219.231 35.8245 219.214 35.2022 219.178 34.58C219.16 33.9578 219.134 33.3622 219.098 32.7934C219.542 32.8822 219.969 32.9267 220.378 32.9267C220.574 32.9267 220.769 32.9178 220.965 32.9C221.16 32.8822 221.347 32.8467 221.525 32.7934C221.489 33.2022 221.462 33.8511 221.445 34.74C221.427 35.6111 221.418 36.7667 221.418 38.2067C221.418 38.5622 221.418 38.9267 221.418 39.3C221.436 39.6556 221.445 40.0111 221.445 40.3667C221.071 40.5089 220.6 40.66 220.031 40.82C219.48 40.9622 218.885 41.0778 218.245 41.1667C217.622 41.2734 216.991 41.3622 216.351 41.4334C215.729 41.5222 215.16 41.5667 214.645 41.5667C213.062 41.5667 211.631 41.38 210.351 41.0067C209.089 40.6156 208.014 40.02 207.125 39.22C206.236 38.42 205.551 37.4245 205.071 36.2334C204.591 35.0422 204.351 33.6645 204.351 32.1C204.351 30.5889 204.6 29.2467 205.098 28.0734C205.596 26.8822 206.298 25.8778 207.205 25.06C208.111 24.2422 209.205 23.62 210.485 23.1934C211.782 22.7667 213.214 22.5534 214.778 22.5534C215.685 22.5534 216.485 22.6067 217.178 22.7134C217.889 22.8022 218.511 22.9267 219.045 23.0867C219.596 23.2467 220.076 23.4156 220.485 23.5934C220.894 23.7711 221.258 23.94 221.578 24.1C221.436 24.3489 221.302 24.6689 221.178 25.06C221.071 25.4511 221 25.8156 220.965 26.1534H220.645ZM224.627 32.1C224.627 30.5889 224.867 29.2467 225.347 28.0734C225.844 26.8822 226.529 25.8778 227.4 25.06C228.289 24.2422 229.347 23.62 230.573 23.1934C231.8 22.7667 233.142 22.5534 234.6 22.5534C236.075 22.5534 237.427 22.7667 238.653 23.1934C239.88 23.62 240.929 24.2422 241.8 25.06C242.689 25.8778 243.373 26.8822 243.853 28.0734C244.351 29.2467 244.6 30.5889 244.6 32.1C244.6 33.6111 244.351 34.9622 243.853 36.1534C243.373 37.3267 242.689 38.3222 241.8 39.14C240.929 39.9578 239.88 40.5711 238.653 40.98C237.427 41.3711 236.075 41.5667 234.6 41.5667C233.142 41.5667 231.8 41.3711 230.573 40.98C229.347 40.5711 228.289 39.9578 227.4 39.14C226.529 38.3222 225.844 37.3267 225.347 36.1534C224.867 34.9622 224.627 33.6111 224.627 32.1ZM241.987 32.1C241.987 30.6245 241.8 29.3534 241.427 28.2867C241.053 27.2022 240.529 26.3134 239.853 25.62C239.195 24.9089 238.413 24.3845 237.507 24.0467C236.618 23.7089 235.649 23.54 234.6 23.54C233.569 23.54 232.6 23.7089 231.693 24.0467C230.804 24.3845 230.022 24.9089 229.347 25.62C228.689 26.3134 228.173 27.2022 227.8 28.2867C227.427 29.3534 227.24 30.6245 227.24 32.1C227.24 33.5756 227.427 34.8556 227.8 35.94C228.173 37.0067 228.689 37.8956 229.347 38.6067C230.022 39.3 230.804 39.8156 231.693 40.1534C232.6 40.4911 233.569 40.66 234.6 40.66C235.649 40.66 236.618 40.4911 237.507 40.1534C238.413 39.8156 239.195 39.3 239.853 38.6067C240.529 37.8956 241.053 37.0067 241.427 35.94C241.8 34.8556 241.987 33.5756 241.987 32.1Z" fill="black"/>
</svg>
