<svg xmlns="http://www.w3.org/2000/svg" width="27" height="26" viewBox="0 0 27 26" fill="none">
  <path d="M12.3068 6.88736V1.54201C12.3068 0.973639 12.7601 0.5 13.3335 0.5C13.8468 0.5 14.2817 0.897988 14.3506 1.40211L14.3601 1.54201V6.88736L20.7333 6.88777C23.9067 6.88777 26.5138 9.48638 26.6602 12.7272L26.6667 13.0148V19.7339C26.6667 22.9974 24.1502 25.6763 21.024 25.8267L20.7467 25.8333H5.92C2.74667 25.8333 0.15212 23.2477 0.00645038 19.995L0 19.7063L0 13.001C0 9.73747 2.50388 7.04562 5.62933 6.89446L5.90667 6.88777H12.3067V15.4243L10.1733 13.2213C9.77333 12.8083 9.12 12.8083 8.72 13.2213C8.52 13.4278 8.42667 13.7032 8.42667 13.9786C8.42667 14.1879 8.4864 14.406 8.61269 14.5906L8.72 14.7221L12.6 18.7425C12.7867 18.949 13.0533 19.0592 13.3333 19.0592C13.5556 19.0592 13.7778 18.9827 13.9537 18.8377L14.0533 18.7425L17.9333 14.7221C18.3333 14.309 18.3333 13.6344 17.9333 13.2213C17.5697 12.8458 16.9967 12.8117 16.595 13.1189L16.48 13.2213L14.36 15.4243V6.88777L12.3068 6.88736Z" fill="white"/>
</svg>