<svg xmlns="http://www.w3.org/2000/svg" width="27" height="26" viewBox="0 0 27 26" fill="none">
  <path d="M12.3088 6.88736V1.54201C12.3088 0.973639 12.7621 0.5 13.3354 0.5C13.8488 0.5 14.2837 0.897988 14.3526 1.40211L14.3621 1.54201V6.88736L20.7353 6.88777C23.9086 6.88777 26.5157 9.48638 26.6621 12.7272L26.6686 13.0148V19.7339C26.6686 22.9974 24.1522 25.6763 21.026 25.8267L20.7486 25.8333H5.92195C2.74862 25.8333 0.154073 23.2477 0.0084035 19.995L0.00195312 19.7063L0.00195313 13.001C0.00195313 9.73747 2.50583 7.04562 5.63128 6.89446L5.90862 6.88777H12.3086V15.4243L10.1753 13.2213C9.77529 12.8083 9.12195 12.8083 8.72195 13.2213C8.52195 13.4278 8.42862 13.7032 8.42862 13.9786C8.42862 14.1879 8.48835 14.406 8.61465 14.5906L8.72195 14.7221L12.602 18.7425C12.7886 18.949 13.0553 19.0592 13.3353 19.0592C13.5575 19.0592 13.7797 18.9827 13.9557 18.8377L14.0553 18.7425L17.9353 14.7221C18.3353 14.309 18.3353 13.6344 17.9353 13.2213C17.5716 12.8458 16.9986 12.8117 16.5969 13.1189L16.482 13.2213L14.362 15.4243V6.88777L12.3088 6.88736Z" fill="black"/>
</svg>