<svg xmlns="http://www.w3.org/2000/svg" width="40" height="41" viewBox="0 0 40 41" fill="none">
  <path d="M36.6667 25.5C36.6667 31.95 31.45 37.1667 25 37.1667L26.75 34.25" stroke="#AD857E" stroke-width="2.5" stroke-linecap="round" stroke-linejoin="round"/>
  <path d="M3.33203 15.5007C3.33203 9.05065 8.5487 3.83398 14.9987 3.83398L13.2487 6.75065" stroke="#AD857E" stroke-width="2.5" stroke-linecap="round" stroke-linejoin="round"/>
  <path d="M36.6667 7.50065V7.68398C36.6667 8.15065 36.3 8.51732 35.8333 8.51732H20.8333C20.3667 8.51732 20 8.15065 20 7.68398V7.50065C20 4.56732 20.7333 3.83398 23.7 3.83398H32.9667C35.9333 3.83398 36.6667 4.56732 36.6667 7.50065Z" fill="#AD857E"/>
  <path d="M20.8333 10.1826C20.3667 10.1826 20 10.5493 20 11.016V12.6826V14.3326C20 17.266 20.7333 17.9993 23.7 17.9993H32.9667C35.9333 17.9993 36.6667 17.266 36.6667 14.3326V12.6826V11.016C36.6667 10.5493 36.3 10.1826 35.8333 10.1826H20.8333Z" fill="#AD857E"/>
  <path d="M19.9987 26.6667V26.85C19.9987 27.3167 19.632 27.6833 19.1654 27.6833H4.16536C3.6987 27.6833 3.33203 27.3167 3.33203 26.85V26.6667C3.33203 23.7333 4.06536 23 7.03203 23H16.2987C19.2654 23 19.9987 23.7333 19.9987 26.6667Z" fill="#AD857E"/>
  <path d="M4.16536 29.3486C3.6987 29.3486 3.33203 29.7153 3.33203 30.182V31.8486V33.4986C3.33203 36.432 4.06536 37.1653 7.03203 37.1653H16.2987C19.2654 37.1653 19.9987 36.432 19.9987 33.4986V31.8486V30.182C19.9987 29.7153 19.632 29.3486 19.1654 29.3486H4.16536Z" fill="#AD857E"/>
</svg>