<svg xmlns="http://www.w3.org/2000/svg" width="40" height="40" viewBox="0 0 40 40" fill="none">
  <path d="M28.332 5.83398H11.6654C6.66536 5.83398 3.33203 8.33398 3.33203 14.1673V25.834C3.33203 31.6673 6.66536 34.1673 11.6654 34.1673H28.332C33.332 34.1673 36.6654 31.6673 36.6654 25.834V14.1673C36.6654 8.33398 33.332 5.83398 28.332 5.83398ZM13.332 29.584H8.33203C7.6487 29.584 7.08203 29.0173 7.08203 28.334C7.08203 27.6507 7.6487 27.084 8.33203 27.084H13.332C14.0154 27.084 14.582 27.6507 14.582 28.334C14.582 29.0173 14.0154 29.584 13.332 29.584ZM19.9987 25.0007C17.232 25.0007 14.9987 22.7673 14.9987 20.0007C14.9987 17.234 17.232 15.0007 19.9987 15.0007C22.7654 15.0007 24.9987 17.234 24.9987 20.0007C24.9987 22.7673 22.7654 25.0007 19.9987 25.0007ZM31.6654 12.9173H26.6654C25.982 12.9173 25.4154 12.3507 25.4154 11.6673C25.4154 10.984 25.982 10.4173 26.6654 10.4173H31.6654C32.3487 10.4173 32.9154 10.984 32.9154 11.6673C32.9154 12.3507 32.3487 12.9173 31.6654 12.9173Z" fill="#AD857E"/>
</svg>