<svg xmlns="http://www.w3.org/2000/svg" width="193" height="56" viewBox="0 0 193 56" fill="none">
<path d="M192.351 24.726C192.497 24.6098 192.497 24.4936 192.424 24.4161C192.279 24.2999 192.351 24.1837 192.351 24.0675C192.351 23.7964 192.206 23.564 192.424 23.3316C192.497 23.2929 192.424 23.2154 192.351 23.138C192.351 23.0218 192.206 22.9056 192.279 22.7894C192.424 22.557 192.279 22.3633 192.133 22.1697C192.133 22.0922 191.987 22.0147 191.987 21.9373C191.987 21.55 191.769 21.2401 191.769 20.8528C191.769 20.5042 191.187 20.1944 191.187 19.7683L190.313 18.374C190.24 18.2965 190.24 18.219 190.095 18.1803C189.658 18.0641 189.585 17.7155 189.367 17.4831C189.148 17.2507 188.93 16.9409 188.639 16.7085C188.421 16.5536 188.275 16.4374 188.129 16.2437C187.984 16.0888 187.911 15.9726 187.693 15.8564L185.945 14.617C185.509 14.3071 184.926 14.036 184.781 13.6874C184.708 13.5325 184.49 13.4551 184.271 13.4163C184.126 13.3776 183.98 13.3001 183.98 13.1839C183.907 13.0677 183.762 12.9903 183.616 12.9128L182.524 12.3318C182.378 12.2544 182.378 12.0994 182.233 12.022C182.015 11.9058 181.723 11.9445 181.505 11.8283L181.287 11.7121C181.287 11.6347 181.214 11.5572 181.068 11.4797C180.631 11.2473 180.122 11.015 179.612 10.7826C179.03 10.5114 178.593 10.1629 177.865 9.96921L174.953 8.6136C174.371 8.34248 173.789 8.07136 173.061 7.8777C172.478 7.72277 171.969 7.64531 171.459 7.37419L171.386 7.33546C170.586 7.25799 170.149 6.94814 169.494 6.75448C168.402 6.44463 167.383 6.09604 166.291 5.74746L165.781 5.63127L165.636 5.70873C165.49 5.78619 165.417 5.70873 165.344 5.67C165.199 5.59253 165.344 5.4376 164.98 5.4376C164.908 5.4376 164.835 5.39887 164.762 5.39887C164.034 5.08902 163.015 5.05029 162.287 4.74044C162.141 4.7017 161.996 4.7017 161.923 4.7017C161.777 4.66297 161.559 4.66297 161.486 4.62424C161.122 4.43058 160.613 4.39185 160.176 4.31439C159.521 4.19819 158.938 3.92707 158.21 4.00453C157.846 3.73341 157.191 3.77215 156.755 3.65595C156.099 3.50103 155.444 3.42356 154.862 3.30737C154.061 3.15244 153.333 3.11371 152.605 2.92005C152.46 2.88132 152.314 2.80386 152.168 2.80386C151.295 2.80386 150.567 2.57146 149.766 2.494C149.621 2.45527 149.402 2.41654 149.184 2.41654C148.383 2.41654 147.51 2.26161 146.709 2.10669C146.49 2.06796 146.345 2.02922 146.126 2.02922L145.107 1.91303C144.743 1.8743 144.452 1.99049 144.088 1.8743C143.87 1.7581 143.433 1.7581 143.069 1.71937C142.923 1.68064 142.778 1.64191 142.632 1.64191C142.05 1.64191 141.54 1.56444 141.031 1.48698L140.448 1.40952C139.939 1.40952 139.502 1.33205 139.065 1.33205C138.556 1.33205 138.046 1.21586 137.537 1.21586C137.318 1.21586 137.173 1.17713 136.954 1.17713C136.736 1.17713 136.445 1.13839 136.226 1.21586C136.008 1.25459 136.008 1.0222 135.79 1.09966C134.77 1.0222 133.751 0.944737 132.805 0.906006C131.422 0.867275 130.111 0.751079 128.801 0.751079H128.437C127.709 0.596152 127.054 0.634885 126.326 0.634885H125.817C125.089 0.479959 124.361 0.596152 123.633 0.51869C123.196 0.479959 122.759 0.479959 122.322 0.596152C122.177 0.634885 122.031 0.634885 121.886 0.596152C121.23 0.402494 120.503 0.479959 119.775 0.557421H119.338C118.901 0.479959 118.464 0.441225 117.955 0.51869C117.663 0.557421 117.3 0.51869 117.008 0.51869H113.951C113.369 0.51869 112.859 0.596152 112.349 0.751079C112.204 0.828543 112.131 0.828543 111.985 0.78981C111.84 0.712348 111.621 0.673617 111.403 0.673617C110.894 0.673617 110.311 0.634885 109.802 0.712348C108.782 0.867275 107.763 0.906006 106.744 0.906006C106.453 0.906006 106.162 0.906006 105.943 0.944737L103.032 1.17713C102.668 1.17713 102.376 1.33205 102.013 1.33205C101.649 1.33205 101.357 1.25459 100.993 1.29332L99.0279 1.52571C98.3727 1.60318 97.6448 1.60318 96.9896 1.68064C96.5529 1.71937 96.1889 1.7581 95.8249 1.83556C95.6065 1.8743 95.3881 1.95176 95.097 1.91303C94.8786 1.8743 94.6602 1.91303 94.4418 1.95176C93.7139 2.06796 92.9859 2.14542 92.2579 2.22288C91.0204 2.33908 89.7101 2.53273 88.4726 2.64893C87.3807 2.76512 86.2887 3.07498 85.124 3.07498C84.9784 3.07498 84.76 3.15244 84.6144 3.19117C84.3961 3.26863 84.1777 3.26863 83.9593 3.30737C83.2313 3.42356 82.5034 3.50103 81.7754 3.57849C80.7563 3.69468 79.81 3.88834 78.7908 4.00453C77.7717 4.12073 76.8253 4.39185 75.7334 4.50805C75.3694 4.54678 75.0055 4.62424 74.6415 4.74044C74.2047 4.8179 73.7679 4.9341 73.3312 4.97283C72.8216 5.01156 72.312 5.05029 72.0209 5.32141C71.9481 5.36014 71.8025 5.39887 71.7297 5.36014C71.0745 5.28268 70.4922 5.4376 69.9826 5.5538C69.473 5.67 69.0363 5.86365 68.3811 5.86365C68.2355 5.86365 68.0899 5.94112 67.9443 5.97985C67.7987 6.01858 67.6531 6.09604 67.5076 6.05731C66.7796 6.05731 66.1972 6.32843 65.5421 6.44463C65.1053 6.52209 64.8869 6.67702 64.8869 6.87068C64.8869 6.90941 64.8141 6.94814 64.8141 6.98687C64.7413 7.06434 64.5229 7.06434 64.3774 6.98687C64.2318 6.94814 64.159 6.87068 64.3774 6.83194C64.4502 6.79321 64.4502 6.75448 64.4502 6.75448C64.3046 6.71575 64.159 6.71575 64.0862 6.71575C63.431 6.87068 62.6303 6.90941 62.1207 7.18053C61.9751 7.25799 61.8295 7.33546 61.6111 7.33546C61.2472 7.33546 60.8832 7.33546 60.5192 7.49038C60.1552 7.64531 59.7185 7.64531 59.3545 7.80024C58.9905 7.95516 58.5537 8.11009 58.0442 8.11009C57.8986 8.11009 57.6802 8.18755 57.5346 8.18755C57.1706 8.26501 57.0978 8.41994 56.8794 8.53614C56.8066 8.53614 56.6611 8.49741 56.6611 8.49741L56.4427 8.72979C56.4427 8.80726 56.2243 8.84599 56.0787 8.76853C56.0059 8.72979 55.9331 8.6136 55.8603 8.69106C55.7147 8.84599 55.3507 8.80726 55.0596 8.88472C54.914 8.92345 54.914 9.00091 55.0596 9.07838C55.1324 9.11711 55.2779 9.11711 55.2779 9.19457C55.4235 9.31077 55.4963 9.19457 55.6419 9.19457C56.0059 9.11711 56.4427 9.15584 56.6611 8.96218C56.9522 8.80726 57.4618 8.84599 57.6074 8.65233C57.8986 8.72979 57.9714 8.45867 58.1898 8.53614C58.4809 8.6136 58.7721 8.53614 58.9905 8.49741C59.5001 8.41994 59.9368 8.26501 60.4464 8.18755C61.0288 8.03262 61.6111 7.95516 62.0479 7.68404C62.1207 7.60658 62.2663 7.60658 62.4119 7.64531C62.5575 7.68404 62.7759 7.68404 62.9215 7.68404C63.2126 7.60658 63.5766 7.56784 63.7222 7.37419C63.795 7.25799 64.0862 7.18053 64.3046 7.25799C64.4502 7.29672 64.5957 7.33546 64.6685 7.29672C65.1781 7.0256 66.0516 7.10307 66.634 6.90941C67.1436 6.71575 67.7259 6.67702 68.3083 6.59955C68.6723 6.56082 68.9635 6.48336 69.1818 6.32843C69.5458 6.21224 69.9098 6.13477 70.201 6.01858C70.4194 5.94112 70.4922 5.97985 70.6377 6.05731C70.7105 6.13477 70.8561 6.13477 71.0745 6.09604C71.2201 6.01858 71.5113 5.97985 71.6569 5.90239C71.8753 5.78619 72.1665 5.94112 72.4576 5.86365C73.2584 5.67 74.2775 5.70873 74.9327 5.36014C75.0783 5.28268 75.3694 5.32141 75.515 5.28268C75.7334 5.28268 76.0246 5.28268 76.243 5.20522C76.6798 5.05029 77.2621 5.01156 77.7717 4.97283C78.1357 4.9341 78.5724 4.85663 78.9364 4.77917C79.2276 4.7017 79.5188 4.66297 79.7372 4.54678C80.0283 4.39185 80.3195 4.58551 80.6107 4.50805H80.8291C81.3387 4.35312 81.9938 4.35312 82.5034 4.23693C83.3769 4.04327 84.2505 3.88834 85.124 3.88834C85.2696 3.88834 85.488 3.84961 85.5608 3.81088C85.9248 3.61722 86.2887 3.61722 86.7255 3.61722C87.3807 3.61722 88.0358 3.53976 88.6182 3.46229C89.6373 3.2299 90.7292 3.15244 91.7484 3.03625C92.1124 2.99751 92.4763 2.92005 92.8403 2.92005C93.2043 2.92005 93.5683 2.84259 93.9322 2.72639C94.0778 2.68766 94.2234 2.64893 94.369 2.68766C94.733 2.80386 95.097 2.68766 95.3881 2.64893C96.2617 2.53273 97.1352 2.37781 98.0816 2.37781C98.2272 2.37781 98.4455 2.33908 98.5911 2.26161C98.8823 2.10669 99.1735 2.14542 99.4647 2.14542C100.047 2.14542 100.702 2.14542 101.212 2.02922C101.503 1.95176 101.794 1.91303 102.158 1.99049C102.376 2.02922 102.668 1.99049 102.886 1.91303L103.396 1.7581C103.541 1.71937 103.614 1.68064 103.76 1.71937L104.196 1.83556C104.415 1.91303 104.488 1.68064 104.633 1.71937C104.924 1.79683 105.143 1.79683 105.434 1.71937C105.725 1.64191 106.016 1.7581 106.307 1.71937C106.526 1.68064 106.744 1.71937 106.89 1.68064C107.181 1.68064 107.399 1.64191 107.618 1.64191C108.71 1.64191 109.729 1.48698 110.821 1.48698C110.966 1.48698 111.112 1.44825 111.258 1.40952C111.621 1.33205 112.131 1.44825 112.495 1.33205H112.713C113.66 1.33205 114.533 1.37079 115.407 1.37079C115.844 1.33205 116.208 1.25459 116.208 0.98347C116.208 0.906006 116.353 0.906006 116.426 0.944737C116.572 1.0222 116.644 1.0222 116.717 1.06093C116.79 1.17713 116.936 1.25459 117.154 1.25459C118.027 1.25459 118.901 1.29332 119.775 1.29332C120.066 1.29332 120.284 1.21586 120.575 1.17713C120.648 1.13839 120.794 1.13839 120.866 1.17713C121.376 1.29332 121.886 1.25459 122.395 1.29332C122.759 1.33205 123.196 1.25459 123.56 1.33205C123.706 1.33205 123.924 1.21586 124.142 1.21586C124.215 1.21586 124.361 1.17713 124.433 1.25459C124.652 1.37079 125.016 1.37079 125.307 1.37079H126.836C127.2 1.37079 127.491 1.37079 127.782 1.40952C128.146 1.44825 128.51 1.48698 128.874 1.48698C129.529 1.48698 130.257 1.48698 130.985 1.56444C131.64 1.64191 132.368 1.64191 133.096 1.64191C133.387 1.64191 133.751 1.7581 133.97 1.71937C134.406 1.64191 134.698 1.71937 135.062 1.7581C135.571 1.79683 136.081 1.8743 136.663 1.8743C136.809 1.8743 136.954 1.8743 137.1 1.91303C137.682 2.06796 138.483 2.02922 139.138 2.02922C139.284 2.02922 139.575 2.02922 139.648 2.06796C140.012 2.26161 140.448 2.14542 140.74 2.22288C141.031 2.30034 141.249 2.14542 141.395 2.18415C141.686 2.26161 141.832 2.33908 142.123 2.41654C142.268 2.494 142.487 2.45527 142.632 2.45527C142.996 2.45527 143.36 2.37781 143.651 2.45527C144.671 2.6102 145.69 2.72639 146.636 2.88132C147.364 2.99751 148.092 3.11371 148.82 3.15244C149.402 3.19117 149.985 3.38483 150.64 3.38483C152.096 3.73341 153.624 3.92707 155.226 4.04327C155.444 4.082 155.59 4.082 155.735 4.15946C156.391 4.50805 157.191 4.62424 157.992 4.7017C158.647 4.77917 159.23 4.85663 159.885 5.01156C160.249 5.08902 160.467 5.24395 160.758 5.28268C161.486 5.36014 162.141 5.47634 162.797 5.63127C163.161 5.70873 163.452 5.70873 163.67 5.90239C163.816 6.01858 164.107 6.09604 164.398 6.09604C164.762 6.09604 165.053 6.21224 165.344 6.32843C165.781 6.52209 166.291 6.59955 166.8 6.71575C167.528 6.87068 168.256 6.94814 168.839 7.25799C168.911 7.29672 169.057 7.29672 169.203 7.33546C169.275 7.33546 169.421 7.37419 169.421 7.45165C169.421 7.60658 169.712 7.64531 170.003 7.72277C170.877 7.95516 171.678 8.22628 172.406 8.49741C172.915 8.69106 173.352 8.84599 173.789 9.07838C174.08 9.23331 174.444 9.3495 174.808 9.42696C175.172 9.50443 175.317 9.73681 175.827 9.81428C176.118 9.85301 176.337 10.0854 176.7 10.2016C177.064 10.3953 177.428 10.5114 177.792 10.6664C178.593 11.015 179.176 11.4797 180.049 11.7896C180.267 12.0607 180.777 12.1769 181.068 12.3706C181.432 12.603 181.796 12.7579 182.087 12.9903C182.451 13.1839 182.815 13.3776 183.034 13.6487C183.106 13.7262 183.252 13.8036 183.398 13.8811C183.834 14.1135 184.271 14.2684 184.562 14.5395C184.926 14.8494 185.29 15.1205 185.8 15.3916C186.091 15.5466 186.382 15.7015 186.382 15.9339C186.382 16.0501 186.528 16.1663 186.673 16.2825C186.965 16.5148 187.256 16.7085 187.474 16.9409C188.057 17.5993 188.93 18.1803 189.221 18.8775L189.512 19.1486C189.658 19.381 189.804 19.6134 190.022 19.807C190.24 19.962 190.095 20.2331 190.313 20.388C190.604 20.5817 190.386 20.8141 190.677 21.0464C190.823 21.1626 190.677 21.3176 190.75 21.4338C190.896 21.6274 191.114 21.7824 191.041 21.976C190.968 22.2084 190.896 22.4021 191.187 22.557C191.26 22.5957 191.187 22.6732 191.187 22.7506C191.041 22.983 191.041 23.1767 191.187 23.4091C191.405 23.7189 191.405 24.0288 191.187 24.3386C191.041 24.571 191.041 24.7647 191.114 24.9583C191.26 25.2682 191.114 25.578 190.896 25.8879C190.677 26.1978 190.532 26.5076 190.386 26.8562C190.24 27.2822 189.876 27.6696 189.876 28.1343C189.876 28.1731 189.876 28.2118 189.804 28.2505C189.512 28.4055 189.585 28.5604 189.44 28.754C189.367 28.8315 189.367 28.9477 189.221 29.0252C188.857 29.1414 189.003 29.4125 188.639 29.5674C188.566 29.5674 188.493 29.6836 188.566 29.7223C188.566 29.8385 188.566 29.9547 188.421 29.9935C188.129 30.0709 187.984 30.2258 187.984 30.4195C187.984 30.5357 187.911 30.6132 187.693 30.6906C187.401 30.8068 187.256 31.0005 187.256 31.1941C187.183 31.2716 187.183 31.3491 187.037 31.4265C186.382 31.5815 186.237 31.93 185.873 32.2399C185.654 32.4335 185.29 32.5885 185.29 32.8596L184.417 33.3631L184.271 33.4793C183.398 33.9441 182.742 34.5251 181.869 34.9898C181.578 35.1448 181.214 35.2997 181.068 35.5321C180.923 35.6095 180.777 35.687 180.631 35.7257C180.486 35.7645 180.34 35.8032 180.195 35.8807C179.394 36.3067 178.739 36.7328 177.792 37.0813C177.72 37.0813 177.647 37.1201 177.647 37.1588C177.428 37.3912 177.064 37.5074 176.7 37.5849C176.482 37.6236 176.264 37.7398 176.118 37.8172C175.973 37.856 175.827 37.9334 175.609 38.0109C175.026 38.2046 174.589 38.4757 173.934 38.6693C173.279 38.863 172.988 39.3278 172.26 39.3278C172.114 39.3278 172.042 39.4052 171.969 39.444C171.75 39.5602 171.605 39.5989 171.386 39.6376C170.804 39.87 170.149 39.9862 169.639 40.2573C169.275 40.451 168.766 40.5285 168.329 40.6447C168.256 40.6447 168.183 40.6059 168.111 40.5672C168.111 40.5672 168.111 40.5285 168.183 40.5285C168.839 40.2573 169.494 39.9862 170.076 39.7151C170.95 39.3278 171.75 38.863 172.624 38.5144C173.352 38.2046 173.789 37.856 174.444 37.5074C174.517 37.4687 174.517 37.4299 174.662 37.4299C174.953 37.4299 174.953 37.2363 175.172 37.1975C175.317 37.1201 175.536 37.0813 175.681 37.0039C175.827 36.9264 176.045 36.8489 176.191 36.7328C176.482 36.5004 177.137 36.3842 177.21 36.0356C177.428 35.9969 177.647 35.9581 177.792 35.8419C178.084 35.6095 178.448 35.4546 178.739 35.261C179.321 34.8736 179.758 34.4863 180.486 34.1765C180.704 34.0215 180.85 33.8666 180.995 33.673C180.85 33.4793 181.068 33.4018 181.432 33.3244C181.723 33.2469 181.869 33.1694 182.015 33.0532L182.888 32.2786C183.179 32.0075 183.543 31.8138 183.762 31.504C183.98 31.2329 184.271 31.0005 184.635 30.7681C184.854 30.5357 185.072 30.3033 184.999 30.0709C185.436 29.7611 185.727 29.4125 185.945 29.0639C186.237 28.909 186.382 28.6766 186.382 28.4829C186.382 28.2118 186.819 28.0956 186.819 27.8632C186.819 27.7083 186.965 27.5534 187.037 27.4372C187.037 27.2822 187.256 27.166 187.183 27.0111C187.11 26.8562 187.401 26.7787 187.474 26.6238L187.693 26.0041C187.765 25.6942 187.911 25.4231 187.838 25.1133C187.765 24.8421 187.693 24.571 188.057 24.3774C188.129 24.3386 188.057 24.2612 188.057 24.1837C187.911 23.8739 188.057 23.5253 188.057 23.1767C188.057 23.0992 188.057 22.983 187.984 22.9056C187.838 22.7506 187.984 22.5957 187.838 22.4795C187.62 22.2859 187.911 22.1309 187.838 21.976C187.693 21.6662 187.62 21.3563 187.474 21.0464C187.256 20.6204 187.11 20.1944 186.965 19.7683C186.892 19.5746 186.819 19.3423 186.601 19.1873C186.164 18.8387 186.018 18.4127 185.654 18.0641C185.218 17.6768 184.999 17.2507 184.708 16.8247C184.49 16.6698 184.344 16.4761 184.126 16.2825C183.762 16.0888 183.398 15.8951 183.398 15.624C183.398 15.5853 183.325 15.5466 183.252 15.5078C182.742 15.2367 182.451 14.9656 182.015 14.7332C181.578 14.5008 181.214 14.3071 180.995 13.9973C180.995 13.9198 180.85 13.8424 180.704 13.8036C180.559 13.7649 180.413 13.6874 180.267 13.61C179.321 13.1065 178.739 12.448 177.574 12.0607C177.21 11.9445 176.773 11.8283 176.7 11.5572C176.628 11.4797 176.409 11.441 176.191 11.4023C175.973 11.3635 175.754 11.2861 175.681 11.1699C175.536 10.9375 175.245 10.86 175.026 10.7438C174.371 10.5114 173.789 10.3178 173.279 10.0467C173.206 10.0079 173.134 9.96921 173.061 9.96921C172.624 9.96921 172.406 9.81428 172.187 9.69808C171.823 9.58189 171.459 9.50443 171.241 9.31077C171.095 9.15584 170.877 9.11711 170.586 9.07838C170.222 8.84599 169.567 8.88472 169.275 8.57487L168.984 8.45867C167.965 8.07136 166.728 7.91643 165.708 7.49038C165.126 7.49038 164.762 7.18053 164.18 7.18053C163.961 7.18053 163.816 7.1418 163.67 7.06434C163.088 6.75448 162.433 6.71575 161.777 6.56082C161.486 6.48336 161.195 6.44463 160.904 6.48336C160.686 6.4059 160.467 6.2897 160.249 6.17351C160.103 6.13477 160.03 6.09604 159.885 6.09604C159.448 6.09604 159.084 5.94112 158.647 5.86365C158.574 5.82492 158.429 5.86365 158.356 5.90239C158.283 5.90239 158.283 6.05731 158.138 5.94112C157.774 5.63127 157.119 5.5538 156.536 5.47634C155.735 5.36014 154.935 5.24395 154.207 5.08902C153.26 4.89536 152.314 4.74044 151.368 4.58551C149.912 4.35312 148.31 4.19819 146.854 4.00453C146.709 3.9658 146.49 3.9658 146.345 3.9658C146.054 3.9658 145.762 3.88834 145.471 4.00453L144.525 3.73341C144.379 3.69468 144.234 3.69468 144.088 3.65595C142.414 3.57849 140.812 3.38483 139.211 3.26863C138.046 3.19117 136.881 3.03625 135.717 3.03625C135.498 3.03625 135.28 3.03625 135.134 2.99751C134.843 2.92005 134.552 2.92005 134.261 2.92005C133.97 2.92005 133.606 2.92005 133.242 2.88132C132.587 2.80386 132.004 2.80386 131.349 2.80386C131.276 2.80386 131.203 2.80386 131.131 2.76512C130.33 2.64893 129.456 2.64893 128.656 2.64893H127.928C126.617 2.494 125.307 2.57146 123.997 2.53273C122.832 2.494 121.74 2.57146 120.575 2.45527C120.211 2.41654 119.775 2.53273 119.411 2.494C119.119 2.45527 118.755 2.494 118.391 2.45527C118.027 2.41654 117.591 2.45527 117.227 2.494C116.936 2.53273 116.572 2.41654 116.28 2.57146C116.208 2.6102 116.135 2.6102 116.062 2.57146C115.407 2.494 114.752 2.53273 114.169 2.53273C113.951 2.53273 113.805 2.57146 113.66 2.68766C113.587 2.76512 113.441 2.68766 113.369 2.64893C113.223 2.57146 113.15 2.57146 113.005 2.64893C112.932 2.68766 112.859 2.72639 112.786 2.72639C112.277 2.53273 111.767 2.57146 111.258 2.64893C111.039 2.68766 110.821 2.68766 110.602 2.68766C109.51 2.68766 108.346 2.84259 107.254 2.84259C107.035 2.84259 106.817 2.88132 106.599 2.88132C106.235 2.88132 105.798 2.88132 105.434 2.95878C104.997 3.03625 104.56 2.88132 104.196 2.99751C103.832 3.11371 103.323 2.99751 102.959 3.2299C102.959 3.2299 102.813 3.19117 102.813 3.15244C102.74 3.15244 102.668 3.07498 102.595 3.07498C102.013 3.07498 101.43 3.15244 100.848 3.2299C100.557 3.26863 100.338 3.3461 99.9742 3.3461C99.6831 3.3461 99.3191 3.42356 98.9551 3.42356C98.3727 3.42356 97.7904 3.50103 97.208 3.57849C96.6257 3.65595 95.9705 3.61722 95.3881 3.84961L95.097 3.81088C94.8058 3.77215 94.5146 3.81088 94.2234 3.84961C93.7139 3.92707 93.2043 3.9658 92.6219 4.04327L89.2005 4.46932C87.963 4.62424 86.7255 4.74044 85.488 4.97283C85.2696 5.01156 85.0512 5.05029 84.9056 5.05029C84.0321 5.16648 83.1585 5.28268 82.2122 5.32141C81.557 5.36014 80.9019 5.59253 80.2467 5.67C79.1548 5.78619 78.2085 5.94112 77.1893 6.13477L76.8253 6.21224C76.0246 6.25097 75.2966 6.4059 74.5687 6.52209C72.8944 6.79321 71.2201 7.06434 69.473 7.37419C68.0899 7.60658 66.7068 7.83897 65.3237 8.11009C64.7413 8.22628 64.159 8.41994 63.5038 8.49741C62.7759 8.57487 62.1207 8.72979 61.4655 8.88472C60.592 9.07838 59.7185 9.27204 58.8449 9.42696C58.6265 9.46569 58.3354 9.54316 58.117 9.62062C57.9714 9.65935 57.8986 9.85301 57.5346 9.77555C57.3162 9.73681 57.025 9.81428 56.8066 9.85301C56.4427 9.93048 56.2971 10.0854 55.9331 10.0854C54.7684 10.0854 53.8948 10.5889 52.7301 10.7051C52.2205 10.8988 51.5654 11.015 50.9102 11.1699C50.4735 11.2861 50.0367 11.3248 49.6727 11.4797C49.4543 11.5572 49.2359 11.5959 49.0176 11.6347C48.5808 11.7121 48.2896 11.7896 48.144 12.022C48.144 12.0607 47.9984 12.0994 47.8528 12.0607C47.7072 12.022 47.4888 12.022 47.3433 12.0994C47.1249 12.2156 46.9065 12.2156 46.7609 12.3318C46.6153 12.4868 46.1057 12.4093 45.8874 12.5642C45.305 12.5642 44.7226 12.6417 44.2131 12.7966C43.7035 12.9515 43.1211 13.0677 42.6844 13.2227C41.8836 13.5325 40.9373 13.6874 40.1365 13.9586L39.9181 14.036C39.263 14.0748 38.8262 14.2684 38.3166 14.4233C38.0255 14.5008 37.8071 14.617 37.5887 14.617C37.2247 14.617 37.0791 14.8494 36.7879 14.8881C36.06 14.9656 35.4776 15.198 34.8953 15.3916C34.5313 15.5078 34.1673 15.7015 33.6577 15.7402C33.2938 15.7789 32.9298 15.8951 32.6386 16.0501C32.2746 16.2437 31.9835 16.2437 31.6195 16.4374C31.4011 16.5536 31.1827 16.5923 30.8915 16.631C30.4548 16.7085 30.0908 16.8247 29.7268 16.9409C28.9261 17.212 28.0525 17.3669 27.3246 17.7543C27.179 17.8317 27.0334 17.9092 26.8878 17.9479C26.1598 18.1416 25.5047 18.374 24.9223 18.6064C24.6311 18.7226 24.4855 18.8 24.1944 18.8387C23.976 18.9162 23.8304 19.0324 23.5392 19.1099C23.0296 19.2261 22.8112 19.4585 22.3745 19.6134C21.9377 19.7683 21.4281 19.807 20.9914 20.0007C20.9186 20.0007 20.9186 20.0394 20.8458 20.0782C19.9722 20.5429 19.0259 20.9303 18.0068 21.2788L17.7884 21.3563C17.4244 21.5112 17.0604 21.6662 16.6237 21.8211C16.0413 22.0147 15.6045 22.2471 15.0222 22.5183C14.5126 22.7506 14.003 22.983 13.4935 23.2542L12.0375 24.0288L10.5088 24.8421C10.4361 24.8809 10.4361 24.9583 10.2905 24.9971C9.48971 25.1907 9.05294 25.6555 8.47058 26.0428C7.66983 26.5463 6.86908 27.0498 6.14113 27.6308C5.41318 28.1731 4.68522 28.7153 4.10286 29.2963C4.03007 29.3738 3.88448 29.4512 3.81168 29.4899C3.37491 29.7223 3.08373 29.9935 2.93814 30.2646C2.79255 30.497 2.64696 30.7294 2.35577 30.923C2.13739 31.1941 2.06459 31.4653 1.919 31.6976C1.77341 31.8913 1.70062 32.085 1.55503 32.2012C1.26385 32.3948 1.04546 32.5497 1.04546 32.7821C1.04546 32.9758 0.681483 33.1694 0.754278 33.4018C0.827074 33.4793 0.754278 33.5955 0.681483 33.6342C0.244711 33.8666 0.317507 34.1377 0.317507 34.4089V34.7574C0.317507 34.9124 0.317507 35.0673 0.171916 35.2222C0.0991211 35.2997 0.0991211 35.4546 0.0991211 35.5708V35.8032C0.0991211 36.1518 0.0991211 36.5004 0.317507 36.8489C0.463097 37.1201 0.535893 37.3525 0.535893 37.5849C0.535893 38.1271 0.827074 38.6306 1.40944 39.0567C1.70062 39.289 1.919 39.5602 2.21018 39.8313C2.35577 40.0637 2.50137 40.2961 2.86534 40.4897C3.37491 40.7608 3.73889 41.032 4.10286 41.3031C4.46684 41.6129 4.90361 41.8453 5.41318 42.039C5.70436 42.1552 5.92274 42.2714 6.21392 42.4263C6.79629 42.7362 7.30585 43.0847 8.1066 43.2784C8.68896 43.4333 9.19853 43.627 9.6353 43.8981C9.92648 44.0918 10.2177 44.3629 10.6544 44.5178C11.164 44.7115 11.6008 44.9826 12.0375 45.2537C12.1831 45.4086 12.4015 45.5248 12.6927 45.6023C13.0567 45.7185 13.3479 45.8734 13.5662 46.0283C14.1486 46.4544 15.0222 46.6868 15.8229 46.9579C16.6964 47.2678 17.57 47.6163 18.3707 47.9262C18.6619 48.0424 18.8803 48.1973 19.3171 48.1973C19.4627 48.1586 19.6083 48.2361 19.6811 48.2748C20.1906 48.5459 20.6274 48.6621 21.2098 48.7783C21.7921 48.8945 22.1561 49.2043 22.8112 49.2818C23.1024 49.3593 23.3936 49.5529 23.6848 49.5917C24.6311 49.7079 25.3591 49.9402 26.087 50.2114C26.3054 50.2888 26.451 50.3276 26.6694 50.3276C27.0334 50.3276 27.3974 50.4438 27.7613 50.56C28.2709 50.7149 28.7805 50.7536 29.29 50.8698C29.7996 50.986 30.4548 51.0635 30.8915 51.2958C30.9643 51.3346 31.1827 51.3346 31.3283 51.3346C31.5467 51.3733 31.8379 51.3733 32.0562 51.412C32.6386 51.5282 33.3666 51.6057 33.9489 51.7606C34.6041 51.9543 35.2592 52.0317 35.9144 52.1479C35.9872 52.1479 36.06 52.1867 36.06 52.2254C36.2056 52.3029 36.2784 52.3029 36.4968 52.3029C36.7151 52.2254 36.9335 52.2641 37.1519 52.3416C37.4431 52.4578 37.9527 52.4965 38.3166 52.6127C38.8262 52.6902 39.3358 52.7677 39.8453 52.7289C39.9909 52.6902 40.0637 52.7677 40.2093 52.8064C40.5005 52.8838 40.8645 53 41.2285 53C42.0292 53 42.6844 53.1937 43.4123 53.2712C44.2859 53.3486 45.0866 53.5423 45.9602 53.5423C46.2513 53.5423 46.3969 53.6197 46.6153 53.6972C46.7609 53.7359 46.9065 53.7747 47.1249 53.7359C47.2705 53.7359 47.4161 53.6972 47.4888 53.7359C47.78 53.8909 48.3624 53.7747 48.7264 53.8521C49.0176 53.9296 49.3087 53.8134 49.6727 53.8521C49.9639 53.8909 50.2551 53.9683 50.5463 54.0071C50.8374 54.0458 51.2014 53.9683 51.4926 54.0845C52.075 54.3169 52.6573 54.2782 53.3125 54.2782C53.5309 54.2782 53.822 54.2782 53.9676 54.3169C54.3316 54.3944 54.6956 54.3944 55.0596 54.3944C55.3507 54.3944 55.7147 54.3944 56.0059 54.4331C57.3162 54.588 58.6993 54.6655 60.0824 54.6655H60.4464C60.5192 54.6655 60.6648 54.6655 60.7376 54.7042C61.0288 54.8592 61.32 54.8592 61.7567 54.8204C61.9751 54.743 62.2663 54.743 62.5575 54.7817C62.9215 54.8204 63.2126 54.8592 63.5766 54.8204C63.9406 54.7817 64.3046 54.8204 64.7413 54.8592C65.3237 54.9754 65.9789 55.0141 66.5612 55.0141H67.5076C68.5995 55.0141 69.7642 55.0915 70.9289 54.9754C71.1473 54.9754 71.2929 55.0141 71.5113 55.0141C71.5841 55.0528 71.7297 55.1303 71.8025 55.0915C72.312 54.9753 72.7488 55.1303 73.1856 55.1303C73.404 55.1303 73.6224 55.169 73.8407 55.0915C73.9863 55.0528 74.2047 55.0915 74.3503 55.0915C74.8599 55.0915 75.4422 55.1303 75.9518 55.169C76.4614 55.2077 77.0437 55.1303 77.5533 55.1303C78.1357 55.1303 78.718 55.1303 79.3004 55.169C79.9555 55.2077 80.5379 55.1303 81.1203 55.169C81.7754 55.2077 82.3578 55.2077 82.9401 55.0915C83.1585 55.0528 83.3041 55.0528 83.5225 55.0915C84.0321 55.169 84.6144 55.169 85.124 55.0915C85.4152 55.0915 85.7064 55.0528 85.9976 55.0528H87.3807C87.8902 55.0528 88.327 54.9366 88.7638 55.0141C88.9822 55.0528 89.2005 54.9754 89.4917 54.9366C89.7101 54.8979 90.0013 55.0141 90.2925 54.9366C90.8748 54.7817 91.4572 54.8592 92.1124 54.8592C92.4035 54.8592 92.6219 54.8979 92.9131 54.8592C93.4227 54.8592 94.005 54.7817 94.5146 54.743C95.3881 54.6655 96.1889 54.6268 96.9896 54.6268C98.0088 54.6268 99.1007 54.5493 100.12 54.3556C100.338 54.3169 100.557 54.2782 100.775 54.3169C101.139 54.3944 101.503 54.2395 101.794 54.2395C102.158 54.2395 102.595 54.2782 102.886 54.2007C104.051 54.0071 105.216 54.0071 106.38 53.8909C107.108 53.8134 107.836 53.7359 108.564 53.6197C108.782 53.581 109.001 53.5423 109.219 53.5423C110.02 53.5423 110.748 53.4648 111.403 53.3486C111.621 53.3099 111.913 53.2712 112.131 53.2712C112.713 53.1937 113.369 53.1937 113.951 53.1162C114.315 53.0775 114.679 53.0775 114.97 52.9613C115.334 52.8451 115.698 52.8451 116.062 52.8451C116.936 52.7677 117.736 52.6515 118.61 52.5353L121.303 52.1479C122.177 52.0705 122.978 51.9156 123.851 51.8381C124.433 51.7994 124.943 51.5282 125.598 51.6057C126.253 51.4508 126.836 51.3733 127.491 51.2571C128.073 51.1409 128.583 51.0635 129.165 50.986C129.748 50.9085 130.33 50.7923 130.985 50.6761C131.495 50.5987 132.004 50.5212 132.514 50.3663L132.951 50.2501C133.533 50.2501 134.042 50.0952 134.625 49.979L138.192 49.2818C139.357 49.0494 140.376 48.7008 141.613 48.5459C142.05 48.3522 142.559 48.3135 142.996 48.236C143.506 48.1586 143.943 47.9649 144.379 47.8875C144.962 47.7713 145.471 47.6551 145.981 47.5776C146.054 47.5389 146.272 47.5001 146.345 47.4227C146.49 47.2678 146.709 47.1903 147 47.1903C147.291 47.1903 147.582 47.1128 147.874 47.0354L149.257 46.6868C149.329 46.6481 149.475 46.6093 149.548 46.6093C149.766 46.5319 149.693 46.3382 150.057 46.4157C150.349 46.4931 150.421 46.2607 150.64 46.222C151.222 46.222 151.659 46.0283 152.168 45.9122C152.678 45.796 153.188 45.641 153.77 45.4861C154.061 45.4086 154.425 45.2924 154.789 45.215L155.735 44.9826C156.099 44.9439 156.391 44.7115 156.827 44.7502C157.264 44.7889 157.483 44.4791 157.919 44.5565C158.502 44.4016 159.157 44.3242 159.739 44.1692C160.249 44.0143 160.758 43.8206 161.341 43.7432C161.777 43.5108 162.433 43.4721 163.015 43.3171C163.306 43.2397 163.597 43.1622 163.816 43.0847C164.689 42.7749 165.563 42.5425 166.582 42.3488C166.8 42.3101 167.019 42.2714 167.092 42.1165C167.237 42.0003 167.383 41.9228 167.674 42.0003C167.747 42.0003 167.965 41.9228 168.111 41.8841C168.693 41.7291 169.203 41.4967 169.785 41.3418C170.076 41.2644 170.44 41.2256 170.44 41.032C170.44 40.9932 170.586 40.9158 170.731 40.9158C171.459 40.9158 171.969 40.6447 172.551 40.4123C173.279 40.1411 174.007 39.9087 174.735 39.5989L175.609 39.2503C176.264 38.9792 176.992 38.7855 177.356 38.3982C177.501 38.3208 177.647 38.282 177.865 38.2433C178.084 38.2433 178.229 38.2046 178.302 38.0884C178.375 37.9334 178.739 37.856 179.03 37.7785L179.467 37.5849C179.976 37.3525 180.413 37.1201 180.85 36.8877C181.359 36.6166 181.796 36.3842 182.306 36.1518C182.451 36.113 182.524 36.0356 182.597 35.9581C182.742 35.8032 183.106 35.687 183.252 35.5321C183.325 35.2997 183.762 35.2997 183.98 35.106C184.49 34.6413 185.363 34.2927 185.873 33.7892C186.237 33.4406 187.11 33.2469 187.11 32.8209C187.11 32.7821 187.256 32.7434 187.329 32.7047C187.474 32.6272 187.62 32.5497 187.62 32.511C187.474 32.2786 187.911 32.2399 188.057 32.085C188.202 31.93 188.202 31.7364 188.566 31.6202C188.493 31.3878 188.857 31.2716 189.003 31.0779C189.148 30.8843 189.44 30.7294 189.585 30.5357C189.731 30.342 189.804 30.1096 189.949 29.9547C190.095 29.7998 190.095 29.6061 190.313 29.4899C190.459 29.4125 190.532 29.335 190.532 29.2576C190.532 28.909 190.896 28.6378 191.114 28.328C191.26 28.1343 191.478 27.9019 191.478 27.7083C191.478 27.2822 191.842 26.8562 191.987 26.4301C192.133 25.9266 192.57 25.3844 192.351 24.8421C192.279 24.8034 192.351 24.7647 192.351 24.726ZM167.31 39.4827C166.946 39.6764 166.364 39.7926 166 39.9862C165.563 40.2186 165.126 40.3735 164.616 40.4897C164.544 40.5285 164.325 40.5672 164.252 40.6447C163.233 41.1869 161.996 41.5355 160.758 41.9228C160.394 42.039 159.958 42.1939 159.739 42.4263C159.594 42.5812 159.302 42.6587 158.938 42.6587C158.793 42.6587 158.502 42.6587 158.429 42.7362C157.919 42.9685 157.191 43.046 156.755 43.3171C156.172 43.3946 155.735 43.627 155.153 43.7819C154.571 43.9368 153.843 44.053 153.333 44.3242C153.188 44.4016 152.969 44.4403 152.824 44.4791L152.096 44.634C151.804 44.7115 151.513 44.8664 151.222 44.9051C150.349 45.0213 149.548 45.215 148.674 45.3312C147.437 45.4861 146.199 45.7572 144.962 45.9509C144.161 46.0671 143.36 46.222 142.632 46.3382C141.977 46.4544 141.322 46.4931 140.74 46.7255C140.521 46.803 140.303 46.7255 140.084 46.7642C138.92 46.9579 137.755 47.1516 136.59 47.3065C135.426 47.4614 134.261 47.5776 133.169 47.7325C132.587 47.81 131.931 47.8875 131.349 48.0037C131.131 48.0424 130.912 48.0811 130.694 48.0811C129.82 48.0811 129.02 48.1973 128.292 48.391C128 48.4684 127.709 48.3522 127.491 48.4297C126.617 48.6234 125.671 48.6621 124.725 48.7396C123.778 48.817 122.905 48.9332 121.958 49.0107L120.211 49.1269C119.702 49.1656 119.192 49.2043 118.683 49.2818C118.246 49.3593 117.736 49.2818 117.372 49.4367C117.372 49.4755 117.3 49.4755 117.227 49.4755C116.936 49.4755 116.572 49.398 116.208 49.4367L115.334 49.5529C114.242 49.5917 113.223 49.7466 112.204 49.7466C112.058 49.7466 111.913 49.7853 111.84 49.824C111.621 50.0952 111.258 49.9402 110.894 49.9015C110.384 49.8628 109.874 49.8628 109.365 49.9015C108.419 49.979 107.399 49.8628 106.526 50.0952C106.38 50.1339 106.235 50.0952 106.089 50.0952C105.143 50.0952 104.196 50.1339 103.25 50.2501C102.886 50.2888 102.522 50.2888 102.085 50.2888C101.867 50.2501 101.649 50.2888 101.43 50.3276C101.212 50.3276 101.066 50.3663 100.848 50.3663C100.338 50.2888 99.8287 50.2501 99.3191 50.3276C98.8823 50.405 98.2999 50.3276 97.7904 50.4438C97.6448 50.4438 97.4992 50.4825 97.3536 50.4438C97.1352 50.3663 96.9168 50.3663 96.6985 50.4438C96.4801 50.4825 96.1889 50.4825 95.9705 50.4438C95.8249 50.405 95.6065 50.405 95.3881 50.4438C94.9514 50.5212 94.5146 50.4438 94.1506 50.5212C93.7139 50.5599 93.2771 50.5212 92.8403 50.5212H91.2388C90.7292 50.5212 90.2197 50.4438 89.7101 50.56C89.2733 50.4825 88.7638 50.5212 88.327 50.56C87.963 50.5987 87.5263 50.5212 87.1623 50.5987C86.8711 50.6761 86.5071 50.5212 86.1431 50.5987C85.9248 50.6374 85.5608 50.56 85.3424 50.56C85.2696 50.56 85.1968 50.5212 85.124 50.5212C84.76 50.5212 84.3961 50.6761 84.0321 50.5987C83.7409 50.5212 83.4497 50.4825 83.1585 50.5212C82.4306 50.5987 81.8482 50.4438 81.1931 50.5987C81.1203 50.6374 81.0475 50.5987 80.9747 50.5987C79.9555 50.405 78.9364 50.5212 77.9173 50.4825C77.1165 50.4437 76.3158 50.5599 75.515 50.4825C74.3503 50.3663 73.1856 50.3663 72.0209 50.3663C71.5113 50.3663 71.0017 50.4437 70.4922 50.3663C70.201 50.3276 69.9098 50.4438 69.6914 50.4438C69.4002 50.4438 69.2546 50.3276 69.0363 50.2888C68.5995 50.2114 68.2355 50.2114 67.8715 50.2501C67.362 50.2888 66.998 50.2501 66.5612 50.2501C66.1244 50.2501 65.6877 50.0952 65.1781 50.2114C65.0325 50.2501 64.8869 50.2114 64.7413 50.2114C64.0134 50.2114 63.3582 50.0952 62.6303 50.1726C62.2663 50.2114 61.9023 50.2501 61.6111 50.0952C61.3928 49.979 61.0288 49.979 60.8104 50.0177C60.3008 50.0952 59.7913 50.0177 59.3545 49.979C58.8449 49.9402 58.3354 49.8628 57.8258 49.8628C57.025 49.8628 56.2243 49.9015 55.4235 49.7466C54.55 49.824 53.6037 49.5529 52.6573 49.6691C52.5845 49.7079 52.4389 49.6691 52.2933 49.6304C51.7838 49.5142 51.2014 49.4755 50.619 49.5142C49.8911 49.5529 49.1631 49.4367 48.508 49.3593C47.9256 49.2818 47.3433 49.2818 46.7609 49.2431C46.2513 49.2043 45.8146 49.2431 45.3778 49.1269C45.2322 49.0881 45.0138 49.0881 44.8682 49.1269C44.2859 49.2818 43.7763 49.1269 43.3395 49.0107C42.9755 48.8945 42.6844 48.8558 42.3204 48.8945C41.738 48.972 41.1557 48.7396 40.5733 48.8558C40.5005 48.8558 40.3549 48.8558 40.3549 48.817C39.9909 48.5072 39.3358 48.6234 38.8262 48.5459C38.6078 48.4684 38.3166 48.4684 38.0255 48.5459C37.9527 48.5846 37.8071 48.5459 37.7343 48.5072C37.5159 48.391 37.2975 48.3522 37.0063 48.3522C36.3512 48.3522 35.8416 48.2748 35.2592 48.1973C34.9681 48.1586 34.7497 48.0811 34.4585 48.1586C34.1673 48.2361 33.9489 48.0811 33.6577 48.0037C33.2938 47.9262 32.9298 47.81 32.4202 47.9262C32.2018 47.8487 31.9107 47.9649 31.7651 47.7713C31.6923 47.7713 31.6195 47.7325 31.5467 47.7325C31.1099 47.6551 30.6731 47.6163 30.1636 47.5776C29.7996 47.5389 29.4356 47.384 28.9988 47.384C28.5621 47.384 28.0525 47.3452 27.6157 47.1903C27.3974 47.0741 27.1062 47.1128 26.815 47.0741C26.451 47.0354 26.087 47.0741 25.7959 46.8804C25.7959 46.8804 25.7231 46.8417 25.6503 46.8417C24.9951 46.8417 24.4127 46.6868 23.8304 46.5319C23.5392 46.4544 23.248 46.4544 23.0296 46.4157C22.5929 46.3382 22.1561 46.2995 21.7193 46.2607C21.5009 46.0283 20.9186 46.1445 20.6274 45.9509C20.6274 45.9122 20.5546 45.9122 20.4818 45.8734C19.7538 45.8347 19.2443 45.6798 18.6619 45.4861C18.4435 45.4086 18.1524 45.3699 17.8612 45.2924L16.4053 45.0601C16.2597 45.0213 16.1141 44.9826 16.0413 44.9051C15.8229 44.7889 15.5317 44.7502 15.2405 44.7115C14.6582 44.634 14.003 44.4791 13.4935 44.2854C12.9839 44.0918 12.4015 43.9368 11.892 43.7819C11.6008 43.7044 11.3096 43.5883 11.164 43.4333C11.0912 43.3559 10.9456 43.3559 10.8 43.3946L10.5088 43.3559C10.2177 43.2397 10.0721 43.0847 9.99928 42.9298C9.92648 42.8136 9.92648 42.6974 9.7081 42.5812C8.90735 42.1552 8.61617 41.5742 8.25219 41.032C8.1066 40.7996 8.1066 40.5672 7.81542 40.3735C7.74263 40.3735 7.81542 40.2573 7.81542 40.2186C7.81542 39.9475 7.88822 39.6764 7.74263 39.4052C7.59704 39.1341 7.66983 38.863 7.66983 38.6306V37.275C7.66983 37.0813 7.74263 36.8877 7.81542 36.694C7.88822 36.5004 8.1066 36.3454 7.96101 36.1518C8.47058 35.687 8.39778 35.1835 8.90735 34.7187C9.12574 34.5251 9.19853 34.2927 9.34412 34.0603C9.48971 33.8279 9.56251 33.5955 9.92648 33.4018L10.1449 33.1694C10.2177 32.8596 10.5088 32.6272 10.8 32.3561C11.0912 32.1237 11.164 31.8138 11.6008 31.6202C11.528 31.3491 12.0375 31.2716 12.1831 31.0392C12.3287 30.8068 12.4743 30.6132 12.7655 30.4195C13.1295 30.1484 13.4935 29.8385 13.9302 29.5674C14.2214 29.3737 14.5126 29.1414 14.8038 28.909C15.2405 28.5604 15.7501 28.2505 16.2597 27.9019C16.7692 27.5146 17.3516 27.2048 18.0068 26.8175C18.5891 26.4689 19.0987 26.0428 19.7538 25.6942C19.8266 25.6555 19.8994 25.578 19.9722 25.578C20.8458 25.3069 21.2825 24.8421 21.9377 24.4936L23.3208 23.7964C23.6848 23.6415 23.976 23.4865 24.34 23.2929C24.4127 23.2542 24.4855 23.1767 24.4127 23.138C24.2672 23.0605 24.4127 23.0218 24.5583 22.983C24.7767 22.983 24.9223 22.9056 24.9951 22.8281C25.1407 22.7119 25.2863 22.5957 25.5775 22.6732C25.9414 22.5183 26.3782 22.4021 26.6694 22.2471C27.6885 21.7049 28.9261 21.2401 30.0908 20.7753C30.6003 20.5817 31.1099 20.3493 31.6195 20.1169C31.9835 19.962 32.3474 19.807 32.7114 19.6908C32.9298 19.6521 33.0754 19.5746 33.221 19.4585C33.6577 19.2648 34.2401 19.1486 34.5313 18.8775C34.9681 18.8775 35.2592 18.7613 35.5504 18.6064C35.8416 18.4514 36.2056 18.4127 36.5696 18.2965C37.3703 18.0641 38.1711 17.793 38.899 17.5606C39.4814 17.3669 39.9909 17.1733 40.5733 17.0184C40.7189 16.9796 40.8645 16.9022 40.8645 16.8247C40.9373 16.7085 41.0101 16.7472 41.2285 16.7472C41.5924 16.7472 41.8108 16.5923 42.102 16.5149C42.2476 16.4761 42.1748 16.4374 42.1748 16.3599C42.102 16.2825 42.102 16.205 42.102 16.1275C42.102 16.0888 42.1748 16.0888 42.2476 16.0501C42.3204 16.0501 42.466 16.0501 42.466 16.0888C42.7572 16.2825 43.0483 16.2825 43.4123 16.1663C44.2131 15.9339 45.0138 15.7789 45.669 15.4691C46.0329 15.3142 46.4697 15.2367 46.9065 15.1205C47.3433 15.0043 47.78 14.9656 48.144 14.7719C48.2168 14.6945 48.3624 14.6557 48.508 14.6557C49.1631 14.6557 49.7455 14.4621 50.2551 14.3071C50.9102 14.1135 51.6382 13.9973 52.2933 13.8036L52.9485 13.61C53.0941 13.4938 53.3125 13.4163 53.6037 13.4551C53.6765 13.4938 53.7492 13.4938 53.7492 13.4551C54.3316 13.2227 55.1324 13.2227 55.7875 13.029C56.4427 12.8353 57.1706 12.6804 57.8258 12.5255L60.0824 12.0607C60.8832 11.9058 61.6839 11.7121 62.5575 11.4797C62.7031 11.441 62.7759 11.4023 62.9215 11.4023C63.2854 11.4023 63.5038 11.2473 63.6494 11.0924C63.7222 11.0537 63.795 11.0537 63.8678 11.0924C63.9406 11.2086 64.159 11.1312 64.3046 11.1312C64.6685 11.1312 64.8869 10.9762 65.1781 10.8988C65.5421 10.9762 65.7605 10.86 66.0516 10.8213C66.3428 10.7826 66.634 10.6664 66.9252 10.6276C67.2164 10.5889 67.4348 10.5502 67.7259 10.4727C67.8715 10.434 68.0899 10.434 68.2355 10.3953C68.9635 10.2016 69.5458 10.0854 70.2738 10.0079C71.3657 9.89174 72.312 9.62062 73.404 9.46569C74.4231 9.31077 75.4422 9.15584 76.4614 8.92345C76.8253 8.84599 77.2621 8.80726 77.6989 8.72979C77.9901 8.69106 78.2085 8.57487 78.4996 8.53614L79.446 8.41994C79.7372 8.38121 80.0283 8.30374 80.3195 8.30374C80.6835 8.30374 80.6835 8.07136 81.0475 8.14882C81.2659 8.18755 81.4842 8.11009 81.7026 8.07136L82.5034 7.95516C82.7218 7.91643 82.7946 7.80024 82.9401 7.7615C83.0857 7.72277 83.2313 7.80024 83.3769 7.80024C83.5225 7.80024 83.6681 7.80024 83.7409 7.7615C84.1049 7.56784 84.5416 7.56784 84.9784 7.56784C85.2696 7.56784 85.5608 7.52911 85.852 7.45165C86.5799 7.33546 87.2351 7.18053 87.963 7.18053C88.0358 7.18053 88.1814 7.18053 88.2542 7.1418C88.8366 6.83194 89.6373 6.90941 90.2925 6.83194C91.8212 6.63829 93.3499 6.48336 94.8786 6.25097C95.9705 6.09604 96.9896 5.90239 98.0816 5.90239H98.2999C98.7367 5.78619 99.1007 5.78619 99.5375 5.74746C99.9015 5.70873 100.338 5.67 100.702 5.67C100.921 5.67 101.066 5.59253 101.212 5.51507C101.285 5.47634 101.43 5.4376 101.503 5.4376H101.867C102.376 5.4376 102.959 5.51507 103.396 5.24395C103.76 5.36014 103.978 5.16648 104.269 5.12775C104.488 5.08902 104.779 5.20522 104.997 5.08902C105.798 5.24395 106.453 5.01156 107.181 5.01156C107.472 5.01156 107.763 4.9341 107.982 4.89536C108.127 4.89536 108.2 4.85663 108.273 4.77917C108.491 4.54678 108.491 4.58551 108.782 4.62424C109.001 4.66297 109.146 4.74044 109.365 4.74044C109.583 4.77917 109.874 4.77917 110.166 4.77917C110.457 4.77917 110.602 4.50805 111.039 4.58551C111.258 4.62424 111.549 4.66297 111.84 4.66297C111.913 4.66297 112.058 4.62424 112.204 4.62424C112.131 4.54678 112.131 4.50805 112.131 4.43058C112.058 4.35312 112.204 4.27566 112.349 4.23693C112.495 4.23693 112.495 4.31439 112.495 4.35312C112.568 4.43058 112.641 4.46932 112.713 4.50805C112.713 4.50805 112.786 4.54678 112.786 4.50805C112.932 4.50805 113.077 4.50805 113.15 4.46932C113.296 4.23693 113.878 4.54678 113.951 4.23693C114.606 4.46932 115.261 4.39185 115.989 4.35312C115.916 4.31439 115.916 4.31439 115.844 4.31439C115.844 4.27566 115.771 4.23693 115.698 4.23693C115.771 4.19819 115.771 4.19819 115.844 4.19819C116.062 4.19819 116.353 4.27566 116.644 4.27566C116.717 4.27566 116.863 4.23693 116.936 4.19819C117.008 4.15946 117.008 4.12073 117.081 4.04327H117.008V4.00453C116.717 3.9658 116.572 3.88834 116.353 3.81088C116.28 3.81088 116.208 3.69468 116.062 3.73341C115.698 3.84961 115.261 3.77215 114.824 4.00453C114.679 4.082 114.388 4.04327 114.169 4.082C113.587 3.92707 113.077 3.88834 112.422 4.00453C112.204 4.04327 111.913 4.04327 111.621 4.04327C110.894 4.04327 110.166 4.19819 109.438 4.19819C109.365 4.19819 109.365 4.19819 109.292 4.23693C109.146 4.39185 109.001 4.35312 108.855 4.23693C108.055 4.39185 107.254 4.23693 106.526 4.43058C106.38 4.46932 106.162 4.43058 106.016 4.43058C105.871 4.43058 105.652 4.43058 105.434 4.46932C104.779 4.58551 104.051 4.58551 103.396 4.66297C102.376 4.77917 101.357 4.9341 100.411 4.9341C100.193 4.9341 100.047 4.9341 99.9015 4.97283C99.5375 5.01156 99.1735 5.12775 98.8095 5.16648C98.3727 5.20522 98.0088 5.20522 97.6448 5.24395C96.4801 5.36014 95.3881 5.5538 94.2234 5.5538C93.7139 5.59253 93.3499 5.63127 92.9131 5.70873L91.894 5.90239C91.6756 6.13477 91.3116 5.90239 90.9476 5.97985C90.3653 6.09604 89.7101 6.17351 89.055 6.25097C88.3998 6.32843 87.8174 6.44463 87.1623 6.44463C86.8711 6.48336 86.6527 6.67702 86.2159 6.63829C85.9248 6.59955 85.5608 6.67702 85.1968 6.71575L84.2505 6.83194L83.2313 6.94814C81.7754 7.21926 80.1739 7.29672 78.718 7.64531C78.0629 7.80024 77.2621 7.91643 76.607 7.99389L75.8062 8.11009C73.1856 8.49741 70.7105 9.00091 68.1627 9.50443C66.7796 9.77555 65.3965 10.0079 63.9406 10.2791C63.5038 10.3565 63.067 10.4727 62.5575 10.5889C62.0479 10.7051 61.6111 10.8213 61.1744 10.8988L60.5192 11.015L57.6074 11.5959C57.5346 11.6347 57.389 11.6347 57.3162 11.7121C57.1706 11.8283 57.025 11.9058 56.7339 11.8283C56.5883 11.7896 56.4427 11.8671 56.2971 11.8671C55.8603 11.8671 55.6419 12.0994 55.3507 12.2156C54.914 12.1382 54.6228 12.2544 54.3316 12.3318C53.9676 12.4093 53.6037 12.5255 53.2397 12.603C53.1669 12.6417 53.0213 12.6804 52.8757 12.7579C52.7301 12.7966 52.5845 12.9128 52.4389 12.9515C52.2933 12.9515 52.1478 12.9128 52.0022 12.9128C51.6382 12.9128 51.4198 13.029 51.1286 13.1452C50.8374 13.2614 50.4735 13.3776 50.0367 13.3776C49.8911 13.3776 49.6727 13.4551 49.5271 13.4938C48.6536 13.7262 47.78 13.8811 46.9793 14.191C46.4697 14.3846 45.8874 14.5008 45.305 14.617C44.6498 14.7332 44.1403 14.9269 43.4851 15.0818C43.0483 15.198 42.6844 15.3916 42.1748 15.4691C42.0292 15.4691 41.9564 15.5466 41.8108 15.5853C41.374 15.7015 41.0829 15.9726 40.5733 15.9339C40.0637 16.0888 39.5542 16.205 39.0446 16.3987C38.3894 16.6698 37.6615 16.8634 37.0063 17.0571C36.4968 17.212 36.06 17.4444 35.4776 17.5993C34.9681 17.7155 34.4585 17.9092 33.9489 18.0641C33.1482 18.2965 32.6386 18.6451 31.9107 18.9162C31.6195 19.0324 31.1827 19.0324 30.9643 19.2261C30.6731 19.381 30.3092 19.4585 30.018 19.6134C28.7077 20.1169 27.3974 20.5817 26.2326 21.2014C25.3591 21.4725 24.7767 21.8985 23.976 22.2084C23.248 22.4795 22.7385 22.8281 22.0105 23.2154L21.7921 23.3316C19.5355 24.5323 18.8803 24.6872 17.206 25.8879C16.9876 26.0428 16.6237 26.1978 16.3325 26.3914C16.0413 26.6238 15.5317 26.7787 15.3133 27.0499C15.2405 27.1273 15.1677 27.2435 15.0949 27.2822C14.2942 27.7083 13.7846 28.1343 13.2023 28.5604C12.8383 28.8315 12.4015 29.1026 12.0375 29.4125C11.6736 29.6836 11.3824 30.0322 10.9456 30.3033C10.8728 30.3808 10.8 30.4582 10.7272 30.497C10.3633 30.6906 10.2177 30.8843 10.0721 31.1167C9.99928 31.2329 9.99928 31.3491 9.85369 31.4653C9.05294 31.8526 8.76176 32.3561 8.39778 32.8596C8.25219 32.9758 8.25219 33.1307 8.1066 33.2082C7.74263 33.4018 7.74263 33.6342 7.59704 33.8279C7.45144 34.0603 7.30585 34.2539 7.23306 34.4863L7.01467 34.9124C6.94188 35.0286 6.86908 35.1448 6.72349 35.261C6.6507 35.4159 6.94188 35.5708 6.6507 35.7257C6.43231 35.8419 6.5779 35.9969 6.43231 36.1131C6.28672 36.268 6.28672 36.4616 6.21392 36.6166C6.06833 37.0039 6.06833 37.3525 5.84995 37.701C6.06833 37.9334 5.84995 38.1658 5.84995 38.3982C5.70436 38.7855 5.63156 39.2503 5.99554 39.6376C6.14113 39.7926 6.21392 39.9475 6.21392 40.1024C6.21392 40.2573 6.50511 40.3735 6.35952 40.5285C6.21392 40.7221 6.6507 40.7608 6.72349 40.9158L6.94188 41.458C7.01467 41.5355 7.08747 41.6517 6.86908 41.6517C6.79629 41.6517 6.5779 41.6517 6.43231 41.6129C6.35952 41.6129 6.28672 41.5742 6.28672 41.5355C5.55877 41.0707 4.75802 40.6447 4.17566 40.1411C3.59329 39.6376 2.86534 39.1341 2.57416 38.5144C2.06459 38.0496 2.06459 37.4687 1.70062 36.9651V36.7715C1.70062 36.5391 1.77341 36.268 1.70062 36.0356C1.62782 35.7645 1.919 35.5321 1.70062 35.2997C1.9918 34.9898 1.919 34.7187 1.9918 34.4089C2.06459 34.1377 2.28298 33.9053 2.42857 33.6342L2.64696 33.2856C2.71975 33.0145 3.08373 32.7821 3.01093 32.511C3.30211 32.3174 3.4477 32.0462 3.59329 31.8138C3.73889 31.6202 4.03007 31.4653 4.24845 31.2329C4.75802 30.6519 5.34038 30.0322 6.06833 29.4899C6.35952 29.1026 7.01467 28.8702 7.23306 28.4829C7.66983 28.2118 8.03381 27.9019 8.47058 27.6308C8.68896 27.4759 8.98014 27.321 9.19853 27.1273C9.56251 26.8175 10.1449 26.5851 10.5816 26.2752C11.2368 25.8104 11.9648 25.4231 12.6927 25.0358C12.7655 24.9971 12.8383 24.9196 12.9839 24.9196C13.4935 24.726 13.7846 24.4936 14.2214 24.2612C14.4398 24.145 14.731 24.0675 14.8038 23.9513C14.9494 23.8351 15.0222 23.7577 15.3133 23.6802C15.7501 23.564 16.1869 23.4091 16.4781 23.1767C16.9148 22.9443 17.4972 22.7894 17.934 22.557C18.8075 22.0922 19.6811 21.7824 20.7002 21.4338C20.9186 21.3563 21.137 21.2788 21.4281 21.1239C21.6465 21.0077 21.9377 20.8915 22.2289 20.7753C22.884 20.5042 23.612 20.2331 24.34 19.962L24.9951 19.7296C25.5775 19.5359 26.1598 19.381 26.6694 19.1099C26.7422 19.0711 26.815 19.0324 26.9606 18.9937C27.9797 18.7226 28.9261 18.2965 29.9452 18.0254C31.1099 17.7155 32.2018 17.2507 33.3666 16.9409C33.6577 16.8634 33.8761 16.8247 34.0945 16.7085C34.2401 16.631 34.4585 16.5536 34.6769 16.4761C35.4776 16.3212 36.1328 15.9726 37.0063 15.8951C37.3703 15.8564 37.5159 15.5853 37.9527 15.5466C38.3166 15.5078 38.535 15.3916 38.8262 15.2367C39.0446 15.1205 39.263 15.0818 39.5542 15.043C40.8645 14.8494 42.102 14.5008 43.2667 14.1135C43.6307 13.9973 44.0675 13.9586 44.2859 13.7262C44.2859 13.6874 44.4314 13.7262 44.5042 13.7262C44.577 13.7262 44.7954 13.7262 44.7954 13.6874C45.305 13.4163 45.9602 13.3389 46.6153 13.2227C47.3433 13.1065 47.9256 12.9128 48.5808 12.5642C48.6536 12.5255 48.7992 12.5255 48.872 12.5255C49.0176 12.4868 49.2359 12.5642 49.3087 12.5255C49.8183 12.2544 50.5463 12.4093 51.0558 12.1382C51.2014 12.0607 51.347 12.022 51.4926 11.9832C51.711 11.9445 52.0022 11.9058 52.1478 11.8283C52.3661 11.7121 52.4389 11.6347 52.5845 11.7896C52.6573 11.7509 52.7301 11.7121 52.7301 11.6734C52.8757 11.6347 53.0213 11.5572 53.0941 11.5572C53.6765 11.5572 54.186 11.4023 54.6956 11.2861C55.8603 11.015 57.025 10.7826 58.1898 10.5502C58.7721 10.434 59.3545 10.3178 59.864 10.1629C60.0096 10.1241 60.228 10.1241 60.3736 10.0854C60.7376 10.0079 61.1744 9.96921 61.5383 9.89174C62.4119 9.69808 63.3582 9.50443 64.2318 9.3495C64.8869 9.23331 65.5421 9.07838 66.1972 8.96218C66.9252 8.84599 67.5804 8.69106 68.3083 8.57487C68.9635 8.45867 69.6186 8.30374 70.2738 8.14882C70.3466 8.14882 70.4194 8.11009 70.4922 8.11009C71.8025 8.11009 73.04 7.68404 74.3503 7.45165C75.2966 7.29672 76.243 7.1418 77.2621 7.0256L78.4268 6.67702C78.5724 6.56082 78.718 6.56082 78.718 6.75448C78.718 6.75448 78.8636 6.79321 78.8636 6.75448C79.5916 6.63829 80.3923 6.56082 81.1203 6.4059C81.7026 6.2897 82.3578 6.17351 82.9401 6.17351C83.2313 6.17351 83.3041 5.94112 83.6681 6.01858C83.8865 6.05731 84.0321 5.97985 84.2505 5.86365C84.3233 5.82492 84.4689 5.82492 84.6144 5.82492C85.5608 5.82492 86.2887 5.74746 87.0895 5.51507C87.2351 5.47634 87.4535 5.47634 87.5991 5.47634C88.3998 5.47634 89.1278 5.32141 89.9285 5.24395C90.0741 5.01156 90.5837 5.24395 90.7292 5.01156H90.9476C91.53 5.08902 92.1124 5.01156 92.6947 4.9341C93.6411 4.8179 94.5146 4.7017 95.4609 4.66297C95.6793 4.62424 95.8977 4.66297 96.0433 4.62424C96.6257 4.46932 97.1352 4.50805 97.6448 4.43058C98.2999 4.31439 98.9551 4.35312 99.6103 4.27566C99.9742 4.23693 100.338 4.27566 100.629 4.12073C100.702 4.12073 100.775 4.082 100.848 4.12073C101.212 4.19819 101.576 4.082 102.013 4.04327C102.595 4.00453 103.25 4.00453 103.832 3.88834C104.488 3.77215 105.07 3.84961 105.725 3.81088C106.38 3.77215 107.108 3.77215 107.763 3.61722C107.836 3.57849 107.909 3.57849 107.982 3.61722C108.855 3.69468 109.729 3.61722 110.53 3.53976C110.894 3.50103 111.258 3.53976 111.621 3.50103C112.058 3.46229 112.568 3.50103 113.005 3.46229C113.296 3.38483 113.66 3.42356 113.951 3.42356C114.461 3.42356 114.97 3.42356 115.48 3.38483C115.989 3.3461 116.499 3.30737 117.008 3.38483C117.227 3.42356 117.445 3.3461 117.736 3.3461C117.809 3.30737 117.955 3.26863 118.027 3.30737C118.683 3.46229 119.411 3.30737 120.066 3.30737C120.648 3.30737 121.23 3.38483 121.886 3.46229C121.813 3.57849 121.667 3.53976 121.522 3.53976C121.23 3.53976 120.866 3.57849 120.503 3.53976C120.066 3.50103 119.629 3.61722 119.192 3.69468C118.828 3.77215 118.464 3.81088 118.1 3.69468C118.027 3.69468 117.809 3.69468 117.736 3.73341C117.518 3.84961 117.3 3.73341 117.081 3.69468C116.936 3.69468 116.863 3.73341 116.936 3.81088C116.936 3.88834 117.008 3.9658 117.008 4.00453C117.008 4.04327 117.081 4.04327 117.081 4.04327L117.227 4.12073C117.3 4.19819 117.372 4.27566 117.591 4.23693C118.246 4.12073 118.974 4.12073 119.629 4.15946C120.066 4.19819 120.503 4.12073 120.866 3.9658C121.158 3.84961 121.667 3.88834 122.031 3.92707C122.468 3.9658 122.905 3.9658 123.269 3.88834C123.851 3.77215 124.361 3.84961 124.87 3.84961C124.943 3.84961 125.016 3.84961 125.089 3.81088C125.161 3.81088 125.161 3.81088 125.161 3.77215C125.234 3.73341 125.234 3.69468 125.161 3.69468C125.016 3.65595 124.87 3.65595 124.797 3.61722C124.725 3.61722 124.725 3.57849 124.797 3.53976C124.797 3.50103 124.797 3.50103 124.87 3.50103C125.234 3.50103 125.744 3.50103 126.035 3.65595C126.326 3.73341 126.399 3.77215 126.617 3.61722C126.763 3.50103 127.127 3.46229 127.345 3.57849C127.418 3.61722 127.345 3.69468 127.345 3.73341H127.709C127.928 3.57849 128.219 3.57849 128.51 3.61722C128.728 3.65595 129.02 3.65595 129.238 3.65595C130.111 3.65595 130.985 3.77215 131.859 3.69468C132.368 3.65595 133.023 3.81088 133.606 3.81088C133.824 3.81088 134.115 3.84961 134.406 3.84961C135.571 3.84961 136.809 3.9658 138.046 4.04327C139.138 4.12073 140.303 4.19819 141.395 4.35312C141.977 4.39185 142.559 4.35312 143.142 4.50805C143.651 4.39185 144.161 4.54678 144.671 4.62424C145.398 4.74044 146.126 4.77917 146.854 4.89536C147.437 4.97283 148.019 5.08902 148.601 5.05029C149.111 5.01156 149.621 5.16648 150.057 5.28268C150.349 5.36014 150.64 5.4376 150.931 5.47634C151.659 5.59253 152.46 5.59253 153.188 5.78619C153.333 5.82492 153.479 5.86365 153.624 5.86365L154.061 5.97985C154.498 6.09604 154.935 6.05731 155.444 6.17351C155.808 6.21224 156.172 6.4059 156.609 6.44463C156.9 6.48336 157.191 6.56082 157.483 6.59955C157.919 6.63829 158.356 6.87068 158.866 6.75448C159.23 6.83194 159.594 6.94814 160.03 7.0256C160.394 7.10307 160.686 7.18053 161.122 7.25799C161.559 7.33546 161.777 7.49038 162.141 7.64531C162.505 7.80024 162.942 7.68404 163.379 7.83897C163.743 8.03262 164.398 8.14882 164.908 8.30374C164.98 8.30374 165.126 8.30374 165.199 8.26501C165.417 8.22628 165.563 8.22628 165.636 8.30374C165.927 8.57487 166.291 8.72979 166.873 8.84599C167.092 8.88472 167.31 9.00091 167.455 9.03965C167.892 9.15584 168.329 9.3495 168.911 9.3495C169.203 9.3495 169.494 9.42696 169.639 9.54316C169.931 9.77555 170.44 9.89174 170.877 10.0467C171.314 10.2016 171.605 10.434 172.114 10.5889C172.478 10.7051 172.842 10.8213 173.134 10.9762C173.497 11.0924 174.08 11.1312 174.08 11.441C174.371 11.5185 174.589 11.6734 174.881 11.7121C175.317 11.7509 175.536 11.8671 175.754 12.022C176.118 12.2931 176.7 12.448 176.992 12.7579C177.064 12.8353 177.137 12.9128 177.283 12.9515C178.084 13.1452 178.52 13.5325 179.103 13.8424C179.612 14.1135 179.976 14.4233 180.413 14.6945C180.631 14.8494 180.777 15.0818 181.068 15.1592C181.214 15.198 181.287 15.2754 181.359 15.3529C181.505 15.5078 181.869 15.7015 182.087 15.8951C182.306 16.0888 182.524 16.2825 182.815 16.4761C183.034 16.631 183.325 16.786 183.325 17.0184C183.689 17.1733 183.689 17.4831 183.98 17.6768C184.271 17.8705 184.344 18.1416 184.562 18.3352C185.072 18.8 185.218 19.3423 185.654 19.807C185.727 19.8458 185.8 19.9232 185.8 19.962C185.8 20.4655 186.382 20.8528 186.382 21.3176C186.382 21.395 186.528 21.4725 186.528 21.55C186.528 21.8598 186.528 22.1309 186.746 22.4021C186.746 22.4795 186.819 22.557 186.746 22.5957C186.382 22.7894 186.746 22.983 186.746 23.1767C186.673 23.3316 186.892 23.5253 186.746 23.6802C186.601 23.8351 186.746 23.9901 186.746 24.145C186.746 24.2224 186.673 24.2999 186.673 24.4161L186.237 25.2295C186.164 25.3069 186.091 25.3844 186.164 25.4619C186.309 25.6168 186.237 25.6942 186.091 25.8492C185.945 26.0041 185.873 26.159 185.8 26.3527C185.727 26.5463 185.8 26.7787 185.436 26.9337C185.363 27.0111 185.363 27.1273 185.29 27.2435C185.145 27.4759 184.999 27.747 184.999 28.0181C184.635 28.2118 184.635 28.4829 184.417 28.7153C184.198 28.9864 184.126 29.2576 183.616 29.4512C183.325 29.9935 182.451 30.4195 182.233 31.0392C182.087 31.2329 181.942 31.4653 181.578 31.6202C181.359 31.6589 181.359 31.7751 181.287 31.8913C181.287 31.9688 181.214 32.0075 181.068 32.085C180.704 32.2012 180.486 32.3561 180.267 32.5497C179.831 32.8983 179.248 33.2469 178.739 33.5568C177.792 34.1377 176.992 34.7574 176.045 35.2997C175.754 35.4159 175.609 35.6095 175.317 35.687C175.026 35.7645 174.808 35.9194 174.662 36.0743C174.517 36.2292 174.225 36.3842 173.789 36.4616C173.716 36.5004 173.643 36.5004 173.643 36.5391C173.061 37.0039 172.114 37.2363 171.459 37.5849C170.804 37.9334 170.076 38.2433 169.348 38.6306C169.275 38.6693 169.13 38.7468 168.984 38.7855C168.402 38.9405 167.819 39.2116 167.31 39.4827ZM135.644 48.5846C135.498 48.6621 135.426 48.7396 135.207 48.7396C134.334 48.7396 133.533 48.972 132.805 49.1656C131.713 49.4367 130.621 49.5529 129.529 49.7466C129.311 49.7853 129.092 49.7853 128.874 49.9015C128.728 49.979 128.583 49.979 128.364 50.0177C128 50.0177 127.636 50.0564 127.345 50.1339C126.545 50.3663 125.598 50.4438 124.725 50.56C124.652 50.5987 124.506 50.5987 124.433 50.5987C123.269 50.5987 122.104 50.9085 121.012 51.1022C120.211 51.2571 119.483 51.2571 118.683 51.3733L117.008 51.6057C116.135 51.7219 115.188 51.7606 114.315 51.9156C113.878 51.993 113.296 51.9543 112.932 52.1479C112.932 52.1867 112.859 52.1867 112.859 52.1867C111.84 52.1092 110.966 52.4191 109.947 52.4191C109.802 52.4191 109.583 52.4578 109.365 52.4965C108.928 52.574 108.491 52.6127 107.982 52.6515C107.327 52.6902 106.599 52.7289 105.943 52.8451C105.216 52.9613 104.488 53.0388 103.687 53.0388C103.468 53.0388 103.25 53.0388 103.032 53.0775C102.304 53.1937 101.576 53.2712 100.775 53.2712C100.265 53.2712 99.6831 53.3486 99.1735 53.4261C98.8823 53.4261 98.7367 53.5036 98.7367 53.6585C98.7367 53.6972 98.5911 53.7359 98.5911 53.6972C97.8632 53.4261 97.208 53.5423 96.4073 53.6197C95.9705 53.6585 95.5337 53.6585 95.0242 53.6585C94.2234 53.6585 93.4227 53.8134 92.5491 53.8134C91.7484 53.8134 91.0204 53.8521 90.2197 53.9296C89.7829 53.9683 89.2733 54.0071 88.9094 54.162C88.6182 54.2782 88.6182 54.162 88.5454 54.0458C88.5454 53.9683 88.3998 53.9296 88.327 53.9683C87.8174 54.0458 87.3079 53.8909 86.7983 54.0458C86.2887 54.0071 85.852 54.162 85.3424 54.162C85.124 54.162 84.9784 54.2395 84.8328 54.3169C84.6872 54.3556 84.6872 54.3556 84.3961 54.2395C84.3233 54.2395 84.3233 54.2007 84.2505 54.2007C83.7409 54.2007 83.3041 54.2007 82.7946 54.162C82.3578 54.1233 81.921 54.162 81.4114 54.162C81.1203 54.1233 80.8291 54.162 80.5379 54.3169C80.3923 54.3944 80.3195 54.3169 80.1739 54.2395C80.1011 54.2007 79.8827 54.162 79.7372 54.2007C79.3732 54.2782 79.0092 54.2395 78.6452 54.2395C77.6261 54.2395 76.6798 54.0845 75.7334 54.2007C75.4422 54.2395 75.0783 54.162 74.7871 54.162H71.9481C71.5113 54.162 71.0017 54.2395 70.5649 54.1233C70.4194 54.0845 70.3466 54.0845 70.201 54.1233C69.9098 54.1233 69.6914 54.2395 69.4002 54.2007C69.1818 54.162 68.8907 54.162 68.5995 54.162C67.6531 54.0071 66.634 54.0458 65.6877 54.0458C65.1053 54.0458 64.5229 54.0071 63.9406 53.9296C63.431 53.8521 62.9215 53.8909 62.4119 53.8909C62.1935 53.8909 61.9751 53.9296 61.8295 53.8909C61.4655 53.7747 61.1744 53.8909 60.8104 53.8521C59.864 53.7359 58.9177 53.6585 58.0442 53.6585C57.753 53.6585 57.4618 53.6585 57.1706 53.581C57.1706 53.581 57.025 53.5423 56.9522 53.5423C56.2971 53.6585 55.5691 53.581 54.914 53.4261C54.55 53.3486 54.2588 53.4648 53.8948 53.5423C53.6765 53.581 53.4581 53.581 53.3853 53.4261C53.2397 53.3486 53.0941 53.3099 52.8757 53.3099C52.075 53.3099 51.2742 53.2712 50.5463 53.0775C50.4007 53.0388 50.2551 53.0775 50.1095 53.0775C49.8911 53.1162 49.7455 53.1162 49.6727 53.0775C49.3087 52.8838 48.9448 52.8838 48.508 52.9226C48.144 52.9613 47.78 52.7677 47.3433 52.8064C46.3969 52.8838 45.4506 52.6902 44.5042 52.4965C43.9219 52.3803 43.2667 52.3803 42.6844 52.3029C42.102 52.2254 41.5924 52.0317 41.0101 51.993C40.5733 51.9543 40.1365 51.8768 39.6998 51.8768C39.263 51.8768 38.899 51.6444 38.535 51.6832C38.0983 51.7219 37.6615 51.6057 37.2247 51.6057C37.2247 51.6057 37.1519 51.6057 37.1519 51.567C36.4968 51.2571 35.696 51.2571 34.9681 51.1409C34.6769 51.1022 34.4585 51.1022 34.2401 50.986C34.0945 50.9085 33.9489 50.8698 33.8033 50.9085C33.4394 51.0247 33.221 50.9473 32.9298 50.8698C32.4202 50.7149 31.9107 50.5599 31.4011 50.5212C30.8187 50.4825 30.3092 50.2114 29.7268 50.2114C29.1444 50.0564 28.4893 49.9015 27.9797 49.7466C27.6157 49.6304 27.3974 49.5142 27.0334 49.4755C26.6694 49.4367 26.451 49.2043 26.0142 49.2818C25.7959 49.3205 25.5047 49.2043 25.3591 49.0881C25.2135 48.9332 24.8495 48.8945 24.4855 48.8945C24.4127 48.8945 24.34 48.8945 24.2672 48.8558C24.0488 48.7396 23.8304 48.6621 23.612 48.6234C23.3936 48.5459 23.1752 48.5846 22.9568 48.4684C22.7385 48.3522 22.5201 48.1973 22.0833 48.2748C22.0105 48.2748 21.9377 48.236 21.8649 48.236C21.7921 48.0037 21.4281 47.9649 21.0642 47.8875C20.773 47.7713 20.409 47.6551 20.045 47.5776C19.3171 47.4227 18.8075 46.9966 17.934 46.9192L16.4053 46.2607C16.1869 46.1833 16.0413 46.1445 15.8957 46.0671C15.8229 46.0283 15.8229 45.9896 15.8957 45.9896C15.9685 45.9509 16.0413 45.9509 16.1141 45.9509C16.5509 46.0283 16.9876 46.1058 17.4244 46.222C17.7884 46.3382 18.2979 46.2995 18.5891 46.4931C18.7347 46.5319 18.8803 46.5706 19.0259 46.5706C19.3899 46.5706 19.7538 46.6481 20.045 46.7642C20.1178 46.8417 20.3362 46.8417 20.4818 46.8417C21.0642 46.9192 21.6465 47.0741 22.3017 47.0741C22.5929 47.0741 22.7385 47.3065 23.0296 47.2678C23.3208 47.229 23.3936 47.3065 23.612 47.4227C23.7576 47.5001 23.9032 47.5389 24.1216 47.5776C24.4127 47.5776 24.6311 47.6551 24.8495 47.7325C25.1407 47.81 25.5047 47.8487 25.7231 47.81C26.0142 47.7713 26.2326 47.81 26.3782 47.8875C26.5966 48.0037 26.8878 48.0424 27.179 48.1199C27.8341 48.1973 28.4893 48.2361 29.1444 48.391C29.4356 48.4684 29.7996 48.391 30.0908 48.5072C30.4548 48.6234 30.8187 48.5846 31.1827 48.6234C31.4739 48.6621 31.8379 48.7396 32.2018 48.6621C32.4202 48.6234 32.6386 48.7008 32.857 48.7396C33.221 48.8558 33.585 48.9332 33.9489 49.0107C34.1673 49.0494 34.3857 49.0881 34.6041 49.0881L36.2784 49.2043C36.2784 49.2431 36.3512 49.2043 36.3512 49.2431C36.7151 49.2818 37.0063 49.4367 37.3703 49.4367C37.7343 49.4367 38.0255 49.4755 38.3894 49.5142C38.7534 49.5529 39.0446 49.5917 39.4086 49.6691C39.5542 49.6691 39.7725 49.7079 39.9909 49.7079C40.3549 49.7079 40.7917 49.6304 41.1557 49.824C41.5924 49.824 42.102 49.8628 42.5388 49.8628C43.0483 49.8628 43.5579 49.9015 44.0675 49.979C44.6498 50.0564 45.3778 50.1339 46.0329 50.1726C46.6153 50.2114 47.1977 50.2501 47.78 50.2501C47.9256 50.2501 48.0712 50.2501 48.2168 50.2888C48.508 50.3663 48.7264 50.3663 49.0176 50.3663C49.6727 50.3663 50.3279 50.3663 50.983 50.5212C51.1286 50.5599 51.2742 50.5599 51.4198 50.5212C51.6382 50.4825 51.7838 50.4825 52.0022 50.5212C52.1478 50.5599 52.3661 50.5987 52.5845 50.5987C53.0941 50.5987 53.6037 50.5599 54.1132 50.6374C54.55 50.7149 55.0596 50.6761 55.4963 50.7923C55.7875 50.7536 56.1515 50.9085 56.5155 50.7923C56.6611 50.7536 56.8794 50.7923 57.0978 50.8311C57.6802 50.9473 58.2626 51.0247 58.9177 50.9473C59.9368 51.0635 60.956 50.9473 61.9751 51.0635C62.6303 51.1409 63.2854 51.1797 63.9406 51.1022C64.3046 51.0635 64.5957 51.0635 64.8869 51.1409C65.4693 51.2958 66.1244 51.2184 66.7796 51.2184C67.1436 51.2184 67.5076 51.2184 67.8715 51.2571C68.3083 51.2958 68.6723 51.3346 69.109 51.2958C69.473 51.2184 69.9098 51.2571 70.2738 51.2958C70.7833 51.3346 71.3657 51.3733 71.8753 51.3733H72.6032C72.8944 51.412 73.1128 51.4508 73.404 51.3733C73.7679 51.3346 74.1319 51.3346 74.4959 51.3733C75.2966 51.4508 76.0974 51.3346 76.8981 51.4895C77.1165 51.5282 77.4805 51.3733 77.6989 51.412C78.2812 51.5282 78.8636 51.4895 79.446 51.4895C80.6107 51.4895 81.7754 51.5282 82.8674 51.5282C83.8865 51.5282 84.9784 51.4895 85.9976 51.4895C86.2887 51.4895 86.5799 51.4508 86.8711 51.4508C87.1623 51.4508 87.4535 51.4895 87.7446 51.4895C88.0358 51.567 88.327 51.5282 88.6182 51.5282C89.1278 51.5282 89.6373 51.3733 90.1469 51.4895C90.2925 51.5282 90.5109 51.5282 90.7292 51.4895C91.0204 51.4508 91.3116 51.412 91.6028 51.4508C91.8212 51.4895 91.894 51.2571 92.0396 51.3346C92.4035 51.5282 92.7675 51.4895 93.2043 51.412C94.005 51.567 94.8058 51.3346 95.6065 51.4508C95.8249 51.4508 95.9705 51.412 96.1889 51.3733C97.0624 51.3733 97.936 51.3346 98.7367 51.3346C99.6831 51.3346 100.629 51.3346 101.576 51.2571C102.74 51.1796 103.978 51.0635 105.143 51.0635H105.434H106.307C106.817 51.0635 107.327 50.9473 107.909 50.9473C108.419 50.9473 108.928 50.9085 109.51 50.8698C110.675 50.7923 111.913 50.7536 113.077 50.6374C113.441 50.5987 113.805 50.5987 114.169 50.5987C114.388 50.5987 114.388 50.3663 114.752 50.4438C114.897 50.4825 115.116 50.4825 115.334 50.4825H116.28C117.008 50.405 117.809 50.405 118.61 50.2501C118.828 50.2114 119.047 50.2114 119.265 50.2114C119.847 50.2114 120.284 50.1726 120.794 50.0952C121.23 50.0177 121.74 49.979 122.177 49.979C122.395 49.979 122.686 49.9402 122.905 49.9015C123.123 49.8628 123.414 49.8628 123.706 49.8628C123.851 49.8628 124.142 49.8628 124.288 49.824C124.652 49.5917 125.161 49.7079 125.598 49.6304C125.962 49.5529 126.472 49.6304 126.763 49.4367C127.2 49.4755 127.564 49.3593 127.928 49.3593C128.947 49.3593 129.893 49.1656 130.839 49.0494C131.058 49.0494 131.276 48.972 131.495 48.9332C131.713 48.8945 131.931 48.9332 132.15 48.8945C132.951 48.7396 133.751 48.817 134.406 48.6234C134.77 48.5072 135.207 48.5459 135.571 48.5072L135.644 48.5459V48.5846Z" fill="#E6192A"/>
</svg>