<svg width="403" height="152" viewBox="0 0 403 152" fill="none" xmlns="http://www.w3.org/2000/svg">
<path d="M399.419 77.1303C399.731 76.8601 399.743 76.5766 399.602 76.381C399.315 76.0842 399.477 75.8074 399.49 75.5239C399.519 74.8624 399.244 74.2822 399.719 73.7351C399.873 73.6472 399.731 73.4516 399.59 73.256C399.602 72.9725 399.315 72.6757 399.478 72.3989C399.802 71.8452 399.524 71.3594 399.245 70.8737C399.253 70.6847 398.962 70.4825 398.97 70.2935C399.012 69.3485 398.595 68.5727 398.637 67.6277C398.675 66.7772 397.509 65.9682 397.555 64.9288L395.907 61.4474C395.765 61.2517 395.774 61.0628 395.478 60.955C394.591 60.6317 394.479 59.7746 394.054 59.1878C393.63 58.6009 393.213 57.8251 392.639 57.2316C392.206 56.8337 391.918 56.5369 391.64 56.0512C391.356 55.66 391.219 55.3699 390.782 55.0665L387.318 51.8835C386.452 51.0878 385.282 50.3732 385.02 49.5095C384.887 49.1249 384.445 48.916 384 48.8017C383.704 48.6939 383.413 48.4916 383.425 48.2082C383.288 47.918 382.997 47.7158 382.705 47.5135L380.519 45.9967C380.228 45.7944 380.245 45.4164 379.953 45.2142C379.516 44.9108 378.912 44.9788 378.475 44.6754L378.038 44.372C378.046 44.183 377.905 43.9874 377.613 43.7852C376.739 43.1784 375.715 42.565 374.69 41.9517C373.52 41.2371 372.659 40.3469 371.181 39.8081L365.331 36.2356C364.161 35.5211 362.991 34.8066 361.513 34.2678C360.33 33.8368 359.289 33.6014 358.269 32.8935L358.124 32.7924C356.483 32.5305 355.617 31.7347 354.289 31.2026C352.074 30.3472 350.013 29.4039 347.802 28.454L346.765 28.1241L346.457 28.2999C346.149 28.4756 346.007 28.28 345.862 28.1788C345.57 27.9766 345.887 27.6119 345.137 27.5787C344.987 27.5721 344.841 27.471 344.692 27.4643C343.226 26.6421 341.132 26.4548 339.666 25.6325C339.37 25.5247 339.071 25.5115 338.921 25.5049C338.625 25.3971 338.175 25.3772 338.03 25.2761C337.301 24.7705 336.256 24.6296 335.365 24.4008C334.028 24.0576 332.858 23.3431 331.351 23.4658C330.631 22.7712 329.277 22.806 328.391 22.4828C327.058 22.0451 325.717 21.7965 324.531 21.46C322.899 21.009 321.404 20.8483 319.926 20.3095C319.63 20.2017 319.339 19.9995 319.039 19.9862C317.24 19.9067 315.766 19.2734 314.125 19.0115C313.83 18.9037 313.384 18.7893 312.935 18.7695C311.286 18.6965 309.504 18.239 307.871 17.7881C307.426 17.6737 307.13 17.5659 306.681 17.5461L304.595 17.1698C303.849 17.0421 303.237 17.2991 302.5 16.9824C302.063 16.6791 301.163 16.6393 300.418 16.5117C300.123 16.4039 299.827 16.2961 299.527 16.2829C298.328 16.2299 297.287 15.9945 296.246 15.7591L295.055 15.517C294.006 15.4706 293.115 15.2419 292.215 15.2021C291.166 15.1557 290.129 14.8258 289.08 14.7794C288.63 14.7595 288.335 14.6517 287.885 14.6318C287.435 14.612 286.84 14.4909 286.382 14.66C285.928 14.7347 285.953 14.1677 285.495 14.3368C283.405 14.055 281.314 13.7732 279.37 13.5925C276.526 13.372 273.84 12.9692 271.142 12.8499L270.393 12.8167C268.91 12.3725 267.557 12.4073 266.058 12.341L265.009 12.2946C263.526 11.8503 262.015 12.0675 260.524 11.8122C259.629 11.678 258.73 11.6382 257.818 11.8819C257.514 11.9631 257.214 11.9499 256.918 11.8421C255.59 11.31 254.083 11.4327 252.575 11.5554L251.676 11.5156C250.785 11.2868 249.89 11.1526 248.832 11.2951C248.228 11.3631 247.483 11.2355 246.883 11.209L240.587 10.9305C239.388 10.8775 238.331 11.0201 237.265 11.3517C236.956 11.5274 236.806 11.5208 236.511 11.413C236.219 11.2107 235.774 11.0964 235.324 11.0765C234.275 11.0301 233.08 10.8825 232.022 11.0251C229.907 11.3103 227.804 11.312 225.705 11.2192C225.106 11.1927 224.506 11.1661 224.052 11.2407L218.031 11.5425C217.282 11.5094 216.665 11.8609 215.916 11.8277C215.166 11.7946 214.575 11.5791 213.822 11.6404L209.749 12.0284C208.392 12.1577 206.893 12.0914 205.535 12.2207C204.632 12.2755 203.878 12.3368 203.12 12.4927C202.666 12.5673 202.208 12.7364 201.613 12.6154C201.167 12.501 200.713 12.5756 200.259 12.6502C198.748 12.8674 197.241 12.9901 195.733 13.1128C193.172 13.2836 190.453 13.6367 187.892 13.8075C185.631 13.9915 183.349 14.6481 180.951 14.542C180.651 14.5287 180.193 14.6979 179.889 14.7791C179.431 14.9482 178.981 14.9283 178.527 15.0029C177.016 15.2201 175.509 15.3428 174.001 15.4655C171.89 15.6562 169.92 16.0425 167.809 16.2331C165.698 16.4238 163.72 16.9991 161.459 17.1832C160.705 17.2445 159.948 17.4004 159.186 17.6507C158.278 17.7999 157.366 18.0436 156.462 18.0983C155.409 18.1464 154.355 18.1945 153.726 18.8295C153.572 18.9173 153.268 18.9986 153.123 18.8975C151.782 18.6488 150.566 18.9737 149.504 19.2108C148.442 19.4479 147.522 19.8806 146.173 19.8209C145.873 19.8077 145.565 19.9834 145.261 20.0647C144.957 20.1459 144.649 20.3216 144.353 20.2139C142.854 20.1476 141.626 20.756 140.264 20.9798C139.356 21.1291 138.89 21.4871 138.869 21.9596C138.865 22.0541 138.711 22.142 138.707 22.2365C138.548 22.4189 138.099 22.399 137.807 22.1967C137.512 22.089 137.37 21.8933 137.824 21.8187C137.978 21.7309 137.982 21.6364 137.982 21.6364C137.686 21.5286 137.387 21.5154 137.237 21.5087C135.871 21.827 134.218 21.8486 133.139 22.4637C132.831 22.6394 132.523 22.8151 132.073 22.7953C131.324 22.7621 130.574 22.729 129.808 23.0738C129.042 23.4186 128.142 23.3789 127.376 23.7237C126.61 24.0685 125.694 24.4067 124.645 24.3603C124.345 24.3471 123.887 24.5162 123.587 24.5029C122.829 24.6588 122.662 25.0301 122.2 25.2937C122.05 25.2871 121.755 25.1793 121.755 25.1793L121.28 25.7264C121.272 25.9154 120.818 25.99 120.526 25.7878C120.38 25.6866 120.243 25.3965 120.085 25.5789C119.768 25.9436 119.023 25.816 118.415 25.9784C118.111 26.0597 118.103 26.2487 118.394 26.4509C118.54 26.552 118.84 26.5653 118.831 26.7543C119.119 27.051 119.281 26.7742 119.581 26.7874C120.339 26.6316 121.234 26.7659 121.705 26.3133C122.321 25.9618 123.366 26.1027 123.687 25.6435C124.278 25.859 124.457 25.2042 124.898 25.413C125.49 25.6286 126.098 25.4661 126.551 25.3915C127.609 25.2489 128.525 24.9107 129.583 24.7681C130.799 24.4431 132.006 24.3072 132.935 23.6855C133.093 23.5031 133.393 23.5164 133.689 23.6241C133.984 23.7319 134.434 23.7518 134.734 23.765C135.342 23.6026 136.096 23.5412 136.416 23.082C136.579 22.8051 137.187 22.6427 137.628 22.8516C137.924 22.9593 138.219 23.0671 138.373 22.9792C139.452 22.3641 141.242 22.6327 142.462 22.2132C143.533 21.7872 144.736 21.7457 145.944 21.6097C146.697 21.5484 147.305 21.3859 147.772 21.0278C148.534 20.7775 149.292 20.6216 149.904 20.3647C150.362 20.1956 150.507 20.2967 150.799 20.4989C150.94 20.6946 151.24 20.7078 151.694 20.6332C152.002 20.4575 152.606 20.3895 152.914 20.2138C153.376 19.9502 153.959 20.3547 154.567 20.1922C156.237 19.7926 158.332 19.9799 159.718 19.1891C160.026 19.0134 160.622 19.1344 160.926 19.0532C161.376 19.0731 161.975 19.0996 162.433 18.9305C163.349 18.5923 164.553 18.5508 165.606 18.5027C166.36 18.4414 167.268 18.2922 168.025 18.1363C168.633 17.9738 169.237 17.9059 169.699 17.6423C170.316 17.2908 170.894 17.7898 171.502 17.6273L171.952 17.6472C173.018 17.3156 174.367 17.3753 175.429 17.1382C177.249 16.7453 179.064 16.4469 180.863 16.5264C181.163 16.5397 181.617 16.4651 181.771 16.3772C182.541 15.9379 183.291 15.971 184.19 16.0108C185.539 16.0705 186.897 15.9411 188.104 15.8052C190.228 15.331 192.485 15.2415 194.596 15.0508C195.35 14.9894 196.108 14.8336 196.857 14.8667C197.607 14.8999 198.364 14.744 199.127 14.4937C199.43 14.4125 199.734 14.3312 200.03 14.439C200.767 14.7556 201.529 14.5053 202.133 14.4373C203.944 14.2334 205.76 13.9349 207.708 14.0211C208.008 14.0344 208.462 13.9598 208.77 13.784C209.387 13.4326 209.982 13.5536 210.582 13.5801C211.781 13.6331 213.13 13.6928 214.192 13.4557C214.8 13.2932 215.404 13.2253 216.145 13.4474C216.59 13.5618 217.194 13.4938 217.652 13.3247L218.718 12.9931C219.022 12.9119 219.176 12.824 219.472 12.9318L220.359 13.255C220.8 13.4639 220.975 12.9036 221.271 13.0113C221.862 13.2268 222.312 13.2467 222.919 13.0843C223.527 12.9218 224.115 13.2318 224.718 13.1638C225.172 13.0892 225.618 13.2036 225.922 13.1223C226.521 13.1489 226.975 13.0743 227.425 13.0941C229.673 13.1936 231.789 12.9084 234.037 13.0079C234.337 13.0211 234.641 12.9399 234.945 12.8586C235.703 12.7028 236.74 13.0327 237.502 12.7823L237.951 12.8022C239.9 12.8884 241.695 13.0625 243.494 13.142C244.397 13.0873 245.155 12.9315 245.184 12.27C245.193 12.081 245.492 12.0943 245.638 12.1954C245.93 12.3976 246.079 12.4043 246.225 12.5054C246.363 12.7955 246.654 12.9978 247.104 13.0176C248.902 13.0972 250.697 13.2712 252.496 13.3508C253.096 13.3773 253.554 13.2082 254.157 13.1402C254.311 13.0524 254.611 13.0656 254.757 13.1667C255.794 13.4966 256.847 13.4486 257.892 13.5895C258.638 13.7171 259.545 13.5679 260.287 13.79C260.586 13.8033 261.049 13.5397 261.498 13.5596C261.648 13.5662 261.952 13.485 262.094 13.6806C262.531 13.984 263.28 14.0171 263.88 14.0436L267.028 14.1828C267.777 14.216 268.377 14.2425 268.972 14.3635C269.718 14.4912 270.463 14.6188 271.213 14.6519C272.562 14.7116 274.061 14.7779 275.551 15.0332C276.892 15.2818 278.391 15.3481 279.89 15.4144C280.49 15.441 281.227 15.7576 281.681 15.683C282.588 15.5338 283.18 15.7493 283.925 15.8769C284.97 16.0178 286.011 16.2532 287.21 16.3062C287.51 16.3195 287.81 16.3328 288.105 16.4405C289.288 16.8715 290.941 16.85 292.29 16.9096C292.59 16.9229 293.19 16.9494 293.335 17.0505C294.064 17.5562 294.976 17.3125 295.567 17.528C296.158 17.7435 296.625 17.3854 296.92 17.4931C297.512 17.7086 297.803 17.9109 298.394 18.1264C298.686 18.3287 299.14 18.254 299.439 18.2673C300.189 18.3005 300.947 18.1446 301.538 18.3601C303.62 18.8309 305.706 19.2072 307.638 19.6714C309.124 20.0212 310.611 20.3709 312.106 20.5317C313.301 20.6793 314.479 21.2048 315.828 21.2644C318.789 22.2475 321.916 22.8592 325.201 23.2885C325.646 23.4029 325.946 23.4162 326.238 23.6184C327.549 24.5285 329.185 24.885 330.826 25.1469C332.167 25.3955 333.358 25.6376 334.69 26.0752C335.431 26.2973 335.864 26.6952 336.46 26.8162C337.95 27.0715 339.287 27.4147 340.619 27.8523C341.36 28.0744 341.96 28.101 342.389 28.5933C342.676 28.8901 343.267 29.1056 343.867 29.1321C344.616 29.1653 345.203 29.4753 345.79 29.7853C346.669 30.2975 347.71 30.5329 348.747 30.8628C350.229 31.3071 351.72 31.5624 352.885 32.3714C353.031 32.4725 353.331 32.4858 353.627 32.5935C353.776 32.6001 354.072 32.7079 354.064 32.8969C354.047 33.2749 354.642 33.3959 355.234 33.6114C357.007 34.2579 358.627 34.9923 360.097 35.7201C361.125 36.239 362.008 36.6567 362.882 37.2635C363.465 37.668 364.202 37.9846 364.943 38.2068C365.684 38.4289 365.959 39.0091 367 39.2445C367.595 39.3655 368.02 39.9524 368.757 40.269C369.486 40.7747 370.223 41.0913 370.955 41.5024C372.567 42.4258 373.716 43.6128 375.481 44.4483C375.902 45.1297 376.938 45.4596 377.517 45.9586C378.242 46.5587 378.974 46.9698 379.549 47.5633C380.277 48.0689 381.006 48.5746 381.427 49.2559C381.568 49.4516 381.859 49.6538 382.151 49.856C383.025 50.4628 383.908 50.8806 384.478 51.5686C385.194 52.3577 385.915 53.0523 386.935 53.7602C387.518 54.1647 388.1 54.5692 388.075 55.1361C388.063 55.4196 388.35 55.7164 388.637 56.0131C389.212 56.6066 389.791 57.1056 390.215 57.6925C391.343 59.3519 393.08 60.8489 393.604 62.5764L394.174 63.2644C394.449 63.8446 394.724 64.4248 395.152 64.9172C395.585 65.3151 395.256 65.9633 395.689 66.3612C396.268 66.8601 395.793 67.4072 396.368 68.0007C396.655 68.2975 396.339 68.6622 396.476 68.9523C396.755 69.4381 397.188 69.8359 397.017 70.3018C396.842 70.8621 396.671 71.328 397.254 71.7325C397.4 71.8336 397.242 72.016 397.233 72.2049C396.908 72.7587 396.888 73.2311 397.162 73.8114C397.579 74.5872 397.545 75.3432 397.062 76.0793C396.737 76.633 396.716 77.1055 396.845 77.5846C397.112 78.3538 396.778 79.0965 396.295 79.8326C395.812 80.5687 395.479 81.3114 395.141 82.1486C394.796 83.1748 394.004 84.0866 393.954 85.2205C393.95 85.315 393.946 85.4095 393.792 85.4974C393.175 85.8489 393.309 86.2335 392.988 86.6927C392.83 86.8751 392.817 87.1586 392.509 87.3343C391.747 87.5846 392.017 88.2594 391.251 88.6042C391.101 88.5976 390.939 88.8744 391.085 88.9755C391.072 89.259 391.06 89.5425 390.756 89.6238C390.148 89.7862 389.831 90.151 389.81 90.6234C389.798 90.9069 389.639 91.0893 389.181 91.2584C388.569 91.5154 388.249 91.9746 388.228 92.4471C388.069 92.6294 388.061 92.8184 387.753 92.9942C386.387 93.3125 386.05 94.1497 385.267 94.8725C384.796 95.3251 384.03 95.6699 384.001 96.3314L382.147 97.4803L381.835 97.7505C379.986 98.8049 378.574 100.163 376.725 101.217C376.109 101.569 375.343 101.913 375.018 102.467C374.71 102.643 374.402 102.819 374.098 102.9C373.794 102.981 373.49 103.062 373.182 103.238C371.487 104.205 370.092 105.184 368.105 105.949C367.955 105.942 367.801 106.03 367.797 106.124C367.322 106.671 366.56 106.922 365.802 107.078C365.349 107.152 364.886 107.416 364.578 107.592C364.274 107.673 363.966 107.849 363.508 108.018C362.288 108.437 361.359 109.059 359.989 109.472C358.619 109.884 357.969 110.992 356.47 110.926C356.171 110.912 356.012 111.095 355.858 111.183C355.396 111.446 355.092 111.527 354.638 111.602C353.414 112.116 352.052 112.34 350.974 112.955C350.203 113.394 349.146 113.537 348.234 113.78C348.084 113.774 347.938 113.673 347.792 113.572C347.792 113.572 347.797 113.477 347.946 113.484C349.325 112.882 350.703 112.28 351.932 111.672C353.772 110.806 355.471 109.745 357.308 108.974C358.84 108.285 359.777 107.474 361.164 106.683C361.318 106.595 361.322 106.501 361.622 106.514C362.222 106.541 362.242 106.068 362.696 105.993C363.004 105.818 363.458 105.743 363.767 105.567C364.075 105.392 364.533 105.223 364.845 104.952C365.47 104.412 366.831 104.188 367.019 103.344C367.473 103.27 367.927 103.195 368.239 102.925C368.864 102.384 369.63 102.039 370.25 101.593C371.491 100.702 372.433 99.7964 373.965 99.1067C374.431 98.7486 374.748 98.3839 375.069 97.9247C374.79 97.4389 375.248 97.2698 376.006 97.114C376.614 96.9515 376.922 96.7758 377.234 96.5055L379.117 94.6952C379.745 94.0602 380.516 93.6209 380.999 92.8848C381.478 92.2432 382.103 91.7028 382.877 91.169C383.352 90.6219 383.827 90.0748 383.702 89.5012C384.635 88.785 385.272 87.961 385.759 87.1305C386.376 86.779 386.7 86.2253 386.721 85.7528C386.751 85.0913 387.663 84.8476 387.688 84.2806C387.704 83.9027 388.021 83.5379 388.183 83.2611C388.2 82.8831 388.662 82.6195 388.529 82.2349C388.396 81.8503 389.004 81.6878 389.17 81.3164L389.687 79.8244C389.87 79.0751 390.199 78.4268 390.083 77.6643C389.962 76.9962 389.842 76.328 390.612 75.8887C390.766 75.8008 390.625 75.6052 390.633 75.4162C390.367 74.647 390.704 73.8098 390.742 72.9593C390.75 72.7703 390.762 72.4869 390.621 72.2912C390.338 71.9 390.654 71.5353 390.367 71.2385C389.938 70.7462 390.555 70.3947 390.421 70.0101C390.155 69.2409 390.039 68.4783 389.772 67.709C389.369 66.6497 389.115 65.597 388.861 64.5443C388.732 64.0652 388.607 63.4916 388.174 63.0937C387.312 62.2034 387.058 61.1507 386.347 60.2671C385.489 59.2824 385.085 58.223 384.532 57.1571C384.099 56.7592 383.82 56.2735 383.391 55.7811C382.662 55.2755 381.934 54.7698 381.963 54.1084C381.967 54.0139 381.821 53.9127 381.676 53.8116C380.656 53.1037 380.085 52.4158 379.211 51.809C378.337 51.2023 377.608 50.6966 377.192 49.9208C377.2 49.7318 376.909 49.5295 376.613 49.4218C376.317 49.314 376.026 49.1118 375.734 48.9095C373.84 47.5949 372.712 45.9354 370.355 44.8844C369.618 44.5678 368.731 44.2445 368.611 43.5764C368.469 43.3808 368.024 43.2664 367.578 43.152C367.133 43.0376 366.691 42.8287 366.554 42.5386C366.279 41.9584 365.688 41.7429 365.251 41.4395C363.927 40.8129 362.749 40.2874 361.728 39.5795C361.583 39.4783 361.437 39.3772 361.287 39.3706C360.388 39.3308 359.955 38.9329 359.518 38.6296C358.781 38.3129 358.039 38.0908 357.611 37.5984C357.328 37.2072 356.882 37.0928 356.287 36.9718C355.562 36.3717 354.209 36.4065 353.643 35.624L353.056 35.314C350.999 34.2762 348.467 33.7856 346.415 32.6533C345.215 32.6003 344.499 31.8111 343.3 31.7581C342.85 31.7382 342.555 31.6305 342.263 31.4282C341.098 30.6192 339.753 30.465 338.42 30.0274C337.829 29.8119 337.234 29.6909 336.63 29.7589C336.188 29.55 335.751 29.2466 335.314 28.9432C335.019 28.8355 334.873 28.7343 334.573 28.7211C333.674 28.6813 332.941 28.2702 332.05 28.0414C331.904 27.9403 331.6 28.0215 331.446 28.1094C331.296 28.1028 331.279 28.4807 330.992 28.184C330.276 27.3949 328.935 27.1462 327.744 26.9042C326.108 26.5478 324.472 26.1914 322.989 25.7471C321.062 25.1884 319.13 24.7243 317.198 24.2601C314.225 23.5605 310.944 23.0367 307.966 22.4316C307.671 22.3239 307.221 22.304 306.921 22.2907C306.322 22.2642 305.73 22.0487 305.118 22.3057L303.199 21.558C302.903 21.4503 302.603 21.437 302.308 21.3293C298.868 20.9878 295.592 20.3695 292.306 19.9401C289.916 19.6451 287.535 19.161 285.136 19.0549C284.686 19.0351 284.237 19.0152 283.941 18.9074C283.35 18.6919 282.75 18.6654 282.151 18.6389C281.551 18.6124 280.802 18.5792 280.056 18.4516C278.715 18.2029 277.516 18.1499 276.167 18.0902C276.017 18.0836 275.867 18.077 275.722 17.9758C274.085 17.6194 272.286 17.5399 270.638 17.4669L269.139 17.4006C266.457 16.9033 263.75 16.973 261.056 16.7592C258.662 16.5586 256.405 16.6481 254.019 16.2586C253.274 16.131 252.362 16.3747 251.617 16.247C251.021 16.126 250.268 16.1874 249.522 16.0597C248.777 15.9321 247.874 15.9868 247.12 16.0481C246.516 16.1161 245.779 15.7995 245.163 16.1509C245.009 16.2388 244.859 16.2322 244.713 16.1311C243.372 15.8824 242.019 15.9172 240.82 15.8642C240.37 15.8443 240.066 15.9255 239.754 16.1958C239.596 16.3781 239.304 16.1759 239.158 16.0748C238.867 15.8725 238.717 15.8659 238.409 16.0416C238.255 16.1295 238.101 16.2173 237.951 16.2107C236.922 15.6918 235.869 15.7399 234.811 15.8825C234.357 15.9571 233.908 15.9372 233.458 15.9173C231.209 15.8179 228.794 16.0898 226.546 15.9904C226.096 15.9705 225.642 16.0451 225.193 16.0252C224.443 15.9921 223.544 15.9523 222.786 16.1081C221.878 16.2573 220.995 15.8396 220.233 16.0899C219.471 16.3403 218.434 16.0104 217.66 16.5442C217.66 16.5442 217.364 16.4364 217.368 16.3419C217.219 16.3353 217.077 16.1397 216.927 16.1331C215.728 16.08 214.52 16.216 213.313 16.3519C212.709 16.4199 212.251 16.589 211.501 16.5559C210.902 16.5294 210.144 16.6852 209.394 16.6521C208.195 16.599 206.988 16.735 205.78 16.8709C204.573 17.0069 203.228 16.8527 202.003 17.3667L201.408 17.2457C200.812 17.1246 200.209 17.1926 199.605 17.2606C198.547 17.4032 197.494 17.4513 196.286 17.5872L189.195 18.3151C186.63 18.5804 184.069 18.7512 181.496 19.2055C181.042 19.2801 180.588 19.3547 180.288 19.3414C178.477 19.5453 176.665 19.7493 174.713 19.7576C173.359 19.7924 171.985 20.2997 170.628 20.4291C168.367 20.6131 166.401 20.9049 164.282 21.2846L163.524 21.4404C161.871 21.462 160.355 21.7737 158.843 21.9909C155.366 22.4999 151.889 23.0089 148.258 23.6057C145.385 24.0467 142.512 24.4878 139.635 25.0233C138.423 25.2537 137.203 25.6732 135.845 25.8025C134.338 25.9252 132.972 26.2435 131.606 26.5618C129.787 26.9548 127.967 27.3477 126.151 27.6461C125.698 27.7207 125.09 27.8832 124.631 28.0523C124.328 28.1335 124.157 28.5994 123.416 28.3773C122.97 28.2629 122.362 28.4253 121.908 28.4999C121.15 28.6558 120.834 29.0205 120.084 28.9874C117.686 28.8813 115.833 30.0302 113.422 30.2076C112.352 30.6337 110.99 30.8575 109.624 31.1758C108.712 31.4195 107.809 31.4743 107.042 31.8191C106.584 31.9882 106.13 32.0628 105.677 32.1374C104.769 32.2866 104.161 32.4491 103.836 33.0028C103.832 33.0973 103.528 33.1785 103.232 33.0708C102.937 32.963 102.487 32.9431 102.179 33.1189C101.716 33.3825 101.267 33.3626 100.954 33.6328C100.638 33.9975 99.597 33.7622 99.1306 34.1202C97.9314 34.0672 96.7238 34.2032 95.6578 34.5347C94.5917 34.8663 93.38 35.0968 92.4639 35.435C90.7815 36.118 88.8161 36.4098 87.138 36.9984L86.6799 37.1675C85.3266 37.2023 84.4063 37.635 83.3403 37.9666C82.7323 38.1291 82.2701 38.3927 81.8204 38.3728C81.0709 38.3396 80.746 38.8933 80.1422 38.9613C78.6349 39.084 77.4106 39.598 76.1905 40.0174C75.4284 40.2677 74.658 40.7071 73.6046 40.7552C72.8509 40.8165 72.0888 41.0669 71.4725 41.4183C70.7021 41.8577 70.1025 41.8311 69.3321 42.2705C68.8699 42.5341 68.416 42.6087 67.8122 42.6767C66.9044 42.8259 66.1424 43.0762 65.3804 43.3266C63.7022 43.9151 61.8867 44.2135 60.3459 45.0922C60.0377 45.2679 59.7296 45.4437 59.4256 45.5249C57.9057 45.9311 56.5315 46.4384 55.3072 46.9523C54.6951 47.2093 54.3869 47.385 53.7831 47.453C53.3251 47.6221 53.0127 47.8923 52.4048 48.0548C51.3429 48.2919 50.8681 48.839 49.952 49.1772C49.0359 49.5154 47.9824 49.5635 47.0621 49.9962C46.9122 49.9896 46.908 50.0841 46.754 50.1719C44.905 51.2263 42.9145 52.0851 40.7783 52.8428L40.3202 53.0119C39.554 53.3567 38.7878 53.7015 37.8717 54.0397C36.6516 54.4592 35.7271 54.9864 34.4986 55.5948C33.4242 56.1154 32.3499 56.636 31.2713 57.251L28.1897 59.0084L24.954 60.8536C24.7999 60.9414 24.7916 61.1304 24.4876 61.2116C22.8178 61.6112 21.8683 62.7054 20.6273 63.5973C18.924 64.7528 17.2208 65.9083 15.6591 67.2595C14.1016 68.5161 12.5441 69.7728 11.2822 71.1372C11.1239 71.3195 10.8157 71.4953 10.6617 71.5832C9.73719 72.1103 9.10833 72.7453 8.77928 73.3935C8.4544 73.9472 8.12952 74.5009 7.50903 74.9469C7.03007 75.5885 6.85092 76.2433 6.52604 76.797C6.20534 77.2563 6.03455 77.7221 5.72221 77.9923C5.10171 78.4383 4.63529 78.7964 4.61022 79.3634C4.58932 79.8359 3.81892 80.2752 3.94375 80.8488C4.08529 81.0444 3.92285 81.3213 3.76877 81.4091C2.84429 81.9363 2.96494 82.6044 2.93569 83.2659L2.89808 84.1164C2.88136 84.4944 2.86464 84.8723 2.54812 85.2371C2.38987 85.4194 2.37315 85.7974 2.36061 86.0809L2.33554 86.6479C2.29793 87.4983 2.26031 88.3488 2.6724 89.2191C2.94295 89.8939 3.06778 90.4675 3.0427 91.0345C2.98419 92.3574 3.52947 93.6124 4.6827 94.7049C5.25723 95.2984 5.67768 95.9797 6.24803 96.6677C6.52276 97.2479 6.79748 97.8282 7.52609 98.3338C8.54614 99.0417 9.26639 99.7363 9.98664 100.431C10.7027 101.22 11.577 101.827 12.6055 102.346C13.1925 102.656 13.6297 102.959 14.2126 103.364C15.3783 104.173 16.39 105.069 18.018 105.615C19.2005 106.046 20.2289 106.565 21.0991 107.266C21.6778 107.765 22.2482 108.453 23.1308 108.871C24.1593 109.39 25.0294 110.091 25.8996 110.792C26.1826 111.183 26.6198 111.487 27.211 111.702C27.948 112.019 28.5309 112.423 28.9639 112.821C30.1171 113.914 31.8909 114.56 33.5105 115.295C35.2759 116.13 37.0371 117.06 38.6526 117.889C39.2396 118.199 39.6726 118.597 40.572 118.637C40.876 118.555 41.1674 118.758 41.3132 118.859C42.3332 119.567 43.2201 119.89 44.4067 120.227C45.5934 120.563 46.3095 121.352 47.6502 121.601C48.2415 121.816 48.8202 122.315 49.4156 122.436C51.3518 122.806 52.8257 123.439 54.2955 124.167C54.7368 124.376 55.0324 124.484 55.4821 124.504C56.2316 124.537 56.9686 124.853 57.7056 125.17C58.7382 125.594 59.7833 125.735 60.8201 126.065C61.8568 126.395 63.1976 126.644 64.0719 127.25C64.2176 127.352 64.6673 127.371 64.9671 127.385C65.4126 127.499 66.0123 127.526 66.4578 127.64C67.6444 127.977 69.1351 128.232 70.3176 128.663C71.6458 129.195 72.9865 129.444 74.3231 129.787C74.473 129.793 74.6187 129.895 74.6145 129.989C74.906 130.191 75.0559 130.198 75.5056 130.218C75.9637 130.049 76.4092 130.163 76.8505 130.372C77.4376 130.682 78.4827 130.823 79.2197 131.14C80.2606 131.375 81.3016 131.61 82.3551 131.562C82.659 131.481 82.8006 131.677 83.0962 131.784C83.6875 132 84.4244 132.317 85.1739 132.35C86.8228 132.423 88.151 132.955 89.6417 133.21C91.4321 133.479 93.0602 134.024 94.859 134.104C95.4586 134.13 95.75 134.332 96.1914 134.541C96.487 134.649 96.7826 134.757 97.2365 134.682C97.5363 134.695 97.8403 134.614 97.986 134.715C98.5689 135.12 99.7806 134.889 100.522 135.111C101.113 135.327 101.725 135.07 102.47 135.198C103.066 135.319 103.657 135.534 104.253 135.655C104.848 135.776 105.606 135.62 106.193 135.93C107.367 136.55 108.57 136.509 109.92 136.569C110.369 136.588 110.969 136.615 111.264 136.723C112.006 136.945 112.755 136.978 113.505 137.011C114.104 137.038 114.854 137.071 115.449 137.192C118.131 137.689 120.97 138.004 123.819 138.13L124.568 138.163C124.718 138.17 125.018 138.183 125.163 138.284C125.746 138.689 126.346 138.715 127.25 138.66C127.708 138.491 128.307 138.518 128.903 138.639C129.648 138.767 130.243 138.888 130.997 138.826C131.751 138.765 132.496 138.892 133.391 139.027C134.578 139.363 135.923 139.517 137.122 139.57L139.071 139.657C141.319 139.756 143.709 140.051 146.12 139.874C146.57 139.894 146.866 140.001 147.315 140.021C147.461 140.122 147.752 140.325 147.907 140.237C148.968 140 149.851 140.417 150.75 140.457C151.2 140.477 151.646 140.592 152.104 140.422C152.408 140.341 152.853 140.456 153.153 140.469C154.202 140.515 155.397 140.663 156.443 140.804C157.488 140.945 158.695 140.809 159.745 140.855C160.944 140.908 162.143 140.961 163.338 141.109C164.683 141.263 165.89 141.127 167.085 141.274C168.43 141.429 169.63 141.482 170.841 141.251C171.295 141.176 171.595 141.19 172.041 141.304C173.082 141.54 174.281 141.593 175.338 141.45C175.938 141.476 176.542 141.409 177.141 141.435L179.989 141.561C181.039 141.607 181.951 141.364 182.842 141.592C183.287 141.707 183.745 141.538 184.349 141.47C184.803 141.395 185.39 141.705 185.998 141.543C187.214 141.218 188.405 141.46 189.754 141.519C190.354 141.546 190.799 141.66 191.403 141.592C192.452 141.639 193.66 141.503 194.713 141.455C196.52 141.345 198.173 141.324 199.822 141.397C201.921 141.489 204.178 141.4 206.297 141.02C206.751 140.946 207.205 140.871 207.651 140.985C208.392 141.208 209.158 140.863 209.758 140.889C210.507 140.922 211.402 141.057 212.01 140.894C214.43 140.528 216.828 140.634 219.239 140.456C220.746 140.334 222.254 140.211 223.765 139.994C224.219 139.919 224.673 139.845 225.123 139.864C226.772 139.937 228.279 139.815 229.641 139.591C230.094 139.516 230.698 139.448 231.148 139.468C232.356 139.332 233.705 139.392 234.912 139.256C235.666 139.195 236.415 139.228 237.028 138.971C237.79 138.72 238.539 138.754 239.289 138.787C241.096 138.677 242.757 138.467 244.569 138.263L250.157 137.563C251.964 137.454 253.629 137.149 255.437 137.039C256.64 136.998 257.719 136.383 259.059 136.631C260.425 136.313 261.633 136.177 262.994 135.953C264.206 135.723 265.264 135.58 266.471 135.444C267.679 135.308 268.891 135.078 270.252 134.854C271.31 134.711 272.368 134.569 273.434 134.237L274.346 133.993C275.545 134.047 276.611 133.715 277.823 133.485L285.243 132.108C287.666 131.648 289.803 130.89 292.368 130.625C293.288 130.192 294.341 130.144 295.249 129.995C296.307 129.852 297.227 129.419 298.135 129.27C299.347 129.04 300.408 128.803 301.466 128.66C301.62 128.572 302.074 128.497 302.232 128.315C302.549 127.95 303.007 127.781 303.607 127.808C304.206 127.834 304.814 127.672 305.422 127.509L308.308 126.785C308.462 126.697 308.766 126.616 308.916 126.622C309.374 126.453 309.245 125.974 309.986 126.196C310.577 126.412 310.752 125.851 311.206 125.777C312.405 125.83 313.326 125.397 314.387 125.16C315.449 124.923 316.515 124.591 317.731 124.267C318.339 124.104 319.101 123.854 319.859 123.698L321.833 123.217C322.587 123.156 323.211 122.615 324.106 122.75C325.002 122.884 325.485 122.148 326.376 122.376C327.592 122.052 328.949 121.922 330.165 121.597C331.231 121.266 332.301 120.84 333.509 120.704C334.433 120.176 335.787 120.142 337.003 119.817C337.611 119.654 338.219 119.492 338.677 119.323C340.509 118.646 342.333 118.159 344.452 117.779C344.906 117.705 345.36 117.63 345.527 117.259C345.839 116.988 346.147 116.813 346.738 117.028C346.888 117.035 347.346 116.866 347.65 116.784C348.866 116.459 349.941 115.939 351.157 115.614C351.764 115.451 352.518 115.39 352.539 114.918C352.543 114.823 352.851 114.647 353.151 114.661C354.65 114.727 355.729 114.112 356.953 113.598C358.481 113.003 360.005 112.502 361.538 111.812L363.374 111.042C364.753 110.44 366.273 110.034 367.064 109.122C367.372 108.946 367.676 108.865 368.13 108.79C368.58 108.81 368.883 108.729 369.046 108.452C369.213 108.081 369.97 107.925 370.578 107.762L371.499 107.33C372.573 106.809 373.498 106.282 374.422 105.755C375.501 105.14 376.425 104.612 377.499 104.092C377.803 104.01 377.962 103.828 378.12 103.646C378.436 103.281 379.198 103.031 379.515 102.666C379.69 102.106 380.589 102.145 381.06 101.693C382.159 100.605 383.996 99.8344 385.099 98.6523C385.887 97.835 387.706 97.4421 387.752 96.4026C387.756 96.3081 388.06 96.2269 388.215 96.139C388.523 95.9633 388.831 95.7876 388.835 95.6931C388.56 95.1128 389.464 95.0581 389.78 94.6934C390.097 94.3287 390.118 93.8562 390.88 93.6058C390.755 93.0322 391.517 92.7819 391.838 92.3227C392.158 91.8635 392.775 91.512 393.095 91.0528C393.416 90.5936 393.591 90.0332 393.908 89.6685C394.224 89.3038 394.245 88.8313 394.707 88.5677C395.015 88.392 395.174 88.2096 395.182 88.0206C395.22 87.1701 395.998 86.5418 396.482 85.8057C396.802 85.3465 397.277 84.7994 397.298 84.3269C397.344 83.2875 398.139 82.2812 398.485 81.255C398.839 80.0398 399.797 78.7566 399.406 77.4138C399.26 77.3127 399.414 77.2248 399.419 77.1303ZM346.261 110.853C345.49 111.292 344.278 111.523 343.508 111.962C342.583 112.489 341.667 112.827 340.605 113.064C340.451 113.152 339.998 113.227 339.839 113.409C337.682 114.639 335.096 115.377 332.506 116.209C331.744 116.46 330.828 116.798 330.353 117.345C330.037 117.71 329.429 117.872 328.679 117.839C328.379 117.826 327.78 117.799 327.622 117.982C326.547 118.502 325.04 118.625 324.111 119.247C322.904 119.383 321.979 119.91 320.763 120.235C319.547 120.56 318.036 120.777 316.957 121.392C316.649 121.568 316.195 121.642 315.891 121.723L314.375 122.035C313.767 122.198 313.151 122.549 312.547 122.617C310.736 122.821 309.066 123.221 307.255 123.424C304.69 123.69 302.112 124.239 299.543 124.598C297.882 124.809 296.216 125.114 294.704 125.331C293.343 125.555 291.989 125.59 290.765 126.104C290.307 126.273 289.866 126.064 289.412 126.139C286.993 126.505 284.573 126.871 282.158 127.143C279.743 127.415 277.332 127.593 275.067 127.871C273.859 128.007 272.502 128.136 271.29 128.367C270.836 128.442 270.382 128.516 269.933 128.496C268.134 128.417 266.472 128.627 264.952 129.033C264.345 129.196 263.757 128.886 263.299 129.055C261.48 129.448 259.527 129.456 257.57 129.559C255.613 129.662 253.801 129.866 251.844 129.969L248.234 130.093C247.181 130.141 246.127 130.189 245.069 130.332C244.162 130.481 243.121 130.246 242.355 130.59C242.35 130.685 242.2 130.678 242.051 130.672C241.451 130.645 240.71 130.423 239.956 130.484L238.145 130.688C235.892 130.683 233.777 130.968 231.678 130.876C231.378 130.862 231.074 130.944 230.92 131.032C230.441 131.673 229.709 131.262 228.963 131.134C227.918 130.993 226.869 130.947 225.815 130.995C223.858 131.098 221.772 130.722 219.948 131.209C219.644 131.29 219.349 131.183 219.049 131.169C217.1 131.083 215.147 131.091 213.186 131.289C212.432 131.35 211.683 131.317 210.783 131.277C210.338 131.163 209.884 131.237 209.43 131.312C208.98 131.292 208.676 131.373 208.227 131.353C207.186 131.118 206.141 130.977 205.083 131.12C204.175 131.269 202.984 131.027 201.923 131.264C201.623 131.251 201.319 131.332 201.023 131.224C200.582 131.015 200.132 130.995 199.674 131.165C199.22 131.239 198.621 131.213 198.175 131.098C197.879 130.99 197.43 130.971 196.976 131.045C196.068 131.194 195.177 130.966 194.419 131.122C193.516 131.176 192.62 131.042 191.721 131.002L188.423 130.856C187.374 130.81 186.333 130.575 185.271 130.812C184.38 130.583 183.327 130.631 182.423 130.686C181.669 130.747 180.778 130.518 180.02 130.674C179.412 130.837 178.68 130.425 177.922 130.581C177.468 130.656 176.727 130.434 176.277 130.414C176.127 130.407 175.981 130.306 175.832 130.299C175.082 130.266 174.316 130.611 173.575 130.389C172.983 130.173 172.388 130.052 171.784 130.12C170.277 130.243 169.094 129.812 167.729 130.13C167.574 130.218 167.429 130.117 167.279 130.111C165.201 129.545 163.09 129.736 160.996 129.549C159.351 129.381 157.689 129.592 156.049 129.33C153.663 128.94 151.265 128.834 148.866 128.728C147.817 128.682 146.759 128.824 145.718 128.589C145.123 128.468 144.511 128.725 144.061 128.705C143.461 128.679 143.174 128.382 142.729 128.267C141.837 128.039 141.088 128.005 140.334 128.067C139.281 128.115 138.536 127.987 137.636 127.947C136.737 127.908 135.854 127.49 134.792 127.727C134.488 127.808 134.193 127.701 133.893 127.687C132.394 127.621 131.057 127.278 129.55 127.401C128.796 127.462 128.042 127.523 127.46 127.119C127.022 126.815 126.273 126.782 125.819 126.857C124.761 126.999 123.72 126.764 122.825 126.63C121.78 126.489 120.739 126.253 119.69 126.207C118.041 126.134 116.388 126.156 114.756 125.705C112.948 125.814 111.029 125.067 109.068 125.264C108.914 125.352 108.618 125.244 108.322 125.136C107.286 124.806 106.091 124.659 104.887 124.7C103.384 124.728 101.898 124.379 100.557 124.13C99.366 123.888 98.1668 123.835 96.9718 123.687C95.9266 123.546 95.023 123.601 94.1362 123.278C93.8405 123.17 93.3909 123.15 93.0869 123.232C91.871 123.556 90.8384 123.132 89.9515 122.809C89.2145 122.492 88.6191 122.371 87.8654 122.433C86.6579 122.568 85.4837 121.948 84.272 122.179C84.1221 122.172 83.8223 122.159 83.8265 122.065C83.1104 121.275 81.7487 121.499 80.7078 121.264C80.2665 121.055 79.6669 121.028 79.0589 121.191C78.9048 121.279 78.6092 121.171 78.4635 121.07C78.0263 120.767 77.5808 120.652 76.9812 120.626C75.6321 120.566 74.5911 120.331 73.4003 120.089C72.8049 119.968 72.3635 119.759 71.7555 119.921C71.1476 120.084 70.7146 119.686 70.1234 119.47C69.3822 119.248 68.6452 118.931 67.5834 119.169C67.1421 118.96 66.5299 119.217 66.251 118.731C66.1011 118.724 65.9554 118.623 65.8055 118.617C64.9144 118.388 64.0192 118.253 62.9741 118.113C62.2288 117.985 61.496 117.574 60.5966 117.534C59.6972 117.494 58.652 117.353 57.7694 116.936C57.3322 116.632 56.7284 116.7 56.133 116.579C55.3877 116.452 54.634 116.513 54.0553 116.014C54.0553 116.014 53.9095 115.913 53.7596 115.906C52.4105 115.846 51.228 115.415 50.0456 114.984C49.4543 114.769 48.8547 114.742 48.4092 114.628C47.5181 114.399 46.6229 114.265 45.7277 114.131C45.3031 113.544 44.0913 113.774 43.5126 113.275C43.5168 113.181 43.3669 113.174 43.2212 113.073C41.7263 112.912 40.6938 112.488 39.5154 111.962C39.0741 111.753 38.4787 111.632 37.8874 111.417L34.9145 110.717C34.6189 110.61 34.3233 110.502 34.1817 110.306C33.7445 110.003 33.1491 109.882 32.5537 109.761C31.3628 109.519 30.0305 109.081 29.002 108.562C27.9736 108.043 26.7911 107.612 25.7586 107.188C25.1673 106.972 24.5802 106.662 24.2972 106.271C24.1556 106.076 23.8558 106.062 23.5518 106.144L22.9564 106.023C22.3694 105.713 22.0863 105.321 21.9531 104.937C21.8157 104.647 21.8283 104.363 21.3911 104.06C19.7881 102.947 19.2512 101.503 18.5602 100.147C18.2855 99.5671 18.3106 99.0001 17.7319 98.5011C17.582 98.4945 17.7444 98.2176 17.7486 98.1231C17.7778 97.4617 17.957 96.8068 17.6865 96.1321C17.4159 95.4573 17.5951 94.8025 17.6201 94.2355L17.7664 90.9282C17.7873 90.4557 17.9581 89.9899 18.1289 89.524C18.2997 89.0581 18.7661 88.7 18.4872 88.2143C19.5867 87.1268 19.4911 85.8917 20.5905 84.8042C21.0611 84.3516 21.2361 83.7912 21.561 83.2375C21.8859 82.6838 22.0608 82.1234 22.8312 81.6841L23.306 81.137C23.4894 80.3877 24.114 79.8472 24.7429 79.2123C25.3676 78.6718 25.5509 77.9225 26.4712 77.4898C26.3505 76.8217 27.4082 76.6791 27.7331 76.1254C28.058 75.5716 28.3787 75.1124 28.9992 74.6665C29.7779 74.0381 30.5609 73.3153 31.4895 72.6936C32.11 72.2477 32.7347 71.7072 33.3594 71.1667C34.2964 70.3561 35.3791 69.6465 36.466 68.8424C37.5571 67.9439 38.7898 67.241 40.1807 66.3557C41.4175 65.5582 42.5128 64.5652 43.8995 63.7744C44.0536 63.6865 44.2118 63.5042 44.3617 63.5108C46.1898 62.9289 47.1393 61.8347 48.5261 61.0439L51.4494 59.4689C52.2156 59.1241 52.8319 58.7726 53.6023 58.3333C53.7564 58.2454 53.9147 58.0631 53.7689 57.9619C53.4775 57.7597 53.7815 57.6785 54.0855 57.5972C54.5352 57.6171 54.8433 57.4414 55.0016 57.259C55.3139 56.9888 55.6263 56.7186 56.2175 56.9341C56.9837 56.5892 57.8957 56.3455 58.512 55.9941C60.6691 54.7639 63.2676 53.7427 65.7161 52.7148C66.7863 52.2887 67.8607 51.7681 68.9351 51.2476C69.7013 50.9027 70.4675 50.5579 71.2296 50.3076C71.6835 50.233 71.9916 50.0572 72.304 49.787C73.2243 49.3543 74.436 49.1238 75.0649 48.4889C75.9643 48.5287 76.5764 48.2717 77.1927 47.9202C77.809 47.5688 78.5627 47.5074 79.3248 47.2571C80.9987 46.763 82.6769 46.1745 84.201 45.6738C85.4211 45.2543 86.4913 44.8283 87.7072 44.5033C88.0112 44.4221 88.3193 44.2464 88.3277 44.0574C88.4901 43.7805 88.6359 43.8816 89.0856 43.9015C89.8351 43.9347 90.3015 43.5766 90.9095 43.4141C91.2134 43.3329 91.0677 43.2317 91.0761 43.0427C90.9345 42.8471 90.9429 42.6581 90.9512 42.4691C90.9554 42.3746 91.1053 42.3813 91.2594 42.2934C91.4093 42.3 91.7091 42.3133 91.7049 42.4078C92.2836 42.9068 92.8832 42.9333 93.6453 42.683C95.3193 42.1889 96.9849 41.8838 98.3674 41.1875C99.1336 40.8427 100.041 40.6935 100.953 40.4498C101.865 40.2061 102.769 40.1514 103.539 39.712C103.698 39.5297 104.002 39.4484 104.301 39.4617C105.65 39.5213 106.871 39.1019 107.937 38.7703C109.307 38.3575 110.818 38.1403 112.188 37.7275L113.558 37.3147C113.87 37.0445 114.328 36.8754 114.924 36.9964C115.07 37.0975 115.22 37.1041 115.224 37.0096C116.448 36.4957 118.097 36.5686 119.467 36.1558C120.837 35.743 122.353 35.4313 123.718 35.113L128.416 34.1845C130.081 33.8795 131.751 33.4799 133.575 32.9925C133.879 32.9113 134.033 32.8234 134.333 32.8367C135.082 32.8698 135.549 32.5117 135.865 32.147C136.019 32.0591 136.169 32.0657 136.315 32.1669C136.452 32.457 136.91 32.2879 137.21 32.3011C137.96 32.3343 138.426 31.9762 139.034 31.8137C139.775 32.0359 140.237 31.7723 140.841 31.7043C141.445 31.6363 142.057 31.3793 142.661 31.3113C143.265 31.2434 143.718 31.1688 144.326 31.0063C144.63 30.9251 145.08 30.9449 145.384 30.8637C146.904 30.4575 148.116 30.2271 149.623 30.1044C151.884 29.9203 153.862 29.345 156.127 29.0665C158.243 28.7813 160.358 28.4961 162.482 28.022C163.24 27.8661 164.143 27.8114 165.051 27.6622C165.655 27.5942 166.117 27.3306 166.721 27.2627L168.682 27.0653C169.286 26.9974 169.894 26.8349 170.493 26.8614C171.243 26.8946 171.268 26.3276 172.009 26.5497C172.455 26.6641 172.913 26.495 173.367 26.4204L175.028 26.2098C175.482 26.1352 175.644 25.8584 175.948 25.7771C176.252 25.6959 176.544 25.8981 176.843 25.9114C177.143 25.9247 177.443 25.9379 177.597 25.85C178.368 25.4107 179.267 25.4505 180.166 25.4903C180.766 25.5168 181.37 25.4488 181.978 25.2863C183.489 25.0691 184.855 24.7508 186.354 24.8171C186.504 24.8237 186.804 24.837 186.958 24.7491C188.19 24.0462 189.831 24.3081 191.188 24.1788C194.357 23.8455 197.522 23.6068 200.695 23.179C202.96 22.9005 205.08 22.5208 207.328 22.6202L207.778 22.6401C208.69 22.3964 209.439 22.4296 210.343 22.3748C211.097 22.3135 212 22.2588 212.75 22.2919C213.199 22.3118 213.508 22.1361 213.816 21.9603C213.97 21.8725 214.274 21.7912 214.424 21.7979L215.173 21.831C216.222 21.8774 217.413 22.1195 218.342 21.4978C219.079 21.8144 219.55 21.3618 220.153 21.2938C220.607 21.2192 221.194 21.5292 221.657 21.2656C223.289 21.7165 224.663 21.2092 226.162 21.2755C226.761 21.302 227.369 21.1396 227.823 21.0649C228.123 21.0782 228.277 20.9903 228.435 20.808C228.91 20.2609 228.906 20.3554 229.502 20.4764C229.947 20.5908 230.238 20.793 230.688 20.8129C231.134 20.9273 231.733 20.9538 232.333 20.9803C232.932 21.0069 233.262 20.3586 234.153 20.5874C234.598 20.7018 235.194 20.8228 235.793 20.8493C235.943 20.856 236.247 20.7747 236.547 20.788C236.405 20.5924 236.409 20.4979 236.418 20.3089C236.276 20.1132 236.584 19.9375 236.888 19.8563C237.188 19.8695 237.18 20.0585 237.176 20.153C237.317 20.3486 237.463 20.4498 237.609 20.5509C237.609 20.5509 237.754 20.652 237.759 20.5575C238.058 20.5708 238.358 20.584 238.512 20.4962C238.837 19.9425 240.003 20.7515 240.186 20.0021C241.51 20.6288 242.868 20.4994 244.371 20.4712C244.225 20.3701 244.225 20.3701 244.075 20.3635C244.079 20.269 243.934 20.1679 243.784 20.1612C243.938 20.0734 243.938 20.0734 244.088 20.08C244.538 20.0999 245.129 20.3154 245.728 20.3419C245.878 20.3485 246.182 20.2673 246.336 20.1794C246.49 20.0916 246.495 19.9971 246.653 19.8147L246.503 19.8081L246.507 19.7136C245.912 19.5926 245.62 19.3903 245.179 19.1814C245.029 19.1748 244.892 18.8847 244.588 18.9659C243.826 19.2163 242.935 18.9875 242.01 19.5147C241.702 19.6904 241.107 19.5694 240.653 19.644C239.47 19.213 238.425 19.0721 237.063 19.2959C236.61 19.3705 236.01 19.344 235.41 19.3175C233.911 19.2512 232.396 19.5629 230.897 19.4966C230.747 19.49 230.747 19.49 230.593 19.5778C230.276 19.9426 229.98 19.8348 229.693 19.5381C228.028 19.8431 226.395 19.3922 224.875 19.7984C224.571 19.8796 224.126 19.7653 223.826 19.752C223.526 19.7387 223.077 19.7189 222.623 19.7935C221.261 20.0173 219.762 19.951 218.405 20.0803C216.294 20.271 214.178 20.5562 212.229 20.47C211.78 20.4501 211.48 20.4368 211.176 20.5181C210.422 20.5794 209.66 20.8298 208.907 20.8911C208.003 20.9458 207.253 20.9127 206.5 20.974C204.089 21.1515 201.819 21.5245 199.421 21.4184C198.368 21.4665 197.614 21.5279 196.706 21.6771L194.587 22.0567C194.112 22.6038 193.387 22.0037 192.63 22.1595C191.418 22.39 190.06 22.5193 188.703 22.6487C187.345 22.778 186.134 23.0084 184.785 22.9488C184.181 23.0167 183.71 23.4693 182.815 23.3351C182.22 23.2141 181.462 23.3699 180.708 23.4313L178.747 23.6286L176.636 23.8192C173.608 24.3481 170.302 24.3913 167.267 25.1091C165.901 25.4275 164.239 25.638 162.882 25.7673L161.22 25.9779C155.782 26.6842 150.631 27.6873 145.33 28.6837C142.453 29.2192 139.58 29.6602 136.553 30.1891C135.645 30.3383 134.733 30.582 133.671 30.8191C132.609 31.0562 131.697 31.2999 130.789 31.4491L129.428 31.6729L123.369 32.8252C123.215 32.913 122.915 32.8998 122.757 33.0822C122.445 33.3524 122.136 33.5281 121.545 33.3126C121.25 33.2049 120.941 33.3806 120.642 33.3673C119.742 33.3276 119.267 33.8746 118.655 34.1316C117.764 33.9028 117.152 34.1598 116.544 34.3223C115.786 34.4781 115.024 34.7285 114.266 34.8843C114.112 34.9722 113.808 35.0534 113.5 35.2292C113.196 35.3104 112.884 35.5806 112.58 35.6619C112.28 35.6486 111.984 35.5408 111.685 35.5276C110.935 35.4944 110.473 35.758 109.861 36.015C109.249 36.272 108.487 36.5223 107.587 36.4825C107.287 36.4693 106.829 36.6384 106.525 36.7196C104.701 37.207 102.886 37.5055 101.204 38.1885C100.133 38.6146 98.9216 38.845 97.7099 39.0755C96.3482 39.2993 95.278 39.7254 93.9122 40.0437C93.0003 40.2874 92.2299 40.7267 91.1722 40.8693C90.8724 40.8561 90.7141 41.0384 90.4101 41.1197C89.4982 41.3634 88.8693 41.9983 87.8242 41.8574C86.7582 42.189 85.6964 42.4261 84.6262 42.8522C83.2478 43.454 81.7279 43.8602 80.3579 44.273C79.2919 44.6046 78.3674 45.1318 77.1515 45.4567C76.0896 45.6938 75.0194 46.1199 73.9534 46.4514C72.2794 46.9455 71.1925 47.7495 69.6642 48.3447C69.0521 48.6017 68.1527 48.5619 67.6821 49.0145C67.0658 49.366 66.3079 49.5218 65.6916 49.8733C62.9391 50.9824 60.1907 51.997 57.7254 53.4029C55.8974 53.9848 54.6522 54.9712 52.9698 55.6543C51.4416 56.2494 50.3547 57.0535 48.8139 57.9322L48.3516 58.1958C43.5752 60.9196 42.2093 61.2379 38.6321 64.0148C38.1656 64.3729 37.3994 64.7178 36.7789 65.1637C36.1542 65.7042 35.0882 66.0358 34.6093 66.6773C34.451 66.8597 34.2886 67.1366 34.1345 67.2244C32.4396 68.191 31.3443 69.184 30.0992 70.1704C29.3204 70.7988 28.3917 71.4205 27.6088 72.1433C26.8301 72.7716 26.1928 73.5955 25.2642 74.2172C25.1059 74.3996 24.9477 74.582 24.7936 74.6698C24.0232 75.1092 23.7025 75.5684 23.3776 76.1221C23.2152 76.399 23.2026 76.6825 22.8903 76.9527C21.1996 77.8247 20.5457 79.0266 19.7418 80.2219C19.4295 80.4922 19.4128 80.8702 19.1046 81.0459C18.3342 81.4852 18.3091 82.0522 17.9884 82.5114C17.6636 83.0651 17.3429 83.5243 17.1679 84.0847L16.6722 85.1043C16.5098 85.3811 16.3473 85.658 16.035 85.9282C15.8684 86.2996 16.4513 86.7041 15.835 87.0555C15.3727 87.3191 15.6558 87.7104 15.3435 87.9806C15.0269 88.3453 15.0061 88.8178 14.8394 89.1892C14.4978 90.1208 14.4602 90.9713 13.9729 91.8019C14.3975 92.3888 13.9228 92.9358 13.8977 93.5028C13.5561 94.4345 13.3561 95.5618 14.0638 96.54C14.3468 96.9312 14.48 97.3158 14.4633 97.6938C14.4466 98.0718 15.0337 98.3818 14.7171 98.7465C14.3964 99.2057 15.2917 99.34 15.4249 99.7246L15.8161 101.067C15.9576 101.263 16.095 101.553 15.6453 101.533C15.4954 101.527 15.0457 101.507 14.75 101.399C14.6001 101.392 14.4544 101.291 14.4586 101.197C13.0097 99.9965 11.4068 98.8841 10.2619 97.6027C9.11704 96.3212 7.67236 95.0264 7.13962 93.488C6.14047 92.3076 6.20315 90.8902 5.50798 89.6286L5.52887 89.1561C5.55395 88.5891 5.7331 87.9343 5.60828 87.3607C5.48763 86.6926 6.11231 86.1521 5.68768 85.5653C6.32072 84.8358 6.20007 84.1677 6.3834 83.4184C6.56256 82.7635 7.03734 82.2165 7.36639 81.5683L7.8537 80.7377C8.03286 80.0828 8.80744 79.549 8.68679 78.8809C9.30729 78.4349 9.63634 77.7867 9.96122 77.233C10.2819 76.7738 10.8982 76.4223 11.373 75.8752C12.485 74.5042 13.7511 73.0453 15.3086 71.7887C15.95 70.8702 17.3242 70.3629 17.8157 69.4378C18.7443 68.8161 19.5273 68.0933 20.4559 67.4716C20.9223 67.1135 21.5386 66.7621 22.0092 66.3095C22.7922 65.5867 24.0165 65.0727 24.9493 64.3565C26.3486 63.2822 27.8894 62.4036 29.4302 61.5249C29.5842 61.437 29.7425 61.2547 30.0423 61.2679C31.1125 60.8419 31.7372 60.3014 32.6617 59.7742C33.1239 59.5106 33.7319 59.3481 33.8943 59.0713C34.2066 58.8011 34.3649 58.6187 34.9729 58.4562C35.8848 58.2125 36.8009 57.8743 37.4256 57.3338C38.3501 56.8066 39.566 56.4817 40.4905 55.9545C42.3394 54.9001 44.1717 54.2237 46.3079 53.466C46.766 53.2969 47.224 53.1278 47.8403 52.7764C48.3026 52.5128 48.9147 52.2558 49.5269 51.9988C50.9052 51.397 52.4335 50.8018 53.9617 50.2067L55.3359 49.6993C56.556 49.2799 57.7719 48.955 58.8505 48.3399C59.0046 48.252 59.1587 48.1642 59.4626 48.0829C61.5905 47.5143 63.5852 46.561 65.713 45.9923C68.1449 45.3424 70.4436 44.3079 72.8754 43.658C73.4834 43.4955 73.9372 43.4209 74.3995 43.1573C74.7076 42.9816 75.1657 42.8125 75.6238 42.6434C77.2894 42.3383 78.6761 41.5475 80.4833 41.4381C81.2369 41.3768 81.566 40.7285 82.4696 40.6738C83.2233 40.6125 83.6855 40.3489 84.3018 39.9974C84.7641 39.7338 85.218 39.6592 85.8217 39.5912C88.5408 39.2381 91.1268 38.5003 93.567 37.6614C94.329 37.4111 95.2326 37.3564 95.7074 36.8093C95.7116 36.7148 96.0072 36.8225 96.1571 36.8292C96.307 36.8358 96.7567 36.8557 96.7609 36.7612C97.8394 36.1461 99.1969 36.0168 100.559 35.793C102.07 35.5758 103.29 35.1563 104.677 34.3655C104.831 34.2777 105.131 34.2909 105.281 34.2976C105.585 34.2163 106.026 34.4252 106.18 34.3373C107.259 33.7223 108.741 34.1665 109.819 33.5515C110.128 33.3757 110.432 33.2945 110.736 33.2133C111.189 33.1387 111.793 33.0707 112.101 32.895C112.564 32.6314 112.722 32.449 113.005 32.8402C113.159 32.7524 113.313 32.6645 113.317 32.57C113.621 32.4888 113.929 32.313 114.079 32.3197C115.279 32.3727 116.345 32.0411 117.406 31.804C119.834 31.2486 122.258 30.7877 124.681 30.3268C125.893 30.0964 127.105 29.8659 128.171 29.5343C128.475 29.4531 128.924 29.473 129.228 29.3918C129.986 29.2359 130.89 29.1812 131.648 29.0254C133.467 28.6324 135.437 28.2461 137.252 27.9477C138.614 27.7239 139.98 27.4056 141.342 27.1817C142.853 26.9645 144.219 26.6462 145.73 26.429C147.092 26.2052 148.458 25.8869 149.824 25.5686C149.974 25.5752 150.128 25.4873 150.278 25.494C152.976 25.6133 155.57 24.6865 158.293 24.2389C160.259 23.9471 162.224 23.6553 164.335 23.4646L166.771 22.7202C167.084 22.45 167.384 22.4633 167.363 22.9357C167.363 22.9357 167.658 23.0435 167.662 22.949C169.174 22.7318 170.831 22.6157 172.347 22.304C173.559 22.0736 174.92 21.8498 176.12 21.9028C176.719 21.9293 176.894 21.369 177.635 21.5911C178.081 21.7055 178.389 21.5298 178.851 21.2662C179.005 21.1783 179.305 21.1916 179.605 21.2048C181.554 21.291 183.061 21.1683 184.735 20.6742C185.039 20.593 185.489 20.6129 185.788 20.6262C187.437 20.6991 188.953 20.3874 190.61 20.2713C190.935 19.7176 191.959 20.331 192.284 19.7773L192.734 19.7972C193.925 20.0392 195.132 19.9032 196.34 19.7673C198.301 19.57 200.113 19.366 202.065 19.3577C202.519 19.2831 202.965 19.3975 203.269 19.3163C204.485 18.9913 205.53 19.1322 206.588 18.9896C207.949 18.7658 209.294 18.92 210.652 18.7906C211.405 18.7293 212.151 18.8569 212.767 18.5055C212.917 18.5121 213.071 18.4242 213.217 18.5253C213.958 18.7475 214.72 18.4971 215.623 18.4424C216.827 18.401 218.176 18.4606 219.388 18.2302C220.749 18.0064 221.94 18.2484 223.293 18.2135C224.647 18.1787 226.146 18.245 227.512 17.9267C227.666 17.8388 227.816 17.8455 227.961 17.9466C229.752 18.2151 231.559 18.1057 233.216 17.9896C233.97 17.9283 234.715 18.0559 235.469 17.9946C236.372 17.9398 237.418 18.0807 238.321 18.026C238.929 17.8636 239.674 17.9912 240.274 18.0177C241.323 18.0641 242.373 18.1105 243.426 18.0624C244.48 18.0143 245.533 17.9663 246.574 18.2017C247.02 18.316 247.478 18.1469 248.077 18.1735C248.231 18.0856 248.535 18.0043 248.681 18.1055C250.013 18.5431 251.529 18.2314 252.878 18.2911C254.077 18.3441 255.268 18.5862 256.609 18.8348C256.447 19.1117 256.151 19.0039 255.851 18.9907C255.252 18.9641 254.498 19.0255 253.753 18.8978C252.857 18.7636 251.945 19.0073 251.038 19.1565C250.28 19.3123 249.526 19.3737 248.789 19.0571C248.639 19.0504 248.189 19.0305 248.035 19.1184C247.573 19.382 247.136 19.0786 246.69 18.9643C246.391 18.951 246.237 19.0389 246.378 19.2345C246.37 19.4235 246.511 19.6191 246.507 19.7136C246.503 19.8081 246.653 19.8147 246.653 19.8147L246.944 20.017C247.086 20.2126 247.227 20.4082 247.681 20.3336C249.043 20.1098 250.542 20.1761 251.887 20.3302C252.782 20.4645 253.69 20.3153 254.456 19.9704C255.068 19.7135 256.113 19.8544 256.859 19.982C257.754 20.1163 258.653 20.1561 259.411 20.0002C260.623 19.7698 261.664 20.0052 262.713 20.0516C262.863 20.0582 263.013 20.0648 263.167 19.977C263.317 19.9836 263.317 19.9836 263.321 19.8891C263.475 19.8012 263.479 19.7067 263.329 19.7001C263.034 19.5924 262.734 19.5791 262.588 19.478C262.438 19.4713 262.443 19.3768 262.597 19.289C262.601 19.1945 262.601 19.1945 262.751 19.2011C263.5 19.2343 264.55 19.2807 265.132 19.6852C265.724 19.9007 265.869 20.0018 266.336 19.6437C266.648 19.3735 267.402 19.3121 267.839 19.6155C267.985 19.7166 267.826 19.899 267.822 19.9935L268.572 20.0266C269.038 19.6685 269.638 19.6951 270.233 19.8161C270.679 19.9305 271.278 19.957 271.728 19.9769C273.527 20.0564 275.313 20.4195 277.12 20.31C278.174 20.2619 279.506 20.6996 280.705 20.7526C281.155 20.7725 281.751 20.8935 282.35 20.92C284.749 21.0261 287.284 21.4223 289.824 21.724C292.064 22.0124 294.454 22.3075 296.686 22.7849C297.881 22.9324 299.085 22.891 300.267 23.322C301.329 23.0849 302.362 23.5093 303.403 23.7447C304.889 24.0945 306.384 24.2553 307.87 24.605C309.061 24.8471 310.248 25.1836 311.451 25.1421C312.505 25.094 313.537 25.5184 314.424 25.8417C315.015 26.0572 315.607 26.2727 316.202 26.3937C317.689 26.7435 319.337 26.8164 320.816 27.3552C321.111 27.463 321.407 27.5707 321.707 27.584L322.593 27.9072C323.48 28.2305 324.384 28.1758 325.421 28.5057C326.166 28.6333 326.895 29.139 327.79 29.2732C328.385 29.3942 328.977 29.6097 329.572 29.7308C330.467 29.865 331.341 30.4718 332.403 30.2347C333.145 30.4568 333.881 30.7735 334.772 31.0022C335.514 31.2244 336.105 31.4399 336.996 31.6687C337.887 31.8974 338.32 32.2953 339.053 32.7064C339.786 33.1176 340.697 32.8739 341.58 33.2916C342.309 33.7972 343.645 34.1404 344.678 34.5648C344.828 34.5714 345.128 34.5847 345.282 34.4968C345.736 34.4222 346.035 34.4354 346.177 34.6311C346.747 35.3191 347.48 35.7302 348.667 36.0667C349.112 36.1811 349.549 36.4845 349.845 36.5922C350.732 36.9155 351.61 37.4277 352.81 37.4808C353.409 37.5073 354 37.7228 354.288 38.0196C354.862 38.6131 355.899 38.9429 356.782 39.3607C357.664 39.7785 358.239 40.372 359.272 40.7963C360.008 41.113 360.745 41.4296 361.328 41.8341C362.065 42.1507 363.26 42.2983 363.227 43.0542C363.818 43.2698 364.251 43.6676 364.847 43.7886C365.742 43.9229 366.179 44.2263 366.612 44.6242C367.332 45.3188 368.515 45.7498 369.081 46.5323C369.222 46.7279 369.364 46.9235 369.66 47.0313C371.288 47.5767 372.145 48.5614 373.311 49.3704C374.331 50.0783 375.047 50.8674 375.917 51.5687C376.35 51.9665 376.625 52.5468 377.216 52.7623C377.512 52.87 377.653 53.0656 377.795 53.2613C378.078 53.6525 378.807 54.1581 379.235 54.6505C379.664 55.1429 380.093 55.6352 380.672 56.1342C381.105 56.5321 381.688 56.9366 381.663 57.5036C382.395 57.9147 382.362 58.6707 382.941 59.1697C383.519 59.6687 383.64 60.3368 384.069 60.8291C385.068 62.0095 385.309 63.3457 386.158 64.5194C386.304 64.6206 386.446 64.8162 386.442 64.9107C386.387 66.1391 387.545 67.1371 387.494 68.2711C387.486 68.4601 387.778 68.6623 387.769 68.8513C387.736 69.6073 387.707 70.2687 388.127 70.9501C388.119 71.1391 388.26 71.3347 388.106 71.4226C387.336 71.8619 388.064 72.3675 388.043 72.84C387.877 73.2114 388.306 73.7037 387.989 74.0685C387.673 74.4332 387.956 74.8244 387.939 75.2024C387.931 75.3914 387.772 75.5738 387.76 75.8573L386.773 77.8019C386.614 77.9843 386.456 78.1666 386.598 78.3622C386.881 78.7535 386.722 78.9358 386.406 79.3006C386.089 79.6653 385.923 80.0366 385.752 80.5025C385.581 80.9683 385.706 81.5419 384.94 81.8868C384.782 82.0691 384.769 82.3526 384.607 82.6295C384.282 83.1832 383.953 83.8314 383.923 84.4929C383.153 84.9322 383.124 85.5937 382.649 86.1408C382.17 86.7824 381.991 87.4372 380.921 87.8633C380.263 89.1597 378.418 90.1196 377.901 91.6117C377.58 92.0709 377.256 92.6246 376.489 92.9694C376.036 93.044 376.023 93.3275 375.861 93.6044C375.852 93.7934 375.698 93.8812 375.39 94.057C374.628 94.3073 374.161 94.6654 373.691 95.118C372.754 95.9287 371.517 96.7261 370.434 97.4357C368.423 98.7669 366.707 100.206 364.7 101.443C364.088 101.7 363.767 102.159 363.159 102.321C362.551 102.484 362.085 102.842 361.768 103.207C361.452 103.571 360.835 103.923 359.928 104.072C359.774 104.16 359.624 104.153 359.619 104.248C358.37 105.329 356.396 105.81 355.01 106.6C353.623 107.391 352.09 108.081 350.55 108.959C350.396 109.047 350.087 109.223 349.783 109.304C348.568 109.629 347.339 110.238 346.261 110.853ZM280.072 130.175C279.763 130.351 279.605 130.534 279.155 130.514C277.357 130.434 275.683 130.928 274.163 131.334C271.885 131.896 269.624 132.08 267.355 132.453C266.901 132.528 266.451 132.508 265.989 132.772C265.681 132.948 265.381 132.934 264.927 133.009C264.177 132.976 263.424 133.037 262.816 133.2C261.142 133.694 259.185 133.796 257.373 134C257.219 134.088 256.919 134.075 256.77 134.068C254.371 133.962 251.939 134.612 249.67 134.985C248.004 135.29 246.505 135.224 244.844 135.435L241.371 135.849C239.56 136.053 237.607 136.061 235.791 136.36C234.883 136.509 233.688 136.361 232.918 136.801C232.914 136.895 232.764 136.889 232.764 136.889C230.674 136.607 228.841 137.283 226.743 137.19C226.443 137.177 225.989 137.252 225.535 137.326C224.628 137.476 223.724 137.53 222.67 137.578C221.317 137.613 219.814 137.641 218.452 137.865C216.941 138.082 215.433 138.205 213.785 138.132C213.335 138.112 212.885 138.092 212.431 138.167C210.92 138.384 209.412 138.507 207.763 138.434C206.714 138.388 205.507 138.524 204.449 138.666C203.849 138.64 203.541 138.815 203.524 139.193C203.52 139.288 203.216 139.369 203.22 139.275C201.751 138.547 200.389 138.771 198.732 138.887C197.828 138.941 196.929 138.902 195.88 138.855C194.231 138.782 192.565 139.087 190.766 139.008C189.117 138.935 187.614 138.963 185.957 139.079C185.053 139.134 184 139.182 183.234 139.527C182.621 139.784 182.634 139.5 182.497 139.21C182.505 139.021 182.209 138.913 182.055 139.001C180.998 139.144 179.965 138.719 178.899 139.051C177.854 138.91 176.938 139.248 175.888 139.202C175.439 139.182 175.131 139.358 174.822 139.534C174.518 139.615 174.518 139.615 173.931 139.305C173.781 139.298 173.786 139.204 173.636 139.197C172.586 139.151 171.687 139.111 170.642 138.97C169.747 138.836 168.843 138.89 167.794 138.844C167.198 138.723 166.595 138.791 165.978 139.142C165.67 139.318 165.529 139.123 165.237 138.92C165.091 138.819 164.646 138.705 164.342 138.786C163.584 138.942 162.839 138.814 162.089 138.781C159.991 138.688 158.059 138.224 156.097 138.421C155.494 138.489 154.752 138.267 154.153 138.241L148.307 137.982C147.407 137.942 146.35 138.085 145.463 137.762C145.167 137.654 145.017 137.647 144.713 137.729C144.114 137.702 143.651 137.966 143.056 137.845C142.61 137.73 142.011 137.704 141.411 137.677C139.479 137.213 137.376 137.215 135.428 137.129C134.229 137.075 133.033 136.928 131.843 136.686C130.802 136.451 129.748 136.499 128.699 136.452C128.249 136.432 127.795 136.507 127.5 136.399C126.763 136.083 126.151 136.34 125.405 136.212C123.469 135.842 121.529 135.567 119.73 135.487C119.13 135.461 118.531 135.434 117.939 135.219C117.939 135.219 117.644 135.111 117.494 135.105C116.132 135.328 114.642 135.073 113.309 134.635C112.568 134.413 111.956 134.67 111.198 134.826C110.744 134.901 110.295 134.881 110.161 134.496C109.87 134.294 109.574 134.186 109.125 134.166C107.476 134.093 105.831 133.926 104.353 133.387C104.057 133.279 103.753 133.361 103.453 133.347C103 133.422 102.7 133.409 102.554 133.308C101.825 132.802 101.076 132.769 100.172 132.824C99.4187 132.885 98.6901 132.379 97.7865 132.434C95.8294 132.537 93.9016 131.978 91.9738 131.42C90.7871 131.083 89.438 131.023 88.2472 130.781C87.0563 130.539 86.0279 130.02 84.8329 129.873C83.9377 129.739 83.0466 129.51 82.1472 129.47C81.2478 129.43 80.5234 128.83 79.7697 128.892C78.8661 128.946 77.9792 128.623 77.0798 128.583C77.0798 128.583 76.9299 128.577 76.9341 128.482C75.6184 127.666 73.9695 127.594 72.4831 127.244C71.8876 127.123 71.4379 127.103 71.0008 126.799C70.7093 126.597 70.4137 126.489 70.1097 126.571C69.3477 126.821 68.9063 126.612 68.3151 126.397C67.2825 125.972 66.2499 125.548 65.2048 125.407C64.0098 125.259 62.9897 124.552 61.7905 124.499C60.608 124.067 59.2756 123.63 58.243 123.205C57.5061 122.889 57.0689 122.585 56.3236 122.458C55.5783 122.33 55.1536 121.743 54.2459 121.893C53.792 121.967 53.2049 121.657 52.9177 121.36C52.6346 120.969 51.8892 120.841 51.1397 120.808C50.9898 120.802 50.8399 120.795 50.6942 120.694C50.2571 120.391 49.8157 120.182 49.3702 120.067C48.9288 119.858 48.475 119.933 48.0378 119.63C47.6006 119.326 47.1676 118.928 46.2599 119.078C46.11 119.071 45.9643 118.97 45.8144 118.963C45.6895 118.39 44.9442 118.262 44.2031 118.04C43.616 117.73 42.879 117.413 42.1379 117.191C40.6556 116.747 39.6523 115.661 37.8618 115.392L34.7849 113.647C34.3436 113.438 34.048 113.33 33.7565 113.128C33.6108 113.027 33.615 112.932 33.7649 112.939C33.919 112.851 34.0689 112.858 34.2188 112.864C35.1098 113.093 36.0009 113.322 36.8877 113.645C37.6247 113.962 38.6782 113.914 39.2569 114.413C39.5525 114.52 39.8481 114.628 40.1479 114.641C40.8974 114.675 41.6386 114.897 42.2256 115.207C42.3672 115.402 42.8169 115.422 43.1167 115.435C44.3075 115.677 45.49 116.108 46.8391 116.168C47.4387 116.195 47.7135 116.775 48.3173 116.707C48.921 116.639 49.0626 116.835 49.4997 117.138C49.7912 117.34 50.0868 117.448 50.5323 117.562C51.1319 117.589 51.5733 117.798 52.0146 118.007C52.6059 118.222 53.3512 118.35 53.8051 118.275C54.4089 118.207 54.8544 118.322 55.1458 118.524C55.583 118.827 56.1784 118.948 56.7696 119.164C58.1104 119.412 59.4553 119.567 60.7877 120.004C61.379 120.22 62.1368 120.064 62.7239 120.374C63.4609 120.69 64.2145 120.629 64.9599 120.757C65.5553 120.878 66.2964 121.1 67.0543 120.944C67.5082 120.869 67.9495 121.078 68.395 121.193C69.132 121.509 69.8732 121.732 70.6143 121.954C71.0598 122.068 71.5053 122.182 71.9551 122.202L75.3902 122.638C75.3861 122.733 75.5401 122.645 75.536 122.739C76.2813 122.867 76.8642 123.272 77.6137 123.305C78.3632 123.338 78.9586 123.459 79.7039 123.586C80.4492 123.714 81.0447 123.835 81.7858 124.057C82.0856 124.071 82.5311 124.185 82.9808 124.205C83.7303 124.238 84.6381 124.089 85.3667 124.594C86.2661 124.634 87.3112 124.775 88.2106 124.815C89.26 124.861 90.3051 125.002 91.346 125.238C92.5369 125.48 94.0275 125.735 95.3724 125.889C96.5675 126.037 97.7625 126.184 98.9617 126.237C99.2615 126.25 99.5613 126.264 99.8569 126.371C100.448 126.587 100.898 126.607 101.497 126.633C102.847 126.693 104.196 126.753 105.528 127.19C105.824 127.298 106.124 127.311 106.427 127.23C106.881 127.155 107.181 127.169 107.627 127.283C107.922 127.391 108.368 127.505 108.818 127.525C109.867 127.572 110.92 127.523 111.961 127.759C112.852 127.988 113.906 127.939 114.793 128.263C115.396 128.195 116.129 128.606 116.891 128.356C117.195 128.274 117.641 128.389 118.086 128.503C119.273 128.84 120.464 129.082 121.821 128.952C123.907 129.329 126.019 129.138 128.105 129.514C129.445 129.763 130.79 129.917 132.148 129.788C132.901 129.726 133.501 129.753 134.092 129.968C135.275 130.399 136.632 130.27 137.981 130.33C138.731 130.363 139.48 130.396 140.226 130.524C141.121 130.658 141.866 130.786 142.77 130.731C143.528 130.575 144.423 130.709 145.168 130.837C146.213 130.978 147.408 131.125 148.458 131.172L149.957 131.238C150.552 131.359 150.998 131.473 151.606 131.311C152.359 131.25 153.109 131.283 153.854 131.41C155.495 131.672 157.156 131.462 158.788 131.913C159.234 132.027 160 131.682 160.446 131.797C161.632 132.133 162.836 132.092 164.035 132.145C166.433 132.251 168.827 132.451 171.076 132.551C173.175 132.644 175.427 132.649 177.526 132.741C178.125 132.768 178.729 132.7 179.329 132.726C179.928 132.753 180.524 132.874 181.123 132.901C181.715 133.116 182.318 133.048 182.918 133.075C183.967 133.121 185.033 132.789 186.07 133.119C186.366 133.227 186.816 133.247 187.269 133.172C187.873 133.104 188.477 133.036 189.072 133.157C189.518 133.272 189.693 132.711 189.984 132.914C190.713 133.419 191.467 133.358 192.374 133.209C194.007 133.66 195.681 133.166 197.317 133.522C197.767 133.542 198.071 133.461 198.524 133.386C200.323 133.466 202.126 133.451 203.775 133.524C205.724 133.61 207.673 133.696 209.63 133.593C212.036 133.51 214.597 133.339 216.996 133.445L217.595 133.472L219.394 133.552C220.443 133.598 221.505 133.361 222.704 133.414C223.754 133.46 224.807 133.412 226.011 133.371C228.417 133.288 230.97 133.306 233.381 133.129C234.135 133.067 234.884 133.1 235.634 133.134C236.083 133.153 236.108 132.587 236.849 132.809C237.145 132.916 237.595 132.936 238.045 132.956L239.993 133.042C241.501 132.92 243.149 132.993 244.815 132.688C245.269 132.613 245.719 132.633 246.168 132.653C247.368 132.706 248.271 132.651 249.329 132.508C250.237 132.359 251.29 132.311 252.189 132.351C252.639 132.371 253.243 132.303 253.697 132.228C254.151 132.154 254.75 132.18 255.35 132.207C255.65 132.22 256.249 132.246 256.553 132.165C257.328 131.631 258.365 131.961 259.272 131.812C260.03 131.656 261.071 131.892 261.692 131.446C262.587 131.58 263.349 131.33 264.099 131.363C266.197 131.455 268.167 131.069 270.128 130.872C270.578 130.892 271.036 130.723 271.49 130.648C271.944 130.573 272.389 130.688 272.843 130.613C274.509 130.308 276.149 130.57 277.519 130.157C278.281 129.907 279.176 130.041 279.93 129.98L280.076 130.081L280.072 130.175Z" fill="#E6192A" stroke="#E6192A"/>
</svg>
