<svg xmlns="http://www.w3.org/2000/svg" width="33" height="33" viewBox="0 0 33 33" fill="none">
  <path d="M27.8272 17.9263C27.3205 17.9263 26.8938 17.5396 26.8272 17.033C26.5072 14.0196 24.8805 11.2863 22.3738 9.55298C21.9205 9.23298 21.8138 8.61965 22.1205 8.16631C22.4405 7.71298 23.0672 7.60631 23.5072 7.91298C26.4938 9.97965 28.4138 13.233 28.8005 16.8196C28.8538 17.3663 28.4672 17.8596 27.9072 17.9263C27.8938 17.9263 27.8538 17.9263 27.8272 17.9263Z" fill="white"/>
  <path d="M4.9867 17.9929C4.9467 17.9929 4.92004 17.9929 4.88004 17.9929C4.33337 17.9262 3.93337 17.4329 3.9867 16.8862C4.3467 13.2995 6.25337 10.0595 9.20004 7.9662C9.65337 7.6462 10.28 7.75286 10.6 8.2062C10.92 8.65953 10.8134 9.2862 10.36 9.6062C7.88004 11.3529 6.28004 14.0862 5.97337 17.0995C5.93337 17.6062 5.49337 17.9929 4.9867 17.9929Z" fill="white"/>
  <path d="M16.4133 30.6465C14.44 30.6465 12.56 30.1931 10.8 29.3131C10.3066 29.0598 10.1066 28.4598 10.36 27.9665C10.6133 27.4731 11.2133 27.2731 11.7066 27.5265C14.5866 28.9798 18.0533 29.0065 20.96 27.6065C21.4533 27.3665 22.0533 27.5798 22.2933 28.0731C22.5333 28.5665 22.32 29.1665 21.8266 29.4065C20.12 30.2331 18.3066 30.6465 16.4133 30.6465Z" fill="white"/>
  <path d="M16.4132 11.7532C13.8132 11.7532 11.7065 9.64651 11.7065 7.04651C11.7065 4.44651 13.8132 2.33984 16.4132 2.33984C19.0132 2.33984 21.1199 4.44651 21.1199 7.04651C21.1199 9.64651 18.9999 11.7532 16.4132 11.7532ZM16.4132 4.35318C14.9199 4.35318 13.7065 5.56651 13.7065 7.05984C13.7065 8.55318 14.9199 9.76651 16.4132 9.76651C17.9065 9.76651 19.1199 8.55318 19.1199 7.05984C19.1199 5.56651 17.8932 4.35318 16.4132 4.35318Z" fill="white"/>
  <path d="M6.77307 28.0598C4.17307 28.0598 2.06641 25.9532 2.06641 23.3532C2.06641 20.7665 4.17307 18.6465 6.77307 18.6465C9.37307 18.6465 11.4797 20.7532 11.4797 23.3532C11.4797 25.9398 9.37307 28.0598 6.77307 28.0598ZM6.77307 20.6465C5.27974 20.6465 4.06641 21.8598 4.06641 23.3532C4.06641 24.8465 5.27974 26.0598 6.77307 26.0598C8.26641 26.0598 9.47974 24.8465 9.47974 23.3532C9.47974 21.8598 8.26641 20.6465 6.77307 20.6465Z" fill="white"/>
  <path d="M25.8937 28.0598C23.2937 28.0598 21.187 25.9532 21.187 23.3532C21.187 20.7665 23.2937 18.6465 25.8937 18.6465C28.4937 18.6465 30.6003 20.7532 30.6003 23.3532C30.587 25.9398 28.4803 28.0598 25.8937 28.0598ZM25.8937 20.6465C24.4003 20.6465 23.187 21.8598 23.187 23.3532C23.187 24.8465 24.4003 26.0598 25.8937 26.0598C27.387 26.0598 28.6003 24.8465 28.6003 23.3532C28.587 21.8598 27.387 20.6465 25.8937 20.6465Z" fill="white"/>
</svg>