<svg xmlns="http://www.w3.org/2000/svg" width="33" height="33" viewBox="0 0 33 33" fill="none">
  <path d="M27.8262 17.9278C27.3195 17.9278 26.8929 17.5411 26.8262 17.0344C26.5062 14.0211 24.8795 11.2878 22.3729 9.55445C21.9195 9.23445 21.8129 8.62111 22.1195 8.16778C22.4395 7.71445 23.0662 7.60778 23.5062 7.91445C26.4929 9.98111 28.4129 13.2344 28.7995 16.8211C28.8529 17.3678 28.4662 17.8611 27.9062 17.9278C27.8929 17.9278 27.8529 17.9278 27.8262 17.9278Z" fill="#292D32"/>
  <path d="M4.98719 17.9943C4.94719 17.9943 4.92053 17.9943 4.88053 17.9943C4.33386 17.9277 3.93386 17.4343 3.98719 16.8877C4.34719 13.301 6.25386 10.061 9.20053 7.96766C9.65386 7.64766 10.2805 7.75433 10.6005 8.20766C10.9205 8.661 10.8139 9.28766 10.3605 9.60766C7.88053 11.3543 6.28053 14.0877 5.97386 17.101C5.93386 17.6077 5.49386 17.9943 4.98719 17.9943Z" fill="#292D32"/>
  <path d="M16.4133 30.646C14.44 30.646 12.56 30.1926 10.8 29.3126C10.3066 29.0593 10.1066 28.4593 10.36 27.966C10.6133 27.4726 11.2133 27.2726 11.7066 27.526C14.5866 28.9793 18.0533 29.006 20.96 27.606C21.4533 27.366 22.0533 27.5793 22.2933 28.0726C22.5333 28.566 22.32 29.166 21.8266 29.406C20.12 30.2326 18.3066 30.646 16.4133 30.646Z" fill="#292D32"/>
  <path d="M16.4137 11.7532C13.8137 11.7532 11.707 9.64651 11.707 7.04651C11.707 4.44651 13.8137 2.33984 16.4137 2.33984C19.0137 2.33984 21.1204 4.44651 21.1204 7.04651C21.1204 9.64651 19.0004 11.7532 16.4137 11.7532ZM16.4137 4.35318C14.9204 4.35318 13.707 5.56651 13.707 7.05984C13.707 8.55318 14.9204 9.76651 16.4137 9.76651C17.907 9.76651 19.1204 8.55318 19.1204 7.05984C19.1204 5.56651 17.8937 4.35318 16.4137 4.35318Z" fill="#292D32"/>
  <path d="M6.77503 28.0598C4.17503 28.0598 2.06836 25.9532 2.06836 23.3532C2.06836 20.7665 4.17503 18.6465 6.77503 18.6465C9.37503 18.6465 11.4817 20.7532 11.4817 23.3532C11.4817 25.9398 9.37503 28.0598 6.77503 28.0598ZM6.77503 20.6465C5.28169 20.6465 4.06836 21.8598 4.06836 23.3532C4.06836 24.8465 5.28169 26.0598 6.77503 26.0598C8.26836 26.0598 9.48169 24.8465 9.48169 23.3532C9.48169 21.8598 8.26836 20.6465 6.77503 20.6465Z" fill="#292D32"/>
  <path d="M25.8942 28.0598C23.2942 28.0598 21.1875 25.9532 21.1875 23.3532C21.1875 20.7665 23.2942 18.6465 25.8942 18.6465C28.4942 18.6465 30.6008 20.7532 30.6008 23.3532C30.5875 25.9398 28.4808 28.0598 25.8942 28.0598ZM25.8942 20.6465C24.4008 20.6465 23.1875 21.8598 23.1875 23.3532C23.1875 24.8465 24.4008 26.0598 25.8942 26.0598C27.3875 26.0598 28.6008 24.8465 28.6008 23.3532C28.5875 21.8598 27.3875 20.6465 25.8942 20.6465Z" fill="#292D32"/>
</svg>