<svg xmlns="http://www.w3.org/2000/svg" width="18" height="18" viewBox="0 0 18 18" fill="none">
<path d="M9.2218 1.23596C13.4403 1.23596 16.8691 4.66481 16.8691 8.8833C16.8691 13.1018 13.4403 16.5306 9.2218 16.5306C8.93014 16.5306 8.68827 16.2888 8.68827 15.9971C8.68827 15.7054 8.93014 15.4636 9.2218 15.4636C12.8498 15.4636 15.8021 12.5113 15.8021 8.8833C15.8021 5.25526 12.8498 2.30303 9.2218 2.30303C5.59376 2.30303 2.64153 5.25526 2.64153 8.8833C2.64153 9.17497 2.39966 9.41684 2.108 9.41684C1.81633 9.41684 1.57446 9.17497 1.57446 8.8833C1.57446 4.66481 5.00331 1.23596 9.2218 1.23596Z" fill="#FFFFFF"/>
<path d="M7.9409 9.62995C8.07606 9.62995 8.21122 9.67975 8.31793 9.78646C8.52423 9.99276 8.52423 10.3342 8.31793 10.5405L2.48461 16.3738C2.27831 16.5801 1.93685 16.5801 1.73055 16.3738C1.52425 16.1675 1.52425 15.8261 1.73055 15.6198L7.56387 9.78646C7.66346 9.68686 7.79862 9.62995 7.9409 9.62995Z" fill="#FFFFFF"/>
<path d="M5.07347 9.06129H8.50943C8.8011 9.06129 9.04297 9.30316 9.04297 9.59483V13.0308C9.04297 13.3225 8.8011 13.5643 8.50943 13.5643C8.21777 13.5643 7.9759 13.3225 7.9759 13.0308V10.1284H5.07347C4.7818 10.1284 4.53993 9.88649 4.53993 9.59483C4.53993 9.30316 4.7818 9.06129 5.07347 9.06129Z" fill="#FFFFFF"/>
</svg>