<svg width="32" height="33" viewBox="0 0 32 33" fill="none" xmlns="http://www.w3.org/2000/svg">
<rect y="0.677429" width="32" height="32" rx="16" fill="#F5F5F5"/>
<path d="M16.0026 8.16127C20.9443 8.16127 24.9609 12.178 24.9609 17.1196C24.9609 22.0613 20.9443 26.078 16.0026 26.078C15.6609 26.078 15.3776 25.7947 15.3776 25.453C15.3776 25.1113 15.6609 24.828 16.0026 24.828C20.2526 24.828 23.7109 21.3697 23.7109 17.1196C23.7109 12.8696 20.2526 9.41128 16.0026 9.41128C11.7526 9.41128 8.29421 12.8696 8.29421 17.1196C8.29421 17.4613 8.01088 17.7446 7.66921 17.7446C7.32754 17.7446 7.04421 17.4613 7.04421 17.1196C7.04421 12.178 11.0609 8.16127 16.0026 8.16127Z" fill="black"/>
<path d="M14.5021 17.9946C14.6604 17.9946 14.8187 18.053 14.9437 18.178C15.1854 18.4197 15.1854 18.8197 14.9437 19.0613L8.11039 25.8947C7.86872 26.1363 7.46872 26.1363 7.22705 25.8947C6.98539 25.653 6.98539 25.253 7.22705 25.0113L14.0604 18.178C14.1771 18.0613 14.3354 17.9946 14.5021 17.9946Z" fill="black"/>
<path d="M11.143 17.328H15.168C15.5096 17.328 15.793 17.6113 15.793 17.953V21.978C15.793 22.3197 15.5096 22.603 15.168 22.603C14.8263 22.603 14.543 22.3197 14.543 21.978V18.578H11.143C10.8013 18.578 10.5179 18.2947 10.5179 17.953C10.5179 17.6113 10.8013 17.328 11.143 17.328Z" fill="black"/>
</svg>
