<svg width="58" height="58" viewBox="0 0 58 58" fill="none" xmlns="http://www.w3.org/2000/svg">
<path d="M46.9969 20.9227C46.3983 19.7158 45.4736 18.7008 44.3276 17.9926C43.1816 17.2844 41.8601 16.9114 40.513 16.9158H17.487C16.1399 16.9114 14.8184 17.2844 13.6724 17.9926C12.5264 18.7008 11.6017 19.7158 11.0031 20.9227L5.47858 31.9717C3.46875 36.0027 2.42068 40.4448 2.41667 44.9492V53.1658H7.25V57.9992H19.3333V53.1658H38.6667V57.9992H50.75V53.1658H55.5833V44.9492C55.5782 40.4473 54.5302 36.0078 52.5214 31.9789L46.9969 20.9227ZM15.3386 23.0977C15.5352 22.6948 15.8406 22.355 16.2203 22.1167C16.6 21.8784 17.0387 21.7511 17.487 21.7492H40.513C40.962 21.7477 41.4025 21.8722 41.7844 22.1084C42.1663 22.3446 42.4743 22.6832 42.6735 23.0856L48.0482 33.8325H9.95183L15.3386 23.0977ZM50.75 48.3325H7.25V44.9492C7.25086 42.8272 7.53118 40.7146 8.08375 38.6658H12.0833V41.0825C12.0833 41.7234 12.3379 42.3381 12.7912 42.7913C13.2444 43.2446 13.8591 43.4992 14.5 43.4992C15.1409 43.4992 15.7556 43.2446 16.2088 42.7913C16.6621 42.3381 16.9167 41.7234 16.9167 41.0825V38.6658H41.0833V41.0825C41.0833 41.7234 41.3379 42.3381 41.7912 42.7913C42.2444 43.2446 42.8591 43.4992 43.5 43.4992C44.1409 43.4992 44.7556 43.2446 45.2088 42.7913C45.6621 42.3381 45.9167 41.7234 45.9167 41.0825V38.6658H49.9163C50.4688 40.7146 50.7491 42.8272 50.75 44.9492V48.3325ZM57.855 13.3585L55.7211 17.7085L30.0657 5.07417C29.7338 4.91082 29.3688 4.82588 28.9988 4.82588C28.6288 4.82588 28.2638 4.91082 27.9318 5.07417L2.27892 17.6964L0.145 13.3585L25.8003 0.743499C26.7968 0.256853 27.8911 0.00390625 29 0.00390625C30.1089 0.00390625 31.2032 0.256853 32.1997 0.743499L57.855 13.3585Z" fill="#191919"/>
</svg>
