<svg width="58" height="58" viewBox="0 0 58 58" fill="none" xmlns="http://www.w3.org/2000/svg">
<path d="M58 24.1667L52.6833 0H5.31667L0.058 23.6423L0 26.5833C0.00876452 28.9161 0.868006 31.1656 2.41667 32.9102V50.75C2.41667 52.6728 3.1805 54.5169 4.54014 55.8765C5.89978 57.2362 7.74385 58 9.66667 58H48.3333C50.2562 58 52.1002 57.2362 53.4599 55.8765C54.8195 54.5169 55.5833 52.6728 55.5833 50.75V32.9102C57.132 31.1656 57.9912 28.9161 58 26.5833V24.1667ZM4.83333 24.4301L9.18333 4.83333H16.9167V14.5H21.75V4.83333H36.25V14.5H41.0833V4.83333H48.8167L53.1667 24.4301V26.5833C53.1667 27.8652 52.6574 29.0946 51.751 30.001C50.8446 30.9074 49.6152 31.4167 48.3333 31.4167H45.9167C44.6348 31.4167 43.4054 30.9074 42.499 30.001C41.5926 29.0946 41.0833 27.8652 41.0833 26.5833H36.25C36.25 27.8652 35.7408 29.0946 34.8344 30.001C33.9279 30.9074 32.6985 31.4167 31.4167 31.4167H26.5833C25.3015 31.4167 24.0721 30.9074 23.1657 30.001C22.2592 29.0946 21.75 27.8652 21.75 26.5833H16.9167C16.9167 27.8652 16.4074 29.0946 15.501 30.001C14.5946 30.9074 13.3652 31.4167 12.0833 31.4167H9.66667C8.38479 31.4167 7.15541 30.9074 6.24898 30.001C5.34256 29.0946 4.83333 27.8652 4.83333 26.5833V24.4301ZM48.3333 53.1667H9.66667C9.02573 53.1667 8.41104 52.9121 7.95783 52.4588C7.50461 52.0056 7.25 51.3909 7.25 50.75V35.9068C8.03749 36.1245 8.84972 36.2398 9.66667 36.25H12.0833C13.4606 36.2456 14.8208 35.945 16.0717 35.3688C17.3226 34.7925 18.4349 33.954 19.3333 32.9102C20.2317 33.954 21.3441 34.7925 22.595 35.3688C23.8459 35.945 25.2061 36.2456 26.5833 36.25H31.4167C32.7889 36.2507 34.1455 35.9586 35.3957 35.393C36.646 34.8275 37.7611 34.0016 38.6667 32.9706C39.5722 34.0016 40.6874 34.8275 41.9376 35.393C43.1879 35.9586 44.5444 36.2507 45.9167 36.25H48.3333C49.1503 36.2398 49.9625 36.1245 50.75 35.9068V50.75C50.75 51.3909 50.4954 52.0056 50.0422 52.4588C49.589 52.9121 48.9743 53.1667 48.3333 53.1667Z" fill="#191919"/>
</svg>
