<svg width="58" height="58" viewBox="0 0 58 58" fill="none" xmlns="http://www.w3.org/2000/svg">
<path d="M29 0C23.2644 0 17.6575 1.70082 12.8885 4.88738C8.11944 8.07394 4.40244 12.6031 2.2075 17.9022C0.0125596 23.2012 -0.561737 29.0322 0.557234 34.6576C1.67621 40.2831 4.43819 45.4504 8.49391 49.5061C12.5496 53.5618 17.7169 56.3238 23.3424 57.4428C28.9678 58.5617 34.7988 57.9875 40.0978 55.7925C45.3969 53.5976 49.9261 49.8806 53.1126 45.1115C56.2992 40.3425 58 34.7357 58 29C57.9917 21.3113 54.9337 13.9398 49.4969 8.50309C44.0602 3.06634 36.6887 0.00831595 29 0V0ZM48.0409 43.8287C45.9781 42.1054 44.298 39.9702 43.1085 37.5598L46.8133 36.0784C47.4087 35.8406 47.8853 35.376 48.1382 34.7869C48.3911 34.1977 48.3995 33.5322 48.1618 32.9368C47.924 32.3413 47.4594 31.8647 46.8702 31.6118C46.281 31.3589 45.6155 31.3505 45.0201 31.5883L41.528 32.9851C40.9344 30.3599 40.9344 27.6353 41.528 25.0101L45.0201 26.4069C45.3149 26.5247 45.6301 26.5832 45.9475 26.5791C46.2649 26.5751 46.5785 26.5086 46.8702 26.3833C47.1619 26.2581 47.4261 26.0767 47.6478 25.8493C47.8694 25.622 48.044 25.3533 48.1618 25.0584C48.2795 24.7636 48.338 24.4485 48.334 24.131C48.3299 23.8136 48.2634 23.5 48.1382 23.2083C48.013 22.9166 47.8315 22.6524 47.6042 22.4308C47.3768 22.2092 47.1081 22.0345 46.8133 21.9168L43.1085 20.4353C44.298 18.025 45.9781 15.8897 48.0409 14.1665C51.3618 18.396 53.1668 23.6178 53.1668 28.9952C53.1668 34.3726 51.3618 39.5944 48.0409 43.8238V43.8287ZM9.95909 14.1713C12.0219 15.8946 13.702 18.0298 14.8915 20.4402L11.1868 21.9216C10.5913 22.1594 10.1147 22.624 9.86185 23.2131C9.60895 23.8023 9.60047 24.4678 9.83826 25.0633C10.076 25.6587 10.5406 26.1353 11.1298 26.3882C11.719 26.6411 12.3845 26.6495 12.9799 26.4118L16.472 25.0149C16.758 26.3243 16.907 27.6598 16.9167 29C16.907 30.3402 16.758 31.6757 16.472 32.9851L12.9799 31.5883C12.6851 31.4705 12.37 31.412 12.0525 31.416C11.7351 31.4201 11.4215 31.4866 11.1298 31.6118C10.8381 31.7371 10.5739 31.9185 10.3523 32.1458C10.1307 32.3732 9.956 32.6419 9.83826 32.9368C9.72052 33.2316 9.662 33.5467 9.66605 33.8642C9.67009 34.1816 9.73663 34.4951 9.86185 34.7869C9.98707 35.0786 10.1685 35.3428 10.3958 35.5644C10.6232 35.786 10.8919 35.9607 11.1868 36.0784L14.8915 37.5598C13.702 39.9702 12.0219 42.1054 9.95909 43.8287C6.63826 39.5992 4.83324 34.3774 4.83324 29C4.83324 23.6226 6.63826 18.4008 9.95909 14.1713ZM13.3086 47.3425C15.8703 45.1354 17.938 42.413 19.3768 39.353L23.2701 40.9118C23.5649 41.0295 23.8801 41.088 24.1975 41.084C24.5149 41.0799 24.8285 41.0134 25.1202 40.8882C25.4119 40.7629 25.6761 40.5815 25.8978 40.3542C26.1194 40.1268 26.294 39.8581 26.4118 39.5633C26.5295 39.2684 26.588 38.9533 26.584 38.6358C26.5799 38.3184 26.5134 38.0049 26.3882 37.7131C26.263 37.4214 26.0815 37.1572 25.8542 36.9356C25.6268 36.714 25.3581 36.5393 25.0633 36.4216L21.0371 34.8121C21.5087 32.9106 21.7481 30.9591 21.75 29C21.7471 27.045 21.5077 25.0975 21.0371 23.2L25.0633 21.5905C25.6587 21.3527 26.1353 20.8881 26.3882 20.299C26.6411 19.7098 26.6495 19.0443 26.4118 18.4488C26.174 17.8534 25.7094 17.3768 25.1202 17.1239C24.531 16.871 23.8655 16.8625 23.2701 17.1003L19.3768 18.6591C17.9395 15.5947 15.8717 12.8681 13.3086 10.6575C17.6731 6.90011 23.241 4.83357 29 4.83357C34.7591 4.83357 40.3269 6.90011 44.6914 10.6575C42.1297 12.8646 40.062 15.587 38.6232 18.647L34.7299 17.0883C34.4351 16.9705 34.12 16.912 33.8025 16.916C33.4851 16.9201 33.1715 16.9866 32.8798 17.1118C32.5881 17.2371 32.3239 17.4185 32.1023 17.6458C31.8807 17.8732 31.706 18.1419 31.5883 18.4368C31.4705 18.7316 31.412 19.0467 31.416 19.3642C31.4201 19.6816 31.4866 19.9951 31.6118 20.2869C31.7371 20.5786 31.9185 20.8428 32.1458 21.0644C32.3732 21.286 32.6419 21.4607 32.9368 21.5784L36.975 23.2C36.0245 27.0164 36.0245 31.0077 36.975 34.8242L32.9488 36.4337C32.3534 36.6715 31.8768 37.136 31.6239 37.7252C31.371 38.3144 31.3626 38.9799 31.6003 39.5753C31.8381 40.1708 32.3027 40.6474 32.8919 40.9002C33.4811 41.1531 34.1466 41.1616 34.742 40.9238L38.6353 39.3651C40.0741 42.4251 42.1418 45.1475 44.7035 47.3546C40.339 51.112 34.7712 53.1785 29.0121 53.1785C23.253 53.1785 17.6852 51.112 13.3207 47.3546L13.3086 47.3425Z" fill="#191919"/>
</svg>
