<svg width="58" height="58" viewBox="0 0 58 58" fill="none" xmlns="http://www.w3.org/2000/svg">
<path d="M49.5054 8.49377C45.4506 4.44278 40.2859 1.68487 34.664 0.568654C29.0421 -0.547564 23.2155 0.0280271 17.9206 2.22267C12.6258 4.41731 8.10048 8.13247 4.91671 12.8985C1.73294 17.6646 0.0336494 23.2675 0.0336494 28.9992C0.0336494 34.7308 1.73294 40.3338 4.91671 45.0998C8.10048 49.8659 12.6258 53.5811 17.9206 55.7757C23.2155 57.9703 29.0421 58.5459 34.664 57.4297C40.2859 56.3135 45.4506 53.5556 49.5054 49.5046C54.9359 44.062 57.9857 36.6876 57.9857 28.9992C57.9857 21.3108 54.9359 13.9363 49.5054 8.49377ZM53.0072 26.4182C50.1092 26.7697 47.1692 26.4574 44.4097 25.5049C41.6502 24.5524 39.1435 22.9847 37.0794 20.9204C35.0153 18.856 33.4479 16.3492 32.4957 13.5896C31.5435 10.83 31.2315 7.88998 31.5834 4.99202C37.0686 5.56871 42.1894 8.01148 46.0891 11.9117C49.9889 15.8119 52.4311 20.9329 53.0072 26.4182ZM4.99283 31.5802C7.89083 31.2286 10.8308 31.5409 13.5903 32.4934C16.3498 33.4459 18.8565 35.0137 20.9206 37.078C22.9847 39.1423 24.5521 41.6492 25.5043 44.4088C26.4565 47.1684 26.7685 50.1084 26.4166 53.0064C20.9314 52.4297 15.8106 49.9869 11.9109 46.0867C8.01109 42.1865 5.5689 37.0654 4.99283 31.5802ZM46.0882 46.0802C42.1179 50.0592 36.8786 52.5211 31.2813 53.0378C31.6281 49.4932 31.1849 45.9158 29.9835 42.563C28.7821 39.2103 26.8525 36.1655 24.3334 33.6478C21.8144 31.1302 18.7685 29.2022 15.4151 28.0027C12.0617 26.8031 8.48406 26.3619 4.93967 26.7106C5.46531 21.1143 7.92931 15.8774 11.9059 11.9048C15.8825 7.93217 21.1218 5.47341 26.7187 4.95335C26.3937 8.30419 26.7734 11.686 27.8333 14.8813C28.8933 18.0766 30.6101 21.0149 32.8734 23.5071C35.1367 25.9993 37.8963 27.9905 40.9751 29.3525C44.0538 30.7146 47.3834 31.4174 50.75 31.4159C51.5161 31.4159 52.2846 31.3772 53.0531 31.3047C52.5282 36.8942 50.0642 42.1239 46.0882 46.0874V46.0802Z" fill="#191919"/>
</svg>
