<svg width="58" height="40" viewBox="0 0 58 40" fill="none" xmlns="http://www.w3.org/2000/svg">
<path d="M55.3489 6.80101C53.7153 5.98417 51.7892 6.15576 50.3295 7.25534C50.2353 7.32542 50.1458 7.40517 50.0637 7.48734L45.8176 11.7721C45.3077 5.57334 40.1602 0.669923 33.8333 0.669923H12.0833C5.42058 0.667506 0 6.08809 0 12.7508V27.2508C0 33.9136 5.42058 39.3342 12.0833 39.3342H33.8333C40.1868 39.3342 45.356 34.3873 45.8248 28.1523L50.0685 32.3911C50.1507 32.4708 50.2353 32.5433 50.3271 32.6134C51.1778 33.2514 52.1831 33.5753 53.1981 33.5753C53.9303 33.5753 54.6626 33.4085 55.3489 33.0653C56.985 32.2485 58 30.6028 58 28.7782V11.093C58 9.26359 56.985 7.62026 55.3489 6.80342V6.80101ZM33.8333 34.5008H12.0833C8.08617 34.5008 4.83333 31.248 4.83333 27.2508V12.7508C4.83333 8.75367 8.08617 5.50084 12.0833 5.50084H33.8333C37.8305 5.50084 41.0833 8.75367 41.0833 12.7508V27.2508C41.0833 31.248 37.8305 34.5008 33.8333 34.5008ZM45.9167 21.4098V18.5363L53.1667 11.2187L53.2271 28.7105L45.9167 21.4073V21.4098Z" fill="#191919"/>
</svg>
