<svg width="58" height="58" viewBox="0 0 58 58" fill="none" xmlns="http://www.w3.org/2000/svg">
<path d="M58 26.5833C57.9927 24.732 57.2775 22.9535 56.0009 21.6126C54.7242 20.2718 52.983 19.4701 51.1343 19.372C48.7123 13.7614 44.2386 9.28775 38.628 6.86575C38.5299 5.01696 37.7282 3.27576 36.3874 1.99915C35.0465 0.722543 33.268 0.00727272 31.4167 0H26.5833C24.732 0.00727272 22.9535 0.722543 21.6126 1.99915C20.2718 3.27576 19.4701 5.01696 19.372 6.86575C13.7618 9.28837 9.28837 13.7618 6.86575 19.372C5.15481 19.4555 3.52942 20.1451 2.28043 21.3174C1.03145 22.4897 0.240402 24.0682 0.0488433 25.7705C-0.142716 27.4727 0.27772 29.1876 1.23491 30.6081C2.1921 32.0287 3.62358 33.0623 5.27317 33.524C5.95895 37.1721 7.47885 40.6122 9.71414 43.5757C11.9494 46.5391 14.8396 48.9457 18.1588 50.6074L16.9988 54.9574C16.8336 55.5766 16.921 56.236 17.2418 56.7907C17.5627 57.3454 18.0907 57.75 18.7098 57.9154C18.9132 57.9704 19.1227 57.9988 19.3333 58C19.8656 57.9999 20.383 57.8241 20.8051 57.4999C21.2272 57.1756 21.5305 56.7211 21.6678 56.2068L22.7167 52.3257C26.8395 53.447 31.187 53.447 35.3099 52.3257L36.3442 56.2068C36.5181 56.8165 36.9244 57.3334 37.4758 57.6462C38.0272 57.959 38.6794 58.0427 39.2919 57.8791C39.9044 57.7155 40.428 57.3178 40.75 56.7718C41.072 56.2257 41.1666 55.575 41.0133 54.9598L39.8532 50.6098C43.1721 48.9467 46.062 46.5394 48.2975 43.5757C50.5331 40.6121 52.0539 37.1721 52.7413 33.524C54.2525 33.0948 55.583 32.1854 56.5317 30.9333C57.4803 29.6812 57.9958 28.1543 58 26.5833ZM26.5833 4.83333H31.4167C32.0576 4.83333 32.6723 5.08795 33.1255 5.54116C33.5787 5.99437 33.8333 6.60906 33.8333 7.25C33.8333 7.89094 33.5787 8.50563 33.1255 8.95884C32.6723 9.41206 32.0576 9.66667 31.4167 9.66667H26.5833C25.9424 9.66667 25.3277 9.41206 24.8745 8.95884C24.4213 8.50563 24.1667 7.89094 24.1667 7.25C24.1667 6.60906 24.4213 5.99437 24.8745 5.54116C25.3277 5.08795 25.9424 4.83333 26.5833 4.83333ZM7.25 24.1667H12.0833C12.7243 24.1667 13.339 24.4213 13.7922 24.8745C14.2454 25.3277 14.5 25.9424 14.5 26.5833C14.5 27.2243 14.2454 27.839 13.7922 28.2922C13.339 28.7454 12.7243 29 12.0833 29H7.25C6.60906 29 5.99437 28.7454 5.54116 28.2922C5.08795 27.839 4.83333 27.2243 4.83333 26.5833C4.83333 25.9424 5.08795 25.3277 5.54116 24.8745C5.99437 24.4213 6.60906 24.1667 7.25 24.1667ZM29 48.3333C27.2939 48.331 25.5957 48.1035 23.9492 47.6567L28.0575 32.277C28.113 32.0671 28.2363 31.8814 28.4083 31.749C28.5803 31.6165 28.7913 31.5446 29.0085 31.5446C29.2256 31.5446 29.4366 31.6165 29.6086 31.749C29.7806 31.8814 29.904 32.0671 29.9594 32.277L34.0678 47.6567C32.4157 48.1046 30.7117 48.3322 29 48.3333ZM38.5579 45.7983L34.6188 31.0324C34.2988 29.7886 33.5718 28.6877 32.5535 27.905C31.5352 27.1224 30.2843 26.703 29 26.7138C27.7153 26.7025 26.4638 27.1216 25.4451 27.9043C24.4263 28.687 23.6989 29.7882 23.3788 31.0324L19.4421 45.7983C17.1912 44.5215 15.2209 42.8038 13.6493 40.7479C12.0776 38.6921 10.9367 36.3403 10.295 33.8333H12.0833C13.9424 33.7658 15.7043 32.9862 17.0047 31.6558C18.305 30.3255 19.0442 28.5462 19.0693 26.6861C19.0945 24.826 18.4037 23.0274 17.1398 21.6624C15.8759 20.2974 14.1356 19.4705 12.2791 19.3527C14.2529 15.9495 17.2064 13.2201 20.7543 11.5203C21.4227 12.4408 22.299 13.1906 23.3119 13.7084C24.3248 14.2262 25.4457 14.4974 26.5833 14.5H31.4167C32.5543 14.4976 33.6753 14.2264 34.6882 13.7086C35.7012 13.1908 36.5775 12.441 37.2457 11.5203C40.7933 13.2197 43.746 15.9493 45.7185 19.3527C43.8619 19.4707 42.1217 20.2979 40.858 21.6631C39.5943 23.0283 38.9037 24.8271 38.9291 26.6873C38.9546 28.5474 39.6941 30.3266 40.9948 31.6568C42.2954 32.9869 44.0575 33.7662 45.9167 33.8333H47.705C47.0625 36.34 45.9214 38.6914 44.3497 40.7472C42.7781 42.8029 40.8083 44.5208 38.5579 45.7983ZM50.75 29H45.9167C45.2757 29 44.661 28.7454 44.2078 28.2922C43.7546 27.839 43.5 27.2243 43.5 26.5833C43.5 25.9424 43.7546 25.3277 44.2078 24.8745C44.661 24.4213 45.2757 24.1667 45.9167 24.1667H50.75C51.3909 24.1667 52.0056 24.4213 52.4588 24.8745C52.9121 25.3277 53.1667 25.9424 53.1667 26.5833C53.1667 27.2243 52.9121 27.839 52.4588 28.2922C52.0056 28.7454 51.3909 29 50.75 29Z" fill="#191919"/>
</svg>
