<svg width="58" height="58" viewBox="0 0 58 58" fill="none" xmlns="http://www.w3.org/2000/svg">
<path d="M50.75 14.5H34.8338L32.0329 11.6991L41.0833 6.04167L31.4167 0H26.5833V11.0828L23.1662 14.5H7.25C5.32718 14.5 3.48311 15.2638 2.12348 16.6235C0.763837 17.9831 0 19.8272 0 21.75L0 58H58V21.75C58 19.8272 57.2362 17.9831 55.8765 16.6235C54.5169 15.2638 52.6728 14.5 50.75 14.5ZM50.75 19.3333C51.3909 19.3333 52.0056 19.5879 52.4588 20.0412C52.9121 20.4944 53.1667 21.1091 53.1667 21.75V24.1667H44.5005L39.6672 19.3333H50.75ZM7.25 19.3333H18.3328L13.4995 24.1667H4.83333V21.75C4.83333 21.1091 5.08795 20.4944 5.54116 20.0412C5.99437 19.5879 6.60906 19.3333 7.25 19.3333ZM31.4167 53.1667H26.5833V45.9167C26.5833 45.2757 26.8379 44.661 27.2912 44.2078C27.7444 43.7546 28.3591 43.5 29 43.5C29.6409 43.5 30.2556 43.7546 30.7088 44.2078C31.1621 44.661 31.4167 45.2757 31.4167 45.9167V53.1667ZM36.25 53.1667V45.9167C36.25 43.9938 35.4862 42.1498 34.1265 40.7901C32.7669 39.4305 30.9228 38.6667 29 38.6667C27.0772 38.6667 25.2331 39.4305 23.8735 40.7901C22.5138 42.1498 21.75 43.9938 21.75 45.9167V53.1667H4.83333V29H15.5005L29 15.5005L42.4995 29H53.1667V53.1667H36.25ZM9.66667 33.8333H16.9167V38.6667H9.66667V33.8333ZM9.66667 43.5H16.9167V48.3333H9.66667V43.5ZM41.0833 33.8333H48.3333V38.6667H41.0833V33.8333ZM41.0833 43.5H48.3333V48.3333H41.0833V43.5ZM33.8333 29C33.8333 29.9559 33.5499 30.8904 33.0188 31.6853C32.4877 32.4801 31.7328 33.0996 30.8496 33.4654C29.9665 33.8312 28.9946 33.927 28.0571 33.7405C27.1195 33.554 26.2583 33.0936 25.5823 32.4177C24.9064 31.7417 24.446 30.8805 24.2595 29.9429C24.073 29.0054 24.1688 28.0335 24.5346 27.1504C24.9004 26.2672 25.5199 25.5123 26.3147 24.9812C27.1096 24.4501 28.0441 24.1667 29 24.1667C30.2819 24.1667 31.5113 24.6759 32.4177 25.5823C33.3241 26.4887 33.8333 27.7181 33.8333 29Z" fill="#191919"/>
</svg>
