<svg xmlns="http://www.w3.org/2000/svg" width="48" height="48" viewBox="0 0 48 48" fill="none">
<path opacity="0.4" d="M28.8364 10.9795C27.8844 10.8036 27.01 11.4112 26.8288 12.3406C26.6474 13.27 27.257 14.1773 28.1832 14.3592C30.9716 14.9028 33.1248 17.0613 33.6706 19.8594V19.8614C33.826 20.6668 34.535 21.2524 35.3516 21.2524C35.4612 21.2524 35.5708 21.2424 35.6822 21.2224C36.6084 21.0366 37.218 20.1312 37.0368 19.1999C36.222 15.0207 33.0052 11.793 28.8364 10.9795Z" fill="#919191"/>
<path opacity="0.4" d="M28.7117 4.01586C28.2655 3.9519 27.8173 4.08382 27.4609 4.36762C27.0943 4.65542 26.8653 5.07114 26.8155 5.53682C26.7099 6.47816 27.3891 7.32958 28.3293 7.43552C34.8125 8.15902 39.8519 13.2095 40.5809 19.7131C40.6785 20.5844 41.4095 21.242 42.2819 21.242C42.3475 21.242 42.4113 21.238 42.4771 21.23C42.9331 21.18 43.3395 20.9542 43.6263 20.5944C43.9111 20.2348 44.0407 19.787 43.9889 19.3293C43.0805 11.2149 36.8005 4.91724 28.7117 4.01586Z" fill="#919191"/>
<path d="M35.2093 29.3463C33.9127 29.0705 32.8869 29.6701 31.9787 30.1937C31.0485 30.7333 29.2777 32.1625 28.2659 31.7947C23.0753 29.6681 18.1934 25.1413 16.0801 19.9528C15.7076 18.9195 17.1357 17.1468 17.6715 16.2114C18.1954 15.304 18.785 14.2707 18.5161 12.9716C18.2731 11.8024 15.13 7.81917 14.0186 6.72991C13.2836 6.01041 12.5347 5.61467 11.7638 5.54873C8.86578 5.42681 5.6291 9.27817 5.06142 10.1995C3.63728 12.1642 3.64724 14.7784 5.08532 17.9482C8.55106 26.4623 21.6591 39.3115 30.2397 42.8931C31.8213 43.6305 33.2713 44.0003 34.5719 44.0003C35.8447 44.0003 36.9781 43.6465 37.9521 42.9451C38.6851 42.5233 42.7125 39.1397 42.6049 36.1757C42.5431 35.4201 42.1467 34.6647 41.4337 33.9333C40.3463 32.8159 36.3745 29.5921 35.2093 29.3463Z" fill="#919191"/>
</svg>