<svg width="17" height="16" viewBox="0 0 17 16" fill="none" xmlns="http://www.w3.org/2000/svg">
<g clip-path="url(#clip0_5080_32564)">
<path d="M7.91406 12.7C9.29319 12.7 10.6158 12.1521 11.591 11.177C12.5662 10.2018 13.1141 8.87913 13.1141 7.5C13.1141 6.12087 12.5662 4.79823 11.591 3.82304C10.6158 2.84786 9.29319 2.3 7.91406 2.3C6.53494 2.3 5.2123 2.84786 4.23711 3.82304C3.26192 4.79823 2.71406 6.12087 2.71406 7.5C2.71406 8.87913 3.26192 10.2018 4.23711 11.177C5.2123 12.1521 6.53494 12.7 7.91406 12.7ZM7.91406 14C4.32411 14 1.41406 11.0899 1.41406 7.5C1.41406 3.91005 4.32411 1 7.91406 1C11.504 1 14.4141 3.91005 14.4141 7.5C14.4141 11.0899 11.504 14 7.91406 14ZM7.91406 8.8C7.56928 8.8 7.23862 8.66304 6.99482 8.41924C6.75103 8.17544 6.61406 7.84478 6.61406 7.5C6.61406 7.15522 6.75103 6.82456 6.99482 6.58076C7.23862 6.33696 7.56928 6.2 7.91406 6.2C8.25884 6.2 8.5895 6.33696 8.8333 6.58076C9.0771 6.82456 9.21406 7.15522 9.21406 7.5C9.21406 7.84478 9.0771 8.17544 8.8333 8.41924C8.5895 8.66304 8.25884 8.8 7.91406 8.8Z" fill="#4545FE"/>
</g>
<defs>
<clipPath id="clip0_5080_32564">
<rect width="16" height="16" fill="white" transform="translate(0.414062)"/>
</clipPath>
</defs>
</svg>
