<svg id="f2ce656a-741a-45c5-a27f-8c986b1c1838" height="512" viewBox="0 0 64 64" width="512" xmlns="http://www.w3.org/2000/svg" data-name="glyph"><path d="m44.28124 22.33874a13.63227 13.63227 0 0 0 -9.9-4.23c-2.41641.07552-6.31786-.25819-8.61.55012-8.9484 2.26114-16.71424 18.25226-13.7204 32.00984 1.04119 3.02814 6.06432 10.26974 20.14048 10.03993 14.22987.00011 18.55989-7.01991 19.7599-10.03993a8.886 8.886 0 0 0 .62-3.06995c.46002-13.12005-4.25001-20.97003-8.28998-25.26001zm-20.27 13.65v-2.9a3.12 3.12 0 0 1 6.24 0v2.9a3.12031 3.12031 0 0 1 -6.24002-.00003zm3.37 12.19a.99859.99859 0 0 1 -1.66-1.11l10.9-16.43a.99859.99859 0 0 1 1.66 1.11zm12.61-2.45a3.12019 3.12019 0 0 1 -6.24-.0001v-2.89991a3.12031 3.12031 0 0 1 6.24.0001z"/><path d="m28.25121 35.98871v-2.9a1.12031 1.12031 0 0 0 -2.24.00005v2.89992a1.12031 1.12031 0 0 0 2.24.00003z"/><path d="m36.8712 41.71875a1.11605 1.11605 0 0 0 -1.12 1.11v2.9a1.12 1.12 0 1 0 2.24 0v-2.9a1.11606 1.11606 0 0 0 -1.12-1.11z"/><path d="m23.3112 17.42871a15.74061 15.74061 0 0 1 5.52-1.3 9.13005 9.13005 0 0 0 -1.2-2.75 1.00282 1.00282 0 1 1 1.69-1.08 10.17539 10.17539 0 0 1 1.52 3.81h2.21a12.45489 12.45489 0 0 1 1.92-5.68.99571.99571 0 0 1 1.66 1.1 10.87718 10.87718 0 0 0 -1.58 4.6 15.6317 15.6317 0 0 1 5.65 1.3c5.27763-3.59411 7.14814-7.92644 5.6402-11.40992a5.60049 5.60049 0 0 0 -3.63019-2.71008.998.998 0 0 0 -1.16.68c-.26.87-1.27 3.24-2.71 3.76a.54249.54249 0 0 1 -.51-.16l-2.11-2.22a5.691 5.691 0 0 0 -8.43994.00011l-2.1 2.20991a.54.54 0 0 1 -.51.17c-1.45-.52-2.46-2.89-2.72-3.76a.998.998 0 0 0 -1.16-.68 5.6 5.6 0 0 0 -3.63 2.71c-1.50816 3.54744.36008 7.75465 5.64993 11.40998z"/></svg>