<svg width="30" height="30" viewBox="0 0 30 30" fill="none" xmlns="http://www.w3.org/2000/svg">
<circle cx="15" cy="15" r="15" fill="#4545FE" fill-opacity="0.1"/>
<path d="M17.6668 15.6V18.4C17.6668 20.7333 16.7335 21.6666 14.4002 21.6666H11.6002C9.26683 21.6666 8.3335 20.7333 8.3335 18.4V15.6C8.3335 13.2666 9.26683 12.3333 11.6002 12.3333H14.4002C16.7335 12.3333 17.6668 13.2666 17.6668 15.6Z" fill="#4545FE"/>
<path d="M17.6668 15.6V18.4C17.6668 20.7333 16.7335 21.6666 14.4002 21.6666H11.6002C9.26683 21.6666 8.3335 20.7333 8.3335 18.4V15.6C8.3335 13.2666 9.26683 12.3333 11.6002 12.3333H14.4002C16.7335 12.3333 17.6668 13.2666 17.6668 15.6Z" fill="black" fill-opacity="0.2"/>
<g opacity="0.4">
<path d="M18.3998 8.33331H15.5998C13.2998 8.33331 12.3665 9.24665 12.3398 11.5H14.3998C17.1998 11.5 18.4998 12.8 18.4998 15.6V17.66C20.7532 17.6333 21.6665 16.7 21.6665 14.4V11.6C21.6665 9.26665 20.7332 8.33331 18.3998 8.33331Z" fill="#4545FE"/>
<path d="M18.3998 8.33331H15.5998C13.2998 8.33331 12.3665 9.24665 12.3398 11.5H14.3998C17.1998 11.5 18.4998 12.8 18.4998 15.6V17.66C20.7532 17.6333 21.6665 16.7 21.6665 14.4V11.6C21.6665 9.26665 20.7332 8.33331 18.3998 8.33331Z" fill="black" fill-opacity="0.2"/>
</g>
</svg>
