<svg width="16" height="14" viewBox="0 0 16 14" fill="none" xmlns="http://www.w3.org/2000/svg">
<path d="M2.19371 11.7504V3.01197C2.19367 2.8771 2.2367 2.74548 2.31697 2.63499C2.39723 2.5245 2.51083 2.44049 2.64235 2.39436L9.23621 0.0842625C9.28772 0.0661982 9.34299 0.0603684 9.39733 0.0672676C9.45168 0.0741667 9.50349 0.0935913 9.54839 0.123894C9.59328 0.154197 9.62993 0.194485 9.65523 0.241343C9.68053 0.2882 9.69373 0.340245 9.69371 0.393064V3.64731L14.0001 5.03035C14.1359 5.07394 14.254 5.15763 14.3377 5.26954C14.4214 5.38145 14.4665 5.51591 14.4664 5.65386V11.7504H15.8301V13.0645H0.830078V11.7504H2.19371ZM3.55735 11.7504H8.33008V1.79976L3.55735 3.47254V11.7504ZM13.1028 11.7504V6.12758L9.69371 5.03232V11.7504H13.1028Z" fill="#4545FE"/>
</svg>
