<svg width="36" height="36" viewBox="0 0 36 36" fill="none" xmlns="http://www.w3.org/2000/svg">
<path opacity="0.4" d="M24.939 8.22171H20.6254C19.5508 8.2288 18.5305 7.75077 17.8495 6.92113L16.429 4.95725C15.7595 4.12031 14.7392 3.64005 13.6661 3.65667H10.6166C5.14305 3.65667 3.12305 6.8691 3.12305 12.3315V18.2362C3.11623 18.8855 32.4307 18.8846 32.4326 18.2362V16.5194C32.4587 11.0569 30.4908 8.22171 24.939 8.22171Z" fill="#CBCBCB"/>
<path fill-rule="evenodd" clip-rule="evenodd" d="M30.7253 10.3159C31.1943 10.8642 31.5567 11.4949 31.794 12.1758C32.2609 13.575 32.4771 15.0455 32.4326 16.5197V24.2191C32.4307 24.8677 32.3829 25.5152 32.2892 26.157C32.111 27.2896 31.7126 28.3764 31.1164 29.3564C30.8423 29.8298 30.5096 30.2667 30.1258 30.6569C28.3893 32.2508 26.0833 33.0804 23.727 32.9589H11.8156C9.45562 33.0796 7.14585 32.2503 5.4037 30.6569C5.02467 30.266 4.69629 29.8291 4.42628 29.3564C3.83355 28.3771 3.44358 27.2891 3.27944 26.157C3.17507 25.5162 3.12277 24.8682 3.12305 24.2191V16.5197C3.1228 15.8767 3.15759 15.2341 3.22732 14.5948C3.24198 14.4827 3.26396 14.3723 3.28571 14.2632C3.32199 14.0811 3.35763 13.9023 3.35763 13.7235C3.48993 12.952 3.73126 12.2032 4.07441 11.4995C5.09093 9.3275 7.17609 8.22202 10.5905 8.22202H24.926C26.8384 8.0741 28.7367 8.64983 30.2432 9.83473C30.4166 9.98185 30.578 10.1428 30.7253 10.3159ZM10.4081 23.5038H25.1606H25.1867C25.5103 23.5179 25.8262 23.4019 26.0638 23.1821C26.3012 22.9621 26.4406 22.6565 26.4507 22.3333C26.4691 22.0493 26.3755 21.7692 26.1901 21.553C25.9769 21.2623 25.6389 21.0888 25.2779 21.0847H10.4081C9.73872 21.0847 9.19609 21.6262 9.19609 22.2943C9.19609 22.9622 9.73872 23.5038 10.4081 23.5038Z" fill="#CBCBCB"/>
</svg>
