<svg width="18" height="18" viewBox="0 0 18 18" fill="none" xmlns="http://www.w3.org/2000/svg">
<g clip-path="url(#clip0_5201_31942)">
<path d="M0.750001 10.8747C0.749539 10.0463 0.960316 9.23145 1.36241 8.50718C1.76451 7.7829 2.34465 7.17312 3.048 6.73545C3.23363 5.28802 3.94035 3.95783 5.03589 2.99382C6.13143 2.02981 7.54071 1.49805 9 1.49805C10.4593 1.49805 11.8686 2.02981 12.9641 2.99382C14.0597 3.95783 14.7664 5.28802 14.952 6.73545C15.8244 7.27822 16.503 8.08275 16.891 9.03419C17.2789 9.98562 17.3563 11.0353 17.1121 12.0333C16.8679 13.0314 16.3146 13.9267 15.5313 14.5916C14.7479 15.2565 13.7745 15.6568 12.75 15.7355L5.25 15.7497C2.733 15.5442 0.750001 13.4412 0.750001 10.8747ZM12.636 14.24C13.3454 14.1854 14.0194 13.9081 14.5617 13.4476C15.104 12.9871 15.487 12.367 15.6558 11.6759C15.8247 10.9847 15.7708 10.2579 15.5019 9.59924C15.233 8.94055 14.7628 8.38369 14.1585 8.0082L13.5532 7.63095L13.4633 6.92445C13.3231 5.83972 12.7927 4.84315 11.9712 4.12102C11.1497 3.39888 10.0934 3.00059 8.99963 3.00059C7.90587 3.00059 6.84954 3.39888 6.02807 4.12102C5.20659 4.84315 4.67619 5.83972 4.536 6.92445L4.446 7.63095L3.84225 8.0082C3.23797 8.38365 2.76779 8.94044 2.49885 9.59907C2.22991 10.2577 2.17597 10.9845 2.34473 11.6756C2.5135 12.3667 2.89633 12.9868 3.43856 13.4473C3.98079 13.9079 4.65469 14.1853 5.364 14.24L5.49375 14.2497H12.5062L12.636 14.24ZM9.75 8.9997H12L9 12.7497L6 8.9997H8.25V5.9997H9.75V8.9997Z" fill="#4545FE"/>
</g>
<defs>
<clipPath id="clip0_5201_31942">
<rect width="18" height="18" fill="white"/>
</clipPath>
</defs>
</svg>
