<svg width="18" height="18" viewBox="0 0 18 18" fill="none" xmlns="http://www.w3.org/2000/svg">
<path d="M15.2967 1.97813C14.6592 1.34062 13.6254 1.34062 12.9878 1.97813L12.5583 2.40771C12.432 2.53399 12.3612 2.70545 12.3612 2.88405C12.3612 3.06265 12.432 3.23384 12.5583 3.36013L14.6401 5.44196C14.7664 5.56825 14.9376 5.63905 15.1162 5.63905C15.2948 5.63905 15.4662 5.56825 15.5925 5.44196L16.0221 5.01238C16.6596 4.37488 16.6596 3.34108 16.0221 2.70357L15.2967 1.97813ZM10.6923 4.27368L1.80118 13.1648C1.60831 13.3577 1.5 13.6192 1.5 13.8919V16.0741C1.5 16.3093 1.69075 16.5 1.92588 16.5H4.10815C4.38079 16.5 4.64234 16.3917 4.83521 16.1988L13.7263 7.30771L13.7266 7.30797C13.9356 7.099 13.9356 6.76003 13.7266 6.55108L11.4492 4.27373C11.2403 4.06475 10.9013 4.06475 10.6923 4.27373L10.6923 4.27368Z" fill="#5E5E5E"/>
</svg>
