<svg width="34" height="40" viewBox="0 0 34 40" fill="none" xmlns="http://www.w3.org/2000/svg">
<path opacity="0.4" d="M30.6178 14.042C29.7148 14.042 28.5188 14.022 27.0298 14.022C23.398 14.022 20.4118 11.016 20.4118 7.35V0.918C20.4118 0.412 20.006 0 19.505 0H8.92674C3.99208 0 0 4.052 0 9.018V30.568C0 35.778 4.18218 40 9.3406 40H25.091C30.0118 40 34 35.974 34 31.004V14.942C34 14.434 33.596 14.024 33.093 14.026C32.2476 14.032 31.2336 14.042 30.6178 14.042Z" fill="#919191"/>
<path opacity="0.4" d="M25.1693 1.13462C24.5733 0.512618 23.5273 0.940617 23.5273 1.80262V7.07662C23.5273 9.28862 25.3493 11.1086 27.5613 11.1086C28.9553 11.1246 30.8913 11.1286 32.5353 11.1246C33.3773 11.1226 33.8053 10.1166 33.2213 9.50862C31.1113 7.31462 27.3333 3.38262 25.1693 1.13462Z" fill="#919191"/>
<path d="M18.8699 21.9708L21.3119 19.5268C21.8939 18.9468 21.8939 18.0048 21.3119 17.4228C20.7299 16.8408 19.7879 16.8408 19.2059 17.4228L16.7639 19.8628L14.3219 17.4228C13.7399 16.8408 12.7958 16.8408 12.2138 17.4228C11.6318 18.0048 11.6318 18.9468 12.2138 19.5268L14.6579 21.9708L12.2138 24.4128C11.6318 24.9948 11.6318 25.9368 12.2138 26.5168C12.5058 26.8088 12.8858 26.9548 13.2679 26.9548C13.6499 26.9548 14.0299 26.8088 14.3219 26.5168L16.7639 24.0768L19.2059 26.5168C19.4959 26.8088 19.8779 26.9548 20.2599 26.9548C20.6399 26.9548 21.0219 26.8088 21.3119 26.5168C21.8939 25.9368 21.8939 24.9948 21.3119 24.4128L18.8699 21.9708Z" fill="#919191"/>
</svg>
