<svg width="16" height="16" viewBox="0 0 16 16" fill="none" xmlns="http://www.w3.org/2000/svg">
<g clip-path="url(#clip0_5080_32625)">
<path d="M14 13.3594C14 13.5293 13.9298 13.6922 13.8047 13.8124C13.6797 13.9325 13.5101 14 13.3333 14H2.66667C2.48986 14 2.32029 13.9325 2.19526 13.8124C2.07024 13.6922 2 13.5293 2 13.3594V6.62679C1.99993 6.52918 2.02308 6.43283 2.06768 6.34513C2.11228 6.25742 2.17715 6.18066 2.25733 6.12073L7.59067 2.13497C7.7077 2.04749 7.85173 2 8 2C8.14827 2 8.29231 2.04749 8.40933 2.13497L13.7427 6.12073C13.8229 6.18066 13.8877 6.25742 13.9323 6.34513C13.9769 6.43283 14.0001 6.52918 14 6.62679V13.3594V13.3594ZM12.6667 12.7188V6.9394L8 3.45202L3.33333 6.9394V12.7188H12.6667Z" fill="#4545FE"/>
</g>
<defs>
<clipPath id="clip0_5080_32625">
<rect width="16" height="16" fill="white"/>
</clipPath>
</defs>
</svg>
