<svg xmlns="http://www.w3.org/2000/svg" width="18" height="18" viewBox="0 0 18 18" fill="none">
<path d="M14.7179 1.5H3.38828C2.34825 1.5 1.5 2.34825 1.5 3.36172V11.8324C1.5 12.8724 2.34825 13.6941 3.38828 13.6941H6.22069V16.1459C6.22069 16.4336 6.55262 16.6018 6.78482 16.4321L10.4699 13.6676H14.7185C15.7586 13.6676 16.6068 12.8193 16.6068 11.8059V3.36172C16.6062 2.34825 15.783 1.5 14.7179 1.5ZM9.3157 9.99725H6.01121C5.62175 9.99725 5.30311 9.68155 5.30311 9.28914C5.30311 8.89674 5.62175 8.58104 6.01121 8.58104H9.3157C9.70811 8.58104 10.0238 8.89969 10.0238 9.28914C10.0238 9.6786 9.70811 9.99725 9.3157 9.99725ZM12.1481 7.16483H6.01121C5.62175 7.16483 5.30311 6.84914 5.30311 6.45673C5.30311 6.06432 5.62175 5.74862 6.01121 5.74862H12.1481C12.5405 5.74862 12.8562 6.06727 12.8562 6.45673C12.8562 6.84618 12.5405 7.16483 12.1481 7.16483Z" fill="#606060"/>
</svg>