<svg width="37" height="36" viewBox="0 0 37 36" fill="none" xmlns="http://www.w3.org/2000/svg">
<g clip-path="url(#clip0_11086_9117)">
<path d="M18.5246 9.93652C16.5393 9.93794 14.6246 10.6734 13.1488 12.0015V10.6085C13.1488 10.4303 13.078 10.2594 12.952 10.1333C12.826 10.0073 12.6551 9.93652 12.4769 9.93652C12.2986 9.93652 12.1277 10.0073 12.0017 10.1333C11.8757 10.2594 11.8049 10.4303 11.8049 10.6085V12.6244C11.8049 13.1591 12.0173 13.6718 12.3953 14.0499C12.7734 14.428 13.2862 14.6404 13.8208 14.6404H15.8367C16.015 14.6404 16.1859 14.5696 16.3119 14.4435C16.4379 14.3175 16.5087 14.1466 16.5087 13.9684C16.5087 13.7902 16.4379 13.6192 16.3119 13.4932C16.1859 13.3672 16.015 13.2964 15.8367 13.2964H13.8208C13.7982 13.293 13.7757 13.2883 13.7536 13.2823C14.8486 12.1795 16.2924 11.4909 17.8386 11.334C19.3848 11.1772 20.9375 11.5618 22.2316 12.4223C23.5258 13.2827 24.4812 14.5657 24.9348 16.0521C25.3883 17.5386 25.3119 19.1364 24.7186 20.5728C24.1253 22.0092 23.0519 23.1951 21.6816 23.9282C20.3112 24.6613 18.7289 24.8961 17.2048 24.5925C15.6806 24.2888 14.3091 23.4656 13.3243 22.2634C12.3395 21.0611 11.8025 19.5543 11.8049 18.0002C11.8049 17.822 11.7341 17.6511 11.6081 17.5251C11.4821 17.3991 11.3111 17.3283 11.1329 17.3283C10.9547 17.3283 10.7838 17.3991 10.6578 17.5251C10.5317 17.6511 10.4609 17.822 10.4609 18.0002C10.4609 19.5951 10.9339 21.1541 11.8199 22.4802C12.706 23.8063 13.9653 24.8398 15.4388 25.4501C16.9123 26.0605 18.5336 26.2201 20.0978 25.909C21.662 25.5979 23.0988 24.8299 24.2266 23.7021C25.3543 22.5744 26.1223 21.1376 26.4334 19.5734C26.7446 18.0092 26.5849 16.3878 25.9745 14.9144C25.3642 13.4409 24.3307 12.1816 23.0046 11.2955C21.6785 10.4095 20.1195 9.93652 18.5246 9.93652V9.93652Z" fill="white"/>
<path d="M18.5235 13.9688C18.3453 13.9688 18.1744 14.0395 18.0484 14.1656C17.9224 14.2916 17.8516 14.4625 17.8516 14.6407V18.0006C17.8516 18.1788 17.9224 18.3497 18.0485 18.4757L20.0644 20.4916C20.1911 20.614 20.3609 20.6818 20.537 20.6802C20.7132 20.6787 20.8818 20.608 21.0064 20.4834C21.131 20.3588 21.2016 20.1903 21.2032 20.0141C21.2047 19.8379 21.137 19.6682 21.0146 19.5414L19.1955 17.7224V14.6407C19.1955 14.4625 19.1247 14.2916 18.9987 14.1656C18.8727 14.0395 18.7018 13.9688 18.5235 13.9688Z" fill="white"/>
</g>
<rect x="0.85944" y="0.336003" width="35.3284" height="35.3284" rx="7.72806" stroke="white" stroke-width="0.672006"/>
<defs>
<clipPath id="clip0_11086_9117">
<rect width="16.1274" height="16.1274" fill="white" transform="translate(10.4609 9.93652)"/>
</clipPath>
</defs>
</svg>
