<svg width="16" height="16" viewBox="0 0 16 16" fill="none" xmlns="http://www.w3.org/2000/svg">
<g clip-path="url(#clip0_5080_32553)">
<path d="M13.3514 1C13.5234 1 13.6884 1.07024 13.81 1.19526C13.9317 1.32029 14 1.48986 14 1.66667V5C14 5.17681 13.9317 5.34638 13.81 5.4714C13.6884 5.59643 13.5234 5.66667 13.3514 5.66667H10.1081V14.3333C10.1081 14.5101 10.0398 14.6797 9.91812 14.8047C9.79648 14.9298 9.63149 15 9.45946 15H6.86486C6.69283 15 6.52785 14.9298 6.4062 14.8047C6.28456 14.6797 6.21622 14.5101 6.21622 14.3333V5.66667H2.64865C2.47662 5.66667 2.31163 5.59643 2.18998 5.4714C2.06834 5.34638 2 5.17681 2 5V3.412C2.00006 3.28823 2.03365 3.16691 2.09701 3.06165C2.16036 2.95639 2.25097 2.87133 2.3587 2.816L5.89189 1H13.3514ZM10.1081 2.33333H6.19805L3.2973 3.824V4.33333H7.51351V13.6667H8.81081V4.33333H10.1081V2.33333ZM12.7027 2.33333H11.4054V4.33333H12.7027V2.33333Z" fill="#4545FE"/>
</g>
<defs>
<clipPath id="clip0_5080_32553">
<rect width="16" height="16" fill="white"/>
</clipPath>
</defs>
</svg>
