<svg width="32" height="31" viewBox="0 0 32 31" fill="none" xmlns="http://www.w3.org/2000/svg">
<g id="Upload 2">
<path id="Vector" opacity="0.4" d="M8.87746 28.2068C5.73493 28.2068 3.17578 25.6038 3.17578 22.4058V16.0449C3.17578 12.8534 5.72724 10.2568 8.86464 10.2568H23.1169C26.2607 10.2568 28.8186 12.8598 28.8186 16.0593V22.4174C28.8186 25.6102 26.2671 28.2068 23.1297 28.2068H21.9245H8.87746Z" fill="white"/>
<path id="Vector_2" d="M15.3031 2.84742L11.5733 6.49612C11.1887 6.87323 11.1887 7.48009 11.5759 7.85595C11.9631 8.23057 12.5875 8.22931 12.9721 7.85346L15.0146 5.85428V7.77105V18.5285C15.0146 19.0593 15.4569 19.4901 16.0018 19.4901C16.548 19.4901 16.9891 19.0593 16.9891 18.5285V5.85428L19.0315 7.85346C19.4162 8.22931 20.0406 8.23057 20.4278 7.85595C20.6214 7.6674 20.7188 7.42141 20.7188 7.17416C20.7188 6.92942 20.6214 6.68342 20.4303 6.49612L16.7019 2.84742C16.516 2.66636 16.2647 2.56396 16.0018 2.56396C15.7403 2.56396 15.489 2.66636 15.3031 2.84742Z" fill="white"/>
</g>
</svg>
