<svg xmlns="http://www.w3.org/2000/svg" width="18" height="17" viewBox="0 0 15 14" fill="none">
<g clip-path="url(#clip0_13604_13260)">
<path d="M3.90116 0.00976563H11.4558C12.3988 0.00976563 13.3031 0.384357 13.9699 1.05113C14.6367 1.71791 15.0113 2.62226 15.0113 3.56522V10.2317C15.0113 11.1747 14.6367 12.079 13.9699 12.7458C13.3031 13.4126 12.3988 13.7872 11.4558 13.7872H3.90116C3.43419 13.7872 2.9718 13.6952 2.54039 13.5164C2.10898 13.3377 1.717 13.0758 1.38684 12.7455C1.05667 12.4153 0.794794 12.0233 0.616155 11.5919C0.437515 11.1604 0.345616 10.698 0.345703 10.231V3.56522C0.345703 2.62226 0.720295 1.71791 1.38707 1.05113C2.05385 0.384357 2.95819 0.00976563 3.90116 0.00976562V0.00976563Z" fill="#12D8A0"/>
<path d="M4.06641 5.60253H4.94726V2.76978H6.11639L7.50441 5.60319H9.52571V2.76978H10.3932V5.60319H11.2914V6.41532H10.3932V7.19875H11.2914V8.00486H10.3932V11.0278H9.27613L7.77334 8.00486H5.81544V11.0278H4.94793V8.00486H4.06707V7.19808H4.94793V6.41465H4.06707L4.06641 5.60253ZM8.29318 7.19741H9.52571V6.41465H7.90747L8.29318 7.19741ZM5.81677 7.19741H7.37762L6.98591 6.41398H5.81677V7.19741ZM9.5484 9.7539H9.56575C9.5304 9.35454 9.51704 8.95355 9.52571 8.55273V8.00553H8.68489L9.5484 9.7539ZM5.80543 3.97695H5.77674C5.81205 4.3482 5.82542 4.72121 5.81677 5.09403V5.60053H6.58352L6.03098 4.48344C5.94726 4.31854 5.87198 4.14949 5.80543 3.97695Z" fill="white"/>
</g>
<defs>
<clipPath id="clip0_13604_13260">
<rect width="14.6656" height="13.7767" fill="white" transform="translate(0.34375 0.00976562)"/>
</clipPath>
</defs>
</svg>