<svg width="24" height="24" viewBox="0 0 24 24" fill="none" xmlns="http://www.w3.org/2000/svg">
<g id="vuesax/outline/story">
<g id="story">
<path id="Vector" d="M12.0014 19.3706C10.2114 19.3706 8.42141 18.6906 7.05141 17.3206C4.32141 14.5906 4.32141 10.1505 7.05141 7.42055C9.78141 4.69055 14.2214 4.69055 16.9514 7.42055C19.6814 10.1505 19.6814 14.5906 16.9514 17.3206C15.5814 18.6906 13.7914 19.3706 12.0014 19.3706ZM12.0014 6.87056C10.5914 6.87056 9.1814 7.41054 8.1114 8.48054C5.9714 10.6305 5.9714 14.1106 8.1114 16.2606C10.2614 18.4106 13.7514 18.4006 15.8914 16.2606C18.0314 14.1106 18.0314 10.6305 15.8914 8.48054C14.8214 7.41054 13.4114 6.87056 12.0014 6.87056Z" fill="#CDD1D6"/>
<path id="Vector_2" d="M8.24906 22.3899C8.15906 22.3899 8.05906 22.3699 7.96906 22.3399C5.71906 21.4399 3.89905 19.8499 2.67905 17.7499C1.49905 15.6999 1.02905 13.3799 1.33905 11.0199C1.38905 10.6099 1.76905 10.3199 2.17905 10.3699C2.58905 10.4199 2.87904 10.7999 2.82904 11.2099C2.56904 13.2299 2.96907 15.2299 3.97907 16.9899C5.01907 18.7899 6.58905 20.1599 8.51905 20.9299C8.89905 21.0899 9.08906 21.5198 8.93906 21.9098C8.82906 22.2098 8.53906 22.3899 8.24906 22.3899Z" fill="#CDD1D6"/>
<path id="Vector_3" d="M5.84961 5.23035C5.62961 5.23035 5.40961 5.13037 5.25961 4.94037C4.99961 4.61037 5.05962 4.14038 5.38962 3.89038C7.29962 2.40038 9.57961 1.61035 11.9996 1.61035C14.3596 1.61035 16.6096 2.37036 18.4996 3.81036C18.8296 4.06036 18.8896 4.53035 18.6396 4.86035C18.3896 5.19035 17.9196 5.25037 17.5896 5.00037C15.9696 3.76037 14.0396 3.11035 11.9996 3.11035C9.91961 3.11035 7.9496 3.79037 6.3096 5.07037C6.1696 5.18037 6.00961 5.23035 5.84961 5.23035Z" fill="#CDD1D6"/>
<path id="Vector_4" d="M15.7487 22.3896C15.4487 22.3896 15.1687 22.2096 15.0487 21.9196C14.8987 21.5396 15.0787 21.0996 15.4687 20.9396C17.3987 20.1596 18.9688 18.7996 20.0088 16.9996C21.0288 15.2396 21.4287 13.2396 21.1587 11.2196C21.1087 10.8096 21.3987 10.4296 21.8087 10.3796C22.2087 10.3296 22.5987 10.6197 22.6487 11.0297C22.9487 13.3797 22.4887 15.7096 21.3087 17.7596C20.0987 19.8596 18.2687 21.4396 16.0187 22.3496C15.9387 22.3696 15.8487 22.3896 15.7487 22.3896Z" fill="#CDD1D6"/>
</g>
</g>
</svg>
