<svg xmlns="http://www.w3.org/2000/svg" width="18" height="18" viewBox="0 0 18 18" fill="none">
  <g clip-path="url(#clip0_13581_6794)">
    <path d="M8.625 11.625C8.02826 11.625 7.45597 11.3879 7.03401 10.966C6.61205 10.544 6.375 9.97174 6.375 9.375V7.875M8.625 11.625C9.22174 11.625 9.79403 11.3879 10.216 10.966C10.6379 10.544 10.875 9.97174 10.875 9.375V7.875M8.625 11.625V7.875M6.375 7.875C6.375 7.27826 6.61205 6.70597 7.03401 6.28401C7.45597 5.86205 8.02826 5.625 8.625 5.625C9.22174 5.625 9.79403 5.86205 10.216 6.28401C10.6379 6.70597 10.875 7.27826 10.875 7.875M6.375 7.875H10.875M10.929 8.625H12M5.25 8.625H6.375M10.875 10.5L11.625 10.875M6.375 10.5L5.625 10.875M10.875 6.75L11.625 6.375M6.375 6.75L5.625 6.375M13.875 13.875L16.5 16.5" stroke="#606060" stroke-width="1.5" stroke-linecap="round"/>
    <path d="M5.06285 2.45187C6.55992 1.58797 8.31998 1.29771 10.0152 1.63519C11.7104 1.97266 13.2251 2.91485 14.2771 4.28624C15.3292 5.65762 15.8469 7.36469 15.7338 9.08944C15.6206 10.8142 14.8844 12.439 13.6622 13.6612C12.44 14.8834 10.8152 15.6196 9.09041 15.7328C7.36567 15.8459 5.6586 15.3282 4.28721 14.2762C2.91583 13.2241 1.97364 11.7094 1.63617 10.0142C1.29869 8.31901 1.58894 6.55894 2.45285 5.06187" stroke="#606060" stroke-width="1.5" stroke-linecap="round"/>
  </g>
  <defs>
    <clipPath id="clip0_13581_6794">
      <rect width="18" height="18" fill="white"/>
    </clipPath>
  </defs>
</svg>