<svg width="24" height="24" viewBox="0 0 24 24" fill="none" xmlns="http://www.w3.org/2000/svg">
<g id="solar:magnifer-bug-broken">
<g id="Group">
<path id="Vector" d="M11.5 15.5C10.7044 15.5 9.94129 15.1839 9.37868 14.6213C8.81607 14.0587 8.5 13.2956 8.5 12.5V10.5M11.5 15.5C12.2956 15.5 13.0587 15.1839 13.6213 14.6213C14.1839 14.0587 14.5 13.2956 14.5 12.5V10.5M11.5 15.5V10.5M8.5 10.5C8.5 9.70435 8.81607 8.94129 9.37868 8.37868C9.94129 7.81607 10.7044 7.5 11.5 7.5C12.2956 7.5 13.0587 7.81607 13.6213 8.37868C14.1839 8.94129 14.5 9.70435 14.5 10.5M8.5 10.5H14.5M14.572 11.5H16M7 11.5H8.5M14.5 14L15.5 14.5M8.5 14L7.5 14.5M14.5 9L15.5 8.5M8.5 9L7.5 8.5M18.5 18.5L22 22" stroke="#616161" stroke-width="1.5" stroke-linecap="round"/>
<path id="Vector_2" d="M6.75177 3.26982C8.74786 2.11794 11.0946 1.73094 13.3549 2.1809C15.6151 2.63087 17.6347 3.88712 19.0375 5.71564C20.4403 7.54415 21.1305 9.82024 20.9796 12.1199C20.8288 14.4196 19.8471 16.586 18.2175 18.2156C16.5879 19.8452 14.4215 20.8268 12.1219 20.9777C9.82219 21.1285 7.5461 20.4383 5.71759 19.0355C3.88907 17.6328 2.63282 15.6132 2.18286 13.3529C1.73289 11.0927 2.11989 8.74591 3.27177 6.74982" stroke="#616161" stroke-width="1.5" stroke-linecap="round"/>
</g>
</g>
</svg>
