<svg width="18" height="20" viewBox="0 0 18 20" fill="none" xmlns="http://www.w3.org/2000/svg">
<path fill-rule="evenodd" clip-rule="evenodd" d="M13.4109 0.768622L13.4119 1.51824C16.1665 1.73413 17.9862 3.61119 17.9891 6.48975L18 14.9155C18.0039 18.054 16.0322 19.985 12.8718 19.99L5.15188 20C2.01119 20.004 0.0148166 18.027 0.0108666 14.8795L6.65206e-06 6.55272C-0.00394335 3.65517 1.75153 1.78311 4.50617 1.53024L4.50518 0.780612C4.5042 0.340832 4.83001 0.0100023 5.26444 0.0100023C5.69886 0.00900226 6.02468 0.338832 6.02567 0.778612L6.02666 1.47826L11.8914 1.47027L11.8904 0.770622C11.8894 0.330842 12.2152 0.00100227 12.6497 2.26772e-06C13.0742 -0.000997732 13.4099 0.328842 13.4109 0.768622ZM1.52148 6.86157L16.4696 6.84158V6.49175C16.4272 4.34283 15.349 3.21539 13.4138 3.04748L13.4148 3.81709C13.4148 4.24688 13.0801 4.5877 12.6556 4.5877C12.2212 4.5887 11.8943 4.24887 11.8943 3.81909L11.8934 3.0095L6.02863 3.01749L6.02962 3.82609C6.02962 4.25687 5.70479 4.5967 5.27036 4.5967C4.83594 4.5977 4.50913 4.25887 4.50913 3.82809L4.50815 3.05847C2.58286 3.25137 1.51753 4.38281 1.52049 6.55072L1.52148 6.86157ZM12.2399 11.4043V11.4153C12.2498 11.8751 12.625 12.2239 13.0801 12.2139C13.5244 12.2029 13.8789 11.8221 13.869 11.3623C13.8483 10.9225 13.4918 10.5637 13.0485 10.5647C12.5944 10.5747 12.2389 10.9445 12.2399 11.4043ZM13.0554 15.892C12.6013 15.882 12.235 15.5032 12.234 15.0435C12.2241 14.5837 12.5884 14.2029 13.0426 14.1919H13.0525C13.5165 14.1919 13.8927 14.5707 13.8927 15.0405C13.8937 15.5102 13.5185 15.891 13.0554 15.892ZM8.1721 11.4203C8.1919 11.8801 8.568 12.2389 9.0222 12.2189C9.4665 12.1979 9.821 11.8181 9.8012 11.3583C9.7903 10.9085 9.425 10.5587 8.9807 10.5597C8.5266 10.5797 8.1711 10.9605 8.1721 11.4203ZM9.0262 15.8471C8.572 15.8671 8.1968 15.5082 8.1761 15.0485C8.1761 14.5887 8.5305 14.2089 8.9847 14.1879C9.429 14.1869 9.7953 14.5367 9.8052 14.9855C9.8259 15.4463 9.4705 15.8261 9.0262 15.8471ZM4.10433 11.4553C4.12408 11.915 4.50025 12.2749 4.95442 12.2539C5.39872 12.2339 5.75317 11.8531 5.73243 11.3933C5.72256 10.9435 5.35725 10.5937 4.91196 10.5947C4.45779 10.6147 4.10334 10.9955 4.10433 11.4553ZM4.95837 15.8521C4.5042 15.8731 4.12901 15.5132 4.10828 15.0535C4.10729 14.5937 4.46273 14.2129 4.9169 14.1929C5.3612 14.1919 5.7275 14.5417 5.73737 14.9915C5.7581 15.4513 5.40365 15.8321 4.95837 15.8521Z" fill="#191919"/>
</svg>
