<svg width="14" height="14" viewBox="0 0 14 14" fill="none" xmlns="http://www.w3.org/2000/svg">
<path d="M14 13.2529C14 13.4511 13.9181 13.6411 13.7723 13.7812C13.6265 13.9213 13.4287 14 13.2225 14H0.777467C0.57127 14 0.373518 13.9213 0.227715 13.7812C0.0819116 13.6411 1.243e-08 13.4511 1.243e-08 13.2529V5.39761C-2.11758e-05 5.28374 0.0270459 5.17138 0.0791331 5.0691C0.13122 4.96682 0.206949 4.87734 0.300533 4.80749L6.52213 0.157428C6.65862 0.0553965 6.82661 0 6.99953 0C7.17246 0 7.34045 0.0553965 7.47693 0.157428L13.6995 4.80749C13.7931 4.87734 13.8688 4.96682 13.9209 5.0691C13.973 5.17138 14 5.28374 14 5.39761V13.252V13.2529ZM12.4441 12.5059V5.76262L7 1.6937L1.55587 5.76262V12.505L12.4441 12.5059Z" fill="#4545FE"/>
</svg>
