<svg width="15" height="15" viewBox="0 0 15 15" fill="none" xmlns="http://www.w3.org/2000/svg">
<g clip-path="url(#clip0_13568_21864)">
<path d="M13.5892 0.983175C13.1069 0.494066 12.4035 0.293528 11.7357 0.454751L2.81897 2.32873C1.12565 2.5793 -0.0439172 4.15514 0.206652 5.84843C0.304064 6.50674 0.610789 7.11623 1.08144 7.58672L2.03738 8.54326C2.08213 8.58741 2.10715 8.64778 2.1068 8.71066V10.4744C2.10808 11.5717 2.99725 12.4608 4.09451 12.4621H5.85825C5.92122 12.4621 5.98164 12.4871 6.02623 12.5315L6.98216 13.4875C7.56018 14.0693 8.34628 14.3968 9.16642 14.3973C9.50497 14.3971 9.84125 14.3417 10.162 14.2334C11.269 13.8658 12.0735 12.9044 12.2402 11.75L14.1141 2.86125C14.2825 2.18645 14.083 1.47289 13.5892 0.983175ZM1.99366 4.96442C2.15218 4.47469 2.57994 4.12105 3.09075 4.05748C3.11137 4.05475 3.13176 4.05125 3.152 4.04698L10.922 2.41389L3.85657 9.47527V8.71063C3.85785 8.18314 3.64778 7.67711 3.27333 7.30559L2.31854 6.34965C1.95079 5.98997 1.82416 5.45011 1.99366 4.96442ZM10.5219 11.4198C10.5173 11.4403 10.5144 11.4607 10.5114 11.4811C10.4101 12.2199 9.72913 12.7367 8.99033 12.6354C8.69845 12.5954 8.42765 12.461 8.21926 12.2527L7.2639 11.2974C6.89219 10.9228 6.38597 10.7128 5.85828 10.7141H5.09364L12.1574 3.64864L10.5219 11.4198Z" fill="white"/>
</g>
<defs>
<clipPath id="clip0_13568_21864">
<rect width="14" height="14" fill="white" transform="translate(0.172852 0.398438)"/>
</clipPath>
</defs>
</svg>
