<svg width="24" height="24" viewBox="0 0 24 24" fill="none" xmlns="http://www.w3.org/2000/svg">
<g id="vuesax/outline/people">
<g id="people">
<path id="Vector" d="M18.0003 7.90977C17.9703 7.90977 17.9503 7.90977 17.9203 7.90977H17.8703C15.9803 7.84977 14.5703 6.38977 14.5703 4.58977C14.5703 2.74977 16.0703 1.25977 17.9003 1.25977C19.7303 1.25977 21.2303 2.75977 21.2303 4.58977C21.2203 6.39977 19.8103 7.85977 18.0103 7.91977C18.0103 7.90977 18.0103 7.90977 18.0003 7.90977ZM17.9003 2.74977C16.8903 2.74977 16.0703 3.56977 16.0703 4.57977C16.0703 5.56977 16.8403 6.36977 17.8303 6.40977C17.8403 6.39977 17.9203 6.39977 18.0103 6.40977C18.9803 6.35977 19.7303 5.55977 19.7403 4.57977C19.7403 3.56977 18.9203 2.74977 17.9003 2.74977Z" fill="#CDD1D6"/>
<path id="Vector_2" d="M18.0085 15.2797C17.6185 15.2797 17.2285 15.2497 16.8385 15.1797C16.4285 15.1097 16.1585 14.7197 16.2285 14.3097C16.2985 13.8997 16.6885 13.6297 17.0985 13.6997C18.3285 13.9097 19.6285 13.6797 20.4985 13.0997C20.9685 12.7897 21.2185 12.3997 21.2185 12.0097C21.2185 11.6197 20.9585 11.2397 20.4985 10.9297C19.6285 10.3497 18.3085 10.1197 17.0685 10.3397C16.6585 10.4197 16.2685 10.1397 16.1985 9.72966C16.1285 9.31966 16.3985 8.92966 16.8085 8.85966C18.4385 8.56966 20.1285 8.87965 21.3285 9.67965C22.2085 10.2697 22.7185 11.1097 22.7185 12.0097C22.7185 12.8997 22.2185 13.7497 21.3285 14.3497C20.4185 14.9497 19.2385 15.2797 18.0085 15.2797Z" fill="#CDD1D6"/>
<path id="Vector_3" d="M5.97047 7.91C5.96047 7.91 5.95047 7.91 5.95047 7.91C4.15047 7.85 2.74047 6.39 2.73047 4.59C2.73047 2.75 4.23047 1.25 6.06047 1.25C7.89047 1.25 9.39047 2.75 9.39047 4.58C9.39047 6.39 7.98047 7.85 6.18047 7.91L5.97047 7.16L6.04047 7.91C6.02047 7.91 5.99047 7.91 5.97047 7.91ZM6.07047 6.41C6.13047 6.41 6.18047 6.41 6.24047 6.42C7.13047 6.38 7.91047 5.58 7.91047 4.59C7.91047 3.58 7.09047 2.75999 6.08047 2.75999C5.07047 2.75999 4.25047 3.58 4.25047 4.59C4.25047 5.57 5.01047 6.36 5.98047 6.42C5.99047 6.41 6.03047 6.41 6.07047 6.41Z" fill="#CDD1D6"/>
<path id="Vector_4" d="M5.96 15.2797C4.73 15.2797 3.55 14.9497 2.64 14.3497C1.76 13.7597 1.25 12.9097 1.25 12.0097C1.25 11.1197 1.76 10.2697 2.64 9.67965C3.84 8.87965 5.53 8.56966 7.16 8.85966C7.57 8.92966 7.84 9.31966 7.77 9.72966C7.7 10.1397 7.31 10.4197 6.9 10.3397C5.66 10.1197 4.35 10.3497 3.47 10.9297C3 11.2397 2.75 11.6197 2.75 12.0097C2.75 12.3997 3.01 12.7897 3.47 13.0997C4.34 13.6797 5.64 13.9097 6.87 13.6997C7.28 13.6297 7.67 13.9097 7.74 14.3097C7.81 14.7197 7.54 15.1097 7.13 15.1797C6.74 15.2497 6.35 15.2797 5.96 15.2797Z" fill="#CDD1D6"/>
<path id="Vector_5" d="M12.0003 15.3805C11.9703 15.3805 11.9503 15.3805 11.9203 15.3805H11.8703C9.98031 15.3205 8.57031 13.8605 8.57031 12.0605C8.57031 10.2205 10.0703 8.73047 11.9003 8.73047C13.7303 8.73047 15.2303 10.2305 15.2303 12.0605C15.2203 13.8705 13.8103 15.3305 12.0103 15.3905C12.0103 15.3805 12.0103 15.3805 12.0003 15.3805ZM11.9003 10.2205C10.8903 10.2205 10.0703 11.0405 10.0703 12.0505C10.0703 13.0405 10.8403 13.8405 11.8303 13.8805C11.8403 13.8705 11.9203 13.8705 12.0103 13.8805C12.9803 13.8305 13.7303 13.0305 13.7403 12.0505C13.7403 11.0505 12.9203 10.2205 11.9003 10.2205Z" fill="#CDD1D6"/>
<path id="Vector_6" d="M12.0013 22.7597C10.8013 22.7597 9.60125 22.4497 8.67125 21.8197C7.79125 21.2297 7.28125 20.3897 7.28125 19.4897C7.28125 18.5997 7.78125 17.7397 8.67125 17.1497C10.5412 15.9097 13.4713 15.9097 15.3313 17.1497C16.2113 17.7397 16.7213 18.5797 16.7213 19.4797C16.7213 20.3697 16.2213 21.2297 15.3313 21.8197C14.4013 22.4397 13.2013 22.7597 12.0013 22.7597ZM9.50125 18.4097C9.03125 18.7197 8.78125 19.1097 8.78125 19.4997C8.78125 19.8897 9.04125 20.2697 9.50125 20.5797C10.8513 21.4897 13.1413 21.4897 14.4913 20.5797C14.9613 20.2697 15.2113 19.8797 15.2113 19.4897C15.2113 19.0997 14.9513 18.7197 14.4913 18.4097C13.1513 17.4997 10.8613 17.5097 9.50125 18.4097Z" fill="#CDD1D6"/>
</g>
</g>
</svg>
