<svg xmlns="http://www.w3.org/2000/svg" width="18" height="18" viewBox="0 0 18 18" fill="none">
  <path d="M2.25 2.7C2.25 2.58065 2.29741 2.46619 2.3818 2.3818C2.46619 2.29741 2.58065 2.25 2.7 2.25H15.3C15.4193 2.25 15.5338 2.29741 15.6182 2.3818C15.7026 2.46619 15.75 2.58065 15.75 2.7V13.05C15.75 13.1091 15.7384 13.1676 15.7157 13.2222C15.6931 13.2768 15.66 13.3264 15.6182 13.3682C15.5764 13.41 15.5268 13.4431 15.4722 13.4657C15.4176 13.4884 15.3591 13.5 15.3 13.5H12.195C12.1335 13.4999 12.0726 13.5124 12.0161 13.5368C11.9596 13.5612 11.9087 13.5969 11.8665 13.6417L9.32775 16.3395C9.28567 16.3842 9.23489 16.4199 9.17852 16.4442C9.12216 16.4686 9.0614 16.4812 9 16.4812C8.9386 16.4812 8.87784 16.4686 8.82148 16.4442C8.76511 16.4199 8.71433 16.3842 8.67225 16.3395L6.1335 13.6417C6.09135 13.5969 6.04045 13.5612 5.98394 13.5368C5.92744 13.5124 5.86654 13.4999 5.805 13.5H2.7C2.58065 13.5 2.46619 13.4526 2.3818 13.3682C2.29741 13.2838 2.25 13.1693 2.25 13.05V2.7Z" stroke="#606060" stroke-width="1.125"/>
  <path d="M9 5.25L10.0688 7.18125L12 8.25L10.0688 9.31875L9 11.25L7.93125 9.31875L6 8.25L7.93125 7.18125L9 5.25Z" stroke="#606060" stroke-width="1.125" stroke-linecap="round" stroke-linejoin="round"/>
</svg>