<svg width="24" height="24" viewBox="0 0 24 24" fill="none" xmlns="http://www.w3.org/2000/svg">
<circle cx="11.9999" cy="11.9999" r="11.9999" fill="#223342"/>
<path d="M12.5989 9H9.39891C9.26891 9 9.14391 9.005 9.02391 9.02C7.67891 9.135 7.00391 9.93 7.00391 11.395V13.395C7.00391 15.395 7.80391 15.79 9.39891 15.79H9.59891C9.70891 15.79 9.85391 15.865 9.91891 15.95L10.5189 16.75C10.7839 17.105 11.2139 17.105 11.4789 16.75L12.0789 15.95C12.1539 15.85 12.2739 15.79 12.3989 15.79H12.5989C14.0639 15.79 14.8589 15.12 14.9739 13.77C14.9889 13.65 14.9939 13.525 14.9939 13.395V11.395C14.9939 9.8 14.1939 9 12.5989 9ZM9.25391 13C8.97391 13 8.75391 12.775 8.75391 12.5C8.75391 12.225 8.97891 12 9.25391 12C9.52891 12 9.75391 12.225 9.75391 12.5C9.75391 12.775 9.52891 13 9.25391 13ZM10.9989 13C10.7189 13 10.4989 12.775 10.4989 12.5C10.4989 12.225 10.7239 12 10.9989 12C11.2739 12 11.4989 12.225 11.4989 12.5C11.4989 12.775 11.2789 13 10.9989 13ZM12.7489 13C12.4689 13 12.2489 12.775 12.2489 12.5C12.2489 12.225 12.4739 12 12.7489 12C13.0239 12 13.2489 12.225 13.2489 12.5C13.2489 12.775 13.0239 13 12.7489 13Z" fill="#F2F4F7"/>
<path d="M16.9921 9.395V11.395C16.9921 12.395 16.6821 13.075 16.0621 13.45C15.9121 13.54 15.7371 13.42 15.7371 13.245L15.7421 11.395C15.7421 9.395 14.5971 8.25 12.5971 8.25L9.55208 8.255C9.37708 8.255 9.25708 8.08 9.34708 7.93C9.72208 7.31 10.4021 7 11.3971 7H14.5971C16.1921 7 16.9921 7.8 16.9921 9.395Z" fill="#F2F4F7"/>
</svg>
