<svg width="24" height="24" viewBox="0 0 24 24" fill="none" xmlns="http://www.w3.org/2000/svg">
<circle cx="11.9999" cy="11.9999" r="11.9999" fill="#223342"/>
<path d="M17.0039 13.5C17.0039 15.435 15.4389 17 13.5039 17L14.0289 16.125" stroke="#F2F4F7" stroke-width="0.75" stroke-linecap="round" stroke-linejoin="round"/>
<path d="M7 10.4961C7 8.56109 8.565 6.99609 10.5 6.99609L9.975 7.87109" stroke="#F2F4F7" stroke-width="0.75" stroke-linecap="round" stroke-linejoin="round"/>
<path d="M17.0039 8.09609V8.15109C17.0039 8.29109 16.8939 8.40109 16.7539 8.40109H12.2539C12.1139 8.40109 12.0039 8.29109 12.0039 8.15109V8.09609C12.0039 7.21609 12.2239 6.99609 13.1139 6.99609H15.8939C16.7839 6.99609 17.0039 7.21609 17.0039 8.09609Z" fill="#F2F4F7"/>
<path d="M12.2539 8.9043C12.1139 8.9043 12.0039 9.0143 12.0039 9.1543V9.6543V10.1493C12.0039 11.0293 12.2239 11.2493 13.1139 11.2493H15.8939C16.7839 11.2493 17.0039 11.0293 17.0039 10.1493V9.6543V9.1543C17.0039 9.0143 16.8939 8.9043 16.7539 8.9043H12.2539Z" fill="#F2F4F7"/>
<path d="M12 13.85V13.905C12 14.045 11.89 14.155 11.75 14.155H7.25C7.11 14.155 7 14.045 7 13.905V13.85C7 12.97 7.22 12.75 8.11 12.75H10.89C11.78 12.75 12 12.97 12 13.85Z" fill="#F2F4F7"/>
<path d="M7.25 14.6602C7.11 14.6602 7 14.7702 7 14.9102V15.4102V15.9052C7 16.7852 7.22 17.0052 8.11 17.0052H10.89C11.78 17.0052 12 16.7852 12 15.9052V15.4102V14.9102C12 14.7702 11.89 14.6602 11.75 14.6602H7.25Z" fill="#F2F4F7"/>
</svg>
