<svg width="24" height="24" viewBox="0 0 24 24" fill="none" xmlns="http://www.w3.org/2000/svg">
<circle cx="11.9999" cy="11.9999" r="11.9999" fill="#223342"/>
<g clip-path="url(#clip0_12296_16921)">
<path d="M11.7539 13.75C11.3561 13.75 10.9745 13.5919 10.6932 13.3106C10.4119 13.0293 10.2539 12.6478 10.2539 12.25V11.25M11.7539 13.75C12.1517 13.75 12.5332 13.5919 12.8146 13.3106C13.0959 13.0293 13.2539 12.6478 13.2539 12.25V11.25M11.7539 13.75V11.25M10.2539 11.25C10.2539 10.8522 10.4119 10.4706 10.6932 10.1893C10.9745 9.90803 11.3561 9.75 11.7539 9.75C12.1517 9.75 12.5332 9.90803 12.8146 10.1893C13.0959 10.4706 13.2539 10.8522 13.2539 11.25M10.2539 11.25H13.2539M13.2899 11.75H14.0039M9.50391 11.75H10.2539M13.2539 13L13.7539 13.25M10.2539 13L9.75391 13.25M13.2539 10.5L13.7539 10.25M10.2539 10.5L9.75391 10.25M15.2539 15.25L17.0039 17" stroke="#F2F4F7" stroke-width="0.749996" stroke-linecap="round"/>
<path d="M9.37978 7.63491C10.3778 7.05897 11.5512 6.86547 12.6813 7.09045C13.8114 7.31543 14.8212 7.94356 15.5226 8.85781C16.224 9.77206 16.5691 10.9101 16.4937 12.0599C16.4183 13.2098 15.9274 14.293 15.1126 15.1078C14.2978 15.9226 13.2146 16.4134 12.0648 16.4888C10.915 16.5642 9.77695 16.2191 8.86269 15.5177C7.94844 14.8164 7.32032 13.8065 7.09533 12.6764C6.87035 11.5463 7.06385 10.3729 7.63979 9.3749" stroke="#F2F4F7" stroke-width="0.749996" stroke-linecap="round"/>
</g>
<defs>
<clipPath id="clip0_12296_16921">
<rect width="11.9999" height="11.9999" fill="white" transform="translate(6.00391 6)"/>
</clipPath>
</defs>
</svg>
