<svg width="80" height="80" viewBox="0 0 80 80" fill="none" xmlns="http://www.w3.org/2000/svg">
<g filter="url(#filter0_d_14509_10989)">
<rect x="10.2354" y="10" width="59.7647" height="59.7647" rx="29.8824" fill="black"/>
<path d="M40.1164 28.2153C33.6647 28.2153 28.4497 33.4303 28.4497 39.882C28.4497 46.3337 33.6647 51.5487 40.1164 51.5487C46.568 51.5487 51.783 46.3337 51.783 39.882C51.783 33.4303 46.568 28.2153 40.1164 28.2153ZM45.133 44.8987C45.0251 45.0068 44.8969 45.0926 44.7558 45.1512C44.6146 45.2097 44.4633 45.2399 44.3105 45.2399C44.1577 45.2399 44.0064 45.2097 43.8653 45.1512C43.7242 45.0926 43.596 45.0068 43.488 44.8987L40.1164 41.527L36.7447 44.8987C36.5266 45.1168 36.2307 45.2394 35.9222 45.2394C35.6137 45.2394 35.3178 45.1168 35.0997 44.8987C34.8816 44.6805 34.759 44.3847 34.759 44.0762C34.759 43.9234 34.7891 43.7722 34.8476 43.631C34.906 43.4899 34.9917 43.3617 35.0997 43.2537L38.4714 39.882L35.0997 36.5103C34.8816 36.2922 34.759 35.9963 34.759 35.6878C34.759 35.3793 34.8816 35.0835 35.0997 34.8653C35.3178 34.6472 35.6137 34.5246 35.9222 34.5246C36.2307 34.5246 36.5266 34.6472 36.7447 34.8653L40.1164 38.237L43.488 34.8653C43.5961 34.7573 43.7243 34.6716 43.8654 34.6132C44.0065 34.5547 44.1578 34.5246 44.3105 34.5246C44.4633 34.5246 44.6146 34.5547 44.7557 34.6132C44.8968 34.6716 45.025 34.7573 45.133 34.8653C45.2411 34.9733 45.3267 35.1016 45.3852 35.2427C45.4436 35.3838 45.4737 35.5351 45.4737 35.6878C45.4737 35.8406 45.4436 35.9918 45.3852 36.133C45.3267 36.2741 45.2411 36.4023 45.133 36.5103L41.7614 39.882L45.133 43.2537C45.5764 43.697 45.5764 44.4437 45.133 44.8987Z" fill="white"/>
</g>
<defs>
<filter id="filter0_d_14509_10989" x="0.235352" y="0" width="79.7646" height="79.7647" filterUnits="userSpaceOnUse" color-interpolation-filters="sRGB">
<feFlood flood-opacity="0" result="BackgroundImageFix"/>
<feColorMatrix in="SourceAlpha" type="matrix" values="0 0 0 0 0 0 0 0 0 0 0 0 0 0 0 0 0 0 127 0" result="hardAlpha"/>
<feOffset/>
<feGaussianBlur stdDeviation="5"/>
<feComposite in2="hardAlpha" operator="out"/>
<feColorMatrix type="matrix" values="0 0 0 0 0 0 0 0 0 0 0 0 0 0 0 0 0 0 0.08 0"/>
<feBlend mode="normal" in2="BackgroundImageFix" result="effect1_dropShadow_14509_10989"/>
<feBlend mode="normal" in="SourceGraphic" in2="effect1_dropShadow_14509_10989" result="shape"/>
</filter>
</defs>
</svg>
