<svg xmlns="http://www.w3.org/2000/svg" width="14" height="16" viewBox="0 0 14 16" fill="none">
  <mask id="mask0_13736_8468" style="mask-type:luminance" maskUnits="userSpaceOnUse" x="0" y="0" width="14" height="16">
    <path fill-rule="evenodd" clip-rule="evenodd" d="M0.25 0.508789H13.0395V15.3989H0.25V0.508789Z" fill="white"/>
  </mask>
  <g mask="url(#mask0_13736_8468)">
    <path fill-rule="evenodd" clip-rule="evenodd" d="M3.67968 1.63379C2.43693 1.63379 1.40493 2.64029 1.37568 3.88154V11.9028C1.34793 13.1875 2.36043 14.2458 3.63243 14.2743H9.68043C10.9322 14.2225 11.9237 13.1823 11.9147 11.9073V5.25479L8.43843 1.63379H3.68868H3.67968ZM3.68883 15.3993H3.60708C1.71558 15.3565 0.209578 13.783 0.250828 11.8908V3.86804C0.294328 2.00729 1.83108 0.508789 3.67833 0.508789H3.69108H8.67858C8.83158 0.508789 8.97783 0.571039 9.08433 0.681289L12.8831 4.63904C12.9836 4.74329 13.0398 4.88354 13.0398 5.02829V11.9028C13.0533 13.7845 11.5878 15.322 9.70308 15.3985L3.68883 15.3993Z" fill="#606060"/>
  </g>
  <path fill-rule="evenodd" clip-rule="evenodd" d="M12.4737 5.73824H10.4074C9.03495 5.73449 7.91895 4.61549 7.91895 3.24449V1.06274C7.91895 0.752244 8.17095 0.500244 8.48145 0.500244C8.79195 0.500244 9.04395 0.752244 9.04395 1.06274V3.24449C9.04395 3.99749 9.6567 4.61099 10.4089 4.61324H12.4737C12.7842 4.61324 13.0362 4.86524 13.0362 5.17574C13.0362 5.48624 12.7842 5.73824 12.4737 5.73824Z" fill="#606060"/>
  <path fill-rule="evenodd" clip-rule="evenodd" d="M8.34102 11.0813H4.29102C3.98052 11.0813 3.72852 10.8293 3.72852 10.5188C3.72852 10.2083 3.98052 9.9563 4.29102 9.9563H8.34102C8.65152 9.9563 8.90352 10.2083 8.90352 10.5188C8.90352 10.8293 8.65152 11.0813 8.34102 11.0813Z" fill="#606060"/>
  <path fill-rule="evenodd" clip-rule="evenodd" d="M6.80704 8.26733H4.29004C3.97954 8.26733 3.72754 8.01533 3.72754 7.70483C3.72754 7.39433 3.97954 7.14233 4.29004 7.14233H6.80704C7.11754 7.14233 7.36954 7.39433 7.36954 7.70483C7.36954 8.01533 7.11754 8.26733 6.80704 8.26733Z" fill="#606060"/>
</svg>