<svg xmlns="http://www.w3.org/2000/svg" width="44" height="45" viewBox="0 0 44 45" fill="none">
<path d="M25.4639 5.63034L16.8657 4.27369C9.69737 3.15536 6.37907 5.57534 5.24241 12.7436L3.88575 21.3419C3.15243 26.0352 3.92242 29.0785 6.58073 30.9301C7.97405 31.9201 9.88071 32.5801 12.3557 32.9651L20.954 34.3218C28.1222 35.4401 31.4405 33.0201 32.5772 25.8518L33.9155 17.2536C34.1355 15.8419 34.2272 14.5769 34.1538 13.4586C33.9155 8.87532 31.2205 6.52867 25.4639 5.63034ZM15.1057 17.4919C12.9607 17.4919 11.219 15.7503 11.219 13.6236C11.219 11.4786 12.9607 9.73698 15.1057 9.73698C17.2323 9.73698 18.974 11.4786 18.974 13.6236C18.974 15.7503 17.2323 17.4919 15.1057 17.4919Z" fill="#4545FE"/>
<path d="M37.5831 25.0441L34.8331 33.3123C32.5415 40.2056 28.8748 42.0389 21.9816 39.7473L13.7133 36.9973C11.1283 36.1356 9.25833 35.0723 8.04834 33.734C9.20333 34.1923 10.5417 34.5407 12.0633 34.779L20.6799 36.1356C21.8532 36.319 22.9532 36.4106 23.9799 36.4106C30.0298 36.4106 33.2748 33.1473 34.3931 26.1257L35.7315 17.5275C35.9148 16.4641 35.9881 15.5291 35.9881 14.6675C38.7748 16.9591 39.1781 20.2224 37.5831 25.0441Z" fill="#4545FE"/>
</svg>