<svg width="25" height="24" viewBox="0 0 25 24" fill="none" xmlns="http://www.w3.org/2000/svg">
<path d="M21.64 9.90002H13.25V15.38C13.25 15.79 12.91 16.13 12.5 16.13C12.09 16.13 11.75 15.79 11.75 15.38V9.90002H3.36C2.88 9.90002 2.5 10.28 2.5 10.76C2.5 16.65 6.61 20.76 12.5 20.76C18.39 20.76 22.5 16.65 22.5 10.76C22.5 10.28 22.12 9.90002 21.64 9.90002Z" fill="white"/>
<path d="M13.2504 5.80005L14.8104 7.36005C15.1004 7.65005 15.5804 7.65005 15.8704 7.36005C16.1604 7.07005 16.1604 6.59005 15.8704 6.30005L13.0204 3.46005C12.7304 3.17005 12.2504 3.17005 11.9604 3.46005L9.12039 6.31005C8.98039 6.46005 8.90039 6.65005 8.90039 6.84005C8.90039 7.03005 8.97039 7.22005 9.12039 7.37005C9.41039 7.66005 9.89039 7.66005 10.1804 7.37005L11.7404 5.81005V9.90005H13.2404V5.80005H13.2504Z" fill="white"/>
</svg>
