<svg width="12" height="13" viewBox="0 0 12 13" fill="none" xmlns="http://www.w3.org/2000/svg">
<path d="M9.33333 9.1C10.438 9.1 11.3333 9.97295 11.3333 11.05C11.3333 12.127 10.438 13 9.33333 13C8.22867 13 7.33333 12.127 7.33333 11.05C7.33333 9.97295 8.22867 9.1 9.33333 9.1ZM2.66667 6.5C4.14 6.5 5.33333 7.6635 5.33333 9.1C5.33333 10.5365 4.14 11.7 2.66667 11.7C1.19333 11.7 0 10.5365 0 9.1C0 7.6635 1.19333 6.5 2.66667 6.5ZM9.33333 10.4C8.96533 10.4 8.66667 10.6912 8.66667 11.05C8.66667 11.4088 8.96533 11.7 9.33333 11.7C9.70133 11.7 10 11.4088 10 11.05C10 10.6912 9.70133 10.4 9.33333 10.4ZM2.66667 7.8C1.93 7.8 1.33333 8.38175 1.33333 9.1C1.33333 9.81825 1.93 10.4 2.66667 10.4C3.40333 10.4 4 9.81825 4 9.1C4 8.38175 3.40333 7.8 2.66667 7.8ZM8.33333 0C10.3587 0 12 1.6003 12 3.575C12 5.5497 10.3587 7.15 8.33333 7.15C6.308 7.15 4.66667 5.5497 4.66667 3.575C4.66667 1.6003 6.308 0 8.33333 0ZM8.33333 1.3C7.04467 1.3 6 2.31855 6 3.575C6 4.83145 7.04467 5.85 8.33333 5.85C9.622 5.85 10.6667 4.83145 10.6667 3.575C10.6667 2.31855 9.622 1.3 8.33333 1.3Z" fill="#12D8A0"/>
</svg>
