<svg width="24" height="20" viewBox="0 0 24 20" fill="none" xmlns="http://www.w3.org/2000/svg">
<path d="M10 10C10 10.2652 9.89464 10.5196 9.70711 10.7071C9.51957 10.8946 9.26522 11 9 11H5C4.73478 11 4.48043 10.8946 4.29289 10.7071C4.10536 10.5196 4 10.2652 4 10C4 9.73479 4.10536 9.48043 4.29289 9.29289C4.48043 9.10536 4.73478 9 5 9H9C9.26522 9 9.51957 9.10536 9.70711 9.29289C9.89464 9.48043 10 9.73479 10 10ZM19 9H18V8C18 7.73478 17.8946 7.48043 17.7071 7.29289C17.5196 7.10536 17.2652 7 17 7C16.7348 7 16.4804 7.10536 16.2929 7.29289C16.1054 7.48043 16 7.73478 16 8V9H15C14.7348 9 14.4804 9.10536 14.2929 9.29289C14.1054 9.48043 14 9.73479 14 10C14 10.2652 14.1054 10.5196 14.2929 10.7071C14.4804 10.8946 14.7348 11 15 11H16V12C16 12.2652 16.1054 12.5196 16.2929 12.7071C16.4804 12.8946 16.7348 13 17 13C17.2652 13 17.5196 12.8946 17.7071 12.7071C17.8946 12.5196 18 12.2652 18 12V11H19C19.2652 11 19.5196 10.8946 19.7071 10.7071C19.8946 10.5196 20 10.2652 20 10C20 9.73479 19.8946 9.48043 19.7071 9.29289C19.5196 9.10536 19.2652 9 19 9ZM24 7V15C23.9984 16.3256 23.4711 17.5964 22.5338 18.5338C21.5964 19.4711 20.3256 19.9984 19 20H5C3.67441 19.9984 2.40356 19.4711 1.46622 18.5338C0.528882 17.5964 0.00158786 16.3256 0 15L0 7C0.00102436 6.11348 0.296089 5.25233 0.838971 4.55147C1.38185 3.85061 2.14188 3.34963 3 3.127V2C3 1.46957 3.21071 0.960859 3.58579 0.585786C3.96086 0.210714 4.46957 0 5 0H9C9.53043 0 10.0391 0.210714 10.4142 0.585786C10.7893 0.960859 11 1.46957 11 2V3H13V2C13 1.46957 13.2107 0.960859 13.5858 0.585786C13.9609 0.210714 14.4696 0 15 0H19C19.5304 0 20.0391 0.210714 20.4142 0.585786C20.7893 0.960859 21 1.46957 21 2V3.127C21.8581 3.34963 22.6181 3.85061 23.161 4.55147C23.7039 5.25233 23.999 6.11348 24 7ZM22 7C22 6.46957 21.7893 5.96086 21.4142 5.58579C21.0391 5.21071 20.5304 5 20 5C19.7348 5 19.4804 4.89464 19.2929 4.70711C19.1054 4.51957 19 4.26522 19 4V2H15V4C15 4.26522 14.8946 4.51957 14.7071 4.70711C14.5196 4.89464 14.2652 5 14 5H10C9.73478 5 9.48043 4.89464 9.29289 4.70711C9.10536 4.51957 9 4.26522 9 4V2H5V4C5 4.26522 4.89464 4.51957 4.70711 4.70711C4.51957 4.89464 4.26522 5 4 5C3.46957 5 2.96086 5.21071 2.58579 5.58579C2.21071 5.96086 2 6.46957 2 7V15C2 15.7957 2.31607 16.5587 2.87868 17.1213C3.44129 17.6839 4.20435 18 5 18H19C19.7956 18 20.5587 17.6839 21.1213 17.1213C21.6839 16.5587 22 15.7957 22 15V7Z" fill="#3D3D3D"/>
</svg>
