<svg width="30" height="30" viewBox="0 0 30 30" fill="none" xmlns="http://www.w3.org/2000/svg">
<circle cx="15" cy="15" r="15" fill="black" fill-opacity="0.15"/>
<g clip-path="url(#clip0_114_3280)">
<path d="M22.3938 9.08094C22.8313 9.26875 23.075 9.7375 22.9781 10.2C22.8844 10.6656 22.475 11 22 11V11.25C22 11.6656 21.6656 12 21.25 12H8.75C8.33594 12 8 11.6656 8 11.25V11C7.52531 10.9719 7.11597 10.6656 7.02052 10.2C6.92506 9.7375 7.16978 9.26875 7.60625 9.08094L14.6063 6.08085C14.8563 5.97305 15.1438 5.97305 15.3938 6.08085L22.3938 9.08094ZM15 10C15.5531 10 16 9.55313 16 9C16 8.44782 15.5531 8 15 8C14.4469 8 14 8.44782 14 9C14 9.55313 14.4469 10 15 10Z" fill="black"/>
<path opacity="0.4" d="M10.972 19H12.222V13H14.222V19H15.7501V13H17.7501V19H19.0001V13H21.0001V19.1344C21.0189 19.1437 21.0376 19.1281 21.0564 19.1687L22.5564 20.1687C22.922 20.4125 23.0845 20.8687 22.9564 21.2906C22.8282 21.7125 22.4407 22 22.0001 22H7.972C7.5595 22 7.17068 21.7125 7.043 21.2906C6.91528 20.8687 7.07871 20.4125 7.44543 20.1687L8.94543 19.1687C8.96325 19.1281 8.98137 19.1437 8.972 19.1344V13H10.972V19Z" fill="black"/>
</g>
<defs>
<clipPath id="clip0_114_3280">
<rect width="16" height="16" fill="white" transform="translate(7 6)"/>
</clipPath>
</defs>
</svg>
