<svg width="31" height="30" viewBox="0 0 31 30" fill="none" xmlns="http://www.w3.org/2000/svg">
<rect width="31" height="30" fill="#1E1E1E"/>
<rect x="-505" y="-624" width="1440" height="900" fill="black" fill-opacity="0.2"/>
<rect x="-65" y="-451" width="560" height="555" rx="16" fill="#0D0D0D"/>
<circle cx="15.5" cy="15" r="15" fill="white" fill-opacity="0.15"/>
<g clip-path="url(#clip0_0_1)">
<path d="M22.8938 9.08094C23.3313 9.26875 23.575 9.7375 23.4781 10.2C23.3844 10.6656 22.975 11 22.5 11V11.25C22.5 11.6656 22.1656 12 21.75 12H9.25C8.83594 12 8.5 11.6656 8.5 11.25V11C8.02531 10.9719 7.61597 10.6656 7.52052 10.2C7.42506 9.7375 7.66978 9.26875 8.10625 9.08094L15.1063 6.08085C15.3563 5.97305 15.6438 5.97305 15.8938 6.08085L22.8938 9.08094ZM15.5 10C16.0531 10 16.5 9.55313 16.5 9C16.5 8.44782 16.0531 8 15.5 8C14.9469 8 14.5 8.44782 14.5 9C14.5 9.55313 14.9469 10 15.5 10Z" fill="white"/>
<path opacity="0.4" d="M11.472 19H12.722V13H14.722V19H16.2501V13H18.2501V19H19.5001V13H21.5001V19.1344C21.5189 19.1437 21.5376 19.1281 21.5564 19.1687L23.0564 20.1687C23.422 20.4125 23.5845 20.8687 23.4564 21.2906C23.3282 21.7125 22.9407 22 22.5001 22H8.472C8.0595 22 7.67068 21.7125 7.543 21.2906C7.41528 20.8687 7.57871 20.4125 7.94543 20.1687L9.44543 19.1687C9.46325 19.1281 9.48137 19.1437 9.472 19.1344V13H11.472V19Z" fill="white"/>
</g>
<rect x="-14.75" y="-154.75" width="460.5" height="204.5" rx="4.75" stroke="#171717" stroke-width="0.5"/>
<defs>
<clipPath id="clip0_0_1">
<rect width="16" height="16" fill="white" transform="translate(7.5 6)"/>
</clipPath>
</defs>
</svg>
