<svg width="24" height="27" viewBox="0 0 24 27" fill="none" xmlns="http://www.w3.org/2000/svg">
<ellipse cx="12" cy="13.7" rx="12" ry="13.2" fill="black" fill-opacity="0.15"/>
<g clip-path="url(#clip0_114_3917)">
<path d="M17.5453 9.64139C17.8734 9.79633 18.0563 10.183 17.9836 10.5646C17.9133 10.9488 17.6063 11.2246 17.25 11.2246V11.4309C17.25 11.7738 16.9992 12.0496 16.6875 12.0496H7.3125C7.00195 12.0496 6.75 11.7738 6.75 11.4309V11.2246C6.39398 11.2014 6.08698 10.9488 6.01539 10.5646C5.9438 10.183 6.12734 9.79633 6.45469 9.64139L11.7047 7.16631C11.8922 7.07738 12.1078 7.07738 12.2953 7.16631L17.5453 9.64139ZM12 10.3996C12.4148 10.3996 12.75 10.0309 12.75 9.57461C12.75 9.11906 12.4148 8.74961 12 8.74961C11.5852 8.74961 11.25 9.11906 11.25 9.57461C11.25 10.0309 11.5852 10.3996 12 10.3996Z" fill="black"/>
<path opacity="0.4" d="M8.979 17.825H9.9165V12.875H11.4165V17.825H12.5626V12.875H14.0626V17.825H15.0001V12.875H16.5001V17.9359C16.5142 17.9436 16.5282 17.9307 16.5423 17.9642L17.6673 18.7892C17.9415 18.9903 18.0634 19.3667 17.9673 19.7148C17.8712 20.0628 17.5806 20.3 17.2501 20.3H6.729C6.41962 20.3 6.12801 20.0628 6.03225 19.7148C5.93646 19.3667 6.05904 18.9903 6.33407 18.7892L7.45907 17.9642C7.47243 17.9307 7.48603 17.9436 7.479 17.9359V12.875H8.979V17.825Z" fill="black"/>
</g>
<defs>
<clipPath id="clip0_114_3917">
<rect width="12" height="13.2" fill="white" transform="translate(6 7.09961)"/>
</clipPath>
</defs>
</svg>
