<svg width="22" height="24" viewBox="0 0 22 24" fill="none" xmlns="http://www.w3.org/2000/svg">
<path d="M18.5 8.99966H18V6.99966C18 6.73444 17.8946 6.48009 17.7071 6.29255C17.5196 6.10502 17.2652 5.99966 17 5.99966C17.0127 5.29034 16.8317 4.59099 16.4765 3.9769C16.1212 3.36282 15.6052 2.85726 14.984 2.51466C14.2657 2.11488 13.4437 1.94065 12.625 2.01466C12.5234 2.02727 12.4203 2.01335 12.3256 1.97428C12.231 1.9352 12.1481 1.87228 12.085 1.79166C11.6498 1.22147 11.0847 0.763349 10.4369 0.455349C9.78907 0.147349 9.07709 -0.00164073 8.36011 0.0207526C7.64313 0.043146 6.94185 0.236277 6.31449 0.584104C5.68713 0.931932 5.15182 1.42442 4.753 2.02066C3.73854 2.08174 2.78555 2.52735 2.08823 3.26666C1.3909 4.00598 1.00173 4.98337 1 5.99966C0.734784 5.99966 0.48043 6.10502 0.292893 6.29255C0.105357 6.48009 0 6.73444 0 6.99966V18.9997C0.00158786 20.3253 0.528882 21.5961 1.46622 22.5334C2.40356 23.4708 3.67441 23.9981 5 23.9997H13C14.3256 23.9981 15.5964 23.4708 16.5338 22.5334C17.4711 21.5961 17.9984 20.3253 18 18.9997H18.5C19.4283 18.9997 20.3185 18.6309 20.9749 17.9745C21.6313 17.3182 22 16.4279 22 15.4997V12.4997C22 11.5714 21.6313 10.6812 20.9749 10.0248C20.3185 9.36841 19.4283 8.99966 18.5 8.99966ZM5 3.99966C5.05751 4.00154 5.11474 4.00856 5.171 4.02066C5.38651 4.0557 5.60756 4.01925 5.80041 3.91687C5.99325 3.81449 6.14729 3.6518 6.239 3.45366C6.42183 3.06552 6.70148 2.73096 7.05104 2.48218C7.4006 2.2334 7.8083 2.07876 8.23492 2.03316C8.66153 1.98755 9.09271 2.05251 9.48696 2.22178C9.8812 2.39105 10.2253 2.65894 10.486 2.99966C10.754 3.35562 11.1097 3.63598 11.5185 3.81336C11.9272 3.99074 12.375 4.05906 12.818 4.01166C13.2452 3.97802 13.6727 4.07236 14.046 4.28266C14.3436 4.4579 14.5889 4.70947 14.7566 5.01134C14.9244 5.31322 15.0084 5.65442 15 5.99966H11C10.2044 5.99966 9.44129 6.31573 8.87868 6.87834C8.31607 7.44095 8 8.20401 8 8.99966V11.9997C8 12.2649 7.89464 12.5192 7.70711 12.7068C7.51957 12.8943 7.26522 12.9997 7 12.9997C6.73478 12.9997 6.48043 12.8943 6.29289 12.7068C6.10536 12.5192 6 12.2649 6 11.9997V8.99966C6 8.20401 5.68393 7.44095 5.12132 6.87834C4.55871 6.31573 3.79565 5.99966 3 5.99966C3 5.46923 3.21071 4.96052 3.58579 4.58545C3.96086 4.21037 4.46957 3.99966 5 3.99966ZM16 18.9997C16 19.7953 15.6839 20.5584 15.1213 21.121C14.5587 21.6836 13.7956 21.9997 13 21.9997H5C4.20435 21.9997 3.44129 21.6836 2.87868 21.121C2.31607 20.5584 2 19.7953 2 18.9997V7.99966H3C3.26522 7.99966 3.51957 8.10502 3.70711 8.29255C3.89464 8.48009 4 8.73444 4 8.99966V11.9997C4 12.7953 4.31607 13.5584 4.87868 14.121C5.44129 14.6836 6.20435 14.9997 7 14.9997C7.79565 14.9997 8.55871 14.6836 9.12132 14.121C9.68393 13.5584 10 12.7953 10 11.9997V8.99966C10 8.73444 10.1054 8.48009 10.2929 8.29255C10.4804 8.10502 10.7348 7.99966 11 7.99966H16V18.9997ZM20 15.4997C20 15.8975 19.842 16.279 19.5607 16.5603C19.2794 16.8416 18.8978 16.9997 18.5 16.9997H18V10.9997H18.5C18.8978 10.9997 19.2794 11.1577 19.5607 11.439C19.842 11.7203 20 12.1018 20 12.4997V15.4997Z" fill="#3D3D3D"/>
</svg>
