<svg width="16" height="16" viewBox="0 0 16 16" fill="none" xmlns="http://www.w3.org/2000/svg">
<g clip-path="url(#clip0_114_3783)">
<path d="M15.3938 3.08094C15.8313 3.26875 16.075 3.7375 15.9781 4.2C15.8844 4.66563 15.475 5 15 5V5.25C15 5.66563 14.6656 6 14.25 6H1.75C1.33594 6 1 5.66563 1 5.25V5C0.525313 4.97188 0.115969 4.66563 0.0205194 4.2C-0.0749368 3.7375 0.169782 3.26875 0.606251 3.08094L7.60625 0.0808477C7.85625 -0.0269492 8.14375 -0.0269492 8.39375 0.0808477L15.3938 3.08094ZM8 4C8.55313 4 9 3.55313 9 3C9 2.44782 8.55313 2 8 2C7.44688 2 7 2.44782 7 3C7 3.55313 7.44688 4 8 4Z" fill="black"/>
<path opacity="0.4" d="M3.972 13H5.222V7H7.222V13H8.75012V7H10.7501V13H12.0001V7H14.0001V13.1344C14.0189 13.1437 14.0376 13.1281 14.0564 13.1687L15.5564 14.1687C15.922 14.4125 16.0845 14.8687 15.9564 15.2906C15.8282 15.7125 15.4407 16 15.0001 16H0.971995C0.559495 16 0.170683 15.7125 0.0429954 15.2906C-0.0847234 14.8687 0.0787142 14.4125 0.445433 14.1687L1.94543 13.1687C1.96325 13.1281 1.98137 13.1437 1.972 13.1344V7H3.972V13Z" fill="black"/>
</g>
<defs>
<clipPath id="clip0_114_3783">
<rect width="16" height="16" fill="white"/>
</clipPath>
</defs>
</svg>
