<svg width="25" height="24" viewBox="0 0 25 24" fill="none" xmlns="http://www.w3.org/2000/svg">
<g id="vuesax/bold/house-2">
<g id="house-2">
<path id="Vector" d="M10.5 15.5C10.09 15.5 9.75 15.84 9.75 16.25V17.75C9.75 18.16 10.09 18.5 10.5 18.5C10.91 18.5 11.25 18.16 11.25 17.75V16.25C11.25 15.84 10.91 15.5 10.5 15.5Z" fill="white"/>
<path id="Vector_2" d="M22.5 21.25H21.5V9.97997C21.5 9.35997 21.22 8.77997 20.73 8.39997L13.73 2.95997C13.01 2.38997 11.99 2.38997 11.27 2.95997L4.27 8.39997C3.78 8.77997 3.5 9.35997 3.5 9.96997L3.45 21.25H2.5C2.09 21.25 1.75 21.58 1.75 22C1.75 22.41 2.09 22.75 2.5 22.75H22.5C22.91 22.75 23.25 22.41 23.25 22C23.25 21.58 22.91 21.25 22.5 21.25ZM11 6.74997H14C14.41 6.74997 14.75 7.08997 14.75 7.49997C14.75 7.90997 14.41 8.24997 14 8.24997H11C10.59 8.24997 10.25 7.90997 10.25 7.49997C10.25 7.08997 10.59 6.74997 11 6.74997ZM17.5 21.25H7.5V12.5C7.5 11.67 8.17 11 9 11H16C16.83 11 17.5 11.67 17.5 12.5V21.25Z" fill="white"/>
</g>
</g>
</svg>
