<svg width="32" height="36" viewBox="0 0 32 36" fill="none" xmlns="http://www.w3.org/2000/svg">
<g clip-path="url(#clip0_1722_4217)">
<path d="M11.25 4.5H20.25V2.25C20.25 1.00758 21.2555 0 22.5 0C23.7445 0 24.75 1.00758 24.75 2.25V4.5H28.125C29.9883 4.5 31.5 6.01102 31.5 7.875V13.5H0V7.875C0 6.01102 1.51102 4.5 3.375 4.5H6.75V2.25C6.75 1.00758 7.75547 0 9 0C10.2445 0 11.25 1.00758 11.25 2.25V4.5Z" fill="#5451FF"/>
<path opacity="0.4" d="M0 13.5H31.5V32.625C31.5 34.4883 29.9883 36 28.125 36H3.375C1.51102 36 0 34.4883 0 32.625V13.5ZM4.5 21.375C4.5 21.9937 5.00344 22.5 5.625 22.5H7.875C8.49375 22.5 9 21.9937 9 21.375V19.125C9 18.5062 8.49375 18 7.875 18H5.625C5.00344 18 4.5 18.5062 4.5 19.125V21.375ZM14.625 18C14.0063 18 13.5 18.5062 13.5 19.125V21.375C13.5 21.9937 14.0063 22.5 14.625 22.5H16.875C17.4937 22.5 18 21.9937 18 21.375V19.125C18 18.5062 17.4937 18 16.875 18H14.625ZM22.5 21.375C22.5 21.9937 23.0063 22.5 23.625 22.5H25.875C26.4937 22.5 27 21.9937 27 21.375V19.125C27 18.5062 26.4937 18 25.875 18H23.625C23.0063 18 22.5 18.5062 22.5 19.125V21.375ZM5.625 27C5.00344 27 4.5 27.5063 4.5 28.125V30.375C4.5 30.9937 5.00344 31.5 5.625 31.5H7.875C8.49375 31.5 9 30.9937 9 30.375V28.125C9 27.5063 8.49375 27 7.875 27H5.625ZM13.5 30.375C13.5 30.9937 14.0063 31.5 14.625 31.5H16.875C17.4937 31.5 18 30.9937 18 30.375V28.125C18 27.5063 17.4937 27 16.875 27H14.625C14.0063 27 13.5 27.5063 13.5 28.125V30.375ZM23.625 27C23.0063 27 22.5 27.5063 22.5 28.125V30.375C22.5 30.9937 23.0063 31.5 23.625 31.5H25.875C26.4937 31.5 27 30.9937 27 30.375V28.125C27 27.5063 26.4937 27 25.875 27H23.625Z" fill="#5451FF"/>
</g>
<defs>
<clipPath id="clip0_1722_4217">
<rect width="31.5" height="36" fill="white"/>
</clipPath>
</defs>
</svg>
