<svg width="39" height="39" viewBox="0 0 39 39" fill="none" xmlns="http://www.w3.org/2000/svg">
<path d="M31.2093 24.3463C29.9127 24.0705 28.8869 24.6701 27.9787 25.1937C27.0485 25.7333 25.2777 27.1625 24.2659 26.7947C19.0753 24.6681 14.1934 20.1413 12.0801 14.9528C11.7076 13.9195 13.1357 12.1468 13.6715 11.2114C14.1954 10.304 14.785 9.27073 14.5161 7.97163C14.2731 6.80243 11.13 2.81917 10.0186 1.72991C9.2836 1.01041 8.53468 0.61467 7.76384 0.54873C4.86578 0.42681 1.6291 4.27817 1.06142 5.19953C-0.36272 7.16419 -0.35276 9.77839 1.08532 12.9482C4.55106 21.4623 17.6591 34.3115 26.2397 37.8931C27.8213 38.6305 29.2713 39.0003 30.5719 39.0003C31.8447 39.0003 32.9781 38.6465 33.9521 37.9451C34.6851 37.5233 38.7125 34.1397 38.6049 31.1757C38.5431 30.4201 38.1467 29.6647 37.4337 28.9333C36.3463 27.8159 32.3745 24.5921 31.2093 24.3463Z" fill="#919191"/>
</svg>
