<svg width="16" height="17" viewBox="0 0 16 17" fill="none" xmlns="http://www.w3.org/2000/svg">
<path d="M4.50417 15.1663H11.4908C13.3308 15.1663 14.0642 14.0397 14.1508 12.6663L14.4975 7.15967C14.5908 5.71967 13.4442 4.49967 11.9975 4.49967C11.5908 4.49967 11.2175 4.26634 11.0308 3.90634L10.5508 2.93967C10.2442 2.33301 9.44417 1.83301 8.76417 1.83301H7.23751C6.55084 1.83301 5.75084 2.33301 5.44417 2.93967L4.96417 3.90634C4.77751 4.26634 4.40417 4.49967 3.99751 4.49967C2.55084 4.49967 1.40417 5.71967 1.49751 7.15967L1.84417 12.6663C1.92417 14.0397 2.66417 15.1663 4.50417 15.1663Z" stroke="#606060" stroke-linecap="round" stroke-linejoin="round"/>
<path d="M7 5.83301H9" stroke="#606060" stroke-linecap="round" stroke-linejoin="round"/>
<path d="M8.0026 12.5003C9.19594 12.5003 10.1693 11.527 10.1693 10.3337C10.1693 9.14033 9.19594 8.16699 8.0026 8.16699C6.80927 8.16699 5.83594 9.14033 5.83594 10.3337C5.83594 11.527 6.80927 12.5003 8.0026 12.5003Z" stroke="#606060" stroke-linecap="round" stroke-linejoin="round"/>
</svg>
