<svg width="45" height="46" viewBox="0 0 45 46" fill="none" xmlns="http://www.w3.org/2000/svg">
<g clip-path="url(#clip0_6494_14663)">
<g filter="url(#filter0_b_6494_14663)">
<path fill-rule="evenodd" clip-rule="evenodd" d="M32.849 45.1779H11.9499C8.70947 45.3793 5.52728 44.2558 3.13277 42.0673C0.944156 39.6706 -0.179248 36.4885 0.0221591 33.2504V12.3493C-0.179248 9.11118 0.941908 5.92902 3.13052 3.53233C5.52726 1.34374 8.70947 0.220373 11.9499 0.421779H32.849C36.0851 0.220373 39.265 1.34152 41.6595 3.5301C43.8459 5.92902 44.9715 9.10895 44.7791 12.3493V33.2504C44.9782 36.4885 43.857 39.6706 41.6684 42.0673C39.2717 44.2559 36.0896 45.3793 32.849 45.1779L32.849 45.1779Z" fill="#EDEDEE"/>
</g>
<path fill-rule="evenodd" clip-rule="evenodd" d="M30.7645 18.9019C30.7645 19.7038 31.4067 20.3454 32.2095 20.3454C33.0124 20.3454 33.6707 19.7038 33.6707 18.9019C33.6707 18.1 33.0124 17.4424 32.2095 17.4424C31.4067 17.4424 30.7645 18.1 30.7645 18.9019ZM27.6496 28.5884C26.5096 29.7271 24.9361 30.4328 23.202 30.4328C21.5161 30.4328 19.9426 29.7752 18.7384 28.5884C17.5502 27.3855 16.8919 25.8137 16.8919 24.1297C16.8758 22.4617 17.5341 20.8899 18.7223 19.687C19.9265 18.4841 21.5161 17.8265 23.202 17.8265C24.8879 17.8265 26.4775 18.4841 27.6657 19.671C28.8538 20.8739 29.5122 22.4617 29.5122 24.1297C29.4961 25.8779 28.7896 27.4496 27.6496 28.5884ZM23.2023 20.2319C22.1587 20.2319 21.1792 20.6328 20.4246 21.3866C19.686 22.1244 19.2846 23.1028 19.3006 24.1132V24.1292C19.3006 25.1717 19.7021 26.1501 20.4406 26.8878C21.1792 27.6256 22.1587 28.0266 23.2023 28.0266C25.3539 28.0266 27.088 26.2784 27.104 24.1292C27.104 23.0867 26.7026 22.1084 25.964 21.3706C25.2254 20.6328 24.246 20.2319 23.2023 20.2319Z" fill="black"/>
<path opacity="0.4" d="M31.9365 12.7433L31.7759 12.3905C31.3424 11.4763 30.8446 10.4178 30.5396 9.8083C29.801 8.36484 28.5325 7.56291 26.9751 7.54688H19.4125C17.8551 7.56291 16.6027 8.36484 15.8641 9.8083C15.543 10.4498 14.997 11.6046 14.5475 12.5509L14.4511 12.7433C14.403 12.8717 14.2745 12.9358 14.1461 12.9358C10.2765 12.9358 7.14551 16.0794 7.14551 19.9286V29.4555C7.14551 33.3047 10.2765 36.4482 14.1461 36.4482H32.2576C36.1111 36.4482 39.2581 33.3047 39.2581 29.4555V19.9286C39.2581 16.0794 36.1111 12.9358 32.2576 12.9358C32.1131 12.9358 32.0007 12.8556 31.9365 12.7433Z" fill="black"/>
</g>
<defs>
<filter id="filter0_b_6494_14663" x="-6.4235" y="-6.02409" width="57.6478" height="57.6478" filterUnits="userSpaceOnUse" color-interpolation-filters="sRGB">
<feFlood flood-opacity="0" result="BackgroundImageFix"/>
<feGaussianBlur in="BackgroundImageFix" stdDeviation="3.21126"/>
<feComposite in2="SourceAlpha" operator="in" result="effect1_backgroundBlur_6494_14663"/>
<feBlend mode="normal" in="SourceGraphic" in2="effect1_backgroundBlur_6494_14663" result="shape"/>
</filter>
<clipPath id="clip0_6494_14663">
<rect width="44.8" height="44.7996" fill="white" transform="translate(0 0.400391)"/>
</clipPath>
</defs>
</svg>
