<svg xmlns="http://www.w3.org/2000/svg" width="128" height="128" viewBox="0 0 128 128" fill="none">
  <g clip-path="url(#clip0_2410_15518)">
    <g opacity="0.6">
      <path opacity="0.4" d="M11.035 67.4709L100.336 78.6659C102.455 78.9181 104.268 77.4201 104.521 75.4104L111.985 15.4116C112.241 13.3571 110.787 11.4821 108.729 11.2259L19.4285 0.0306391C18.436 -0.097611 17.4473 0.180889 16.6635 0.788639C15.8763 1.40014 15.367 2.29739 15.2425 3.28614L7.77925 63.2851C7.523 65.3394 8.97675 67.2144 11.035 67.4709ZM124.715 105.029L112.75 103.565L104.07 98.7301L27.18 89.1189L15 91.3776L4.215 90.0296C3.16775 89.9051 2.07275 90.2274 1.267 90.9379C0.4615 91.6516 0 92.6734 0 93.7501V124.25C0 126.323 1.67725 128 3.75 128H124.25C126.323 128 128 126.323 128 124.25V108.75C128 106.86 126.59 105.264 124.715 105.029Z" fill="#A6A6A6"/>
    </g>
    <path d="M27.7855 54.4522L38.2043 55.7594C40.3568 56.0097 42.1418 54.4819 42.39 52.5075C42.6462 50.4495 41.1925 48.5744 39.1345 48.3179L28.7195 47.0107C26.6027 46.7909 24.7865 48.2154 24.53 50.2627C24.2735 52.3207 25.7272 54.1957 27.7855 54.4522ZM49.8312 53.4339C49.5713 55.4884 51.0287 57.3634 53.0832 57.6234L62.7585 58.8392C64.9255 59.0854 66.7002 57.5579 66.948 55.5872C67.208 53.5327 65.7505 51.6577 63.696 51.3977L54.0207 50.1819C51.9222 49.9624 50.0877 51.3869 49.8312 53.4339ZM88.2467 54.4742L78.575 53.2619C76.5205 53.0349 74.6455 54.4632 74.3893 56.5174C74.133 58.5717 75.5905 60.4469 77.6448 60.7032L87.3165 61.9154C89.4603 62.1647 91.253 60.6474 91.5023 58.66C91.7588 56.6054 90.3012 54.7304 88.2467 54.4742ZM76.1618 30.2822L91.0445 32.1499C93.2115 32.3962 94.9863 30.8687 95.234 28.8979C95.4902 26.8399 94.0365 24.9649 91.982 24.7084L77.0993 22.8407C74.9825 22.5769 73.1663 24.0454 72.9098 26.0927C72.6535 28.1509 74.1075 30.0259 76.1618 30.2822ZM30.582 32.1279L52.906 34.9267C54.9607 35.1842 56.8355 33.7274 57.0933 31.6727L58.0272 24.2287C58.2842 22.1944 56.8468 20.3042 54.7718 20.0429L32.4465 17.2449C30.4015 16.9887 28.5185 18.4522 28.2617 20.4969L27.328 27.9402C27.0697 29.9954 28.5268 31.8702 30.582 32.1279ZM102.895 87.2169L27.8953 77.8419C21.1908 77.0097 15 82.2287 15 89.0042V91.3777L112.75 103.565V98.3792C112.75 92.7174 108.513 87.9165 102.895 87.2169Z" fill="#A6A6A6"/>
  </g>
  <defs>
    <clipPath id="clip0_2410_15518">
      <rect width="128" height="128" fill="white"/>
    </clipPath>
  </defs>
</svg>