<svg xmlns="http://www.w3.org/2000/svg" width="48" height="48" viewBox="0 0 48 48" fill="none">
  <g clip-path="url(#clip0_5906_5086)">
    <g opacity="0.6">
      <path opacity="0.4" d="M4.13812 25.3016L37.6258 29.4997C38.4204 29.5943 39.1006 29.0326 39.1955 28.2789L41.9943 5.77936C42.0904 5.00893 41.5452 4.3058 40.7735 4.20971L7.28569 0.0114896C6.9135 -0.0366041 6.54272 0.0678334 6.24881 0.29574C5.95359 0.525052 5.76263 0.861521 5.71594 1.2323L2.91722 23.7319C2.82113 24.5023 3.36628 25.2054 4.13812 25.3016ZM46.7681 39.386L42.2812 38.8369L39.0262 37.0238L10.1925 33.4196L5.625 34.2666L1.58063 33.7611C1.18791 33.7144 0.777281 33.8353 0.475125 34.1017C0.173063 34.3694 0 34.7525 0 35.1563V46.5938C0 47.3711 0.628969 48.0001 1.40625 48.0001H46.5938C47.371 48.0001 48 47.3711 48 46.5938V40.7813C48 40.0726 47.4712 39.474 46.7681 39.386Z" fill="#A6A6A6"/>
    </g>
    <path d="M10.4196 20.4197L14.3266 20.9099C15.1338 21.0038 15.8032 20.4309 15.8962 19.6904C15.9923 18.9187 15.4472 18.2155 14.6754 18.1194L10.7698 17.6291C9.97603 17.5467 9.29494 18.0809 9.19875 18.8486C9.10256 19.6204 9.64772 20.3235 10.4196 20.4197ZM18.6867 20.0379C18.5892 20.8083 19.1358 21.5114 19.9062 21.6089L23.5344 22.0648C24.3471 22.1572 25.0126 21.5844 25.1055 20.8453C25.203 20.0749 24.6564 19.3718 23.886 19.2743L20.2578 18.8184C19.4708 18.736 18.7829 19.2702 18.6867 20.0379ZM33.0925 20.4279L29.4656 19.9734C28.6952 19.8882 27.9921 20.4238 27.896 21.1942C27.7999 21.9645 28.3464 22.6677 29.1168 22.7638L32.7437 23.2184C33.5476 23.3119 34.2199 22.7429 34.3133 21.9976C34.4095 21.2272 33.863 20.524 33.0925 20.4279ZM28.5607 11.3559L34.1417 12.0564C34.9543 12.1487 35.6198 11.5759 35.7127 10.8369C35.8088 10.0651 35.2637 9.36198 34.4933 9.26579L28.9122 8.56538C28.1184 8.46648 27.4373 9.01717 27.3412 9.78488C27.2451 10.5567 27.7903 11.2599 28.5607 11.3559ZM11.4683 12.0481L19.8397 13.0976C20.6103 13.1942 21.3133 12.6479 21.41 11.8774L21.7602 9.08588C21.8566 8.32304 21.3175 7.6142 20.5394 7.51623L12.1674 6.46698C11.4006 6.37088 10.6944 6.9197 10.5982 7.68648L10.248 10.4777C10.1512 11.2484 10.6975 11.9514 11.4683 12.0481ZM38.5857 32.7065L10.4607 29.1909C7.94653 28.8788 5.625 30.8359 5.625 33.3767V34.2668L42.2812 38.8371V36.8923C42.2812 34.7692 40.6924 32.9688 38.5857 32.7065Z" fill="#A6A6A6"/>
  </g>
  <defs>
    <clipPath id="clip0_5906_5086">
      <rect width="48" height="48" fill="white"/>
    </clipPath>
  </defs>
</svg>