<svg width="41" height="37" viewBox="0 0 41 37" fill="none" xmlns="http://www.w3.org/2000/svg">
<g id="credit-card-duotone" clip-path="url(#clip0_11046_17466)">
<path id="Vector" d="M40.6241 16.4894H0.375V9.78125H40.6241V16.4894Z" fill="#0D0D0D"/>
<path id="Vector_2" d="M36.152 3.07422C38.6186 3.07422 40.6241 5.07619 40.6241 7.54634V9.7824H0.375V7.54634C0.375 5.07619 2.37697 3.07422 4.84712 3.07422H36.152ZM40.6241 29.9069C40.6241 32.3736 38.6186 34.3791 36.152 34.3791H4.84712C2.37697 34.3791 0.375 32.3736 0.375 29.9069V16.4906H40.6241V29.9069ZM8.20121 25.4348C7.58629 25.4348 7.08318 25.9379 7.08318 26.5528C7.08318 27.1678 7.58629 27.6709 8.20121 27.6709H12.6733C13.2882 27.6709 13.7914 27.1678 13.7914 26.5528C13.7914 25.9379 13.2882 25.4348 12.6733 25.4348H8.20121ZM17.1454 27.6709H26.0897C26.7046 27.6709 27.2077 27.1678 27.2077 26.5528C27.2077 25.9379 26.7046 25.4348 26.0897 25.4348H17.1454C16.5305 25.4348 16.0274 25.9379 16.0274 26.5528C16.0274 27.1678 16.5305 27.6709 17.1454 27.6709Z" fill="white"/>
</g>
<defs>
<clipPath id="clip0_11046_17466">
<rect width="40.2491" height="35.777" fill="white" transform="translate(0.375 0.837891)"/>
</clipPath>
</defs>
</svg>
