<svg width="21" height="21" viewBox="0 0 21 21" fill="none" xmlns="http://www.w3.org/2000/svg">
<g id="shopping-cart">
<path id="Vector" d="M15.6596 15.4363H6.78463C5.95963 15.4363 5.16796 15.0863 4.60963 14.478C4.0513 13.8696 3.76797 13.0529 3.83464 12.2279L4.5263 3.92795C4.5513 3.66961 4.45963 3.41962 4.28463 3.22795C4.10963 3.03628 3.86797 2.93628 3.60963 2.93628H2.16797C1.8263 2.93628 1.54297 2.65295 1.54297 2.31128C1.54297 1.96961 1.8263 1.68628 2.16797 1.68628H3.61797C4.22631 1.68628 4.8013 1.94461 5.20963 2.38628C5.43463 2.63628 5.6013 2.92795 5.69297 3.25295H16.1013C16.943 3.25295 17.718 3.58628 18.2846 4.18628C18.843 4.79461 19.1263 5.58628 19.0596 6.42795L18.6096 12.6779C18.518 14.2029 17.1846 15.4363 15.6596 15.4363ZM5.73463 4.49461L5.08464 12.3279C5.04297 12.8113 5.2013 13.2696 5.5263 13.6279C5.8513 13.9863 6.3013 14.1779 6.78463 14.1779H15.6596C16.5263 14.1779 17.3096 13.4446 17.3763 12.578L17.8263 6.32795C17.8596 5.83629 17.7013 5.36962 17.3763 5.02795C17.0513 4.67795 16.6013 4.48627 16.1096 4.48627H5.73463V4.49461Z" fill="#FBFCFC"/>
<path id="Vector_2" d="M14.0417 19.6029C13.125 19.6029 12.375 18.8529 12.375 17.9362C12.375 17.0195 13.125 16.2695 14.0417 16.2695C14.9583 16.2695 15.7083 17.0195 15.7083 17.9362C15.7083 18.8529 14.9583 19.6029 14.0417 19.6029ZM14.0417 17.5195C13.8083 17.5195 13.625 17.7029 13.625 17.9362C13.625 18.1695 13.8083 18.3529 14.0417 18.3529C14.275 18.3529 14.4583 18.1695 14.4583 17.9362C14.4583 17.7029 14.275 17.5195 14.0417 17.5195Z" fill="#FBFCFC"/>
<path id="Vector_3" d="M7.3737 19.6029C6.45703 19.6029 5.70703 18.8529 5.70703 17.9362C5.70703 17.0195 6.45703 16.2695 7.3737 16.2695C8.29036 16.2695 9.04036 17.0195 9.04036 17.9362C9.04036 18.8529 8.29036 19.6029 7.3737 19.6029ZM7.3737 17.5195C7.14036 17.5195 6.95703 17.7029 6.95703 17.9362C6.95703 18.1695 7.14036 18.3529 7.3737 18.3529C7.60703 18.3529 7.79036 18.1695 7.79036 17.9362C7.79036 17.7029 7.60703 17.5195 7.3737 17.5195Z" fill="#FBFCFC"/>
<path id="Vector_4" d="M18 7.93628H8C7.65833 7.93628 7.375 7.65295 7.375 7.31128C7.375 6.96961 7.65833 6.68628 8 6.68628H18C18.3417 6.68628 18.625 6.96961 18.625 7.31128C18.625 7.65295 18.3417 7.93628 18 7.93628Z" fill="#FBFCFC"/>
</g>
</svg>
