<svg width="24" height="16" viewBox="0 0 24 16" fill="none" xmlns="http://www.w3.org/2000/svg">
<path d="M22.903 2.53798C22.227 2.19998 21.43 2.27098 20.826 2.72598C20.787 2.75498 20.75 2.78798 20.716 2.82198L18.959 4.59498C18.748 2.02998 16.618 0.000976897 14 0.000976897H5C2.243 -2.31034e-05 0 2.24298 0 4.99998V11C0 13.757 2.243 16 5 16H14C16.629 16 18.768 13.953 18.962 11.373L20.718 13.127C20.752 13.16 20.787 13.19 20.825 13.219C21.177 13.483 21.593 13.617 22.013 13.617C22.316 13.617 22.619 13.548 22.903 13.406C23.58 13.068 24 12.387 24 11.632V4.31398C24 3.55698 23.58 2.87698 22.903 2.53898V2.53798ZM14 14H5C3.346 14 2 12.654 2 11V4.99998C2 3.34598 3.346 1.99998 5 1.99998H14C15.654 1.99998 17 3.34598 17 4.99998V11C17 12.654 15.654 14 14 14ZM19 8.58298V7.39398L22 4.36598L22.025 11.604L19 8.58198V8.58298Z" fill="#3D3D3D"/>
</svg>
