<svg width="32" height="32" viewBox="0 0 32 32" fill="none" xmlns="http://www.w3.org/2000/svg">
<rect x="0.5" y="0.5" width="31" height="31" rx="3.5" fill="#DAB91F"/>
<rect x="0.5" y="0.5" width="31" height="31" rx="3.5" stroke="#15151E"/>
<path d="M21.9872 10.0134C21.4072 9.4334 20.5872 9.20674 19.7939 9.40674L13.2606 11.0401C12.1606 11.3134 11.3139 12.1667 11.0406 13.2601L9.40722 19.8001C9.20722 20.5934 9.43389 21.4134 10.0139 21.9934C10.4539 22.4267 11.0339 22.6667 11.6339 22.6667C11.8206 22.6667 12.0139 22.6467 12.2006 22.5934L18.7406 20.9601C19.8339 20.6867 20.6872 19.8401 20.9606 18.7401L22.5939 12.2001C22.7939 11.4067 22.5672 10.5867 21.9872 10.0134ZM16.0006 18.5867C14.5739 18.5867 13.4139 17.4267 13.4139 16.0001C13.4139 14.5734 14.5739 13.4134 16.0006 13.4134C17.4272 13.4134 18.5872 14.5734 18.5872 16.0001C18.5872 17.4267 17.4272 18.5867 16.0006 18.5867Z" fill="#15151E"/>
</svg>
