<svg xmlns="http://www.w3.org/2000/svg" width="20" height="20" viewBox="0 0 20 20" fill="none">
  <path d="M14.9999 6.59172C14.9749 6.59172 14.9583 6.59172 14.9333 6.59172H14.8916C13.3166 6.54172 12.1416 5.32505 12.1416 3.82505C12.1416 2.29172 13.3916 1.05005 14.9166 1.05005C16.4416 1.05005 17.6916 2.30005 17.6916 3.82505C17.6833 5.33338 16.5083 6.55005 15.0083 6.60005C15.0083 6.59172 15.0083 6.59172 14.9999 6.59172ZM14.9166 2.29172C14.0749 2.29172 13.3916 2.97505 13.3916 3.81672C13.3916 4.64172 14.0333 5.30839 14.8583 5.34172C14.8666 5.33339 14.9333 5.33339 15.0083 5.34172C15.8166 5.30006 16.4416 4.63339 16.4499 3.81672C16.4499 2.97505 15.7666 2.29172 14.9166 2.29172Z" fill="#191919"/>
  <path d="M15.0087 12.7334C14.6837 12.7334 14.3587 12.7084 14.0337 12.65C13.6921 12.5917 13.4671 12.2667 13.5254 11.925C13.5837 11.5834 13.9087 11.3584 14.2504 11.4167C15.2754 11.5917 16.3587 11.4 17.0837 10.9167C17.4754 10.6584 17.6837 10.3334 17.6837 10.0084C17.6837 9.68337 17.4671 9.3667 17.0837 9.10837C16.3587 8.62504 15.2587 8.43337 14.2254 8.61671C13.8837 8.68337 13.5587 8.45004 13.5004 8.10837C13.4421 7.76671 13.6671 7.44171 14.0087 7.38338C15.3671 7.14171 16.7754 7.40004 17.7754 8.0667C18.5087 8.55837 18.9337 9.25837 18.9337 10.0084C18.9337 10.75 18.5171 11.4584 17.7754 11.9584C17.0171 12.4584 16.0337 12.7334 15.0087 12.7334Z" fill="#191919"/>
  <path d="M4.97539 6.59175C4.96706 6.59175 4.95873 6.59175 4.95873 6.59175C3.45873 6.54175 2.28372 5.32508 2.27539 3.82508C2.27539 2.29174 3.52539 1.04175 5.05039 1.04175C6.57539 1.04175 7.82539 2.29175 7.82539 3.81675C7.82539 5.32508 6.65039 6.54175 5.15039 6.59175L4.97539 5.96675L5.03373 6.59175C5.01706 6.59175 4.99206 6.59175 4.97539 6.59175ZM5.05872 5.34175C5.10872 5.34175 5.15039 5.34175 5.20039 5.35008C5.94206 5.31675 6.59206 4.65008 6.59206 3.82508C6.59206 2.98341 5.90873 2.30008 5.06706 2.30008C4.22539 2.30008 3.54206 2.98341 3.54206 3.82508C3.54206 4.64174 4.17539 5.30008 4.98372 5.35008C4.99206 5.34175 5.02539 5.34175 5.05872 5.34175Z" fill="#191919"/>
  <path d="M4.96699 12.7334C3.94199 12.7334 2.95866 12.4584 2.20033 11.9584C1.46699 11.4667 1.04199 10.7584 1.04199 10.0084C1.04199 9.26671 1.46699 8.55837 2.20033 8.0667C3.20033 7.40004 4.60866 7.14171 5.96699 7.38338C6.30866 7.44171 6.53366 7.76671 6.47533 8.10837C6.41699 8.45004 6.09199 8.68337 5.75033 8.61671C4.71699 8.43337 3.62533 8.62504 2.89199 9.10837C2.50033 9.3667 2.29199 9.68337 2.29199 10.0084C2.29199 10.3334 2.50866 10.6584 2.89199 10.9167C3.61699 11.4 4.70032 11.5917 5.72532 11.4167C6.06699 11.3584 6.39199 11.5917 6.45033 11.925C6.50866 12.2667 6.28366 12.5917 5.94199 12.65C5.61699 12.7084 5.29199 12.7334 4.96699 12.7334Z" fill="#191919"/>
  <path d="M9.99994 12.8166C9.97494 12.8166 9.95827 12.8166 9.93327 12.8166H9.8916C8.3166 12.7666 7.1416 11.5499 7.1416 10.0499C7.1416 8.51657 8.3916 7.2749 9.9166 7.2749C11.4416 7.2749 12.6916 8.5249 12.6916 10.0499C12.6833 11.5582 11.5083 12.7749 10.0083 12.8249C10.0083 12.8166 10.0083 12.8166 9.99994 12.8166ZM9.9166 8.51657C9.07494 8.51657 8.3916 9.19991 8.3916 10.0416C8.3916 10.8666 9.03327 11.5332 9.85827 11.5666C9.8666 11.5582 9.93327 11.5582 10.0083 11.5666C10.8166 11.5249 11.4416 10.8582 11.4499 10.0416C11.4499 9.20824 10.7666 8.51657 9.9166 8.51657Z" fill="#191919"/>
  <path d="M9.99974 18.9666C8.99974 18.9666 7.99974 18.7083 7.22474 18.1833C6.49141 17.6916 6.06641 16.9916 6.06641 16.2416C6.06641 15.4999 6.48307 14.7833 7.22474 14.2916C8.78307 13.2583 11.2247 13.2583 12.7747 14.2916C13.5081 14.7833 13.9331 15.4833 13.9331 16.2333C13.9331 16.9749 13.5164 17.6916 12.7747 18.1833C11.9997 18.6999 10.9997 18.9666 9.99974 18.9666ZM7.91641 15.3416C7.52474 15.5999 7.31641 15.9249 7.31641 16.2499C7.31641 16.5749 7.53307 16.8916 7.91641 17.1499C9.04141 17.9083 10.9497 17.9083 12.0747 17.1499C12.4664 16.8916 12.6747 16.5666 12.6747 16.2416C12.6747 15.9166 12.4581 15.5999 12.0747 15.3416C10.9581 14.5833 9.04974 14.5916 7.91641 15.3416Z" fill="#191919"/>
</svg>