<svg width="20" height="20" viewBox="0 0 20 20" fill="none" xmlns="http://www.w3.org/2000/svg">
<rect width="20" height="20" rx="10" fill="#191919"/>
<path d="M14.6789 5.73828C14.8938 5.79688 15.05 5.97266 15.05 6.1875C15.05 11.207 10.9875 15.25 5.9875 15.25C5.75313 15.25 5.57734 15.1133 5.51875 14.8984L5.05 12.8672C5.01094 12.6523 5.10859 12.418 5.32344 12.3203L7.51094 11.3828C7.70625 11.3047 7.92109 11.3633 8.05781 11.5195L9.03438 12.7109C10.5578 11.9883 11.7883 10.7383 12.4914 9.25391L11.3 8.27734C11.1438 8.14062 11.0852 7.92578 11.1633 7.73047L12.1008 5.54297C12.1984 5.32812 12.4328 5.21094 12.6477 5.26953L14.6789 5.73828Z" fill="white"/>
</svg>
