<svg width="25" height="25" viewBox="0 0 25 25" fill="none" xmlns="http://www.w3.org/2000/svg">
<g id="Frame" clip-path="url(#clip0_10103_113550)">
<path id="Vector" d="M7.87588 6.14541V3.1301C7.87588 2.86353 7.98177 2.60788 8.17027 2.41939C8.35876 2.23089 8.61441 2.125 8.88098 2.125H20.9422C21.2088 2.125 21.4644 2.23089 21.6529 2.41939C21.8414 2.60788 21.9473 2.86353 21.9473 3.1301V17.2015C21.9473 17.4681 21.8414 17.7238 21.6529 17.9122C21.4644 18.1007 21.2088 18.2066 20.9422 18.2066H17.9269V21.2219C17.9269 21.7768 17.4746 22.227 16.9148 22.227H4.86761C4.73506 22.2278 4.60366 22.2024 4.48097 22.1523C4.35827 22.1021 4.24669 22.0283 4.15264 21.9349C4.05858 21.8415 3.98391 21.7304 3.93292 21.6081C3.88192 21.4857 3.8556 21.3545 3.85547 21.2219L3.85848 7.15051C3.85848 6.59569 4.31078 6.14541 4.87062 6.14541H7.87588ZM5.86869 8.15561L5.86567 20.2168H15.9167V8.15561H5.86869ZM9.88608 6.14541H17.9269V16.1964H19.9371V4.1352H9.88608V6.14541Z" fill="#191919"/>
</g>
<defs>
<clipPath id="clip0_10103_113550">
<rect width="24.1225" height="24.1225" fill="white" transform="translate(0.84375 0.114258)"/>
</clipPath>
</defs>
</svg>
