<svg width="18" height="16" viewBox="0 0 18 16" fill="none" xmlns="http://www.w3.org/2000/svg">
<path d="M18 7H0V4H18V7Z" fill="white"/>
<path d="M16 1C17.1031 1 18 1.89531 18 3V4H0V3C0 1.89531 0.895313 1 2 1H16ZM18 13C18 14.1031 17.1031 15 16 15H2C0.895313 15 0 14.1031 0 13V7H18V13ZM3.5 11C3.225 11 3 11.225 3 11.5C3 11.775 3.225 12 3.5 12H5.5C5.775 12 6 11.775 6 11.5C6 11.225 5.775 11 5.5 11H3.5ZM7.5 12H11.5C11.775 12 12 11.775 12 11.5C12 11.225 11.775 11 11.5 11H7.5C7.225 11 7 11.225 7 11.5C7 11.775 7.225 12 7.5 12Z" fill="#747474"/>
</svg>
