<svg width="24" height="24" viewBox="0 0 24 24" fill="none" xmlns="http://www.w3.org/2000/svg">
<circle cx="12" cy="12" r="12" fill="black" fill-opacity="0.15"/>
<g clip-path="url(#clip0_114_3930)">
<path d="M18.5 11.25H5V9H18.5V11.25Z" fill="white"/>
<path d="M17 6.75C17.8273 6.75 18.5 7.42148 18.5 8.25V9H5V8.25C5 7.42148 5.67148 6.75 6.5 6.75H17ZM18.5 15.75C18.5 16.5773 17.8273 17.25 17 17.25H6.5C5.67148 17.25 5 16.5773 5 15.75V11.25H18.5V15.75ZM7.625 14.25C7.41875 14.25 7.25 14.4187 7.25 14.625C7.25 14.8313 7.41875 15 7.625 15H9.125C9.33125 15 9.5 14.8313 9.5 14.625C9.5 14.4187 9.33125 14.25 9.125 14.25H7.625ZM10.625 15H13.625C13.8313 15 14 14.8313 14 14.625C14 14.4187 13.8313 14.25 13.625 14.25H10.625C10.4187 14.25 10.25 14.4187 10.25 14.625C10.25 14.8313 10.4187 15 10.625 15Z" fill="#747474"/>
</g>
<defs>
<clipPath id="clip0_114_3930">
<rect width="13.5" height="12" fill="white" transform="translate(5 6)"/>
</clipPath>
</defs>
</svg>
