<svg width="31" height="30" viewBox="0 0 31 30" fill="none" xmlns="http://www.w3.org/2000/svg">
<rect width="31" height="30" fill="#1E1E1E"/>
<rect x="-505" y="-557" width="1440" height="900" fill="black" fill-opacity="0.2"/>
<rect x="-65" y="-384" width="560" height="555" rx="16" fill="#0D0D0D"/>
<circle cx="15.5" cy="15" r="15" fill="white" fill-opacity="0.15"/>
<g clip-path="url(#clip0_0_1)">
<path d="M24.5 14H6.5V11H24.5V14Z" fill="#0D0D0D"/>
<path d="M22.5 8C23.6031 8 24.5 8.89531 24.5 10V11H6.5V10C6.5 8.89531 7.39531 8 8.5 8H22.5ZM24.5 20C24.5 21.1031 23.6031 22 22.5 22H8.5C7.39531 22 6.5 21.1031 6.5 20V14H24.5V20ZM10 18C9.725 18 9.5 18.225 9.5 18.5C9.5 18.775 9.725 19 10 19H12C12.275 19 12.5 18.775 12.5 18.5C12.5 18.225 12.275 18 12 18H10ZM14 19H18C18.275 19 18.5 18.775 18.5 18.5C18.5 18.225 18.275 18 18 18H14C13.725 18 13.5 18.225 13.5 18.5C13.5 18.775 13.725 19 14 19Z" fill="#747474"/>
</g>
<rect x="-14.75" y="-87.75" width="460.5" height="204.5" rx="4.75" stroke="#171717" stroke-width="0.5"/>
<defs>
<clipPath id="clip0_0_1">
<rect width="18" height="16" fill="white" transform="translate(6.5 7)"/>
</clipPath>
</defs>
</svg>
