<svg width="30" height="30" viewBox="0 0 30 30" fill="none" xmlns="http://www.w3.org/2000/svg">
<circle opacity="0.12" cx="15" cy="15" r="15" fill="#DDB057"/>
<path d="M24 14H6V11H24V14Z" fill="white"/>
<path d="M22 8C23.1031 8 24 8.89531 24 10V11H6V10C6 8.89531 6.89531 8 8 8H22ZM24 20C24 21.1031 23.1031 22 22 22H8C6.89531 22 6 21.1031 6 20V14H24V20ZM9.5 18C9.225 18 9 18.225 9 18.5C9 18.775 9.225 19 9.5 19H11.5C11.775 19 12 18.775 12 18.5C12 18.225 11.775 18 11.5 18H9.5ZM13.5 19H17.5C17.775 19 18 18.775 18 18.5C18 18.225 17.775 18 17.5 18H13.5C13.225 18 13 18.225 13 18.5C13 18.775 13.225 19 13.5 19Z" fill="#DDB057"/>
</svg>
