<svg xmlns="http://www.w3.org/2000/svg" width="21" height="20" viewBox="0 0 21 20" fill="none">
  <path d="M8.27571 3.40727L9.71876 1.98125V9.21875C9.71876 9.65023 10.0685 10 10.5 10C10.9315 10 11.2813 9.65023 11.2813 9.21875V2.05848L12.6462 3.40727C12.9531 3.71055 13.4477 3.70758 13.751 3.4007C14.0543 3.09379 14.0513 2.59914 13.7445 2.29586L12.1199 0.690469C11.6766 0.245156 11.0877 0 10.4609 0C9.83419 0 9.24524 0.245156 8.802 0.690469L7.17743 2.29586C6.87055 2.59914 6.86758 3.09379 7.17087 3.4007C7.47418 3.70762 7.9688 3.71059 8.27571 3.40727Z" fill="#191919"/>
  <path d="M1.28125 9.21875C1.71273 9.21875 2.0625 8.86898 2.0625 8.4375C2.0625 7.57594 2.76344 6.875 3.625 6.875H7.375C7.80648 6.875 8.15625 6.52523 8.15625 6.09375C8.15625 5.66227 7.80648 5.3125 7.375 5.3125H3.625C1.90188 5.3125 0.5 6.71438 0.5 8.4375C0.5 8.86898 0.849766 9.21875 1.28125 9.21875Z" fill="#191919"/>
  <path d="M8.34484 10.0855C8.21398 10.0012 8.06746 9.96094 7.92262 9.96098C7.66586 9.96098 7.41437 10.0874 7.26504 10.3193C6.80031 11.041 6.55469 11.8643 6.55469 12.7002C6.55469 15.0264 8.32457 16.9189 10.5 16.9189C12.6754 16.9189 14.4453 15.0264 14.4453 12.7002C14.4453 11.8054 14.2188 11.0034 13.7721 10.3164C13.537 9.95473 13.053 9.85215 12.6913 10.0873C12.3296 10.3225 12.227 10.8064 12.4622 11.1682C12.7413 11.5974 12.8828 12.1128 12.8828 12.7002C12.8828 14.1648 11.8139 15.3564 10.5 15.3564C9.18609 15.3564 8.11719 14.1648 8.11719 12.7002C8.11719 12.165 8.27676 11.6342 8.57871 11.1653C8.8123 10.8025 8.70762 10.3191 8.34484 10.0855Z" fill="#191919"/>
  <path d="M4.28906 11.9141C3.85759 11.9141 3.50781 12.2638 3.50781 12.6953C3.50781 13.1268 3.85759 13.4766 4.28906 13.4766C4.72053 13.4766 5.07031 13.1268 5.07031 12.6953C5.07031 12.2638 4.72053 11.9141 4.28906 11.9141Z" fill="#191919"/>
  <path d="M16.7109 11.9141C16.2795 11.9141 15.9297 12.2638 15.9297 12.6953C15.9297 13.1268 16.2795 13.4766 16.7109 13.4766C17.1424 13.4766 17.4922 13.1268 17.4922 12.6953C17.4922 12.2638 17.1424 11.9141 16.7109 11.9141Z" fill="#191919"/>
  <path d="M3.625 20L17.375 20C19.0981 20 20.5 18.5981 20.5 16.875V8.4375C20.5 6.71437 19.0981 5.3125 17.375 5.3125H13.625C13.1935 5.3125 12.8438 5.66227 12.8438 6.09375C12.8438 6.52523 13.1935 6.875 13.625 6.875H17.375C18.2366 6.875 18.9375 7.57594 18.9375 8.4375V16.875C18.9375 17.7366 18.2366 18.4375 17.375 18.4375L3.625 18.4375C2.76344 18.4375 2.0625 17.7366 2.0625 16.875V12.3437C2.0625 11.9123 1.71273 11.5625 1.28125 11.5625C0.849766 11.5625 0.5 11.9123 0.5 12.3437V16.875C0.5 18.5981 1.90187 20 3.625 20Z" fill="#191919"/>
</svg>