<svg width="50" height="50" viewBox="0 0 50 50" fill="none" xmlns="http://www.w3.org/2000/svg">
<circle cx="25" cy="25" r="24.5" fill="#4AC71F" fill-opacity="0.1" stroke="#4AC71F"/>
<path opacity="0.4" d="M30.554 20.2961C33.005 20.2961 35 22.3559 35 24.8876V29.9199C35 32.4453 33.01 34.5 30.564 34.5H19.448C16.996 34.5 15 32.4412 15 29.9096V24.8773C15 22.3518 16.991 20.2961 19.438 20.2961H20.378L30.554 20.2961Z" fill="#4AC71F"/>
<path d="M25.5459 29.0374L28.4549 26.0695C28.7549 25.7627 28.7549 25.2691 28.4529 24.9634C28.1509 24.6587 27.6639 24.6597 27.3639 24.9654L25.7709 26.5905L25.7709 16.2821C25.7709 15.8504 25.4259 15.5 24.9999 15.5C24.5749 15.5 24.2309 15.8504 24.2309 16.2821V26.5905L22.6369 24.9654C22.3369 24.6597 21.8499 24.6587 21.5479 24.9634C21.3969 25.1168 21.3209 25.3168 21.3209 25.518C21.3209 25.717 21.3969 25.9171 21.5459 26.0695L24.4549 29.0374C24.5999 29.1847 24.7959 29.268 24.9999 29.268C25.2049 29.268 25.4009 29.1847 25.5459 29.0374Z" fill="#4AC71F"/>
</svg>
