<svg width="40" height="40" viewBox="0 0 40 40" fill="none" xmlns="http://www.w3.org/2000/svg">
<g clip-path="url(#clip0_6700_8374)">
<path d="M28.332 23.3334C28.332 23.7754 28.1564 24.1993 27.8439 24.5119C27.5313 24.8244 27.1074 25 26.6654 25H13.332C12.89 25 12.4661 24.8244 12.1535 24.5119C11.841 24.1993 11.6654 23.7754 11.6654 23.3334C11.6654 22.8913 11.841 22.4674 12.1535 22.1549C12.4661 21.8423 12.89 21.6667 13.332 21.6667H26.6654C27.1074 21.6667 27.5313 21.8423 27.8439 22.1549C28.1564 22.4674 28.332 22.8913 28.332 23.3334ZM21.6654 28.3334H13.332C12.89 28.3334 12.4661 28.509 12.1535 28.8215C11.841 29.1341 11.6654 29.558 11.6654 30C11.6654 30.4421 11.841 30.866 12.1535 31.1786C12.4661 31.4911 12.89 31.6667 13.332 31.6667H21.6654C22.1074 31.6667 22.5313 31.4911 22.8439 31.1786C23.1564 30.866 23.332 30.4421 23.332 30C23.332 29.558 23.1564 29.1341 22.8439 28.8215C22.5313 28.509 22.1074 28.3334 21.6654 28.3334ZM36.6654 17.475V31.6667C36.6627 33.876 35.7839 35.9941 34.2217 37.5563C32.6594 39.1186 30.5414 39.9974 28.332 40H11.6654C9.45604 39.9974 7.33796 39.1186 5.77573 37.5563C4.2135 35.9941 3.33468 33.876 3.33203 31.6667V8.33337C3.33468 6.12405 4.2135 4.00597 5.77573 2.44374C7.33796 0.881508 9.45604 0.00268484 11.6654 3.84145e-05H19.1904C20.7231 -0.00390646 22.2413 0.296018 23.6574 0.88247C25.0735 1.46892 26.3592 2.33027 27.4404 3.41671L33.247 9.2267C34.3341 10.3071 35.196 11.5925 35.7827 13.0083C36.3695 14.4242 36.6695 15.9424 36.6654 17.475ZM25.0837 5.77337C24.5592 5.26531 23.9703 4.82824 23.332 4.47337V11.6667C23.332 12.1087 23.5076 12.5327 23.8202 12.8452C24.1327 13.1578 24.5567 13.3334 24.9987 13.3334H32.192C31.837 12.6954 31.3993 12.1069 30.8904 11.5834L25.0837 5.77337ZM33.332 17.475C33.332 17.2 33.2787 16.9367 33.2537 16.6667H24.9987C23.6726 16.6667 22.4008 16.1399 21.4632 15.2022C20.5255 14.2646 19.9987 12.9928 19.9987 11.6667V3.41171C19.7287 3.3867 19.4637 3.33337 19.1904 3.33337H11.6654C10.3393 3.33337 9.06751 3.86016 8.12983 4.79784C7.19215 5.73552 6.66536 7.00729 6.66536 8.33337V31.6667C6.66536 32.9928 7.19215 34.2646 8.12983 35.2022C9.06751 36.1399 10.3393 36.6667 11.6654 36.6667H28.332C29.6581 36.6667 30.9299 36.1399 31.8676 35.2022C32.8052 34.2646 33.332 32.9928 33.332 31.6667V17.475Z" fill="#374957"/>
</g>
<defs>
<clipPath id="clip0_6700_8374">
<rect width="40" height="40" fill="white"/>
</clipPath>
</defs>
</svg>
