<svg width="35" height="35" viewBox="0 0 35 35" fill="none" xmlns="http://www.w3.org/2000/svg">
<g clip-path="url(#clip0_7950_105992)">
<path d="M24.7497 20.535C24.7497 20.9077 24.6017 21.2651 24.3381 21.5286C24.0746 21.7921 23.7172 21.9402 23.3445 21.9402H12.103C11.7303 21.9402 11.3729 21.7921 11.1094 21.5286C10.8459 21.2651 10.6978 20.9077 10.6978 20.535C10.6978 20.1623 10.8459 19.8049 11.1094 19.5414C11.3729 19.2778 11.7303 19.1298 12.103 19.1298H23.3445C23.7172 19.1298 24.0746 19.2778 24.3381 19.5414C24.6017 19.8049 24.7497 20.1623 24.7497 20.535ZM19.1289 24.7505H12.103C11.7303 24.7505 11.3729 24.8986 11.1094 25.1621C10.8459 25.4256 10.6978 25.783 10.6978 26.1557C10.6978 26.5284 10.8459 26.8858 11.1094 27.1493C11.3729 27.4129 11.7303 27.5609 12.103 27.5609H19.1289C19.5016 27.5609 19.859 27.4129 20.1226 27.1493C20.3861 26.8858 20.5341 26.5284 20.5341 26.1557C20.5341 25.783 20.3861 25.4256 20.1226 25.1621C19.859 24.8986 19.5016 24.7505 19.1289 24.7505ZM31.7756 15.5957V27.5609C31.7734 29.4236 31.0325 31.2094 29.7153 32.5265C28.3982 33.8437 26.6124 34.5846 24.7497 34.5869H10.6978C8.83511 34.5846 7.04933 33.8437 5.73219 32.5265C4.41505 31.2094 3.67411 29.4236 3.67188 27.5609V7.88828C3.67411 6.02557 4.41505 4.23979 5.73219 2.92265C7.04933 1.60552 8.83511 0.864568 10.6978 0.862337H17.0422C18.3345 0.859011 19.6146 1.11188 20.8085 1.60633C22.0024 2.10077 23.0864 2.82698 23.9979 3.74297L28.8936 8.64146C29.8101 9.55236 30.5368 10.6361 31.0315 11.8298C31.5262 13.0235 31.7791 14.3036 31.7756 15.5957ZM22.011 5.72991C21.5687 5.30155 21.0722 4.93306 20.5341 4.63386V10.6987C20.5341 11.0713 20.6822 11.4287 20.9457 11.6923C21.2092 11.9558 21.5666 12.1038 21.9393 12.1038H28.0041C27.7047 11.5659 27.3358 11.0698 26.9067 10.6284L22.011 5.72991ZM28.9653 15.5957C28.9653 15.3639 28.9203 15.1419 28.8992 14.9142H21.9393C20.8213 14.9142 19.749 14.4701 18.9585 13.6795C18.1679 12.8889 17.7238 11.8167 17.7238 10.6987V3.73876C17.4961 3.71768 17.2727 3.67271 17.0422 3.67271H10.6978C9.57978 3.67271 8.50753 4.11685 7.71696 4.90742C6.92639 5.698 6.48225 6.77024 6.48225 7.88828V27.5609C6.48225 28.679 6.92639 29.7512 7.71696 30.5418C8.50753 31.3323 9.57978 31.7765 10.6978 31.7765H24.7497C25.8677 31.7765 26.94 31.3323 27.7306 30.5418C28.5211 29.7512 28.9653 28.679 28.9653 27.5609V15.5957Z" fill="#191919"/>
</g>
<defs>
<clipPath id="clip0_7950_105992">
<rect width="33.7245" height="33.7245" fill="white" transform="translate(0.859375 0.862305)"/>
</clipPath>
</defs>
</svg>
