<svg width="17" height="16" viewBox="0 0 17 16" fill="none" xmlns="http://www.w3.org/2000/svg">
<path id="Vector" d="M12.2219 0.658992C13.1 -0.219664 14.525 -0.219664 15.4031 0.658992L15.7812 1.03774C16.6594 1.91649 16.6594 3.34118 15.7812 4.2193L9.61875 10.3849C9.34687 10.6537 9.0125 10.8506 8.64375 10.9568L5.51875 11.8506C5.25625 11.9256 4.975 11.8506 4.78125 11.6318C4.59062 11.4662 4.51562 11.1849 4.59062 10.9224L5.48438 7.79743C5.59062 7.42868 5.7875 7.0943 6.05625 6.82243L12.2219 0.658992ZM14.3156 1.71962C14.05 1.4268 13.575 1.4268 13.2812 1.71962L12.3719 2.62868L13.8125 4.0693L14.7219 3.1318C15.0156 2.86618 15.0156 2.39118 14.7219 2.09837L14.3156 1.71962ZM6.92812 8.20993L6.40312 10.0381L8.23125 9.51305C8.35625 9.47868 8.46563 9.41305 8.55625 9.32243L12.7531 5.12868L11.3125 3.68805L7.11875 7.88493C7.02813 7.97555 6.9625 8.08493 6.92812 8.20993ZM6.8125 1.87868C7.22813 1.87868 7.5625 2.21462 7.5625 2.62868C7.5625 3.0443 7.22813 3.37868 6.8125 3.37868H3.3125C2.62219 3.37868 2.0625 3.93805 2.0625 4.62868V13.1287C2.0625 13.8193 2.62219 14.3787 3.3125 14.3787H11.8125C12.5031 14.3787 13.0625 13.8193 13.0625 13.1287V9.62868C13.0625 9.21305 13.3969 8.87868 13.8125 8.87868C14.2281 8.87868 14.5625 9.21305 14.5625 9.62868V13.1287C14.5625 14.6474 13.3313 15.8787 11.8125 15.8787H3.3125C1.79375 15.8787 0.5625 14.6474 0.5625 13.1287V4.62868C0.5625 3.10993 1.79375 1.87868 3.3125 1.87868H6.8125Z" fill="#868686"/>
</svg>
