<svg xmlns="http://www.w3.org/2000/svg" width="32" height="38" viewBox="0 0 32 38" fill="none">
<g opacity="0.7">
<path opacity="0.4" d="M28.8168 13.4792C27.9669 13.4792 26.8412 13.4604 25.4398 13.4604C22.0216 13.4604 19.2111 10.6312 19.2111 7.18083V1.12718C19.2111 0.650949 18.8292 0.263184 18.3576 0.263184H8.40164C3.75725 0.263184 0 4.07683 0 8.75071V29.0331C0 33.9366 3.93617 37.9102 8.79115 37.9102H23.6151C28.2464 37.9102 32 34.1211 32 29.4434V14.3262C32 13.8481 31.6198 13.4622 31.1464 13.4641C30.3507 13.4698 29.3963 13.4792 28.8168 13.4792Z" fill="#000"/>
<path opacity="0.4" d="M23.6919 1.33102C23.131 0.745604 22.1465 1.14843 22.1465 1.95972V6.92349C22.1465 9.00537 23.8613 10.7183 25.9432 10.7183C27.2552 10.7334 29.0773 10.7371 30.6246 10.7334C31.4171 10.7315 31.8199 9.78466 31.2703 9.21243C29.2844 7.14749 25.7286 3.44678 23.6919 1.33102Z" fill="#000"/>
<path d="M17.7652 20.9425L20.0635 18.6423C20.6113 18.0964 20.6113 17.2098 20.0635 16.662C19.5158 16.1143 18.6292 16.1143 18.0814 16.662L15.7831 18.9585L13.4847 16.662C12.9369 16.1143 12.0484 16.1143 11.5007 16.662C10.9529 17.2098 10.9529 18.0964 11.5007 18.6423L13.8009 20.9425L11.5007 23.2409C10.9529 23.7886 10.9529 24.6752 11.5007 25.2211C11.7755 25.4959 12.1331 25.6333 12.4927 25.6333C12.8522 25.6333 13.2099 25.4959 13.4847 25.2211L15.7831 22.9246L18.0814 25.2211C18.3543 25.4959 18.7139 25.6333 19.0734 25.6333C19.4311 25.6333 19.7906 25.4959 20.0635 25.2211C20.6113 24.6752 20.6113 23.7886 20.0635 23.2409L17.7652 20.9425Z" fill="#000"/>
</g>
</svg>