<svg width="24" height="24" viewBox="0 0 24 24" fill="none" xmlns="http://www.w3.org/2000/svg">
<g id="vuesax/linear/messages">
<g id="messages">
<g id="Group">
<g id="Vector">
<path d="M18.0056 11.0651V14.8642C18.0056 15.1112 17.9961 15.3486 17.9676 15.5766C17.7492 18.141 16.239 19.4136 13.4562 19.4136H13.0763C12.8388 19.4136 12.6109 19.5276 12.4684 19.7176L11.3287 21.2372C10.8253 21.9116 10.0085 21.9116 9.50509 21.2372L8.36534 19.7176C8.24187 19.5561 7.96645 19.4136 7.75749 19.4136H7.37759C4.34778 19.4136 2.82812 18.6633 2.82812 14.8642V11.0651C2.82812 8.28223 4.11034 6.77207 6.66525 6.55362C6.8932 6.52513 7.13064 6.51562 7.37759 6.51562H13.4562C16.486 6.51562 18.0056 8.03528 18.0056 11.0651Z" stroke="#2F2F2F" stroke-width="1.42467" stroke-miterlimit="10" stroke-linecap="round" stroke-linejoin="round"/>
<path d="M18.0056 11.0651V14.8642C18.0056 15.1112 17.9961 15.3486 17.9676 15.5766C17.7492 18.141 16.239 19.4136 13.4562 19.4136H13.0763C12.8388 19.4136 12.6109 19.5276 12.4684 19.7176L11.3287 21.2372C10.8253 21.9116 10.0085 21.9116 9.50509 21.2372L8.36534 19.7176C8.24187 19.5561 7.96645 19.4136 7.75749 19.4136H7.37759C4.34778 19.4136 2.82812 18.6633 2.82812 14.8642V11.0651C2.82812 8.28223 4.11034 6.77207 6.66525 6.55362C6.8932 6.52513 7.13064 6.51562 7.37759 6.51562H13.4562C16.486 6.51562 18.0056 8.03528 18.0056 11.0651Z" stroke="black" stroke-opacity="0.2" stroke-width="1.42467" stroke-miterlimit="10" stroke-linecap="round" stroke-linejoin="round"/>
</g>
</g>
<g id="Vector_2">
<path d="M21.8055 7.26431V11.0634C21.8055 13.8558 20.5233 15.3564 17.9684 15.5749C17.9969 15.3469 18.0064 15.1095 18.0064 14.8626V11.0634C18.0064 8.03363 16.4868 6.51397 13.4569 6.51397H7.37835C7.13141 6.51397 6.89396 6.52348 6.66602 6.55197C6.88447 3.99706 8.39462 2.71484 11.1775 2.71484H17.2561C20.2859 2.71484 21.8055 4.2345 21.8055 7.26431Z" stroke="#2F2F2F" stroke-width="1.42467" stroke-miterlimit="10" stroke-linecap="round" stroke-linejoin="round"/>
<path d="M21.8055 7.26431V11.0634C21.8055 13.8558 20.5233 15.3564 17.9684 15.5749C17.9969 15.3469 18.0064 15.1095 18.0064 14.8626V11.0634C18.0064 8.03363 16.4868 6.51397 13.4569 6.51397H7.37835C7.13141 6.51397 6.89396 6.52348 6.66602 6.55197C6.88447 3.99706 8.39462 2.71484 11.1775 2.71484H17.2561C20.2859 2.71484 21.8055 4.2345 21.8055 7.26431Z" stroke="black" stroke-opacity="0.2" stroke-width="1.42467" stroke-miterlimit="10" stroke-linecap="round" stroke-linejoin="round"/>
</g>
<g id="Vector_3">
<path d="M13.748 13.4007H13.7565" stroke="#2F2F2F" stroke-width="1.89956" stroke-linecap="round" stroke-linejoin="round"/>
<path d="M13.748 13.4007H13.7565" stroke="black" stroke-opacity="0.2" stroke-width="1.89956" stroke-linecap="round" stroke-linejoin="round"/>
</g>
<g id="Vector_4">
<path d="M10.4237 13.4007H10.4323" stroke="#2F2F2F" stroke-width="1.89956" stroke-linecap="round" stroke-linejoin="round"/>
<path d="M10.4237 13.4007H10.4323" stroke="black" stroke-opacity="0.2" stroke-width="1.89956" stroke-linecap="round" stroke-linejoin="round"/>
</g>
<g id="Vector_5">
<path d="M7.09952 13.4007H7.10807" stroke="#2F2F2F" stroke-width="1.89956" stroke-linecap="round" stroke-linejoin="round"/>
<path d="M7.09952 13.4007H7.10807" stroke="black" stroke-opacity="0.2" stroke-width="1.89956" stroke-linecap="round" stroke-linejoin="round"/>
</g>
</g>
</g>
</svg>
