<svg xmlns="http://www.w3.org/2000/svg" width="24" height="24" viewBox="0 0 24 24" fill="none">
<path d="M19.6239 2H4.5177C3.131 2 2 3.131 2 4.4823V15.7766C2 17.1633 3.131 18.2589 4.5177 18.2589H8.29426V21.5279C8.29426 21.9115 8.73682 22.1357 9.04642 21.9095L13.9599 18.2234H19.6247C21.0114 18.2234 22.1424 17.0924 22.1424 15.7411V4.4823C22.1416 3.131 21.0441 2 19.6239 2ZM12.4209 13.3297H8.01495C7.49567 13.3297 7.07081 12.9087 7.07081 12.3855C7.07081 11.8623 7.49567 11.4414 8.01495 11.4414H12.4209C12.9441 11.4414 13.3651 11.8662 13.3651 12.3855C13.3651 12.9048 12.9441 13.3297 12.4209 13.3297ZM16.1975 9.55311H8.01495C7.49567 9.55311 7.07081 9.13218 7.07081 8.60897C7.07081 8.08576 7.49567 7.66483 8.01495 7.66483H16.1975C16.7207 7.66483 17.1416 8.08969 17.1416 8.60897C17.1416 9.12825 16.7207 9.55311 16.1975 9.55311Z" fill="#191919"/>
</svg>