<svg width="17" height="16" viewBox="0 0 17 16" fill="none" xmlns="http://www.w3.org/2000/svg">
<g clip-path="url(#clip0_5080_32636)">
<path d="M2.7777 12.6859V3.94751C2.77766 3.81264 2.82069 3.68103 2.90095 3.57054C2.98121 3.46005 3.09481 3.37604 3.22634 3.32991L9.8202 1.01981C9.87171 1.00175 9.92698 0.995915 9.98132 1.00281C10.0357 1.00971 10.0875 1.02914 10.1324 1.05944C10.1773 1.08974 10.2139 1.13003 10.2392 1.17689C10.2645 1.22375 10.2777 1.27579 10.2777 1.32861V4.58286L14.5841 5.9659C14.7199 6.00949 14.838 6.09317 14.9217 6.20508C15.0054 6.317 15.0505 6.45146 15.0504 6.58941V12.6859H16.4141V14H1.41406V12.6859H2.7777ZM4.14134 12.6859H8.91406V2.7353L4.14134 4.40809V12.6859ZM13.6868 12.6859V7.06313L10.2777 5.96787V12.6859H13.6868Z" fill="#4545FE"/>
</g>
<defs>
<clipPath id="clip0_5080_32636">
<rect width="16" height="16" fill="white" transform="translate(0.414062)"/>
</clipPath>
</defs>
</svg>
