<svg xmlns="http://www.w3.org/2000/svg" width="21" height="20" viewBox="0 0 21 20" fill="none">
  <path d="M7.39199 18.9583H4.02533C2.35033 18.9583 1.54199 18.1833 1.54199 16.5833V3.41663C1.54199 1.81663 2.35866 1.04163 4.02533 1.04163H7.39199C9.06699 1.04163 9.87533 1.81663 9.87533 3.41663V16.5833C9.87533 18.1833 9.05866 18.9583 7.39199 18.9583ZM4.02533 2.29163C2.96699 2.29163 2.79199 2.57496 2.79199 3.41663V16.5833C2.79199 17.425 2.96699 17.7083 4.02533 17.7083H7.39199C8.45033 17.7083 8.62533 17.425 8.62533 16.5833V3.41663C8.62533 2.57496 8.45033 2.29163 7.39199 2.29163H4.02533Z" fill="#FBFCFC"/>
  <path d="M16.975 11.4583H13.6083C11.9333 11.4583 11.125 10.6833 11.125 9.08329V3.41663C11.125 1.81663 11.9417 1.04163 13.6083 1.04163H16.975C18.65 1.04163 19.4583 1.81663 19.4583 3.41663V9.08329C19.4583 10.6833 18.6417 11.4583 16.975 11.4583ZM13.6083 2.29163C12.55 2.29163 12.375 2.57496 12.375 3.41663V9.08329C12.375 9.92496 12.55 10.2083 13.6083 10.2083H16.975C18.0333 10.2083 18.2083 9.92496 18.2083 9.08329V3.41663C18.2083 2.57496 18.0333 2.29163 16.975 2.29163H13.6083Z" fill="#FBFCFC"/>
  <path d="M16.975 18.9584H13.6083C11.9333 18.9584 11.125 18.1834 11.125 16.5834V15.0834C11.125 13.4834 11.9417 12.7084 13.6083 12.7084H16.975C18.65 12.7084 19.4583 13.4834 19.4583 15.0834V16.5834C19.4583 18.1834 18.6417 18.9584 16.975 18.9584ZM13.6083 13.9584C12.55 13.9584 12.375 14.2417 12.375 15.0834V16.5834C12.375 17.425 12.55 17.7084 13.6083 17.7084H16.975C18.0333 17.7084 18.2083 17.425 18.2083 16.5834V15.0834C18.2083 14.2417 18.0333 13.9584 16.975 13.9584H13.6083Z" fill="#FBFCFC"/>
</svg>