<svg width="64" height="64" viewBox="0 0 64 64" fill="none" xmlns="http://www.w3.org/2000/svg">
<g id="3 User 1">
<path id="Vector" d="M31.8648 38.7729C22.6649 38.7729 14.9023 40.2764 14.9023 46.0783C14.9023 51.8828 22.715 53.3332 31.8648 53.3332C41.0648 53.3332 48.8275 51.83 48.8275 46.0279C48.8275 40.2236 41.0147 38.7729 31.8648 38.7729Z" fill="#12D8A0"/>
<path id="Vector_2" opacity="0.4" d="M31.8653 33.2452C38.0949 33.2452 43.0901 28.2214 43.0901 21.9559C43.0901 15.688 38.0949 10.6665 31.8653 10.6665C25.6358 10.6665 20.6406 15.688 20.6406 21.9559C20.6406 28.2214 25.6358 33.2452 31.8653 33.2452Z" fill="#12D8A0"/>
<path id="Vector_3" opacity="0.4" d="M56.236 24.5846C57.8478 18.2447 53.1224 12.5508 47.1054 12.5508C46.4512 12.5508 45.8256 12.6228 45.2144 12.7453C45.1331 12.7645 45.0424 12.8053 44.9947 12.8774C44.9398 12.9686 44.9803 13.0911 45.04 13.1704C46.8475 15.7208 47.8862 18.8259 47.8862 22.1591C47.8862 25.3531 46.9336 28.3309 45.2622 30.8021C45.0902 31.0567 45.243 31.3999 45.5462 31.453C45.9664 31.5274 46.3963 31.5658 46.8355 31.5778C51.2171 31.693 55.1496 28.8567 56.236 24.5846Z" fill="#12D8A0"/>
<path id="Vector_4" d="M60.8252 39.5115C60.0228 37.7921 58.0865 36.6131 55.1422 36.0342C53.7526 35.6934 49.9918 35.2129 46.494 35.2779C46.4414 35.2851 46.4126 35.3211 46.4078 35.3451C46.4009 35.3787 46.415 35.4363 46.4844 35.4723C48.1009 36.2769 54.3497 39.7758 53.5641 47.1555C53.5305 47.475 53.786 47.7513 54.1036 47.703C55.6414 47.4822 59.5977 46.6273 60.8252 43.9641C61.5033 42.5566 61.5033 40.9214 60.8252 39.5115Z" fill="#12D8A0"/>
<path id="Vector_5" opacity="0.4" d="M18.7882 12.7463C18.1793 12.6214 17.5513 12.5518 16.8971 12.5518C10.88 12.5518 6.15464 18.2457 7.76875 24.5856C8.85277 28.8578 12.7854 31.694 17.1669 31.5788C17.6062 31.5668 18.0384 31.5258 18.4563 31.4538C18.7595 31.401 18.9123 31.0575 18.7404 30.8031C17.069 28.3295 16.1163 25.3541 16.1163 22.1601C16.1163 18.8244 17.1573 15.7193 18.9649 13.1713C19.0222 13.0921 19.0651 12.9696 19.0078 12.8783C18.9601 12.8039 18.8717 12.7655 18.7882 12.7463Z" fill="#12D8A0"/>
<path id="Vector_6" d="M8.8588 36.0339C5.91469 36.6126 3.98064 37.7918 3.17834 39.5113C2.49784 40.9209 2.49784 42.5563 3.17834 43.9659C4.40565 46.6267 8.36213 47.4841 9.89984 47.7027C10.2174 47.7507 10.4705 47.4769 10.4371 47.155C9.65152 39.7777 15.9002 36.2787 17.5191 35.4742C17.586 35.4358 17.6003 35.3806 17.5931 35.3446C17.5884 35.3206 17.5621 35.2846 17.5096 35.2798C14.0091 35.2126 10.2508 35.6929 8.8588 36.0339Z" fill="#12D8A0"/>
</g>
</svg>
