<svg width="17" height="17" viewBox="0 0 17 17" fill="none" xmlns="http://www.w3.org/2000/svg">
<g id="vuesax/bold/gallery">
<g id="gallery">
<path id="Vector" d="M1.89923 13.3005L1.8859 13.3138C1.7059 12.9205 1.59257 12.4738 1.5459 11.9805C1.59257 12.4671 1.71923 12.9071 1.89923 13.3005Z" fill="white"/>
<path id="Vector_2" d="M6.17944 7.54443C7.05573 7.54443 7.76611 6.83405 7.76611 5.95776C7.76611 5.08147 7.05573 4.37109 6.17944 4.37109C5.30315 4.37109 4.59277 5.08147 4.59277 5.95776C4.59277 6.83405 5.30315 7.54443 6.17944 7.54443Z" fill="white"/>
<path id="Vector_3" d="M10.9727 1.95703H5.38603C2.95936 1.95703 1.5127 3.4037 1.5127 5.83036V11.417C1.5127 12.1437 1.63936 12.777 1.88603 13.3104C2.45936 14.577 3.68603 15.2904 5.38603 15.2904H10.9727C13.3994 15.2904 14.846 13.8437 14.846 11.417V9.89036V5.83036C14.846 3.4037 13.3994 1.95703 10.9727 1.95703ZM13.7594 8.95703C13.2394 8.51036 12.3994 8.51036 11.8794 8.95703L9.10603 11.337C8.58603 11.7837 7.74603 11.7837 7.22603 11.337L6.99936 11.1504C6.52603 10.737 5.7727 10.697 5.23936 11.057L2.74603 12.7304C2.59936 12.357 2.5127 11.9237 2.5127 11.417V5.83036C2.5127 3.95036 3.50603 2.95703 5.38603 2.95703H10.9727C12.8527 2.95703 13.846 3.95036 13.846 5.83036V9.03036L13.7594 8.95703Z" fill="white"/>
</g>
</g>
</svg>
