<svg width="24" height="24" viewBox="0 0 24 24" fill="none" xmlns="http://www.w3.org/2000/svg">
<path d="M12.014 23.9996H5.119C3.76184 23.998 2.46073 23.4582 1.50107 22.4985C0.54142 21.5389 0.00158794 20.2377 0 18.8806L0 14.0806C0.000233495 13.3189 0.170392 12.5668 0.498079 11.8791C0.825765 11.1915 1.30273 10.5856 1.89421 10.1057C2.48569 9.62569 3.1768 9.28372 3.91718 9.10465C4.65755 8.92559 5.42855 8.91395 6.174 9.07058L20.01 11.9796L22.018 0.0175781L23.99 0.348578L21.4 15.7996C21.2958 16.6636 21.0713 17.5088 20.733 18.3106C19.9892 20.0032 18.7686 21.4425 17.2203 22.4528C15.6719 23.4631 13.8628 24.0006 12.014 23.9996ZM5.114 10.9566C4.28748 10.9579 3.49529 11.2872 2.91141 11.8722C2.32754 12.4572 1.99973 13.2501 2 14.0766V18.8766C1.99973 19.7042 2.32813 20.4981 2.913 21.0838C3.49787 21.6694 4.29134 21.9988 5.119 21.9996H12.019C13.4781 21.9994 14.9057 21.5745 16.1275 20.7769C17.3494 19.9793 18.3127 18.8433 18.9 17.5076C19.1658 16.8649 19.3412 16.1885 19.421 15.4976L19.68 13.9536L5.762 11.0236C5.54888 10.979 5.33173 10.9566 5.114 10.9566Z" fill="#3D3D3D"/>
</svg>
