<svg width="24" height="22" viewBox="0 0 24 22" fill="none" xmlns="http://www.w3.org/2000/svg">
<path d="M19 4H16V3C16 2.20435 15.6839 1.44129 15.1213 0.87868C14.5587 0.31607 13.7956 0 13 0H11C10.2044 0 9.44129 0.31607 8.87868 0.87868C8.31607 1.44129 8 2.20435 8 3V4H5C3.67441 4.00159 2.40356 4.52888 1.46622 5.46622C0.528882 6.40356 0.00158786 7.67441 0 9L0 17C0.00158786 18.3256 0.528882 19.5964 1.46622 20.5338C2.40356 21.4711 3.67441 21.9984 5 22H19C20.3256 21.9984 21.5964 21.4711 22.5338 20.5338C23.4711 19.5964 23.9984 18.3256 24 17V9C23.9984 7.67441 23.4711 6.40356 22.5338 5.46622C21.5964 4.52888 20.3256 4.00159 19 4ZM10 3C10 2.73478 10.1054 2.48043 10.2929 2.29289C10.4804 2.10536 10.7348 2 11 2H13C13.2652 2 13.5196 2.10536 13.7071 2.29289C13.8946 2.48043 14 2.73478 14 3V4H10V3ZM22 17C22 17.7956 21.6839 18.5587 21.1213 19.1213C20.5587 19.6839 19.7956 20 19 20H5C4.20435 20 3.44129 19.6839 2.87868 19.1213C2.31607 18.5587 2 17.7956 2 17V9C2 8.20435 2.31607 7.44129 2.87868 6.87868C3.44129 6.31607 4.20435 6 5 6H19C19.7956 6 20.5587 6.31607 21.1213 6.87868C21.6839 7.44129 22 8.20435 22 9V17ZM16 13C16 13.2652 15.8946 13.5196 15.7071 13.7071C15.5196 13.8946 15.2652 14 15 14H13V16C13 16.2652 12.8946 16.5196 12.7071 16.7071C12.5196 16.8946 12.2652 17 12 17C11.7348 17 11.4804 16.8946 11.2929 16.7071C11.1054 16.5196 11 16.2652 11 16V14H9C8.73478 14 8.48043 13.8946 8.29289 13.7071C8.10536 13.5196 8 13.2652 8 13C8 12.7348 8.10536 12.4804 8.29289 12.2929C8.48043 12.1054 8.73478 12 9 12H11V10C11 9.73478 11.1054 9.48043 11.2929 9.29289C11.4804 9.10536 11.7348 9 12 9C12.2652 9 12.5196 9.10536 12.7071 9.29289C12.8946 9.48043 13 9.73478 13 10V12H15C15.2652 12 15.5196 12.1054 15.7071 12.2929C15.8946 12.4804 16 12.7348 16 13Z" fill="#3D3D3D"/>
</svg>
