<svg width="24" height="22" viewBox="0 0 24 22" fill="none" xmlns="http://www.w3.org/2000/svg">
<path d="M24 13C23.9976 10.879 23.154 8.84555 21.6542 7.34578C20.1544 5.846 18.121 5.00238 16 5V3H23C23.2652 3 23.5196 2.89464 23.7071 2.70711C23.8946 2.51957 24 2.26522 24 2C24 1.73478 23.8946 1.48043 23.7071 1.29289C23.5196 1.10536 23.2652 1 23 1H16C16 0.734784 15.8946 0.48043 15.7071 0.292893C15.5196 0.105357 15.2652 0 15 0C14.7348 0 14.4804 0.105357 14.2929 0.292893C14.1054 0.48043 14 0.734784 14 1H7C6.73478 1 6.48043 1.10536 6.29289 1.29289C6.10536 1.48043 6 1.73478 6 2C6 2.26522 6.10536 2.51957 6.29289 2.70711C6.48043 2.89464 6.73478 3 7 3H14V5H2V4C2 3.73478 1.89464 3.48043 1.70711 3.29289C1.51957 3.10536 1.26522 3 1 3C0.734784 3 0.48043 3.10536 0.292893 3.29289C0.105357 3.48043 0 3.73478 0 4C0 4 0.012 6.18 0.035 6.264C0.139879 7.03523 0.466446 7.75942 0.975035 8.3486C1.48362 8.93778 2.15235 9.36661 2.9 9.583L7 10.754V12C7.00143 13.2404 7.38665 14.4501 8.10281 15.4629C8.81897 16.4757 9.83098 17.2421 11 17.657V20H7C6.73478 20 6.48043 20.1054 6.29289 20.2929C6.10536 20.4804 6 20.7348 6 21C6 21.2652 6.10536 21.5196 6.29289 21.7071C6.48043 21.8946 6.73478 22 7 22H21C21.7956 22 22.5587 21.6839 23.1213 21.1213C23.6839 20.5587 24 19.7956 24 19C24 18.7348 23.8946 18.4804 23.7071 18.2929C23.5196 18.1054 23.2652 18 23 18C22.7348 18 22.4804 18.1054 22.2929 18.2929C22.1054 18.4804 22 18.7348 22 19C22 19.2652 21.8946 19.5196 21.7071 19.7071C21.5196 19.8946 21.2652 20 21 20H19V18C20.3256 17.9984 21.5964 17.4711 22.5338 16.5338C23.4711 15.5964 23.9984 14.3256 24 13ZM21.916 12H17C16.7348 12 16.4804 11.8946 16.2929 11.7071C16.1054 11.5196 16 11.2652 16 11V7C17.4174 7.00181 18.7886 7.50462 19.8711 8.41957C20.9537 9.33452 21.678 10.6027 21.916 12ZM9 12V10C8.9999 9.78282 8.9291 9.57157 8.7983 9.39819C8.6675 9.22481 8.48381 9.09873 8.275 9.039L3.45 7.66C3.05705 7.54736 2.70805 7.31702 2.45 7H14V11C14 11.7956 14.3161 12.5587 14.8787 13.1213C15.4413 13.6839 16.2044 14 17 14H21.828C21.6212 14.5848 21.2383 15.0912 20.7318 15.4494C20.2253 15.8075 19.6203 15.9999 19 16H13C11.9391 16 10.9217 15.5786 10.1716 14.8284C9.42143 14.0783 9 13.0609 9 12ZM17 20H13V18H17V20Z" fill="#3D3D3D"/>
</svg>
