<svg width="24" height="24" viewBox="0 0 24 24" fill="none" xmlns="http://www.w3.org/2000/svg">
<g id="vuesax/outline/note">
<g id="note">
<g id="Vector">
<path d="M15.5139 19.9836C15.2669 19.9836 15.0105 19.9741 14.735 19.9456C14.2412 19.9076 13.6808 19.8126 13.1014 19.6701L11.5058 19.2902C7.12729 18.255 5.69312 15.9375 6.71888 11.5685L7.64967 7.58892C7.85862 6.68662 8.10556 5.95529 8.40949 5.34743C10.0431 1.97571 13.1679 2.27964 15.3904 2.80202L16.9765 3.17243C19.199 3.69481 20.6047 4.52112 21.393 5.78433C22.1718 7.04754 22.2953 8.67167 21.7729 10.8942L20.8421 14.8642C20.0253 18.3404 18.3252 19.9836 15.5139 19.9836ZM12.9589 3.90376C11.3728 3.90376 10.366 4.55911 9.6917 5.96479C9.44476 6.47767 9.22631 7.11403 9.03635 7.91184L8.10556 11.8914C7.26026 15.4816 8.23853 17.0487 11.8287 17.9035L13.4243 18.2835C13.9372 18.4069 14.4216 18.4829 14.8585 18.5209C17.4324 18.7773 18.7241 17.6471 19.446 14.5413L20.3767 10.5712C20.8041 8.73815 20.7472 7.45595 20.1773 6.53466C19.6074 5.61337 18.4867 4.98652 16.6441 4.55911L15.058 4.1887C14.2696 3.99874 13.5668 3.90376 12.9589 3.90376Z" fill="#2F2F2F"/>
<path d="M15.5139 19.9836C15.2669 19.9836 15.0105 19.9741 14.735 19.9456C14.2412 19.9076 13.6808 19.8126 13.1014 19.6701L11.5058 19.2902C7.12729 18.255 5.69312 15.9375 6.71888 11.5685L7.64967 7.58892C7.85862 6.68662 8.10556 5.95529 8.40949 5.34743C10.0431 1.97571 13.1679 2.27964 15.3904 2.80202L16.9765 3.17243C19.199 3.69481 20.6047 4.52112 21.393 5.78433C22.1718 7.04754 22.2953 8.67167 21.7729 10.8942L20.8421 14.8642C20.0253 18.3404 18.3252 19.9836 15.5139 19.9836ZM12.9589 3.90376C11.3728 3.90376 10.366 4.55911 9.6917 5.96479C9.44476 6.47767 9.22631 7.11403 9.03635 7.91184L8.10556 11.8914C7.26026 15.4816 8.23853 17.0487 11.8287 17.9035L13.4243 18.2835C13.9372 18.4069 14.4216 18.4829 14.8585 18.5209C17.4324 18.7773 18.7241 17.6471 19.446 14.5413L20.3767 10.5712C20.8041 8.73815 20.7472 7.45595 20.1773 6.53466C19.6074 5.61337 18.4867 4.98652 16.6441 4.55911L15.058 4.1887C14.2696 3.99874 13.5668 3.90376 12.9589 3.90376Z" fill="black" fill-opacity="0.2"/>
</g>
<g id="Vector_2">
<path d="M8.40834 21.9506C5.9674 21.9506 4.40976 20.4879 3.41249 17.4011L2.19677 13.6495C0.848076 9.47045 2.0543 7.11499 6.21434 5.7663L7.715 5.28191C8.20888 5.12994 8.5793 5.02547 8.91172 4.96848C9.17766 4.91149 9.4531 5.01597 9.61456 5.23442C9.77602 5.45287 9.80452 5.7378 9.69054 5.98475C9.4436 6.48813 9.22515 7.12449 9.04469 7.9223L8.11391 11.9019C7.2686 15.4921 8.24687 17.0592 11.837 17.914L13.4327 18.2939C13.9456 18.4174 14.43 18.4934 14.8669 18.5314C15.1708 18.5599 15.4177 18.7688 15.5032 19.0632C15.5792 19.3577 15.4652 19.6616 15.2183 19.8326C14.5914 20.26 13.8031 20.6209 12.8058 20.9438L11.3052 21.4377C10.2129 21.7796 9.26314 21.9506 8.40834 21.9506ZM7.88596 6.72558L6.66074 7.12449C3.27002 8.21673 2.4627 9.81237 3.55495 13.2126L4.77067 16.9642C5.87242 20.3549 7.46805 21.1718 10.8588 20.0795L12.3594 19.5856C12.4164 19.5666 12.4639 19.5476 12.5209 19.5286L11.5141 19.2912C7.13563 18.2559 5.70146 15.9385 6.72722 11.5695L7.65801 7.58988C7.72449 7.28595 7.80048 6.99152 7.88596 6.72558Z" fill="#2F2F2F"/>
<path d="M8.40834 21.9506C5.9674 21.9506 4.40976 20.4879 3.41249 17.4011L2.19677 13.6495C0.848076 9.47045 2.0543 7.11499 6.21434 5.7663L7.715 5.28191C8.20888 5.12994 8.5793 5.02547 8.91172 4.96848C9.17766 4.91149 9.4531 5.01597 9.61456 5.23442C9.77602 5.45287 9.80452 5.7378 9.69054 5.98475C9.4436 6.48813 9.22515 7.12449 9.04469 7.9223L8.11391 11.9019C7.2686 15.4921 8.24687 17.0592 11.837 17.914L13.4327 18.2939C13.9456 18.4174 14.43 18.4934 14.8669 18.5314C15.1708 18.5599 15.4177 18.7688 15.5032 19.0632C15.5792 19.3577 15.4652 19.6616 15.2183 19.8326C14.5914 20.26 13.8031 20.6209 12.8058 20.9438L11.3052 21.4377C10.2129 21.7796 9.26314 21.9506 8.40834 21.9506ZM7.88596 6.72558L6.66074 7.12449C3.27002 8.21673 2.4627 9.81237 3.55495 13.2126L4.77067 16.9642C5.87242 20.3549 7.46805 21.1718 10.8588 20.0795L12.3594 19.5856C12.4164 19.5666 12.4639 19.5476 12.5209 19.5286L11.5141 19.2912C7.13563 18.2559 5.70146 15.9385 6.72722 11.5695L7.65801 7.58988C7.72449 7.28595 7.80048 6.99152 7.88596 6.72558Z" fill="black" fill-opacity="0.2"/>
</g>
</g>
</g>
</svg>
