<svg width="38" height="38" viewBox="0 0 38 38" fill="none" xmlns="http://www.w3.org/2000/svg">
<g clip-path="url(#clip0_600_18429)">
<path d="M14.2493 30.0833H18.9993V20.4915L12.666 14.9688L6.33268 20.4915V30.0833H11.0827V23.75H14.2493V30.0833ZM33.2493 33.25H4.74935C4.32942 33.25 3.9267 33.0832 3.62976 32.7863C3.33283 32.4893 3.16602 32.0866 3.16602 31.6667V19.7711C3.16599 19.5448 3.21445 19.3212 3.30813 19.1153C3.40181 18.9094 3.53854 18.7259 3.7091 18.5773L9.49935 13.528V6.33333C9.49935 5.91341 9.66616 5.51068 9.9631 5.21375C10.26 4.91681 10.6628 4.75 11.0827 4.75H33.2493C33.6693 4.75 34.072 4.91681 34.3689 5.21375C34.6659 5.51068 34.8327 5.91341 34.8327 6.33333V31.6667C34.8327 32.0866 34.6659 32.4893 34.3689 32.7863C34.072 33.0832 33.6693 33.25 33.2493 33.25ZM25.3327 17.4167V20.5833H28.4993V17.4167H25.3327ZM25.3327 23.75V26.9167H28.4993V23.75H25.3327ZM25.3327 11.0833V14.25H28.4993V11.0833H25.3327ZM18.9993 11.0833V14.25H22.166V11.0833H18.9993Z" fill="#4545FE"/>
</g>
<defs>
<clipPath id="clip0_600_18429">
<rect width="38" height="38" fill="white"/>
</clipPath>
</defs>
</svg>
