<svg width="13" height="13" viewBox="0 0 13 13" fill="none" xmlns="http://www.w3.org/2000/svg">
<path d="M9.7474 9.1C10.8521 9.1 11.7474 9.97295 11.7474 11.05C11.7474 12.127 10.8521 13 9.7474 13C8.64273 13 7.7474 12.127 7.7474 11.05C7.7474 9.97295 8.64273 9.1 9.7474 9.1ZM3.08073 6.5C4.55406 6.5 5.7474 7.6635 5.7474 9.1C5.7474 10.5365 4.55406 11.7 3.08073 11.7C1.6074 11.7 0.414062 10.5365 0.414062 9.1C0.414062 7.6635 1.6074 6.5 3.08073 6.5ZM9.7474 10.4C9.3794 10.4 9.08073 10.6912 9.08073 11.05C9.08073 11.4088 9.3794 11.7 9.7474 11.7C10.1154 11.7 10.4141 11.4088 10.4141 11.05C10.4141 10.6912 10.1154 10.4 9.7474 10.4ZM3.08073 7.8C2.34406 7.8 1.7474 8.38175 1.7474 9.1C1.7474 9.81825 2.34406 10.4 3.08073 10.4C3.8174 10.4 4.41406 9.81825 4.41406 9.1C4.41406 8.38175 3.8174 7.8 3.08073 7.8ZM8.7474 0C10.7727 0 12.4141 1.6003 12.4141 3.575C12.4141 5.5497 10.7727 7.15 8.7474 7.15C6.72206 7.15 5.08073 5.5497 5.08073 3.575C5.08073 1.6003 6.72206 0 8.7474 0ZM8.7474 1.3C7.45873 1.3 6.41406 2.31855 6.41406 3.575C6.41406 4.83145 7.45873 5.85 8.7474 5.85C10.0361 5.85 11.0807 4.83145 11.0807 3.575C11.0807 2.31855 10.0361 1.3 8.7474 1.3Z" fill="#919191"/>
</svg>
