<svg width="15" height="13" viewBox="0 0 15 13" fill="none" xmlns="http://www.w3.org/2000/svg">
<path d="M2.7518 12.3977L2.73827 12.4113L2.72406 12.3977H1.50925C1.33113 12.3975 1.16037 12.3267 1.03449 12.2007C0.908601 12.0746 0.837891 11.9038 0.837891 11.7257V0.887855C0.839129 0.71012 0.910238 0.540006 1.03586 0.414262C1.16147 0.288518 1.33152 0.217238 1.50925 0.21582H13.702C14.0729 0.21582 14.3733 0.516984 14.3733 0.887855V11.7257C14.3721 11.9034 14.301 12.0735 14.1754 12.1993C14.0498 12.325 13.8797 12.3963 13.702 12.3977H2.7518ZM13.0198 8.33709V1.56937H2.19144V11.0442L8.95916 4.27645L13.0198 8.33709ZM13.0198 10.251L8.95916 6.19037L4.10535 11.0442H13.0198V10.251ZM4.89853 5.63C4.53954 5.63 4.19526 5.48739 3.94142 5.23356C3.68759 4.97972 3.54498 4.63544 3.54498 4.27645C3.54498 3.91747 3.68759 3.57319 3.94142 3.31935C4.19526 3.06552 4.53954 2.92291 4.89853 2.92291C5.25751 2.92291 5.60179 3.06552 5.85563 3.31935C6.10947 3.57319 6.25207 3.91747 6.25207 4.27645C6.25207 4.63544 6.10947 4.97972 5.85563 5.23356C5.60179 5.48739 5.25751 5.63 4.89853 5.63Z" fill="#4545FE"/>
</svg>
