<svg width="24" height="20" viewBox="0 0 24 20" fill="none" xmlns="http://www.w3.org/2000/svg">
<path d="M21 0H3C1.346 0 0 1.346 0 3V20H2V17H22V20H24V3C24 1.346 22.654 0 21 0ZM3 2H21C21.552 2 22 2.449 22 3V11H20V10C20 8.346 18.654 7 17 7H14C13.232 7 12.531 7.29 12 7.766C11.469 7.29 10.768 7 10 7H7C5.346 7 4 8.346 4 10V11H2V3C2 2.449 2.449 2 3 2ZM11 11H6V10C6 9.449 6.449 9 7 9H10C10.551 9 11 9.449 11 10V11ZM13 10C13 9.449 13.448 9 14 9H17C17.552 9 18 9.449 18 10V11H13V10ZM2 15V13H22V15H2Z" fill="#3D3D3D"/>
</svg>
