<svg width="15" height="15" viewBox="0 0 15 15" fill="none" xmlns="http://www.w3.org/2000/svg">
<path d="M1.69444 0.96875H13.3056C13.498 0.96875 13.6826 1.04521 13.8187 1.1813C13.9548 1.3174 14.0312 1.50198 14.0312 1.69444V13.3056C14.0312 13.498 13.9548 13.6826 13.8187 13.8187C13.6826 13.9548 13.498 14.0312 13.3056 14.0312H1.69444C1.50198 14.0312 1.3174 13.9548 1.1813 13.8187C1.04521 13.6826 0.96875 13.498 0.96875 13.3056V1.69444C0.96875 1.50198 1.04521 1.3174 1.1813 1.1813C1.3174 1.04521 1.50198 0.96875 1.69444 0.96875ZM6.77648 10.4028L11.9071 5.27139L10.881 4.24526L6.77648 8.35051L4.72349 6.29752L3.69736 7.32366L6.77648 10.4028Z" fill="#4545FE"/>
</svg>
