<svg width="31" height="30" viewBox="0 0 31 30" fill="none" xmlns="http://www.w3.org/2000/svg">
<rect width="31" height="30" fill="#1E1E1E"/>
<rect x="-505" y="-487" width="1440" height="900" fill="black" fill-opacity="0.4"/>
<rect x="-65" y="-314" width="560" height="555" rx="16" fill="#0D0D0D"/>
<circle opacity="0.12" cx="15.5" cy="15" r="15" fill="white"/>
<path d="M23.8329 15.517V17.2337C23.8329 17.7003 23.4495 18.0837 22.9745 18.0837H21.3662C20.4662 18.0837 19.6412 17.4253 19.5662 16.5253C19.5162 16.0003 19.7162 15.5087 20.0662 15.167C20.3745 14.8503 20.7995 14.667 21.2662 14.667H22.9745C23.4495 14.667 23.8329 15.0503 23.8329 15.517Z" fill="white"/>
<path d="M18.318 16.6333C18.243 15.7583 18.5596 14.9 19.193 14.275C19.7263 13.7333 20.468 13.4167 21.268 13.4167H21.743C21.9763 13.4167 22.168 13.225 22.1346 12.9917C21.9096 11.375 20.5096 10.125 18.8346 10.125H10.5013C8.65964 10.125 7.16797 11.6167 7.16797 13.4583V19.2917C7.16797 21.1333 8.65964 22.625 10.5013 22.625H18.8346C20.518 22.625 21.9096 21.375 22.1346 19.7583C22.168 19.525 21.9763 19.3333 21.743 19.3333H21.368C19.7846 19.3333 18.4513 18.15 18.318 16.6333ZM16.3346 14.9167H11.3346C10.993 14.9167 10.7096 14.6417 10.7096 14.2917C10.7096 13.9417 10.993 13.6667 11.3346 13.6667H16.3346C16.6763 13.6667 16.9596 13.95 16.9596 14.2917C16.9596 14.6333 16.6763 14.9167 16.3346 14.9167Z" fill="white"/>
<path d="M17.3429 8.31667C17.5595 8.54167 17.3679 8.875 17.0512 8.875H10.5262C9.61785 8.875 8.76785 9.14167 8.05952 9.6C7.73452 9.80833 7.29285 9.58333 7.45118 9.225C7.91785 8.13333 9.00952 7.375 10.2679 7.375H14.9512C15.9179 7.375 16.7762 7.71667 17.3429 8.31667Z" fill="white"/>
<rect x="-14.75" y="-17.75" width="460.5" height="204.5" rx="4.75" stroke="#171717" stroke-width="0.5"/>
</svg>
