<svg width="16" height="16" viewBox="0 0 16 16" fill="none" xmlns="http://www.w3.org/2000/svg">
<path d="M13.2749 5.71559C13.2749 5.69978 13.2749 5.68397 13.2749 5.66747C13.2749 2.75531 10.9141 0.394531 8.00196 0.394531C5.08981 0.394531 2.72902 2.75531 2.72902 5.66747C2.72902 5.68394 2.72902 5.69975 2.72902 5.71559C0.17968 7.12325 -0.745851 10.331 0.661806 12.8804C2.06946 15.4297 5.27724 16.3552 7.82659 14.9476C7.88568 14.915 7.94418 14.8812 8.00199 14.8463C10.4954 16.3508 13.7364 15.5492 15.2409 13.0558C16.7454 10.5624 15.9437 7.32141 13.4503 5.81691C13.3925 5.782 13.334 5.74822 13.2749 5.71559ZM8.00196 13.2295C7.29287 12.596 6.83606 11.728 6.71537 10.7849C7.55918 10.9962 8.44209 10.9962 9.28593 10.7849C9.16518 11.7265 8.70937 12.5932 8.00196 13.2262V13.2295ZM8.00196 9.62219C7.58584 9.62241 7.17227 9.55678 6.77665 9.42775C6.95649 8.61972 7.38499 7.88831 8.00196 7.33637C8.61893 7.88831 9.04743 8.61972 9.22727 9.42775C8.83165 9.55678 8.41809 9.62241 8.00196 9.62219ZM5.58037 8.79169C4.85087 8.22672 4.34149 7.42478 4.14021 6.52434C5.02687 6.23559 5.98702 6.26944 6.85115 6.61991C6.25868 7.23081 5.82268 7.97591 5.58037 8.79169ZM9.15277 6.61659C10.0169 6.26612 10.9771 6.23228 11.8637 6.52103C11.6631 7.42269 11.1537 8.22591 10.4236 8.79169C10.1817 7.97472 9.74571 7.22844 9.15277 6.61659ZM8.00196 1.71278C9.99171 1.71534 11.6707 3.19375 11.925 5.16722C10.5957 4.83341 9.18859 5.03034 8.00196 5.71625C6.81534 5.03031 5.40824 4.83341 4.0789 5.16722C4.33321 3.19378 6.01221 1.71534 8.00196 1.71278ZM1.41081 10.2813C1.41093 9.05878 1.97702 7.90519 2.9439 7.15706C3.32859 8.45409 4.19502 9.55472 5.36549 10.2332C5.36549 10.249 5.36549 10.2648 5.36549 10.2813C5.36477 11.6497 5.89774 12.9644 6.85115 13.946C4.82699 14.7665 2.52096 13.7907 1.70046 11.7666C1.50921 11.2947 1.41084 10.7904 1.41081 10.2813ZM10.6384 14.236C10.1291 14.2363 9.62459 14.1379 9.15277 13.946C10.1062 12.9644 10.6391 11.6497 10.6384 10.2813C10.6384 10.2648 10.6384 10.249 10.6384 10.2332C11.8091 9.55487 12.6758 8.45422 13.0607 7.15709C14.7861 8.49619 15.0993 10.9805 13.7602 12.706C13.0116 13.6705 11.8594 14.2352 10.6384 14.236Z" fill="#4545FE"/>
</svg>
