<svg width="122" height="21" viewBox="0 0 122 21" fill="none" xmlns="http://www.w3.org/2000/svg">
<g id="Frame" clip-path="url(#clip0_9684_118833)">
<path id="Vector" d="M41.9994 5.77676C41.5515 5.39374 41.0275 5.10957 40.4616 4.94292C39.8378 4.75632 39.1895 4.66417 38.5382 4.66959C37.8234 4.65979 37.113 4.78232 36.443 5.03094C35.8446 5.25742 35.2898 5.58492 34.803 5.99912C34.3528 6.38502 33.9711 6.8439 33.674 7.35643C33.5812 7.51844 33.4974 7.68547 33.4232 7.85675C33.3718 7.63566 33.3035 7.41885 33.2187 7.20822C32.9975 6.65777 32.6489 6.16727 32.2013 5.77676C31.7539 5.39304 31.2297 5.10879 30.6635 4.94292C30.0397 4.75632 29.3914 4.66417 28.7401 4.66959C28.0071 4.65886 27.2782 4.78132 26.5891 5.03094C25.426 5.46227 24.4557 6.29352 23.8527 7.37498C23.7167 7.62383 23.6032 7.88428 23.5136 8.15323V4.91049H20.582V16.1211H23.5228V9.47812C23.648 9.16874 23.8239 8.88225 24.0432 8.63036C24.4691 8.14625 24.9933 7.75784 25.581 7.49079C26.2463 7.17891 26.9736 7.02057 27.7088 7.02754C28.7494 7.02754 29.5005 7.2499 29.962 7.69462C30.2131 7.97793 30.4036 8.30933 30.5218 8.66856C30.64 9.02779 30.6835 9.40731 30.6496 9.78388V16.1211H33.5904V9.26501C33.5904 9.15846 33.5904 9.06583 33.5904 8.96392C33.6685 8.84339 33.7555 8.72881 33.8506 8.62112C34.2765 8.137 34.8006 7.74856 35.3883 7.48152C36.0535 7.16918 36.7809 7.01082 37.5162 7.01827C38.5568 7.01827 39.311 7.24063 39.7787 7.68535C40.0322 7.96753 40.2253 8.29842 40.3459 8.6577C40.4666 9.01698 40.5122 9.39707 40.4802 9.7746V16.1118H43.421V9.25577C43.4385 8.54866 43.3105 7.84548 43.0447 7.18967C42.8107 6.64436 42.4528 6.1607 41.9994 5.77676V5.77676Z" fill="#191919"/>
<path id="Vector_2" d="M51.6722 13.1518L47.9509 4.91992H44.8242L50.2273 16.0286L47.7465 20.6426H50.7988L58.5806 4.91992H55.44L51.6722 13.1518Z" fill="#191919"/>
<path id="Vector_3" d="M73.0367 4.91992H69.464L66.3513 8.55179L62.9924 4.91992H59.3965L64.6556 10.4604L59.3965 16.1305H62.9924L66.2909 12.2439L69.7567 16.1305H73.3573L67.9867 10.326L73.0367 4.91992Z" fill="#191919"/>
<path id="Vector_4" d="M85.0102 5.36845C83.8479 4.86511 82.5878 4.62616 81.3214 4.66894C80.0229 4.63946 78.7323 4.8776 77.5304 5.36845C76.5129 5.78693 75.6373 6.48796 75.0077 7.38821C74.3866 8.32662 74.0703 9.43294 74.1018 10.5568C74.0698 11.6813 74.395 12.787 75.0309 13.7162C75.6816 14.6135 76.5764 15.3063 77.6094 15.7128C78.818 16.1905 80.1098 16.4235 81.4097 16.3984C82.5165 16.4266 83.619 16.2507 84.6618 15.8796C85.4732 15.5888 86.1995 15.1017 86.7756 14.462C87.2858 13.8816 87.6194 13.168 87.7373 12.4052H84.8848C84.661 12.9643 84.2278 13.4145 83.6768 13.6606C82.9503 13.9963 82.1541 14.1551 81.3539 14.1239C80.6059 14.1425 79.8621 14.0053 79.1704 13.7208C78.6042 13.4878 78.107 13.1147 77.7255 12.6368C77.3765 12.1838 77.1537 11.6468 77.0797 11.0803H87.807C87.9216 9.84905 87.7151 8.60915 87.2077 7.48086C86.7368 6.5485 85.9619 5.80356 85.0102 5.36845ZM77.2238 9.36165C77.4428 8.64365 77.9083 8.02539 78.5385 7.6152C79.3367 7.15587 80.2405 6.91023 81.162 6.90212C82.0835 6.894 82.9915 7.12369 83.7976 7.56888C84.1011 7.76704 84.3554 8.0314 84.5414 8.34199C84.7273 8.65258 84.8399 9.00126 84.8708 9.36165H77.2238Z" fill="#191919"/>
<path id="Vector_5" d="M93.1537 0.408203H90.2129V16.1309H93.1537V0.408203Z" fill="#191919"/>
<path id="Vector_6" d="M99.2807 0.408203H96.3398V16.1309H99.2807V0.408203Z" fill="#191919"/>
<path id="Vector_7" d="M105.369 4.91992H102.428V16.1305H105.369V4.91992Z" fill="#191919"/>
<path id="Vector_8" d="M105.618 0H102.203V2.57103H105.618V0Z" fill="#191919"/>
<path id="Vector_9" d="M119.073 4.92015V8.28795C119.004 8.03921 118.92 7.79482 118.822 7.55603C118.478 6.69245 117.874 5.95617 117.094 5.44823C116.148 4.89024 115.06 4.61975 113.963 4.66998C112.867 4.65226 111.784 4.90363 110.808 5.40192C109.902 5.8726 109.139 6.57835 108.601 7.44483C108.071 8.38305 107.793 9.44168 107.793 10.5185C107.793 11.5953 108.071 12.6539 108.601 13.5921C109.124 14.4605 109.874 15.1701 110.771 15.6443C111.707 16.1408 112.754 16.3941 113.814 16.3809C114.696 16.4038 115.571 16.2214 116.369 15.8482C117.044 15.5261 117.633 15.05 118.088 14.4584C118.523 13.889 118.853 13.2476 119.064 12.5637C119.064 12.536 119.064 12.5081 119.087 12.4803V13.254C119.087 13.6894 119.087 14.1342 119.134 14.5835C119.18 15.0329 119.212 15.5517 119.291 16.14H122.028V4.9294L119.073 4.92015ZM118.553 12.4062C118.187 12.9633 117.668 13.4027 117.057 13.6709C116.326 13.9946 115.533 14.1528 114.734 14.1341C114.016 14.146 113.306 13.9872 112.662 13.6709C112.089 13.3924 111.606 12.9591 111.268 12.4201C110.924 11.8521 110.75 11.198 110.766 10.5347C110.745 10.052 110.827 9.57038 111.006 9.12159C111.186 8.6728 111.459 8.26709 111.807 7.93126C112.616 7.23697 113.664 6.88461 114.729 6.94915C115.515 6.92995 116.296 7.07187 117.024 7.36609C117.631 7.6165 118.15 8.04043 118.516 8.58443C118.861 9.16238 119.043 9.82261 119.043 10.4953C119.043 11.1681 118.861 11.8283 118.516 12.4062H118.553Z" fill="#191919"/>
<path id="Vector_10" d="M14.5127 15.5186L15.9622 12.9291L14.3176 10.1496L15.9668 7.41177L14.4755 4.65547H11.163L9.48587 1.87598H6.44285L4.78428 4.66471H1.53218L-0.0195312 7.32378L1.72731 10.1033L-0.0195312 13.0403L1.52753 15.5696H4.77962L6.41961 18.4H9.52305L11.098 15.5001L14.5127 15.5186ZM7.93881 16.4451L6.08047 13.1746H2.46135L4.38474 10.1542L2.46135 7.07825H6.08511L7.94345 3.89573L9.681 7.04118H13.3977L11.4836 10.1172L13.3977 13.1885H9.64848L7.93881 16.4451Z" fill="#1919D8"/>
</g>
<defs>
<clipPath id="clip0_9684_118833">
<rect width="122" height="20.6424" fill="white"/>
</clipPath>
</defs>
</svg>
