<svg width="122" height="105" viewBox="0 0 122 105" fill="none" xmlns="http://www.w3.org/2000/svg">
<g id="Union 2" opacity="0.5">
<path fill-rule="evenodd" clip-rule="evenodd" d="M79.6844 84.6848L92.4505 90.3502L100.376 72.3685L73.7321 60.5444L79.6844 84.6848ZM37.7466 66.0734L59.7317 75.8301L53.7718 51.6863L45.6718 48.0916L37.7466 66.0734ZM74.754 136.686L65.6915 99.9737L29.8214 84.0551L17.8961 111.113L1.2652 103.633L13.1538 76.6582L0.908109 71.2237L8.92247 53.2816L21.0789 58.6764L29.004 40.6947L16.9368 35.3394L24.9516 17.3965L36.9294 22.7122L46.2812 1.49351L60.7796 8.01447L67.7795 36.4033L108.301 54.3864L117.496 33.5237L134.268 41.0677L125.11 61.8465L137.73 67.4471L129.716 85.3893L117.185 79.8283L109.26 97.8101L121.702 103.331L113.687 121.274L101.335 115.792L89.2523 143.207L74.754 136.686Z" fill="white" fill-opacity="0.3"/>
<path d="M79.6844 84.6848L79.2816 84.7841L79.3303 84.9815L79.5161 85.064L79.6844 84.6848ZM92.4505 90.3502L92.2822 90.7294L92.6624 90.8981L92.8301 90.5175L92.4505 90.3502ZM100.376 72.3685L100.755 72.5358L100.922 72.1571L100.544 71.9893L100.376 72.3685ZM73.7321 60.5444L73.9004 60.1652L73.1266 59.8219L73.3293 60.6437L73.7321 60.5444ZM37.7466 66.0734L37.367 65.906L37.2001 66.2847L37.5784 66.4526L37.7466 66.0734ZM59.7317 75.8301L59.5635 76.2092L60.3374 76.5527L60.1345 75.7306L59.7317 75.8301ZM53.7718 51.6863L54.1746 51.5869L54.1259 51.3895L53.9401 51.3071L53.7718 51.6863ZM45.6718 48.0916L45.84 47.7124L45.4599 47.5437L45.2921 47.9243L45.6718 48.0916ZM74.754 136.686L74.3512 136.785L74.3996 136.982L74.5838 137.064L74.754 136.686ZM65.6915 99.9737L66.0943 99.8743L66.0456 99.677L65.8598 99.5945L65.6915 99.9737ZM29.8214 84.0551L29.9897 83.6759L29.6095 83.5071L29.4418 83.8877L29.8214 84.0551ZM17.8961 111.113L17.7259 111.491L18.1072 111.663L18.2757 111.28L17.8961 111.113ZM1.2652 103.633L0.885572 103.466L0.719515 103.842L1.09503 104.011L1.2652 103.633ZM13.1538 76.6582L13.5334 76.8255L13.7003 76.4468L13.3221 76.279L13.1538 76.6582ZM0.908109 71.2237L0.52932 71.0545L0.359714 71.4342L0.739829 71.6029L0.908109 71.2237ZM8.92247 53.2816L9.09076 52.9024L8.71247 52.7345L8.54368 53.1124L8.92247 53.2816ZM21.0789 58.6764L20.9106 59.0556L21.2908 59.2243L21.4585 58.8437L21.0789 58.6764ZM29.004 40.6947L29.3836 40.862L29.5505 40.4833L29.1723 40.3155L29.004 40.6947ZM16.9368 35.3394L16.5581 35.1702L16.3884 35.5499L16.7686 35.7186L16.9368 35.3394ZM24.9516 17.3965L25.1198 17.0173L24.7416 16.8494L24.5728 17.2273L24.9516 17.3965ZM36.9294 22.7122L36.7612 23.0914L37.1413 23.2601L37.3091 22.8795L36.9294 22.7122ZM46.2812 1.49351L46.4514 1.11516L46.0701 0.943697L45.9016 1.3262L46.2812 1.49351ZM60.7796 8.01447L61.1824 7.91515L61.134 7.71899L60.9498 7.63612L60.7796 8.01447ZM67.7795 36.4033L67.3767 36.5026L67.4253 36.7L67.6112 36.7825L67.7795 36.4033ZM108.301 54.3864L108.132 54.7656L108.513 54.9343L108.68 54.5537L108.301 54.3864ZM117.496 33.5237L117.666 33.1454L117.285 32.9739L117.116 33.3564L117.496 33.5237ZM134.268 41.0677L134.648 41.235L134.814 40.8582L134.439 40.6893L134.268 41.0677ZM125.11 61.8465L124.731 61.6792L124.564 62.0578L124.942 62.2257L125.11 61.8465ZM137.73 67.4471L138.109 67.6163L138.279 67.2366L137.899 67.0679L137.73 67.4471ZM129.716 85.3893L129.548 85.7685L129.926 85.9364L130.095 85.5585L129.716 85.3893ZM117.185 79.8283L117.354 79.4491L116.973 79.2804L116.806 79.661L117.185 79.8283ZM109.26 97.8101L108.881 97.6428L108.714 98.0214L109.092 98.1893L109.26 97.8101ZM121.702 103.331L122.08 103.501L122.25 103.121L121.87 102.952L121.702 103.331ZM113.687 121.274L113.519 121.653L113.897 121.821L114.066 121.443L113.687 121.274ZM101.335 115.792L101.503 115.413L101.123 115.244L100.955 115.625L101.335 115.792ZM89.2523 143.207L89.0822 143.585L89.4634 143.757L89.6319 143.374L89.2523 143.207ZM79.5161 85.064L92.2822 90.7294L92.6188 89.971L79.8527 84.3056L79.5161 85.064ZM92.8301 90.5175L100.755 72.5358L99.996 72.2012L92.0709 90.1829L92.8301 90.5175ZM100.544 71.9893L73.9004 60.1652L73.5638 60.9236L100.207 72.7477L100.544 71.9893ZM73.3293 60.6437L79.2816 84.7841L80.0872 84.5855L74.1349 60.4451L73.3293 60.6437ZM37.5784 66.4526L59.5635 76.2092L59.9 75.4509L37.9149 65.6942L37.5784 66.4526ZM60.1345 75.7306L54.1746 51.5869L53.3691 51.7857L59.329 75.9295L60.1345 75.7306ZM53.9401 51.3071L45.84 47.7124L45.5035 48.4708L53.6035 52.0655L53.9401 51.3071ZM45.2921 47.9243L37.367 65.906L38.1263 66.2407L46.0514 48.2589L45.2921 47.9243ZM75.1567 136.587L66.0943 99.8743L65.2888 100.073L74.3512 136.785L75.1567 136.587ZM65.8598 99.5945L29.9897 83.6759L29.6531 84.4343L65.5232 100.353L65.8598 99.5945ZM29.4418 83.8877L17.5165 110.946L18.2757 111.28L30.201 84.2224L29.4418 83.8877ZM18.0663 110.735L1.43537 103.254L1.09503 104.011L17.7259 111.491L18.0663 110.735ZM1.64482 103.8L13.5334 76.8255L12.7741 76.4909L0.885572 103.466L1.64482 103.8ZM13.3221 76.279L1.07639 70.8445L0.739829 71.6029L12.9855 77.0374L13.3221 76.279ZM1.2869 71.3929L9.30126 53.4508L8.54368 53.1124L0.52932 71.0545L1.2869 71.3929ZM8.75419 53.6608L20.9106 59.0556L21.2472 58.2972L9.09076 52.9024L8.75419 53.6608ZM21.4585 58.8437L29.3836 40.862L28.6244 40.5273L20.6993 58.5091L21.4585 58.8437ZM29.1723 40.3155L17.1051 34.9602L16.7686 35.7186L28.8357 41.0738L29.1723 40.3155ZM17.3156 35.5086L25.3303 17.5657L24.5728 17.2273L16.5581 35.1702L17.3156 35.5086ZM24.7833 17.7757L36.7612 23.0914L37.0977 22.333L25.1198 17.0173L24.7833 17.7757ZM37.3091 22.8795L46.6608 1.66082L45.9016 1.3262L36.5498 22.5449L37.3091 22.8795ZM46.111 1.87186L60.6094 8.39283L60.9498 7.63612L46.4514 1.11516L46.111 1.87186ZM60.3768 8.11379L67.3767 36.5026L68.1823 36.304L61.1824 7.91515L60.3768 8.11379ZM67.6112 36.7825L108.132 54.7656L108.469 54.0072L67.9477 36.0241L67.6112 36.7825ZM108.68 54.5537L117.875 33.691L117.116 33.3564L107.921 54.2191L108.68 54.5537ZM117.325 33.9021L134.098 41.446L134.439 40.6893L117.666 33.1454L117.325 33.9021ZM133.889 40.9003L124.731 61.6792L125.49 62.0138L134.648 41.235L133.889 40.9003ZM124.942 62.2257L137.562 67.8263L137.899 67.0679L125.279 61.4673L124.942 62.2257ZM137.352 67.2779L129.337 85.2201L130.095 85.5585L138.109 67.6163L137.352 67.2779ZM129.884 85.0101L117.354 79.4491L117.017 80.2075L129.548 85.7685L129.884 85.0101ZM116.806 79.661L108.881 97.6428L109.64 97.9774L117.565 79.9956L116.806 79.661ZM109.092 98.1893L121.533 103.711L121.87 102.952L109.428 97.4309L109.092 98.1893ZM121.323 103.162L113.309 121.104L114.066 121.443L122.08 103.501L121.323 103.162ZM113.856 120.894L101.503 115.413L101.167 116.171L113.519 121.653L113.856 120.894ZM100.955 115.625L88.8727 143.04L89.6319 143.374L101.715 115.959L100.955 115.625ZM89.4225 142.829L74.9241 136.308L74.5838 137.064L89.0822 143.585L89.4225 142.829Z" fill="white" fill-opacity="0.01"/>
</g>
</svg>
