<svg width="50" height="50" viewBox="0 0 50 50" fill="none" xmlns="http://www.w3.org/2000/svg">
<circle cx="25" cy="25" r="25" fill="#191919"/>
<path fill-rule="evenodd" clip-rule="evenodd" d="M25.5967 14.4383C25.7728 14.2802 26.0058 14.1973 26.2443 14.2079C31.2856 14.3589 35.4989 18.0186 36.2625 22.9099C36.2673 22.9391 36.2673 22.9689 36.2625 22.9981C36.2789 23.2296 36.2007 23.4579 36.0451 23.6326C35.8895 23.8073 35.6694 23.914 35.4334 23.9291L26.9634 24.4877C26.6833 24.5125 26.4055 24.4203 26.1983 24.2338C25.991 24.0472 25.8736 23.7836 25.8747 23.5077L25.3054 15.1879V15.0507C25.3157 14.8167 25.4205 14.5964 25.5967 14.4383ZM25.0155 26.6629L32.328 26.2121H32.4068C32.722 26.2172 33.0223 26.3451 33.2414 26.5674C33.4606 26.7898 33.5807 27.0885 33.5754 27.3978C33.2861 31.6134 30.1954 35.1356 25.9895 36.043C21.7835 36.9504 17.4719 35.0252 15.4068 31.3176C14.7996 30.2498 14.4158 29.0737 14.2781 27.8584C14.2247 27.4983 14.2013 27.1345 14.2082 26.7707C14.2221 22.2881 17.4136 18.4189 21.8792 17.4709C22.4198 17.3697 22.9618 17.6396 23.1976 18.1275C23.3141 18.3031 23.3443 18.5182 23.3581 18.7286C23.4354 19.9133 23.5151 21.0881 23.5945 22.2583C23.6627 23.2649 23.7308 24.2681 23.7969 25.2713C23.7935 25.5076 23.8306 25.7429 23.9068 25.9671C24.086 26.4083 24.5321 26.6882 25.0155 26.6629Z" fill="white"/>
</svg>
