<svg width="50" height="50" viewBox="0 0 50 50" fill="none" xmlns="http://www.w3.org/2000/svg">
<circle cx="25" cy="25" r="25" fill="#191919"/>
<path fill-rule="evenodd" clip-rule="evenodd" d="M27.2994 24.1695H30.2979C30.7525 24.1695 31.1097 23.7936 31.1097 23.3404C31.1097 22.876 30.7525 22.5112 30.2979 22.5112H27.2994C26.8447 22.5112 26.4875 22.876 26.4875 23.3404C26.4875 23.7936 26.8447 24.1695 27.2994 24.1695ZM33.8593 18.4218C34.5196 18.4218 34.9526 18.6539 35.3856 19.1625C35.8186 19.671 35.8943 20.4007 35.7969 21.0629L34.7686 28.3154C34.5737 29.7095 33.4046 30.7365 32.0299 30.7365H20.2199C18.7802 30.7365 17.5894 29.61 17.4704 28.1506L16.4745 16.099L14.8399 15.8116C14.4069 15.7342 14.1038 15.303 14.1796 14.8608C14.2554 14.4086 14.6775 14.109 15.1214 14.1765L17.7031 14.5734C18.0711 14.6408 18.3418 14.9492 18.3742 15.3251L18.5799 17.8016C18.6124 18.1564 18.8938 18.4218 19.2402 18.4218H33.8593ZM20.0465 32.4838C19.1372 32.4838 18.4011 33.2356 18.4011 34.1643C18.4011 35.0819 19.1372 35.8337 20.0465 35.8337C20.9449 35.8337 21.681 35.0819 21.681 34.1643C21.681 33.2356 20.9449 32.4838 20.0465 32.4838ZM32.2245 32.4838C31.3152 32.4838 30.5791 33.2356 30.5791 34.1643C30.5791 35.0819 31.3152 35.8337 32.2245 35.8337C33.1229 35.8337 33.859 35.0819 33.859 34.1643C33.859 33.2356 33.1229 32.4838 32.2245 32.4838Z" fill="white"/>
</svg>
