<svg width="58" height="58" viewBox="0 0 58 58" fill="none" xmlns="http://www.w3.org/2000/svg">
<g filter="url(#filter0_d_5632_43450)">
<circle cx="29" cy="25" r="25" fill="#191919"/>
<path fill-rule="evenodd" clip-rule="evenodd" d="M35.3609 21.0091H40.0276C40.0276 17.2621 37.7824 15.0732 33.9786 15.0732H24.0178C20.2139 15.0732 17.9688 17.2621 17.9688 20.9613V29.0381C17.9688 32.7373 20.2139 34.9262 24.0178 34.9262H33.9786C37.7824 34.9262 40.0276 32.7373 40.0276 29.0381V28.694H35.3609C33.1951 28.694 31.4393 26.9822 31.4393 24.8707C31.4393 22.7591 33.1951 21.0473 35.3609 21.0473V21.0091ZM35.3609 22.6531H39.204C39.6589 22.6531 40.0276 23.0125 40.0276 23.456V26.2471C40.0223 26.6884 39.6567 27.0449 39.204 27.05H35.4492C34.3527 27.0644 33.3939 26.3325 33.1452 25.2912C33.0207 24.6449 33.1955 23.9779 33.6229 23.4691C34.0502 22.9603 34.6864 22.6616 35.3609 22.6531ZM35.5276 25.5876H35.8903C36.356 25.5876 36.7334 25.2195 36.7334 24.7656C36.7334 24.3116 36.356 23.9435 35.8903 23.9435H35.5276C35.3049 23.941 35.0904 24.0254 34.932 24.178C34.7736 24.3307 34.6844 24.5388 34.6845 24.756C34.6844 25.2116 35.0604 25.5823 35.5276 25.5876ZM23.1942 21.0091H29.4197C29.8854 21.0091 30.2629 20.641 30.2629 20.187C30.2629 19.733 29.8854 19.365 29.4197 19.365H23.1942C22.7324 19.365 22.3565 19.7272 22.3511 20.1775C22.3511 20.633 22.727 21.0038 23.1942 21.0091Z" fill="white"/>
</g>
<defs>
<filter id="filter0_d_5632_43450" x="0" y="0" width="58" height="58" filterUnits="userSpaceOnUse" color-interpolation-filters="sRGB">
<feFlood flood-opacity="0" result="BackgroundImageFix"/>
<feColorMatrix in="SourceAlpha" type="matrix" values="0 0 0 0 0 0 0 0 0 0 0 0 0 0 0 0 0 0 127 0" result="hardAlpha"/>
<feOffset dy="4"/>
<feGaussianBlur stdDeviation="2"/>
<feComposite in2="hardAlpha" operator="out"/>
<feColorMatrix type="matrix" values="0 0 0 0 0 0 0 0 0 0 0 0 0 0 0 0 0 0 0.25 0"/>
<feBlend mode="normal" in2="BackgroundImageFix" result="effect1_dropShadow_5632_43450"/>
<feBlend mode="normal" in="SourceGraphic" in2="effect1_dropShadow_5632_43450" result="shape"/>
</filter>
</defs>
</svg>
