<svg width="50" height="50" viewBox="0 0 50 50" fill="none" xmlns="http://www.w3.org/2000/svg">
<circle cx="25" cy="25" r="25" fill="#191919"/>
<path fill-rule="evenodd" clip-rule="evenodd" d="M29.7785 14.9987L29.7795 15.8108C32.7637 16.0447 34.735 18.0781 34.7382 21.1966L34.75 30.3245C34.7543 33.7245 32.6183 35.8164 29.1944 35.8218L20.8312 35.8327C17.4288 35.837 15.2661 33.6952 15.2618 30.2855L15.25 21.2648C15.2457 18.1258 17.1475 16.0977 20.1317 15.8238L20.1306 15.0117C20.1295 14.5352 20.4825 14.1768 20.9531 14.1768C21.4238 14.1758 21.7767 14.5331 21.7778 15.0095L21.7789 15.7675L28.1323 15.7588L28.1313 15.0008C28.1302 14.5244 28.4832 14.1671 28.9538 14.166C29.4137 14.1649 29.7774 14.5223 29.7785 14.9987ZM16.8983 21.5994L33.0921 21.5777V21.1987C33.0461 18.8707 31.8781 17.6494 29.7817 17.4674L29.7827 18.3012C29.7827 18.7668 29.4201 19.136 28.9602 19.136C28.4896 19.1371 28.1355 18.769 28.1355 18.3034L28.1345 17.4263L21.781 17.435L21.7821 18.3109C21.7821 18.7776 21.4302 19.1458 20.9596 19.1458C20.4889 19.1469 20.1349 18.7798 20.1349 18.3131L20.1338 17.4794C18.0481 17.6883 16.894 18.9141 16.8972 21.2626L16.8983 21.5994ZM28.5099 26.5207V26.5326C28.5206 27.0307 28.927 27.4086 29.4201 27.3977C29.9015 27.3858 30.2854 26.9733 30.2748 26.4752C30.2523 25.9988 29.8662 25.61 29.3859 25.6111C28.8939 25.6219 28.5088 26.0226 28.5099 26.5207ZM29.3934 31.3824C28.9014 31.3716 28.5046 30.9612 28.5035 30.4631C28.4928 29.965 28.8875 29.5525 29.3795 29.5406H29.3902C29.8929 29.5406 30.3004 29.9509 30.3004 30.4599C30.3015 30.9688 29.895 31.3813 29.3934 31.3824ZM24.1031 26.538C24.1245 27.0361 24.532 27.4248 25.0241 27.4031C25.5054 27.3804 25.8894 26.9689 25.868 26.4709C25.8562 25.9836 25.4605 25.6046 24.9791 25.6057C24.4871 25.6274 24.1021 26.0399 24.1031 26.538ZM25.0283 31.3337C24.5363 31.3553 24.1299 30.9666 24.1074 30.4685C24.1074 29.9704 24.4914 29.559 24.9834 29.5362C25.4647 29.5352 25.8616 29.9141 25.8723 30.4003C25.8947 30.8995 25.5097 31.3109 25.0283 31.3337ZM19.6964 26.5759C19.7177 27.074 20.1253 27.4638 20.6173 27.441C21.0986 27.4194 21.4826 27.0068 21.4601 26.5088C21.4494 26.0215 21.0537 25.6425 20.5713 25.6436C20.0793 25.6653 19.6953 26.0778 19.6964 26.5759ZM20.6216 31.3391C20.1295 31.3618 19.7231 30.972 19.7006 30.4739C19.6996 29.9758 20.0846 29.5633 20.5766 29.5416C21.058 29.5406 21.4548 29.9195 21.4655 30.4068C21.4879 30.9049 21.104 31.3174 20.6216 31.3391Z" fill="white"/>
</svg>
