<svg width="32" height="32" viewBox="0 0 32 32" fill="none" xmlns="http://www.w3.org/2000/svg">
<rect x="0.5" y="0.5" width="31" height="31" rx="3.5" fill="#DAB91F"/>
<rect x="0.5" y="0.5" width="31" height="31" rx="3.5" stroke="#15151E"/>
<path d="M22.3526 15.2479L21.3393 14.2346C21.1659 14.0612 21.0259 13.7212 21.0259 13.4812V12.0412C21.0259 11.4546 20.5459 10.9746 19.9593 10.9746H18.5259C18.2859 10.9746 17.9459 10.8346 17.7726 10.6612L16.7593 9.64789C16.3459 9.23456 15.6659 9.23456 15.2526 9.64789L14.2259 10.6612C14.0593 10.8346 13.7193 10.9746 13.4726 10.9746H12.0393C11.4526 10.9746 10.9726 11.4546 10.9726 12.0412V13.4746C10.9726 13.7146 10.8326 14.0546 10.6593 14.2279L9.64594 15.2412C9.2326 15.6546 9.2326 16.3346 9.64594 16.7479L10.6593 17.7612C10.8326 17.9346 10.9726 18.2746 10.9726 18.5146V19.9479C10.9726 20.5346 11.4526 21.0146 12.0393 21.0146H13.4726C13.7126 21.0146 14.0526 21.1546 14.2259 21.3279L15.2393 22.3412C15.6526 22.7546 16.3326 22.7546 16.7459 22.3412L17.7593 21.3279C17.9326 21.1546 18.2726 21.0146 18.5126 21.0146H19.9459C20.5326 21.0146 21.0126 20.5346 21.0126 19.9479V18.5146C21.0126 18.2746 21.1526 17.9346 21.3259 17.7612L22.3393 16.7479C22.7726 16.3412 22.7726 15.6612 22.3526 15.2479ZM13.3326 14.0012C13.3326 13.6346 13.6326 13.3346 13.9993 13.3346C14.3659 13.3346 14.6659 13.6346 14.6659 14.0012C14.6659 14.3679 14.3726 14.6679 13.9993 14.6679C13.6326 14.6679 13.3326 14.3679 13.3326 14.0012ZM14.3526 18.3546C14.2526 18.4546 14.1259 18.5012 13.9993 18.5012C13.8726 18.5012 13.7459 18.4546 13.6459 18.3546C13.4526 18.1612 13.4526 17.8412 13.6459 17.6479L17.6459 13.6479C17.8393 13.4546 18.1593 13.4546 18.3526 13.6479C18.5459 13.8412 18.5459 14.1612 18.3526 14.3546L14.3526 18.3546ZM17.9993 18.6679C17.6259 18.6679 17.3259 18.3679 17.3259 18.0012C17.3259 17.6346 17.6259 17.3346 17.9926 17.3346C18.3593 17.3346 18.6593 17.6346 18.6593 18.0012C18.6593 18.3679 18.3659 18.6679 17.9993 18.6679Z" fill="#191919"/>
</svg>
