<svg xmlns="http://www.w3.org/2000/svg" width="14" height="14" viewBox="0 0 14 14" fill="none">
  <path d="M6.67817 5.00808V7.234M6.67817 9.45991H6.68374M5.90763 2.16544L1.33066 10.0711C1.07679 10.5096 0.949853 10.7289 0.968614 10.9088C0.984977 11.0658 1.06721 11.2084 1.19484 11.3012C1.34117 11.4076 1.59451 11.4076 2.1012 11.4076H11.2551C11.7618 11.4076 12.0152 11.4076 12.1615 11.3012C12.2891 11.2084 12.3714 11.0658 12.3877 10.9088C12.4065 10.7289 12.2796 10.5096 12.0257 10.0711L7.44872 2.16544C7.19576 1.72851 7.06928 1.51005 6.90427 1.43667C6.76033 1.37267 6.59601 1.37267 6.45207 1.43667C6.28706 1.51005 6.16058 1.72851 5.90763 2.16544Z" stroke="#DD4449" stroke-width="1.11296" stroke-linecap="round" stroke-linejoin="round"/>
</svg>