<svg width="100" height="80" viewBox="0 0 100 80" fill="none" xmlns="http://www.w3.org/2000/svg">
<path d="M16 80C7.16345 80 -3.13124e-07 72.8366 -6.99382e-07 64L-2.79753e-06 16C-3.18379e-06 7.16345 7.16344 7.31627e-06 16 6.93001e-06L100 3.25826e-06L100 80L16 80Z" fill="#ECFFFA"/>
<g clip-path="url(#clip0_11620_51334)">
<path d="M50 43.8334C47.8859 43.8334 46.1667 42.1141 46.1667 40C46.1667 37.886 47.8859 36.1667 50 36.1667C52.1141 36.1667 53.8333 37.886 53.8333 40C53.8333 42.1141 52.1141 43.8334 50 43.8334ZM43.1997 63.002C39.2456 63.002 35.6403 60.5103 34.2278 56.8035C33.2464 54.2332 32.75 51.8048 32.75 49.5815C32.75 46.4496 33.5148 43.6436 34.2546 40.9315C34.9599 38.3479 35.625 35.9099 35.625 33.2917C35.625 30.2806 35.4314 28.3812 34.9561 26.7386C34.291 24.4271 34.7395 21.9968 36.1904 20.0686C37.6567 18.1194 39.8953 17.002 42.3333 17.002L56.8003 17.002C60.7544 17.002 64.3597 19.4917 65.7723 23.1985C66.7536 25.7688 67.25 28.1991 67.25 30.4205C67.25 33.5524 66.4852 36.3565 65.7454 39.0705C65.0401 41.6541 64.375 44.0921 64.375 46.7103C64.375 49.7195 64.5686 51.6208 65.0439 53.2634C65.709 55.5787 65.2605 58.009 63.8096 59.9353C62.3433 61.8845 60.1047 63.002 57.6667 63.002L43.1997 63.002ZM46.1667 28.502C47.2247 28.502 48.0833 27.6433 48.0833 26.5853C48.0833 25.5273 47.2247 24.6686 46.1667 24.6686C45.1087 24.6686 44.25 25.5273 44.25 26.5853C44.25 27.6433 45.1087 28.502 46.1667 28.502ZM57.6667 28.502C58.7247 28.502 59.5833 27.6433 59.5833 26.5853C59.5833 25.5273 58.7247 24.6686 57.6667 24.6686C56.6087 24.6686 55.75 25.5273 55.75 26.5853C55.75 27.6433 56.6087 28.502 57.6667 28.502ZM50 47.6686C54.2282 47.6686 57.6667 44.2301 57.6667 40.002C57.6667 35.7738 54.2282 32.3353 50 32.3353C45.7718 32.3353 42.3333 35.7738 42.3333 40.002C42.3333 44.2301 45.7718 47.6686 50 47.6686ZM42.3333 55.3353C43.3913 55.3353 44.25 54.4766 44.25 53.4186C44.25 52.3606 43.3913 51.502 42.3333 51.502C41.2753 51.502 40.4167 52.3606 40.4167 53.4186C40.4167 54.4766 41.2753 55.3353 42.3333 55.3353ZM53.8333 55.3353C54.8913 55.3353 55.75 54.4766 55.75 53.4186C55.75 52.3606 54.8913 51.502 53.8333 51.502C52.7753 51.502 51.9167 52.3606 51.9167 53.4186C51.9167 54.4766 52.7753 55.3353 53.8333 55.3353Z" fill="#12D8A0"/>
</g>
<defs>
<clipPath id="clip0_11620_51334">
<rect width="46" height="46" fill="white" transform="translate(73 17) rotate(90)"/>
</clipPath>
</defs>
</svg>
