<svg width="64" height="64" viewBox="0 0 64 64" fill="none" xmlns="http://www.w3.org/2000/svg">
<g id="Send 2">
<path id="Vector" d="M57.1384 6.87563C55.8051 5.51296 53.8318 5.00896 51.9918 5.54229L9.08515 17.9396C7.14382 18.4783 5.76782 20.017 5.39715 21.969C5.01849 23.9583 6.34115 26.4863 8.06915 27.5423L21.4852 35.7343C22.8612 36.577 24.6372 36.3663 25.7758 35.225L41.1384 19.8623C41.9118 19.0596 43.1918 19.0596 43.9651 19.8623C44.7384 20.633 44.7384 21.889 43.9651 22.689L28.5758 38.0516C27.4344 39.193 27.2211 40.9636 28.0611 42.3423L36.2584 55.809C37.2184 57.4063 38.8718 58.3156 40.6851 58.3156C40.8984 58.3156 41.1384 58.3156 41.3518 58.2863C43.4318 58.0223 45.0851 56.6063 45.6984 54.6063L58.4184 12.0223C58.9784 10.209 58.4718 8.23563 57.1384 6.87563Z" fill="#7255CB"/>
<path id="Vector_2" opacity="0.4" fill-rule="evenodd" clip-rule="evenodd" d="M8.02668 44.8207C7.51468 44.8207 7.00268 44.626 6.61334 44.234C5.83201 43.4527 5.83201 42.1887 6.61334 41.4073L10.2533 37.7647C11.0347 36.986 12.3013 36.986 13.0827 37.7647C13.8613 38.546 13.8613 39.8127 13.0827 40.594L9.44001 44.234C9.05068 44.626 8.53868 44.8207 8.02668 44.8207ZM18.0565 48.0004C17.5445 48.0004 17.0325 47.8057 16.6432 47.4137C15.8619 46.6324 15.8619 45.3684 16.6432 44.5871L20.2832 40.9444C21.0645 40.1657 22.3312 40.1657 23.1125 40.9444C23.8912 41.7257 23.8912 42.9924 23.1125 43.7737L19.4699 47.4137C19.0805 47.8057 18.5685 48.0004 18.0565 48.0004ZM18.7331 57.5151C19.1224 57.9071 19.6344 58.1017 20.1464 58.1017C20.6584 58.1017 21.1704 57.9071 21.5597 57.5151L25.2024 53.8751C25.9811 53.0937 25.9811 51.8271 25.2024 51.0457C24.4211 50.2671 23.1544 50.2671 22.3731 51.0457L18.7331 54.6884C17.9517 55.4697 17.9517 56.7337 18.7331 57.5151Z" fill="#7255CB"/>
</g>
</svg>
