<svg width="180" height="414" viewBox="0 0 180 414" fill="none" xmlns="http://www.w3.org/2000/svg">
<path d="M16 414C7.16344 414 -3.13124e-07 406.837 -6.99382e-07 398L-1.73971e-05 16C-1.77834e-05 7.16345 7.16343 -3.13124e-07 16 -6.99382e-07L180 -7.86805e-06L180 414L16 414Z" fill="#ECFFFA"/>
<g clip-path="url(#clip0_12166_2322)">
<path d="M90 251C84.485 251 80 246.515 80 241C80 235.485 84.485 231 90 231C95.515 231 100 235.485 100 241C100 246.515 95.515 251 90 251ZM72.26 301.005C61.945 301.005 52.54 294.505 48.855 284.835C46.295 278.13 45 271.795 45 265.995C45 257.825 46.995 250.505 48.925 243.43C50.765 236.69 52.5 230.33 52.5 223.5C52.5 215.645 51.995 210.69 50.755 206.405C49.02 200.375 50.19 194.035 53.975 189.005C57.8 183.92 63.64 181.005 70 181.005L107.74 181.005C118.055 181.005 127.46 187.5 131.145 197.17C133.705 203.875 135 210.215 135 216.01C135 224.18 133.005 231.495 131.075 238.575C129.235 245.315 127.5 251.675 127.5 258.505C127.5 266.355 128.005 271.315 129.245 275.6C130.98 281.64 129.81 287.98 126.025 293.005C122.2 298.09 116.36 301.005 110 301.005L72.26 301.005ZM80 211.005C82.76 211.005 85 208.765 85 206.005C85 203.245 82.76 201.005 80 201.005C77.24 201.005 75 203.245 75 206.005C75 208.765 77.24 211.005 80 211.005ZM110 211.005C112.76 211.005 115 208.765 115 206.005C115 203.245 112.76 201.005 110 201.005C107.24 201.005 105 203.245 105 206.005C105 208.765 107.24 211.005 110 211.005ZM90 261.005C101.03 261.005 110 252.035 110 241.005C110 229.975 101.03 221.005 90 221.005C78.97 221.005 70 229.975 70 241.005C70 252.035 78.97 261.005 90 261.005ZM70 281.005C72.76 281.005 75 278.765 75 276.005C75 273.245 72.76 271.005 70 271.005C67.24 271.005 65 273.245 65 276.005C65 278.765 67.24 281.005 70 281.005ZM100 281.005C102.76 281.005 105 278.765 105 276.005C105 273.245 102.76 271.005 100 271.005C97.24 271.005 95 273.245 95 276.005C95 278.765 97.24 281.005 100 281.005Z" fill="#12D8A0"/>
</g>
<defs>
<clipPath id="clip0_12166_2322">
<rect width="120" height="120" fill="white" transform="translate(150 181) rotate(90)"/>
</clipPath>
</defs>
</svg>
