<svg width="180" height="414" viewBox="0 0 180 414" fill="none" xmlns="http://www.w3.org/2000/svg">
<g clip-path="url(#clip0_12166_2346)">
<path d="M16 414.25C7.16344 414.25 -3.13124e-07 407.087 -6.99382e-07 398.25L-1.73971e-05 16.25C-1.77834e-05 7.41345 7.16343 0.25 16 0.249999L180 0.249992L180 414.25L16 414.25Z" fill="#F5F5F5"/>
<g clip-path="url(#clip1_12166_2346)">
<path d="M90 251.25C84.485 251.25 80 246.765 80 241.25C80 235.735 84.485 231.25 90 231.25C95.515 231.25 100 235.735 100 241.25C100 246.765 95.515 251.25 90 251.25ZM72.26 301.255C61.945 301.255 52.54 294.755 48.855 285.085C46.295 278.38 45 272.045 45 266.245C45 258.075 46.995 250.755 48.925 243.68C50.765 236.94 52.5 230.58 52.5 223.75C52.5 215.895 51.995 210.94 50.755 206.655C49.02 200.625 50.19 194.285 53.975 189.255C57.8 184.17 63.64 181.255 70 181.255L107.74 181.255C118.055 181.255 127.46 187.75 131.145 197.42C133.705 204.125 135 210.465 135 216.26C135 224.43 133.005 231.745 131.075 238.825C129.235 245.565 127.5 251.925 127.5 258.755C127.5 266.605 128.005 271.565 129.245 275.85C130.98 281.89 129.81 288.23 126.025 293.255C122.2 298.34 116.36 301.255 110 301.255L72.26 301.255ZM80 211.255C82.76 211.255 85 209.015 85 206.255C85 203.495 82.76 201.255 80 201.255C77.24 201.255 75 203.495 75 206.255C75 209.015 77.24 211.255 80 211.255ZM110 211.255C112.76 211.255 115 209.015 115 206.255C115 203.495 112.76 201.255 110 201.255C107.24 201.255 105 203.495 105 206.255C105 209.015 107.24 211.255 110 211.255ZM90 261.255C101.03 261.255 110 252.285 110 241.255C110 230.225 101.03 221.255 90 221.255C78.97 221.255 70 230.225 70 241.255C70 252.285 78.97 261.255 90 261.255ZM70 281.255C72.76 281.255 75 279.015 75 276.255C75 273.495 72.76 271.255 70 271.255C67.24 271.255 65 273.495 65 276.255C65 279.015 67.24 281.255 70 281.255ZM100 281.255C102.76 281.255 105 279.015 105 276.255C105 273.495 102.76 271.255 100 271.255C97.24 271.255 95 273.495 95 276.255C95 279.015 97.24 281.255 100 281.255Z" fill="#191919"/>
</g>
</g>
<defs>
<clipPath id="clip0_12166_2346">
<rect width="180" height="414" fill="white"/>
</clipPath>
<clipPath id="clip1_12166_2346">
<rect width="120" height="120" fill="white" transform="translate(150 181.25) rotate(90)"/>
</clipPath>
</defs>
</svg>
