<svg width="24" height="25" viewBox="0 0 24 25" fill="none" xmlns="http://www.w3.org/2000/svg">
<g id="building-columns-duotone 1" clip-path="url(#clip0_6047_4897)">
<path id="Vector" d="M23.0906 5.12141C23.7469 5.40313 24.1125 6.10626 23.9672 6.80001C23.8266 7.49844 23.2125 8.00001 22.5 8.00001V8.37501C22.5 8.99844 21.9984 9.50001 21.375 9.50001H2.625C2.00391 9.50001 1.5 8.99844 1.5 8.37501V8.00001C0.78797 7.95782 0.173954 7.49844 0.0307792 6.80001C-0.112405 6.10626 0.254673 5.40313 0.909376 5.12141L11.4094 0.621271C11.7844 0.459576 12.2156 0.459576 12.5906 0.621271L23.0906 5.12141ZM12 6.50001C12.8297 6.50001 13.5 5.82969 13.5 5.00001C13.5 4.17172 12.8297 3.50001 12 3.50001C11.1703 3.50001 10.5 4.17172 10.5 5.00001C10.5 5.82969 11.1703 6.50001 12 6.50001Z" fill="#DDB057"/>
<path id="Vector_2" opacity="0.4" d="M5.95799 20H7.83299V11H10.833V20H13.1252V11H16.1252V20H18.0002V11H21.0002V20.2016C21.0283 20.2156 21.0564 20.1922 21.0846 20.2531L23.3346 21.7531C23.883 22.1187 24.1267 22.8031 23.9346 23.4359C23.7424 24.0687 23.1611 24.5 22.5002 24.5H1.45799C0.839243 24.5 0.256024 24.0687 0.0644931 23.4359C-0.127085 22.8031 0.118071 22.1187 0.668149 21.7531L2.91815 20.2531C2.94487 20.1922 2.97206 20.2156 2.95799 20.2016V11H5.95799V20Z" fill="#DDB057"/>
</g>
<defs>
<clipPath id="clip0_6047_4897">
<rect width="24" height="24" fill="white" transform="translate(0 0.5)"/>
</clipPath>
</defs>
</svg>
