<svg width="32" height="32" viewBox="0 0 32 32" fill="none" xmlns="http://www.w3.org/2000/svg">
<rect x="0.5" y="0.5" width="31" height="31" rx="3.5" fill="#DDB057"/>
<rect x="0.5" y="0.5" width="31" height="31" rx="3.5" stroke="#15151E"/>
<path d="M11.3337 18C10.707 18 10.127 18.22 9.66699 18.5867C9.05366 19.0733 8.66699 19.8267 8.66699 20.6667C8.66699 22.14 9.86033 23.3333 11.3337 23.3333C12.007 23.3333 12.6203 23.08 13.0937 22.6667C13.647 22.18 14.0003 21.4667 14.0003 20.6667C14.0003 19.1933 12.807 18 11.3337 18ZM12.0003 20.8333C12.0003 21.0067 11.907 21.1733 11.7603 21.26L10.927 21.76C10.847 21.8133 10.7537 21.8333 10.667 21.8333C10.5003 21.8333 10.3337 21.7467 10.2403 21.5933C10.1003 21.3533 10.1737 21.0467 10.4137 20.9067L11.007 20.5533V19.8333C11.0003 19.56 11.227 19.3333 11.5003 19.3333C11.7737 19.3333 12.0003 19.56 12.0003 19.8333V20.8333Z" fill="#191919"/>
<path d="M17.9003 10.6339V13.1672H16.9003V10.6339C16.9003 10.4539 16.7403 10.3672 16.6337 10.3672C16.6003 10.3672 16.567 10.3739 16.5337 10.3872L11.247 12.3805C10.8937 12.5139 10.667 12.8472 10.667 13.2272V13.6739C10.0603 14.1272 9.66699 14.8539 9.66699 15.6739V13.2272C9.66699 12.4339 10.1537 11.7272 10.8937 11.4472L16.187 9.44719C16.3337 9.39385 16.487 9.36719 16.6337 9.36719C17.3003 9.36719 17.9003 9.90719 17.9003 10.6339Z" fill="#191919"/>
<path d="M22.3331 17.6673V18.334C22.3331 18.514 22.1931 18.6607 22.0065 18.6673H21.0331C20.6798 18.6673 20.3598 18.4073 20.3331 18.0607C20.3131 17.854 20.3931 17.6607 20.5265 17.5273C20.6465 17.4007 20.8131 17.334 20.9931 17.334H21.9998C22.1931 17.3407 22.3331 17.4873 22.3331 17.6673Z" fill="#191919"/>
<path d="M20.987 16.6327H21.667C22.0337 16.6327 22.3337 16.3327 22.3337 15.966V15.6727C22.3337 14.2927 21.207 13.166 19.827 13.166H12.1737C11.607 13.166 11.087 13.3527 10.667 13.6727C10.0603 14.126 9.66699 14.8527 9.66699 15.6727V16.8593C9.66699 17.1127 9.93366 17.2727 10.1737 17.1927C10.547 17.066 10.9403 16.9993 11.3337 16.9993C13.3537 16.9993 15.0003 18.646 15.0003 20.666C15.0003 21.146 14.8737 21.6727 14.6737 22.1393C14.567 22.3793 14.7337 22.666 14.9937 22.666H19.827C21.207 22.666 22.3337 21.5393 22.3337 20.1593V20.0327C22.3337 19.666 22.0337 19.366 21.667 19.366H21.087C20.447 19.366 19.8337 18.9727 19.667 18.3527C19.5337 17.846 19.6937 17.3527 20.027 17.0327C20.2737 16.7793 20.6137 16.6327 20.987 16.6327ZM17.3337 16.4993H14.0003C13.727 16.4993 13.5003 16.2727 13.5003 15.9993C13.5003 15.726 13.727 15.4993 14.0003 15.4993H17.3337C17.607 15.4993 17.8337 15.726 17.8337 15.9993C17.8337 16.2727 17.607 16.4993 17.3337 16.4993Z" fill="#191919"/>
</svg>
