<svg width="41" height="42" viewBox="0 0 41 42" fill="none" xmlns="http://www.w3.org/2000/svg">
<g id="Calendar" opacity="0.5">
<path id="Path 39487" fill-rule="evenodd" clip-rule="evenodd" d="M0.585938 31.2544V15.3057H40.606V31.3818C40.606 37.9578 36.2129 42.001 29.1848 42.001H11.9857C5.02281 42.001 0.585938 37.8754 0.585938 31.2544ZM11.6123 26.1026C11.3714 26.1104 11.1313 26.0732 10.9057 25.9932C10.6802 25.9131 10.4736 25.7918 10.298 25.6362C10.1225 25.4806 9.98129 25.2939 9.88265 25.0867C9.78402 24.8794 9.72987 24.6559 9.72333 24.4289C9.71981 23.9677 9.90498 23.5229 10.2404 23.187C10.5758 22.8511 11.0356 22.6498 11.5244 22.625C12.0023 22.6312 12.459 22.8116 12.7987 23.1284C13.1383 23.4452 13.3344 23.8737 13.3458 24.3239C13.3572 24.7741 13.1829 25.2109 12.8597 25.5426C12.5364 25.8743 12.0893 26.075 11.6123 26.1026ZM20.6399 26.1026C20.399 26.1105 20.1588 26.0733 19.9332 25.9933C19.7076 25.9132 19.5011 25.792 19.3254 25.6364C19.1498 25.4808 19.0086 25.294 18.9099 25.0867C18.8113 24.8795 18.7571 24.6559 18.7506 24.4289C18.7465 23.9672 18.9316 23.5218 19.2673 23.1854C19.6031 22.849 20.0635 22.6476 20.5529 22.6231C21.0307 22.6292 21.4875 22.8097 21.8271 23.1265C22.1668 23.4433 22.3629 23.8718 22.3743 24.322C22.3856 24.7722 22.2114 25.209 21.8881 25.5407C21.5649 25.8724 21.1178 26.0731 20.6407 26.1007L20.6399 26.1026ZM29.6016 33.8112C29.1115 33.7964 28.6469 33.6021 28.3066 33.2695C27.9662 32.937 27.777 32.4925 27.779 32.0306C27.7684 31.5699 27.9519 31.124 28.2895 30.7906C28.6271 30.4572 29.0912 30.2635 29.5801 30.2519H29.602C30.0981 30.2587 30.5715 30.4492 30.9197 30.7822C31.268 31.1152 31.4633 31.564 31.4633 32.0315C31.4633 32.4991 31.268 32.9478 30.9197 33.2808C30.5715 33.6138 30.0977 33.8043 29.6016 33.8112ZM18.751 32.0294C18.7702 32.3633 18.893 32.6846 19.1042 32.9534C19.3153 33.2221 19.6055 33.4266 19.9388 33.5415C20.2721 33.6564 20.6338 33.6766 20.9792 33.5997C21.3246 33.5228 21.6384 33.352 21.8818 33.1087C22.1252 32.8653 22.2875 32.56 22.3485 32.2306C22.4096 31.9012 22.3667 31.5621 22.2252 31.2555C22.0837 30.9488 21.8499 30.688 21.5526 30.5053C21.2554 30.3226 20.9077 30.2262 20.5529 30.2278C20.0641 30.2518 19.604 30.4525 19.2684 30.7881C18.9327 31.1237 18.7474 31.5683 18.751 32.0294ZM9.70146 32.0294C9.72073 32.3634 9.84356 32.6846 10.0547 32.9534C10.2659 33.2222 10.5562 33.4267 10.8895 33.5416C11.2228 33.6564 11.5846 33.6766 11.93 33.5996C12.2754 33.5226 12.5892 33.3518 12.8326 33.1084C13.0759 32.865 13.2382 32.5596 13.2991 32.2301C13.3601 31.9007 13.3171 31.5616 13.1755 31.2549C13.0339 30.9483 12.7999 30.6875 12.5025 30.5049C12.2051 30.3224 11.8575 30.226 11.5025 30.2278C11.0139 30.252 10.554 30.4528 10.2186 30.7883C9.88309 31.1239 9.69787 31.5684 9.70146 32.0294ZM27.8025 24.4044C27.7947 24.1791 27.8343 23.9545 27.919 23.7436C28.0038 23.5328 28.132 23.3398 28.2963 23.1759C28.4606 23.0119 28.6577 22.8803 28.8763 22.7885C29.0949 22.6967 29.3306 22.6465 29.5698 22.641C29.809 22.6355 30.0471 22.6746 30.2702 22.7562C30.4933 22.8377 30.697 22.9601 30.8696 23.1163C31.0423 23.2724 31.1804 23.4592 31.2761 23.6659C31.3717 23.8726 31.423 24.095 31.4269 24.3205C31.4375 24.5466 31.4003 24.7724 31.3175 24.9848C31.2347 25.1972 31.1079 25.392 30.9445 25.5578C30.7812 25.7237 30.5845 25.8574 30.3658 25.951C30.1472 26.0446 29.911 26.0964 29.671 26.1034C29.4309 26.1103 29.1918 26.0722 28.9675 25.9913C28.7432 25.9105 28.5382 25.7884 28.3643 25.6323C28.1905 25.4761 28.0513 25.289 27.9549 25.0818C27.8584 24.8745 27.8066 24.6513 27.8025 24.425V24.4044Z" fill="black"/>
<path id="Path 39488" opacity="0.4" d="M0.589844 15.3051C0.618194 14.0755 0.728357 11.6347 0.934506 10.8494C1.99036 6.43108 5.57145 3.62356 10.6883 3.22363H30.5009C35.5749 3.64341 39.1993 6.47077 40.2535 10.849C40.456 11.6122 40.5678 14.0732 40.5962 15.3047L0.589844 15.3051Z" fill="black"/>
<path id="Path 39489" d="M12.3797 9.71948C12.605 9.72373 12.8288 9.68474 13.0376 9.60487C13.2464 9.52501 13.4357 9.40595 13.5941 9.25493C13.7525 9.10392 13.8766 8.92412 13.9588 8.72647C14.0411 8.52882 14.0798 8.31746 14.0726 8.10526V1.71822C14.08 1.50592 14.0414 1.29444 13.9592 1.09666C13.877 0.898875 13.7529 0.718932 13.5945 0.567794C13.4361 0.416657 13.2467 0.297491 13.0379 0.217557C12.829 0.137623 12.6051 0.0985958 12.3797 0.102853C12.1545 0.0988056 11.9307 0.137988 11.722 0.218015C11.5133 0.298043 11.3241 0.417242 11.1659 0.568357C11.0077 0.719473 10.8838 0.899344 10.8017 1.09702C10.7196 1.2947 10.681 1.50606 10.6884 1.71822V8.10526C10.6812 8.31733 10.7199 8.52856 10.802 8.7261C10.8842 8.92365 11.0082 9.10338 11.1664 9.25437C11.3246 9.40536 11.5137 9.52446 11.7223 9.60441C11.9309 9.68437 12.1546 9.72352 12.3797 9.71948Z" fill="black"/>
<path id="Path 39490" d="M28.8133 9.7189C29.0378 9.72121 29.2605 9.68092 29.4682 9.60042C29.6759 9.51993 29.8642 9.40088 30.022 9.25037C30.1798 9.09985 30.3039 8.92095 30.3868 8.72432C30.4697 8.52769 30.5097 8.31735 30.5046 8.10582V1.71764C30.5046 1.29498 30.3264 0.889642 30.0092 0.590782C29.692 0.291921 29.2618 0.124023 28.8133 0.124023C28.3647 0.124023 27.9345 0.291921 27.6173 0.590782C27.3001 0.889642 27.1219 1.29498 27.1219 1.71764V8.10468C27.1148 8.31675 27.1534 8.52798 27.2356 8.72552C27.3178 8.92306 27.4417 9.1028 27.5999 9.25379C27.7581 9.40478 27.9473 9.52388 28.1559 9.60383C28.3644 9.68379 28.5881 9.72294 28.8133 9.7189Z" fill="black"/>
</g>
</svg>
