<svg xmlns="http://www.w3.org/2000/svg" width="41" height="43" viewBox="0 0 41 43" fill="none">
  <g opacity="0.5">
    <path fill-rule="evenodd" clip-rule="evenodd" d="M0.585938 31.8484V15.8997H40.606V31.9758C40.606 38.5518 36.2129 42.595 29.1848 42.595H11.9857C5.02281 42.595 0.585938 38.4693 0.585938 31.8484ZM11.6123 26.6966C11.3714 26.7044 11.1313 26.6672 10.9057 26.5872C10.6802 26.5071 10.4736 26.3858 10.298 26.2302C10.1225 26.0746 9.98129 25.8879 9.88265 25.6807C9.78402 25.4734 9.72987 25.2499 9.72333 25.0229C9.71981 24.5617 9.90498 24.1169 10.2404 23.781C10.5758 23.4451 11.0356 23.2438 11.5244 23.219C12.0023 23.2251 12.459 23.4056 12.7987 23.7224C13.1383 24.0392 13.3344 24.4677 13.3458 24.9179C13.3572 25.3681 13.1829 25.8049 12.8597 26.1366C12.5364 26.4683 12.0893 26.669 11.6123 26.6966ZM20.6399 26.6966C20.399 26.7044 20.1588 26.6673 19.9332 26.5873C19.7076 26.5072 19.5011 26.3859 19.3254 26.2304C19.1498 26.0748 19.0086 25.888 18.9099 25.6807C18.8113 25.4735 18.7571 25.2499 18.7506 25.0229C18.7465 24.5611 18.9316 24.1158 19.2673 23.7794C19.6031 23.443 20.0635 23.2416 20.5529 23.2171C21.0307 23.2232 21.4875 23.4037 21.8271 23.7205C22.1668 24.0373 22.3629 24.4658 22.3743 24.916C22.3856 25.3662 22.2114 25.803 21.8881 26.1347C21.5649 26.4664 21.1178 26.6671 20.6407 26.6947L20.6399 26.6966ZM29.6016 34.4052C29.1115 34.3904 28.6469 34.1961 28.3066 33.8635C27.9662 33.531 27.777 33.0865 27.779 32.6246C27.7684 32.1639 27.9519 31.718 28.2895 31.3846C28.6271 31.0512 29.0912 30.8575 29.5801 30.8459H29.602C30.0981 30.8527 30.5715 31.0432 30.9197 31.3762C31.268 31.7092 31.4633 32.158 31.4633 32.6255C31.4633 33.0931 31.268 33.5418 30.9197 33.8748C30.5715 34.2078 30.0977 34.3983 29.6016 34.4052ZM18.751 32.6234C18.7702 32.9573 18.893 33.2786 19.1042 33.5473C19.3153 33.8161 19.6055 34.0206 19.9388 34.1355C20.2721 34.2504 20.6338 34.2706 20.9792 34.1937C21.3246 34.1167 21.6384 33.946 21.8818 33.7027C22.1252 33.4593 22.2875 33.154 22.3485 32.8246C22.4096 32.4952 22.3667 32.1561 22.2252 31.8495C22.0837 31.5428 21.8499 31.282 21.5526 31.0993C21.2554 30.9166 20.9077 30.8202 20.5529 30.8218C20.0641 30.8458 19.604 31.0465 19.2684 31.3821C18.9327 31.7177 18.7474 32.1623 18.751 32.6234ZM9.70146 32.6234C9.72073 32.9574 9.84356 33.2786 10.0547 33.5474C10.2659 33.8162 10.5562 34.0207 10.8895 34.1356C11.2228 34.2504 11.5846 34.2706 11.93 34.1936C12.2754 34.1166 12.5892 33.9458 12.8326 33.7024C13.0759 33.4589 13.2382 33.1536 13.2991 32.8241C13.3601 32.4947 13.3171 32.1556 13.1755 31.8489C13.0339 31.5423 12.7999 31.2815 12.5025 31.0989C12.2051 30.9164 11.8575 30.82 11.5025 30.8218C11.0139 30.846 10.554 31.0467 10.2186 31.3823C9.88309 31.7179 9.69787 32.1624 9.70146 32.6234ZM27.8025 24.9984C27.7947 24.7731 27.8343 24.5485 27.919 24.3376C28.0038 24.1268 28.132 23.9338 28.2963 23.7699C28.4606 23.6059 28.6577 23.4742 28.8763 23.3824C29.0949 23.2906 29.3306 23.2405 29.5698 23.235C29.809 23.2294 30.0471 23.2686 30.2702 23.3502C30.4933 23.4317 30.697 23.5541 30.8696 23.7102C31.0423 23.8664 31.1804 24.0532 31.2761 24.2599C31.3717 24.4665 31.423 24.689 31.4269 24.9145C31.4375 25.1406 31.4003 25.3663 31.3175 25.5788C31.2347 25.7912 31.1079 25.986 30.9445 26.1518C30.7812 26.3177 30.5845 26.4513 30.3658 26.545C30.1472 26.6386 29.911 26.6904 29.671 26.6974C29.4309 26.7043 29.1918 26.6662 28.9675 26.5853C28.7432 26.5045 28.5382 26.3824 28.3643 26.2263C28.1905 26.0701 28.0513 25.883 27.9549 25.6758C27.8584 25.4685 27.8066 25.2453 27.8025 25.019V24.9984Z" fill="white"/>
    <path opacity="0.4" d="M0.589844 15.8991C0.618194 14.6695 0.728357 12.2287 0.934506 11.4434C1.99036 7.02508 5.57145 4.21756 10.6883 3.81763H30.5009C35.5749 4.2374 39.1993 7.06476 40.2535 11.443C40.456 12.2062 40.5678 14.6672 40.5962 15.8987L0.589844 15.8991Z" fill="white"/>
    <path d="M12.3797 10.3135C12.605 10.3177 12.8288 10.2787 13.0376 10.1989C13.2464 10.119 13.4357 9.99994 13.5941 9.84893C13.7525 9.69791 13.8766 9.51811 13.9588 9.32046C14.0411 9.12281 14.0798 8.91145 14.0726 8.69925V2.31221C14.08 2.09992 14.0414 1.88844 13.9592 1.69065C13.877 1.49287 13.7529 1.31293 13.5945 1.16179C13.4361 1.01065 13.2467 0.891485 13.0379 0.811551C12.829 0.731617 12.6051 0.69259 12.3797 0.696848C12.1545 0.6928 11.9307 0.731982 11.722 0.81201C11.5133 0.892037 11.3241 1.01124 11.1659 1.16235C11.0077 1.31347 10.8838 1.49334 10.8017 1.69102C10.7196 1.8887 10.681 2.10005 10.6884 2.31221V8.69925C10.6812 8.91132 10.7199 9.12255 10.802 9.3201C10.8842 9.51764 11.0082 9.69737 11.1664 9.84836C11.3246 9.99936 11.5137 10.1185 11.7223 10.1984C11.9309 10.2784 12.1546 10.3175 12.3797 10.3135Z" fill="white"/>
    <path d="M28.8133 10.3126C29.0378 10.315 29.2605 10.2747 29.4682 10.1942C29.6759 10.1137 29.8642 9.99463 30.022 9.84412C30.1798 9.6936 30.3039 9.5147 30.3868 9.31807C30.4697 9.12144 30.5097 8.9111 30.5046 8.69957V2.31139C30.5046 1.88873 30.3264 1.48339 30.0092 1.18453C29.692 0.885671 29.2618 0.717773 28.8133 0.717773C28.3647 0.717773 27.9345 0.885671 27.6173 1.18453C27.3001 1.48339 27.1219 1.88873 27.1219 2.31139V8.69843C27.1148 8.9105 27.1534 9.12173 27.2356 9.31927C27.3178 9.51681 27.4417 9.69655 27.5999 9.84754C27.7581 9.99853 27.9473 10.1176 28.1559 10.1976C28.3644 10.2775 28.5881 10.3167 28.8133 10.3126Z" fill="white"/>
  </g>
</svg>