<svg width="21" height="21" viewBox="0 0 21 21" fill="none" xmlns="http://www.w3.org/2000/svg">
<g id="icon">
<path id="Vector" d="M19.7863 10.4996C19.7863 11.0191 19.3086 11.4371 18.7148 11.4371H11.572V17.6871C11.572 18.2047 11.0921 18.625 10.5006 18.625C9.90904 18.625 9.42913 18.2066 9.42913 17.6871V11.4371H2.28627C1.69475 11.4371 1.21484 11.0176 1.21484 10.5C1.21484 9.98398 1.69475 9.56211 2.28627 9.56211H9.42913V3.31211C9.42913 2.79453 9.90904 2.375 10.5006 2.375C11.0921 2.375 11.572 2.79453 11.572 3.31211V9.56211H18.7148C19.3086 9.56211 19.7863 9.98398 19.7863 10.4996Z" fill="#FBFCFC"/>
</g>
</svg>
