<svg width="15" height="16" viewBox="0 0 15 16" fill="none" xmlns="http://www.w3.org/2000/svg">
<g id="plus-regular 1">
<path id="Vector" d="M14 7.99969C14 8.41531 13.6656 8.74969 13.25 8.74969H8.25V13.7497C8.25 14.1637 7.91406 14.5 7.5 14.5C7.08594 14.5 6.75 14.1653 6.75 13.7497V8.74969H1.75C1.33594 8.74969 1 8.41406 1 8C1 7.58719 1.33594 7.24969 1.75 7.24969H6.75V2.24969C6.75 1.83563 7.08594 1.5 7.5 1.5C7.91406 1.5 8.25 1.83563 8.25 2.24969V7.24969H13.25C13.6656 7.24969 14 7.58719 14 7.99969Z" fill="#191919"/>
</g>
</svg>
