<svg width="22" height="21" viewBox="0 0 22 21" fill="none" xmlns="http://www.w3.org/2000/svg">
<g clip-path="url(#clip0_5901_5642)">
<path d="M5.328 0H16.649C18.0621 0 19.4173 0.561341 20.4165 1.56054C21.4157 2.55973 21.977 3.91493 21.977 5.328V15.318C21.977 16.7311 21.4157 18.0863 20.4165 19.0855C19.4173 20.0847 18.0621 20.646 16.649 20.646H5.328C4.62823 20.646 3.93532 20.5082 3.28883 20.2403C2.64234 19.9725 2.05495 19.58 1.56018 19.0851C1.06542 18.5903 0.672981 18.0028 0.405283 17.3562C0.137585 16.7097 -0.000131244 16.0168 9.38525e-08 15.317V5.328C9.38525e-08 3.91493 0.561341 2.55973 1.56054 1.56054C2.55973 0.561341 3.91493 0 5.328 0V0Z" fill="black"/>
<path d="M5.57422 8.38074H6.89421V4.13574H8.64621L10.7262 8.38174H13.7552V4.13574H15.0552V8.38174H16.4012V9.59874H15.0552V10.7727H16.4012V11.9807H15.0552V16.5107H13.3812L11.1292 11.9807H8.19522V16.5107H6.89522V11.9807H5.57521V10.7717H6.89522V9.59774H5.57521L5.57422 8.38074ZM11.9082 10.7707H13.7552V9.59774H11.3302L11.9082 10.7707ZM8.19722 10.7707H10.5362L9.94922 9.59674H8.19722V10.7707ZM13.7892 14.6017H13.8152C13.7622 14.0033 13.7422 13.4024 13.7552 12.8017V11.9817H12.4952L13.7892 14.6017ZM8.18022 5.94474H8.13722C8.19015 6.50108 8.21018 7.06005 8.19722 7.61874V8.37774H9.34622L8.51822 6.70374C8.39276 6.45663 8.27995 6.20331 8.18022 5.94474Z" fill="white"/>
</g>
<defs>
<clipPath id="clip0_5901_5642">
<rect width="21.977" height="20.645" fill="white"/>
</clipPath>
</defs>
</svg>
