<svg xmlns="http://www.w3.org/2000/svg" width="80" height="80" viewBox="0 0 80 80" fill="none">
  <path opacity="0.4" d="M56.2803 17.0469H46.4703C44.0263 17.063 41.706 15.9759 40.1573 14.0891L36.9267 9.62281C35.404 7.71945 33.0837 6.62721 30.6434 6.66501H23.708C11.26 6.66501 6.66602 13.9708 6.66602 26.3935V39.8221C6.65052 41.2987 73.318 41.2967 73.3223 39.8221V35.9177C73.3817 23.4949 68.9063 17.0469 56.2803 17.0469Z" fill="#191919"/>
  <path fill-rule="evenodd" clip-rule="evenodd" d="M69.7736 17.8139C70.8403 19.0608 71.6643 20.4952 72.204 22.0436C73.266 25.2258 73.7576 28.57 73.6563 31.9227V49.4327C73.652 50.9077 73.5433 52.3804 73.3303 53.84C72.925 56.4157 72.019 58.8874 70.663 61.116C70.0396 62.1927 69.283 63.1864 68.4103 64.0737C64.461 67.6987 59.2166 69.5854 53.858 69.309H26.7687C21.4017 69.5834 16.1487 67.6974 12.1867 64.0737C11.3247 63.1847 10.5779 62.191 9.96384 61.116C8.61584 58.889 7.72897 56.4147 7.35567 53.84C7.1183 52.3827 6.99937 50.909 7 49.4327V31.9227C6.99944 30.4604 7.07857 28.9989 7.23714 27.5451C7.27047 27.29 7.32047 27.0391 7.36994 26.7908C7.45244 26.3768 7.5335 25.9701 7.5335 25.5633C7.83437 23.8089 8.3832 22.106 9.1636 20.5055C11.4754 15.566 16.2175 13.0519 23.9827 13.0519H56.5846C60.934 12.7155 65.251 14.0248 68.6773 16.7195C69.0716 17.0541 69.4386 17.4201 69.7736 17.8139ZM23.5678 47.806H57.1183H57.1776C57.9136 47.838 58.632 47.5744 59.1723 47.0744C59.7123 46.574 60.0293 45.879 60.0523 45.144C60.094 44.498 59.8813 43.861 59.4596 43.3694C58.9746 42.7084 58.206 42.3137 57.385 42.3044H23.5678C22.0455 42.3044 20.8114 43.536 20.8114 45.0554C20.8114 46.5744 22.0455 47.806 23.5678 47.806Z" fill="#191919"/>
</svg>