<svg width="16" height="17" viewBox="0 0 16 17" fill="none" xmlns="http://www.w3.org/2000/svg">
<g id="vuesax/bold/convert-card">
<g id="convert-card">
<g id="Vector">
<path d="M14.6667 10.5C14.6667 13.08 12.58 15.1667 10 15.1667L10.7 14" stroke="#2F2F2F" stroke-width="0.972727" stroke-linecap="round" stroke-linejoin="round"/>
<path d="M14.6667 10.5C14.6667 13.08 12.58 15.1667 10 15.1667L10.7 14" stroke="black" stroke-opacity="0.2" stroke-width="0.972727" stroke-linecap="round" stroke-linejoin="round"/>
</g>
<g id="Vector_2">
<path d="M1.33331 6.50065C1.33331 3.92065 3.41998 1.83398 5.99998 1.83398L5.29998 3.00065" stroke="#2F2F2F" stroke-width="0.972727" stroke-linecap="round" stroke-linejoin="round"/>
<path d="M1.33331 6.50065C1.33331 3.92065 3.41998 1.83398 5.99998 1.83398L5.29998 3.00065" stroke="black" stroke-opacity="0.2" stroke-width="0.972727" stroke-linecap="round" stroke-linejoin="round"/>
</g>
<g id="Vector_3">
<path d="M14.6667 3.30065V3.37398C14.6667 3.56065 14.52 3.70732 14.3333 3.70732H8.33333C8.14667 3.70732 8 3.56065 8 3.37398V3.30065C8 2.12732 8.29333 1.83398 9.48 1.83398H13.1867C14.3733 1.83398 14.6667 2.12732 14.6667 3.30065Z" fill="#2F2F2F"/>
<path d="M14.6667 3.30065V3.37398C14.6667 3.56065 14.52 3.70732 14.3333 3.70732H8.33333C8.14667 3.70732 8 3.56065 8 3.37398V3.30065C8 2.12732 8.29333 1.83398 9.48 1.83398H13.1867C14.3733 1.83398 14.6667 2.12732 14.6667 3.30065Z" fill="black" fill-opacity="0.2"/>
</g>
<g id="Vector_4">
<path d="M8.33333 4.37305C8.14667 4.37305 8 4.51971 8 4.70638V5.37305V6.03305C8 7.20638 8.29333 7.49971 9.48 7.49971H13.1867C14.3733 7.49971 14.6667 7.20638 14.6667 6.03305V5.37305V4.70638C14.6667 4.51971 14.52 4.37305 14.3333 4.37305H8.33333Z" fill="#2F2F2F"/>
<path d="M8.33333 4.37305C8.14667 4.37305 8 4.51971 8 4.70638V5.37305V6.03305C8 7.20638 8.29333 7.49971 9.48 7.49971H13.1867C14.3733 7.49971 14.6667 7.20638 14.6667 6.03305V5.37305V4.70638C14.6667 4.51971 14.52 4.37305 14.3333 4.37305H8.33333Z" fill="black" fill-opacity="0.2"/>
</g>
<g id="Vector_5">
<path d="M7.99998 10.9667V11.04C7.99998 11.2267 7.85331 11.3733 7.66665 11.3733H1.66665C1.47998 11.3733 1.33331 11.2267 1.33331 11.04V10.9667C1.33331 9.79333 1.62665 9.5 2.81331 9.5H6.51998C7.70665 9.5 7.99998 9.79333 7.99998 10.9667Z" fill="#2F2F2F"/>
<path d="M7.99998 10.9667V11.04C7.99998 11.2267 7.85331 11.3733 7.66665 11.3733H1.66665C1.47998 11.3733 1.33331 11.2267 1.33331 11.04V10.9667C1.33331 9.79333 1.62665 9.5 2.81331 9.5H6.51998C7.70665 9.5 7.99998 9.79333 7.99998 10.9667Z" fill="black" fill-opacity="0.2"/>
</g>
<g id="Vector_6">
<path d="M1.66665 12.0391C1.47998 12.0391 1.33331 12.1857 1.33331 12.3724V13.0391V13.6991C1.33331 14.8724 1.62665 15.1657 2.81331 15.1657H6.51998C7.70665 15.1657 7.99998 14.8724 7.99998 13.6991V13.0391V12.3724C7.99998 12.1857 7.85331 12.0391 7.66665 12.0391H1.66665Z" fill="#2F2F2F"/>
<path d="M1.66665 12.0391C1.47998 12.0391 1.33331 12.1857 1.33331 12.3724V13.0391V13.6991C1.33331 14.8724 1.62665 15.1657 2.81331 15.1657H6.51998C7.70665 15.1657 7.99998 14.8724 7.99998 13.6991V13.0391V12.3724C7.99998 12.1857 7.85331 12.0391 7.66665 12.0391H1.66665Z" fill="black" fill-opacity="0.2"/>
</g>
</g>
</g>
</svg>
