<svg xmlns="http://www.w3.org/2000/svg" width="24" height="24" viewBox="0 0 24 24" fill="none">
<path d="M11.5 15.5C10.7044 15.5 9.94129 15.1839 9.37868 14.6213C8.81607 14.0587 8.5 13.2956 8.5 12.5V10.5M11.5 15.5C12.2956 15.5 13.0587 15.1839 13.6213 14.6213C14.1839 14.0587 14.5 13.2956 14.5 12.5V10.5M11.5 15.5V10.5M8.5 10.5C8.5 9.70435 8.81607 8.94129 9.37868 8.37868C9.94129 7.81607 10.7044 7.5 11.5 7.5C12.2956 7.5 13.0587 7.81607 13.6213 8.37868C14.1839 8.94129 14.5 9.70435 14.5 10.5M8.5 10.5H14.5M14.572 11.5H16M7 11.5H8.5M14.5 14L15.5 14.5M8.5 14L7.5 14.5M14.5 9L15.5 8.5M8.5 9L7.5 8.5M18.5 18.5L22 22" stroke="#191919" stroke-width="1.5" stroke-linecap="round"/>
<path d="M6.74982 3.27006C8.74591 2.11818 11.0927 1.73118 13.3529 2.18115C15.6132 2.63111 17.6328 3.88736 19.0355 5.71588C20.4383 7.54439 21.1285 9.82048 20.9777 12.1201C20.8268 14.4198 19.8452 16.5862 18.2156 18.2158C16.586 19.8454 14.4196 20.8271 12.1199 20.9779C9.82024 21.1288 7.54415 20.4385 5.71564 19.0358C3.88712 17.633 2.63087 15.6134 2.1809 13.3532C1.73094 11.0929 2.11794 8.74615 3.26982 6.75006" stroke="#191919" stroke-width="1.5" stroke-linecap="round"/>
</svg>