<svg width="25" height="24" viewBox="0 0 25 24" fill="none" xmlns="http://www.w3.org/2000/svg">
<g id="Arrow - Right 2 1">
<path id="Vector" d="M17.1308 13.131C17.0743 13.189 16.8609 13.437 16.6622 13.641C15.4971 14.924 12.4576 17.024 10.8668 17.665C10.6252 17.768 10.0144 17.986 9.68802 18C9.3753 18 9.0772 17.928 8.79274 17.782C8.43814 17.578 8.15368 17.257 7.99781 16.878C7.89747 16.615 7.7416 15.828 7.7416 15.814C7.58573 14.953 7.5 13.554 7.5 12.008C7.5 10.535 7.58573 9.193 7.71335 8.319C7.72796 8.305 7.88383 7.327 8.05431 6.992C8.36702 6.38 8.97784 6 9.63151 6H9.68802C10.1137 6.015 11.009 6.395 11.009 6.409C12.5141 7.051 15.4834 9.048 16.6768 10.375C16.6768 10.375 17.0129 10.716 17.159 10.929C17.387 11.235 17.5 11.614 17.5 11.993C17.5 12.416 17.3724 12.81 17.1308 13.131Z" fill="#DFCDF1"/>
</g>
</svg>
