<svg xmlns="http://www.w3.org/2000/svg" width="18" height="16" viewBox="0 0 18 16" fill="none">
  <path fill-rule="evenodd" clip-rule="evenodd" d="M12.2077 0.0839343C12.7335 0.0839343 13.2585 0.158101 13.7577 0.325601C16.8335 1.3256 17.9419 4.7006 17.016 7.6506C16.491 9.1581 15.6327 10.5339 14.5085 11.6581C12.8994 13.2164 11.1335 14.5998 9.2327 15.7914L9.02436 15.9173L8.8077 15.7831C6.9002 14.5998 5.12436 13.2164 3.5002 11.6498C2.38353 10.5256 1.52436 9.1581 0.991029 7.6506C0.0493627 4.7006 1.1577 1.3256 4.26686 0.308101C4.50853 0.224768 4.7577 0.166434 5.0077 0.133934H5.1077C5.34186 0.0997677 5.57436 0.0839343 5.8077 0.0839343H5.89936C6.42436 0.0997677 6.9327 0.191434 7.4252 0.358934H7.47436C7.5077 0.374768 7.5327 0.392268 7.54936 0.408101C7.73353 0.467268 7.9077 0.533934 8.07436 0.625601L8.39103 0.767268C8.46755 0.808077 8.55343 0.870433 8.62766 0.924325C8.67469 0.958471 8.71704 0.989218 8.74936 1.00893C8.76296 1.01696 8.77679 1.02503 8.79072 1.03316C8.86217 1.07487 8.9366 1.11832 8.99936 1.16643C9.9252 0.458934 11.0494 0.075601 12.2077 0.0839343ZM14.4244 6.08393C14.766 6.07477 15.0577 5.8006 15.0827 5.44977V5.3506C15.1077 4.1831 14.4002 3.1256 13.3244 2.71727C12.9827 2.59977 12.6077 2.78393 12.4827 3.13393C12.366 3.48393 12.5494 3.86727 12.8994 3.99143C13.4335 4.19143 13.791 4.71727 13.791 5.29977V5.3256C13.7752 5.51643 13.8327 5.7006 13.9494 5.84227C14.066 5.98393 14.241 6.06643 14.4244 6.08393Z" fill="#AD857E"/>
</svg>