<svg xmlns="http://www.w3.org/2000/svg" width="25" height="24" viewBox="0 0 25 24" fill="none">
  <path d="M12.5 22.75C6.57 22.75 1.75 17.93 1.75 12C1.75 6.07 6.57 1.25 12.5 1.25C18.43 1.25 23.25 6.07 23.25 12C23.25 17.93 18.43 22.75 12.5 22.75ZM12.5 2.75C7.4 2.75 3.25 6.9 3.25 12C3.25 17.1 7.4 21.25 12.5 21.25C17.6 21.25 21.75 17.1 21.75 12C21.75 6.9 17.6 2.75 12.5 2.75Z" fill="#292D32"/>
  <path d="M12.4994 18.2501C12.2894 18.2501 12.0894 18.2201 11.9194 18.1601C9.76937 17.4301 6.35938 14.8101 6.35938 10.9101C6.35938 8.83013 8.03938 7.14014 10.1094 7.14014C11.0094 7.14014 11.8394 7.45013 12.5094 8.01013C13.1794 7.45013 14.0194 7.14014 14.8994 7.14014C16.9694 7.14014 18.6494 8.83013 18.6494 10.9101C18.6494 14.8001 15.2394 17.4201 13.0794 18.1601C12.9094 18.2201 12.6994 18.2501 12.4994 18.2501ZM10.0994 8.65012C8.85938 8.65012 7.84938 9.67014 7.84938 10.9201C7.84938 14.4101 11.2194 16.3501 12.3994 16.7501C12.4394 16.7601 12.5394 16.7601 12.5794 16.7501C13.7594 16.3501 17.1294 14.4101 17.1294 10.9201C17.1294 9.67014 16.1194 8.65012 14.8794 8.65012C14.1794 8.65012 13.5094 8.99012 13.0894 9.56012C12.8094 9.94012 12.1694 9.94012 11.8894 9.56012C11.4694 8.98012 10.8194 8.65012 10.0994 8.65012Z" fill="#292D32"/>
</svg>