<svg width="13" height="13" viewBox="0 0 13 13" fill="none" xmlns="http://www.w3.org/2000/svg">
<path d="M10.1615 9.1C11.2661 9.1 12.1615 9.97295 12.1615 11.05C12.1615 12.127 11.2661 13 10.1615 13C9.05679 13 8.16146 12.127 8.16146 11.05C8.16146 9.97295 9.05679 9.1 10.1615 9.1ZM3.49479 6.5C4.96813 6.5 6.16146 7.6635 6.16146 9.1C6.16146 10.5365 4.96813 11.7 3.49479 11.7C2.02146 11.7 0.828125 10.5365 0.828125 9.1C0.828125 7.6635 2.02146 6.5 3.49479 6.5ZM10.1615 10.4C9.79346 10.4 9.49479 10.6912 9.49479 11.05C9.49479 11.4088 9.79346 11.7 10.1615 11.7C10.5295 11.7 10.8281 11.4088 10.8281 11.05C10.8281 10.6912 10.5295 10.4 10.1615 10.4ZM3.49479 7.8C2.75813 7.8 2.16146 8.38175 2.16146 9.1C2.16146 9.81825 2.75813 10.4 3.49479 10.4C4.23146 10.4 4.82812 9.81825 4.82812 9.1C4.82812 8.38175 4.23146 7.8 3.49479 7.8ZM9.16146 0C11.1868 0 12.8281 1.6003 12.8281 3.575C12.8281 5.5497 11.1868 7.15 9.16146 7.15C7.13613 7.15 5.49479 5.5497 5.49479 3.575C5.49479 1.6003 7.13613 0 9.16146 0ZM9.16146 1.3C7.87279 1.3 6.82812 2.31855 6.82812 3.575C6.82812 4.83145 7.87279 5.85 9.16146 5.85C10.4501 5.85 11.4948 4.83145 11.4948 3.575C11.4948 2.31855 10.4501 1.3 9.16146 1.3Z" fill="#FF6A6A"/>
</svg>
