<svg width="17" height="17" viewBox="0 0 17 17" fill="none" xmlns="http://www.w3.org/2000/svg">
<g clip-path="url(#clip0_5046_33760)">
<path d="M5.1237 0.368164H3.1237C2.41645 0.368164 1.73818 0.649116 1.23808 1.14921C0.737983 1.64931 0.457031 2.32759 0.457031 3.03483L0.457031 5.03483C0.457031 5.74207 0.737983 6.42035 1.23808 6.92045C1.73818 7.42055 2.41645 7.7015 3.1237 7.7015H5.1237C5.83094 7.7015 6.50922 7.42055 7.00932 6.92045C7.50941 6.42035 7.79036 5.74207 7.79036 5.03483V3.03483C7.79036 2.32759 7.50941 1.64931 7.00932 1.14921C6.50922 0.649116 5.83094 0.368164 5.1237 0.368164V0.368164ZM6.45703 5.03483C6.45703 5.38845 6.31656 5.72759 6.06651 5.97764C5.81646 6.22769 5.47732 6.36816 5.1237 6.36816H3.1237C2.77008 6.36816 2.43094 6.22769 2.18089 5.97764C1.93084 5.72759 1.79036 5.38845 1.79036 5.03483V3.03483C1.79036 2.68121 1.93084 2.34207 2.18089 2.09202C2.43094 1.84197 2.77008 1.7015 3.1237 1.7015H5.1237C5.47732 1.7015 5.81646 1.84197 6.06651 2.09202C6.31656 2.34207 6.45703 2.68121 6.45703 3.03483V5.03483Z" fill="#191919"/>
<path d="M5.1237 9.03516H3.1237C2.41645 9.03516 1.73818 9.31611 1.23808 9.81621C0.737983 10.3163 0.457031 10.9946 0.457031 11.7018L0.457031 13.7018C0.457031 14.4091 0.737983 15.0874 1.23808 15.5874C1.73818 16.0875 2.41645 16.3685 3.1237 16.3685H5.1237C5.83094 16.3685 6.50922 16.0875 7.00932 15.5874C7.50941 15.0874 7.79036 14.4091 7.79036 13.7018V11.7018C7.79036 10.9946 7.50941 10.3163 7.00932 9.81621C6.50922 9.31611 5.83094 9.03516 5.1237 9.03516ZM6.45703 13.7018C6.45703 14.0555 6.31656 14.3946 6.06651 14.6446C5.81646 14.8947 5.47732 15.0352 5.1237 15.0352H3.1237C2.77008 15.0352 2.43094 14.8947 2.18089 14.6446C1.93084 14.3946 1.79036 14.0555 1.79036 13.7018V11.7018C1.79036 11.3482 1.93084 11.0091 2.18089 10.759C2.43094 10.509 2.77008 10.3685 3.1237 10.3685H5.1237C5.47732 10.3685 5.81646 10.509 6.06651 10.759C6.31656 11.0091 6.45703 11.3482 6.45703 11.7018V13.7018Z" fill="#191919"/>
<path d="M15.3179 13.068L13.7892 14.5946V2.12397L15.3179 3.65063C15.3798 3.71253 15.4533 3.76162 15.5342 3.7951C15.6151 3.82858 15.7019 3.8458 15.7894 3.84577C15.877 3.84574 15.9637 3.82846 16.0446 3.79492C16.1255 3.76138 16.199 3.71224 16.2609 3.6503C16.3228 3.58836 16.3718 3.51483 16.4053 3.43392C16.4388 3.35301 16.456 3.2663 16.456 3.17873C16.456 3.09116 16.4387 3.00446 16.4051 2.92357C16.3716 2.84269 16.3225 2.7692 16.2605 2.7073L14.5359 0.985298C14.1609 0.610763 13.6525 0.400391 13.1225 0.400391C12.5925 0.400391 12.0842 0.610763 11.7092 0.985298L9.98453 2.7073C9.92259 2.7692 9.87345 2.84269 9.83991 2.92357C9.80637 3.00446 9.78909 3.09116 9.78906 3.17873C9.78903 3.2663 9.80625 3.35301 9.83973 3.43392C9.87321 3.51483 9.9223 3.58836 9.9842 3.6503C10.0461 3.71224 10.1196 3.76138 10.2005 3.79492C10.2814 3.82846 10.3681 3.84574 10.4556 3.84577C10.5432 3.8458 10.6299 3.82858 10.7108 3.7951C10.7917 3.76162 10.8653 3.71253 10.9272 3.65063L12.4559 2.12397V14.5946L10.9272 13.068C10.8653 13.0061 10.7917 12.957 10.7108 12.9235C10.6299 12.89 10.5432 12.8728 10.4556 12.8728C10.3681 12.8729 10.2814 12.8901 10.2005 12.9237C10.1196 12.9572 10.0461 13.0064 9.9842 13.0683C9.9223 13.1302 9.87321 13.2038 9.83973 13.2847C9.80625 13.3656 9.78903 13.4523 9.78906 13.5399C9.78909 13.6274 9.80637 13.7141 9.83991 13.795C9.87345 13.8759 9.92259 13.9494 9.98453 14.0113L11.7092 15.7333C12.0842 16.1078 12.5925 16.3182 13.1225 16.3182C13.6525 16.3182 14.1609 16.1078 14.5359 15.7333L16.2605 14.0113C16.3225 13.9494 16.3716 13.8759 16.4051 13.795C16.4387 13.7141 16.456 13.6274 16.456 13.5399C16.456 13.4523 16.4388 13.3656 16.4053 13.2847C16.3718 13.2038 16.3228 13.1302 16.2609 13.0683C16.199 13.0064 16.1255 12.9572 16.0446 12.9237C15.9637 12.8901 15.877 12.8729 15.7894 12.8728C15.7019 12.8728 15.6151 12.89 15.5342 12.9235C15.4533 12.957 15.3798 13.0061 15.3179 13.068Z" fill="#191919"/>
</g>
<defs>
<clipPath id="clip0_5046_33760">
<rect width="16" height="16" fill="white" transform="translate(0.457031 0.368164)"/>
</clipPath>
</defs>
</svg>
