<svg width="24" height="24" viewBox="0 0 24 24" fill="none" xmlns="http://www.w3.org/2000/svg">
<circle cx="11.9999" cy="11.9999" r="11.9999" fill="#223342"/>
<path fill-rule="evenodd" clip-rule="evenodd" d="M7 12.0075C7 9.37356 9.105 7 12.01 7C14.85 7 17 9.32849 17 11.9925C17 15.0821 14.48 17 12 17C11.18 17 10.27 16.7797 9.54 16.349C9.285 16.1938 9.07 16.0786 8.795 16.1688L7.785 16.4692C7.53 16.5493 7.3 16.349 7.375 16.0786L7.71 14.9569C7.765 14.8017 7.755 14.6365 7.675 14.5063C7.245 13.7151 7 12.8488 7 12.0075ZM9.68492 12.6535C9.33492 12.6535 9.04492 12.3631 9.04492 12.0125C9.04492 11.657 9.32992 11.3716 9.68492 11.3716C10.0399 11.3716 10.3249 11.657 10.3249 12.0125C10.3249 12.3631 10.0399 12.6485 9.68492 12.6535ZM11.3477 12.0081C11.3477 12.3636 11.6327 12.649 11.9877 12.6541C12.3427 12.6541 12.6277 12.3636 12.6277 12.0131C12.6277 11.6576 12.3427 11.3721 11.9877 11.3721C11.6377 11.3671 11.3477 11.6576 11.3477 12.0081ZM13.6523 12.013C13.6523 12.3636 13.9373 12.654 14.2923 12.654C14.6473 12.654 14.9323 12.3636 14.9323 12.013C14.9323 11.6575 14.6473 11.3721 14.2923 11.3721C13.9373 11.3721 13.6523 11.6575 13.6523 12.013Z" fill="white"/>
</svg>
