<svg width="80" height="80" viewBox="0 0 80 80" fill="none" xmlns="http://www.w3.org/2000/svg">
<g filter="url(#filter0_d_12290_15549)">
<rect x="10.2344" y="10" width="59.7647" height="59.7647" rx="29.8824" fill="black"/>
<path d="M40.1159 28.2158C33.6642 28.2158 28.4492 33.4308 28.4492 39.8825C28.4492 46.3342 33.6642 51.5492 40.1159 51.5492C46.5676 51.5492 51.7826 46.3342 51.7826 39.8825C51.7826 33.4308 46.5676 28.2158 40.1159 28.2158ZM45.1326 44.8992C45.0246 45.0073 44.8964 45.0931 44.7553 45.1517C44.6141 45.2102 44.4629 45.2403 44.3101 45.2403C44.1573 45.2403 44.006 45.2102 43.8648 45.1517C43.7237 45.0931 43.5955 45.0073 43.4876 44.8992L40.1159 41.5275L36.7442 44.8992C36.5261 45.1173 36.2302 45.2398 35.9217 45.2398C35.6132 45.2398 35.3174 45.1173 35.0992 44.8992C34.8811 44.681 34.7585 44.3852 34.7585 44.0767C34.7585 43.9239 34.7886 43.7726 34.8471 43.6315C34.9055 43.4904 34.9912 43.3622 35.0992 43.2542L38.4709 39.8825L35.0992 36.5108C34.8811 36.2927 34.7585 35.9968 34.7585 35.6883C34.7585 35.3798 34.8811 35.084 35.0992 34.8658C35.3174 34.6477 35.6132 34.5251 35.9217 34.5251C36.2302 34.5251 36.5261 34.6477 36.7442 34.8658L40.1159 38.2375L43.4876 34.8658C43.5956 34.7578 43.7238 34.6721 43.8649 34.6137C44.006 34.5552 44.1573 34.5251 44.3101 34.5251C44.4628 34.5251 44.6141 34.5552 44.7552 34.6137C44.8963 34.6721 45.0245 34.7578 45.1326 34.8658C45.2406 34.9738 45.3262 35.1021 45.3847 35.2432C45.4432 35.3843 45.4732 35.5356 45.4732 35.6883C45.4732 35.8411 45.4432 35.9923 45.3847 36.1335C45.3262 36.2746 45.2406 36.4028 45.1326 36.5108L41.7609 39.8825L45.1326 43.2542C45.5759 43.6975 45.5759 44.4442 45.1326 44.8992Z" fill="white"/>
</g>
<defs>
<filter id="filter0_d_12290_15549" x="0.234375" y="0" width="79.7656" height="79.7646" filterUnits="userSpaceOnUse" color-interpolation-filters="sRGB">
<feFlood flood-opacity="0" result="BackgroundImageFix"/>
<feColorMatrix in="SourceAlpha" type="matrix" values="0 0 0 0 0 0 0 0 0 0 0 0 0 0 0 0 0 0 127 0" result="hardAlpha"/>
<feOffset/>
<feGaussianBlur stdDeviation="5"/>
<feComposite in2="hardAlpha" operator="out"/>
<feColorMatrix type="matrix" values="0 0 0 0 0 0 0 0 0 0 0 0 0 0 0 0 0 0 0.08 0"/>
<feBlend mode="normal" in2="BackgroundImageFix" result="effect1_dropShadow_12290_15549"/>
<feBlend mode="normal" in="SourceGraphic" in2="effect1_dropShadow_12290_15549" result="shape"/>
</filter>
</defs>
</svg>
