<svg width="20" height="20" viewBox="0 0 20 20" fill="none" xmlns="http://www.w3.org/2000/svg">
<g id="fi-sr-document" clip-path="url(#clip0_4693_15568)">
<path id="Vector" d="M11.668 5.83333V0.383333C12.4388 0.674446 13.139 1.12609 13.7221 1.70833L16.6255 4.61333C17.2084 5.19573 17.6604 5.89575 17.9513 6.66667H12.5013C12.2803 6.66667 12.0683 6.57887 11.912 6.42259C11.7558 6.26631 11.668 6.05435 11.668 5.83333ZM18.3346 8.7375V15.8333C18.3333 16.938 17.8939 17.997 17.1128 18.7782C16.3317 19.5593 15.2726 19.9987 14.168 20H5.83464C4.72997 19.9987 3.67093 19.5593 2.88982 18.7782C2.1087 17.997 1.66929 16.938 1.66797 15.8333V4.16667C1.66929 3.062 2.1087 2.00296 2.88982 1.22185C3.67093 0.440735 4.72997 0.00132321 5.83464 0L9.59714 0C9.73297 0 9.86714 0.0108333 10.0013 0.02V5.83333C10.0013 6.49637 10.2647 7.13226 10.7335 7.6011C11.2024 8.06994 11.8383 8.33333 12.5013 8.33333H18.3146C18.3238 8.4675 18.3346 8.60167 18.3346 8.7375ZM11.668 15.8333C11.668 15.6123 11.5802 15.4004 11.4239 15.2441C11.2676 15.0878 11.0556 15 10.8346 15H6.66797C6.44695 15 6.23499 15.0878 6.07871 15.2441C5.92243 15.4004 5.83464 15.6123 5.83464 15.8333C5.83464 16.0543 5.92243 16.2663 6.07871 16.4226C6.23499 16.5789 6.44695 16.6667 6.66797 16.6667H10.8346C11.0556 16.6667 11.2676 16.5789 11.4239 16.4226C11.5802 16.2663 11.668 16.0543 11.668 15.8333ZM14.168 12.5C14.168 12.279 14.0802 12.067 13.9239 11.9107C13.7676 11.7545 13.5556 11.6667 13.3346 11.6667H6.66797C6.44695 11.6667 6.23499 11.7545 6.07871 11.9107C5.92243 12.067 5.83464 12.279 5.83464 12.5C5.83464 12.721 5.92243 12.933 6.07871 13.0893C6.23499 13.2455 6.44695 13.3333 6.66797 13.3333H13.3346C13.5556 13.3333 13.7676 13.2455 13.9239 13.0893C14.0802 12.933 14.168 12.721 14.168 12.5Z" fill="#919191"/>
</g>
<defs>
<clipPath id="clip0_4693_15568">
<rect width="20" height="20" fill="white"/>
</clipPath>
</defs>
</svg>
