<svg width="34" height="13" viewBox="0 0 34 13" fill="none" xmlns="http://www.w3.org/2000/svg">
<path d="M1.22317 10.8757V2.74272C1.22313 2.61726 1.26169 2.49484 1.33363 2.39205C1.40556 2.28927 1.50738 2.21111 1.62527 2.16819L7.5386 0.0182868C7.5848 0.00155226 7.63436 -0.00380657 7.68307 0.00266363C7.73179 0.00913383 7.77823 0.0272427 7.81847 0.0554581C7.8587 0.0836736 7.89155 0.121165 7.91423 0.164762C7.93691 0.208358 7.94876 0.256776 7.94877 0.305919V3.33413L11.8135 4.62113C11.9353 4.66168 12.0413 4.73957 12.1164 4.84375C12.1914 4.94793 12.2318 5.07312 12.2317 5.20153V10.8757H13.4549V12.0966H0V10.8757H1.22317ZM2.44634 10.8757H6.72633V1.61494L2.44561 3.17123L2.44634 10.8757ZM11.0071 10.8757V5.63958L7.94877 4.62333V10.8757H11.0071Z" fill="#4545FE"/>
<path d="M11.4966 10.8757V2.74272C11.4966 2.61726 11.5351 2.49484 11.6071 2.39205C11.679 2.28927 11.7808 2.21111 11.8987 2.16819L17.812 0.0182868C17.8582 0.00155226 17.9078 -0.00380657 17.9565 0.00266363C18.0052 0.00913383 18.0517 0.0272427 18.0919 0.0554581C18.1321 0.0836736 18.165 0.121165 18.1877 0.164762C18.2103 0.208358 18.2222 0.256776 18.2222 0.305919V3.33413L22.0869 4.62113C22.2087 4.66168 22.3147 4.73957 22.3898 4.84375C22.4649 4.94793 22.5052 5.07312 22.5051 5.20153V10.8757H23.7283V12.0966H10.2734V10.8757H11.4966ZM12.7198 10.8757H16.9998V1.61494L12.719 3.17123L12.7198 10.8757ZM21.2805 10.8757V5.63958L18.2222 4.62333V10.8757H21.2805Z" fill="#4545FE"/>
<path d="M21.7681 10.8757V2.74272C21.7681 2.61726 21.8066 2.49484 21.8785 2.39205C21.9505 2.28927 22.0523 2.21111 22.1702 2.16819L28.0835 0.0182868C28.1297 0.00155226 28.1793 -0.00380657 28.228 0.00266363C28.2767 0.00913383 28.3232 0.0272427 28.3634 0.0554581C28.4036 0.0836736 28.4365 0.121165 28.4592 0.164762C28.4818 0.208358 28.4937 0.256776 28.4937 0.305919V3.33413L32.3584 4.62113C32.4802 4.66168 32.5862 4.73957 32.6613 4.84375C32.7364 4.94793 32.7767 5.07312 32.7766 5.20153V10.8757H33.9998V12.0966H20.5449V10.8757H21.7681ZM22.9913 10.8757H27.2713V1.61494L22.9905 3.17123L22.9913 10.8757ZM31.552 10.8757V5.63958L28.4937 4.62333V10.8757H31.552Z" fill="#4545FE"/>
</svg>
