<svg width="18" height="18" viewBox="0 0 18 18" fill="none" xmlns="http://www.w3.org/2000/svg">
<g id="arrow-right">
<g id="vuesax/outline/arrow-right">
<g id="arrow-right_2">
<path id="Vector" d="M7.12096 15.6339C6.98596 15.6339 6.85096 15.5842 6.74438 15.4776C6.53833 15.2716 6.53833 14.9305 6.74438 14.7245L11.377 10.0918C11.7181 9.75078 11.7181 9.19657 11.377 8.85551L6.74438 4.22288C6.53833 4.01683 6.53833 3.67578 6.74438 3.46973C6.95044 3.26367 7.29149 3.26367 7.49754 3.46973L12.1302 8.10236C12.4925 8.46472 12.6986 8.95499 12.6986 9.47367C12.6986 9.99236 12.4996 10.4826 12.1302 10.845L7.49754 15.4776C7.39096 15.5771 7.25596 15.6339 7.12096 15.6339Z" fill="#292D32"/>
</g>
</g>
</g>
</svg>
