<svg width="48" height="48" viewBox="0 0 48 48" fill="none" xmlns="http://www.w3.org/2000/svg">
<circle cx="24" cy="24" r="24" fill="#E4EFFF"/>
<g clip-path="url(#clip0_1765_4037)">
<path d="M33.1506 27.4622L32.0013 26.3128V33.7777C31.996 34.9404 30.228 34.9395 30.2235 33.7777V26.3128L29.0742 27.4622C28.7266 27.8097 28.1649 27.8097 27.8173 27.4622C27.4698 27.1155 27.4698 26.5528 27.8173 26.2053L29.2511 24.7706C30.276 23.7457 31.9453 23.7439 32.9729 24.7706L34.4075 26.2053C35.2262 27.0302 33.9755 28.2808 33.1506 27.4622Z" fill="#5451FF"/>
<path d="M28.4447 13.3333H19.5558C17.1016 13.3333 15.1113 15.3235 15.1113 17.7778V31.1111C15.1113 33.0746 16.7033 34.6666 18.6669 34.6666H27.5558C28.7184 34.6613 28.7176 32.8933 27.5558 32.8889H18.6669C17.5887 32.8889 16.7309 31.9235 16.914 30.8106C17.058 29.936 17.8811 29.3333 18.7673 29.3333H25.7789C26.9416 29.328 26.9407 27.56 25.7789 27.5555H20.4456V15.1111H28.4456C29.9184 15.1111 31.1122 16.3049 31.1122 17.7778V21.3333C31.1176 22.496 32.8847 22.4951 32.89 21.3333V17.7778C32.89 15.3235 30.8998 13.3333 28.4456 13.3333H28.4447ZM18.6669 27.5555C18.0162 27.5555 17.4144 27.744 16.8891 28.0498V17.7778C16.8891 16.6204 17.6349 15.6426 18.6669 15.2746V27.5555Z" fill="#5451FF"/>
</g>
<defs>
<clipPath id="clip0_1765_4037">
<rect width="21.3333" height="21.3333" fill="white" transform="translate(13.334 13.3333)"/>
</clipPath>
</defs>
</svg>
