<svg width="20" height="20" viewBox="0 0 20 20" fill="none" xmlns="http://www.w3.org/2000/svg">
<g id="Upload 2">
<path id="Vector" opacity="0.4" d="M5.54129 17.7537C3.57656 17.7537 1.97656 16.1263 1.97656 14.1268V10.15C1.97656 8.15466 3.57175 6.53125 5.53328 6.53125H14.4439C16.4094 6.53125 18.0086 8.15867 18.0086 10.159V14.1341C18.0086 16.1303 16.4134 17.7537 14.4519 17.7537H13.6984H5.54129Z" fill="#fff"/>
<path id="Vector_2" d="M9.55499 1.89987L7.22313 4.18107C6.98265 4.41684 6.98265 4.79625 7.22473 5.03124C7.46682 5.26545 7.8572 5.26467 8.09768 5.02969L9.37463 3.77979V4.97816V11.7038C9.37463 12.0357 9.65119 12.305 9.99187 12.305C10.3333 12.305 10.6091 12.0357 10.6091 11.7038V3.77979L11.8861 5.02969C12.1265 5.26467 12.5169 5.26545 12.759 5.03124C12.88 4.91336 12.941 4.75956 12.941 4.60498C12.941 4.45197 12.88 4.29817 12.7606 4.18107L10.4295 1.89987C10.3133 1.78667 10.1562 1.72266 9.99187 1.72266C9.82834 1.72266 9.67123 1.78667 9.55499 1.89987Z" fill="#fff"/>
</g>
</svg>
