<svg xmlns="http://www.w3.org/2000/svg" width="20" height="20" viewBox="0 0 20 20" fill="none">
<path opacity="0.4" d="M5.44427 18.3666C3.46627 18.3666 1.85547 16.7282 1.85547 14.7152V10.7115C1.85547 8.70273 3.46143 7.06836 5.43619 7.06836H14.407C16.3858 7.06836 17.9958 8.70676 17.9958 10.7206V14.7226C17.9958 16.7322 16.3898 18.3666 14.415 18.3666H13.6565H5.44427Z" fill="#AD857E"/>
<path d="M9.48797 2.40498L7.14036 4.70157C6.89826 4.93893 6.89826 5.32091 7.14198 5.55749C7.38569 5.79328 7.77871 5.79249 8.02081 5.55592L9.30639 4.29758V5.50405V12.2751C9.30639 12.6092 9.58481 12.8804 9.92779 12.8804C10.2716 12.8804 10.5492 12.6092 10.5492 12.2751V4.29758L11.8348 5.55592C12.0769 5.79249 12.4699 5.79328 12.7136 5.55749C12.8355 5.43881 12.8968 5.28397 12.8968 5.12835C12.8968 4.9743 12.8355 4.81946 12.7152 4.70157L10.3684 2.40498C10.2514 2.29101 10.0932 2.22656 9.92779 2.22656C9.76316 2.22656 9.60499 2.29101 9.48797 2.40498Z" fill="#AD857E"/>
</svg>