<svg xmlns="http://www.w3.org/2000/svg" width="38" height="41" viewBox="0 0 38 41" fill="none">
  <path d="M13.2875 38.0642V31.9305C13.2874 30.3762 14.5513 29.1134 16.1169 29.1036H21.8652C23.4377 29.1036 24.7125 30.3693 24.7125 31.9305V38.0464C24.7125 39.3946 25.808 40.4902 27.1659 40.4999H31.0877C32.9193 40.5047 34.6775 39.7856 35.9743 38.5014C37.2712 37.2172 38 35.4735 38 33.655V16.2317C38 14.7628 37.3441 13.3694 36.2092 12.427L22.886 1.84854C20.557 -0.001755 17.2307 0.0580164 14.9708 1.99077L1.93402 12.427C0.745481 13.3416 0.0351046 14.7391 0 16.2317V33.6373C0 37.4274 3.09476 40.4999 6.91235 40.4999H10.7446C11.3983 40.5047 12.027 40.2501 12.4909 39.7928C12.9549 39.3355 13.2159 38.7133 13.2158 38.0642H13.2875Z" fill="#DAB91F"/>
</svg>