<svg width="41" height="34" viewBox="0 0 41 34" fill="none" xmlns="http://www.w3.org/2000/svg">
<path fill-rule="evenodd" clip-rule="evenodd" d="M37.6642 3.08657C38.3042 3.83473 38.7986 4.69535 39.1224 5.62437C39.7596 7.53373 40.0546 9.54023 39.9938 11.5519V22.0579C39.9912 22.9429 39.926 23.8265 39.7982 24.7023C39.555 26.2477 39.0114 27.7307 38.1978 29.0679C37.8238 29.7139 37.3698 30.3101 36.8462 30.8425C34.4766 33.0175 31.33 34.1495 28.1148 33.9837H11.8612C8.641 34.1483 5.48924 33.0167 3.11202 30.8425C2.59482 30.3091 2.14674 29.7129 1.7783 29.0679C0.969502 27.7317 0.437382 26.2471 0.213402 24.7023C0.0709817 23.8279 -0.000378187 22.9437 1.81305e-06 22.0579V11.5519C-0.000338187 10.6745 0.0471419 9.79755 0.142282 8.92527C0.162282 8.77223 0.192282 8.62167 0.221962 8.47269C0.271462 8.22431 0.320102 7.98027 0.320102 7.73623C0.500622 6.68357 0.829922 5.66183 1.29816 4.70153C2.68524 1.73781 5.5305 0.229354 10.1896 0.229354H29.7508C32.3604 0.0275142 34.9506 0.813114 37.0064 2.42995C37.243 2.63069 37.4632 2.85029 37.6642 3.08657ZM9.94068 21.0819H30.071H30.1066C30.5482 21.1011 30.9792 20.9429 31.3034 20.6429C31.6274 20.3427 31.8176 19.9257 31.8314 19.4847C31.8564 19.0971 31.7288 18.7149 31.4758 18.4199C31.1848 18.0233 30.7236 17.7865 30.231 17.7809H9.94068C9.0273 17.7809 8.28686 18.5199 8.28686 19.4315C8.28686 20.3429 9.0273 21.0819 9.94068 21.0819Z" fill="#CBCBCB"/>
</svg>
