<svg width="21" height="16" viewBox="0 0 21 16" fill="none" xmlns="http://www.w3.org/2000/svg">
<g id="Video">
<g id="Group 3">
<mask id="mask0_11459_1013" style="mask-type:luminance" maskUnits="userSpaceOnUse" x="0" y="0" width="16" height="16">
<path id="Clip 2" fill-rule="evenodd" clip-rule="evenodd" d="M0 0.000244141H15.5003V15.5016H0V0.000244141Z" fill="white"/>
</mask>
<g mask="url(#mask0_11459_1013)">
<path id="Fill 1" fill-rule="evenodd" clip-rule="evenodd" d="M4.84711 1.50159C4.40811 1.50159 4.12511 1.50159 4.07611 1.50359C3.33811 1.53459 2.65711 1.84759 2.16611 2.38359C1.70811 2.88459 1.47211 3.52459 1.50311 4.18859C1.50311 7.08159 1.50411 11.4236 1.51111 11.6616C1.62511 13.0466 2.92311 14.1056 4.40911 13.9916C7.15911 13.9956 11.2331 14.0046 11.4241 13.9976C12.1591 13.9676 12.8411 13.6556 13.3321 13.1206C13.7911 12.6216 14.0271 11.9816 13.9981 11.3206C13.9971 11.3096 13.9971 11.2986 13.9971 11.2876C13.9981 8.42759 13.9981 4.08859 13.9911 3.85559C13.8781 2.46359 12.5741 1.39159 11.0801 1.50859C9.01411 1.50559 6.19511 1.50159 4.84711 1.50159ZM4.14611 15.5016C2.03211 15.5026 0.188107 13.8826 0.014107 11.7576C0.011107 11.7166 0.00110701 11.5916 0.00410701 4.22259C-0.043893 3.19159 0.330107 2.16759 1.06011 1.37059C1.82211 0.53859 2.87311 0.0535903 4.02011 0.00459027C4.15911 -0.00540973 8.96711 0.00659027 11.0261 0.0105903C13.2761 -0.14741 15.3071 1.52259 15.4881 3.76359C15.4961 3.87259 15.4991 6.39759 15.4971 11.2726C15.5391 12.3286 15.1631 13.3456 14.4371 14.1356C13.6741 14.9666 12.6221 15.4496 11.4761 15.4966C11.3361 15.5066 6.52611 15.4936 4.46411 15.4896C4.35811 15.4976 4.25211 15.5016 4.14611 15.5016Z" fill="black"/>
</g>
</g>
<path id="Fill 4" fill-rule="evenodd" clip-rule="evenodd" d="M18.8179 13.3493C18.3669 13.3493 17.9219 13.1943 17.5549 12.8933L14.2739 10.1973C13.9539 9.93431 13.9079 9.46131 14.1709 9.14131C14.4329 8.82231 14.9059 8.77431 15.2259 9.03831L18.5059 11.7343C18.7269 11.9143 18.9489 11.8403 19.0349 11.7983C19.1209 11.7583 19.3199 11.6333 19.3199 11.3493L19.3319 4.00031C19.3329 3.71631 19.1329 3.59131 19.0469 3.55031C18.9619 3.51031 18.7369 3.43531 18.5179 3.61531L15.2249 6.31031C14.9029 6.57331 14.4319 6.52631 14.1699 6.20431C13.9069 5.88431 13.9549 5.41231 14.2749 5.15031L17.5679 2.45431C18.1719 1.95931 18.9849 1.86231 19.6899 2.19531C20.3949 2.53031 20.8329 3.22231 20.8319 4.00231L20.8199 11.3513C20.8189 12.1313 20.3799 12.8233 19.6759 13.1553C19.3999 13.2863 19.1079 13.3493 18.8179 13.3493Z" fill="black"/>
</g>
</svg>
