<svg width="30" height="30" viewBox="0 0 30 30" fill="none" xmlns="http://www.w3.org/2000/svg">
<circle opacity="0.12" cx="15" cy="15" r="15" fill="#DDB057"/>
<path d="M23.3329 15.5167V17.2333C23.3329 17.7 22.9495 18.0833 22.4745 18.0833H20.8662C19.9662 18.0833 19.1412 17.425 19.0662 16.525C19.0162 16 19.2162 15.5083 19.5662 15.1667C19.8745 14.85 20.2995 14.6667 20.7662 14.6667H22.4745C22.9495 14.6667 23.3329 15.05 23.3329 15.5167Z" fill="#DDB057"/>
<path d="M17.818 16.6333C17.743 15.7583 18.0596 14.9 18.693 14.275C19.2263 13.7333 19.968 13.4167 20.768 13.4167H21.243C21.4763 13.4167 21.668 13.225 21.6346 12.9917C21.4096 11.375 20.0096 10.125 18.3346 10.125H10.0013C8.15964 10.125 6.66797 11.6167 6.66797 13.4583V19.2917C6.66797 21.1333 8.15964 22.625 10.0013 22.625H18.3346C20.018 22.625 21.4096 21.375 21.6346 19.7583C21.668 19.525 21.4763 19.3333 21.243 19.3333H20.868C19.2846 19.3333 17.9513 18.15 17.818 16.6333ZM15.8346 14.9167H10.8346C10.493 14.9167 10.2096 14.6417 10.2096 14.2917C10.2096 13.9417 10.493 13.6667 10.8346 13.6667H15.8346C16.1763 13.6667 16.4596 13.95 16.4596 14.2917C16.4596 14.6333 16.1763 14.9167 15.8346 14.9167Z" fill="#DDB057"/>
<path d="M16.8429 8.31667C17.0595 8.54167 16.8679 8.875 16.5512 8.875H10.0262C9.11785 8.875 8.26785 9.14167 7.55952 9.6C7.23452 9.80833 6.79285 9.58333 6.95118 9.225C7.41785 8.13333 8.50952 7.375 9.76785 7.375H14.4512C15.4179 7.375 16.2762 7.71667 16.8429 8.31667Z" fill="#DDB057"/>
</svg>
