<svg width="81" height="80" viewBox="0 0 81 80" fill="none" xmlns="http://www.w3.org/2000/svg">
<g id="vuesax/bold/wallet-3">
<g id="wallet-3">
<path id="Vector" d="M74.0854 42.068V48.9346C74.0854 50.8013 72.552 52.3346 70.652 52.3346H64.2187C60.6187 52.3346 57.3187 49.7013 57.0187 46.1013C56.8187 44.0013 57.6187 42.0346 59.0187 40.668C60.252 39.4013 61.952 38.668 63.8187 38.668H70.652C72.552 38.668 74.0854 40.2013 74.0854 42.068Z" fill="white"/>
<path id="Vector_2" d="M52.0258 46.5333C51.7258 43.0333 52.9924 39.6 55.5258 37.1C57.6591 34.9333 60.6258 33.6667 63.8258 33.6667H65.7258C66.6591 33.6667 67.4258 32.9 67.2924 31.9667C66.3924 25.5 60.7924 20.5 54.0924 20.5H20.7591C13.3924 20.5 7.42578 26.4667 7.42578 33.8333V57.1667C7.42578 64.5333 13.3924 70.5 20.7591 70.5H54.0924C60.8258 70.5 66.3924 65.5 67.2924 59.0333C67.4258 58.1 66.6591 57.3333 65.7258 57.3333H64.2258C57.8924 57.3333 52.5591 52.6 52.0258 46.5333ZM44.0924 39.6667H24.0924C22.7258 39.6667 21.5924 38.5667 21.5924 37.1667C21.5924 35.7667 22.7258 34.6667 24.0924 34.6667H44.0924C45.4591 34.6667 46.5924 35.8 46.5924 37.1667C46.5924 38.5333 45.4591 39.6667 44.0924 39.6667Z" fill="white"/>
<path id="Vector_3" d="M48.1253 13.2667C48.992 14.1667 48.2253 15.5 46.9586 15.5H20.8586C17.2253 15.5 13.8253 16.5667 10.992 18.4C9.69198 19.2333 7.92531 18.3333 8.55864 16.9C10.4253 12.5333 14.792 9.5 19.8253 9.5H38.5586C42.4253 9.5 45.8586 10.8667 48.1253 13.2667Z" fill="white"/>
</g>
</g>
</svg>
