<svg width="68" height="68" viewBox="0 0 68 68" fill="none" xmlns="http://www.w3.org/2000/svg">
<path d="M36.5047 7.17405C35.5244 5.32105 32.4757 5.32105 31.4954 7.17405L5.99538 55.3407C5.76583 55.7724 5.65203 56.2562 5.66507 56.745C5.6781 57.2338 5.81753 57.7109 6.06976 58.1297C6.322 58.5486 6.67843 58.895 7.10434 59.1351C7.53025 59.3753 8.0111 59.501 8.50005 59.5H59.5C59.9887 59.5011 60.4692 59.3754 60.8948 59.1354C61.3204 58.8954 61.6766 58.5492 61.9286 58.1306C62.1805 57.712 62.3197 57.2352 62.3326 56.7467C62.3454 56.2583 62.2315 55.7749 62.0019 55.3436L36.5047 7.17405ZM36.8334 51H31.1667V45.3334H36.8334V51ZM31.1667 39.6667V25.5001H36.8334L36.8362 39.6667H31.1667Z" fill="#FF6A6A" fill-opacity="0.8"/>
</svg>
