<svg xmlns="http://www.w3.org/2000/svg" width="16" height="17" viewBox="0 0 16 17" fill="none">
  <g clip-path="url(#clip0_16265_4412)">
    <path d="M1.8988 16.3392C2.26283 16.4947 2.6653 16.537 3.0537 16.4604C3.4421 16.3838 3.79841 16.1919 4.07613 15.9098L7.99946 12.0078L11.9228 15.9098C12.1057 16.0954 12.3237 16.2429 12.564 16.3437C12.8043 16.4445 13.0622 16.4967 13.3228 16.4972C13.5907 16.4964 13.8557 16.4427 14.1028 16.3392C14.4698 16.1906 14.7835 15.9349 15.0029 15.6053C15.2224 15.2758 15.3373 14.8877 15.3328 14.4918V3.97249C15.3317 3.08876 14.9802 2.24153 14.3553 1.61664C13.7304 0.991748 12.8832 0.640219 11.9995 0.63916L3.99946 0.63916C3.11573 0.640219 2.2685 0.991748 1.64361 1.61664C1.01872 2.24153 0.66719 3.08876 0.666132 3.97249V14.4918C0.66183 14.888 0.777183 15.2763 0.997107 15.6059C1.21703 15.9355 1.53129 16.1911 1.8988 16.3392Z" fill="#E6192A"/>
  </g>
  <defs>
    <clipPath id="clip0_16265_4412">
      <rect width="16" height="16" fill="white" transform="translate(0 0.63916)"/>
    </clipPath>
  </defs>
</svg>