<svg xmlns="http://www.w3.org/2000/svg" width="16" height="17" viewBox="0 0 16 17" fill="none">
  <g clip-path="url(#clip0_16265_4409)">
    <path d="M1.99704 16.2897L1.99707 16.2896L1.99225 16.2877C1.67141 16.1584 1.39706 15.9353 1.20506 15.6476C1.01307 15.3598 0.912361 15.0209 0.916117 14.675H0.916132V14.6722V4.15307C0.91715 3.33559 1.24234 2.55188 1.82039 1.97384C2.39844 1.39579 3.18214 1.0706 3.99962 1.06958H11.9993C12.8168 1.0706 13.6005 1.39579 14.1785 1.97384C14.7566 2.55192 15.0818 3.33568 15.0828 4.15321V14.6722H15.0828L15.0828 14.6751C15.0868 15.0207 14.9864 15.3595 14.7948 15.6472C14.6033 15.9349 14.3294 16.1582 14.009 16.2878L14.009 16.2878L14.0062 16.289C13.7897 16.3797 13.5574 16.4268 13.3227 16.4276C13.0954 16.4271 12.8703 16.3816 12.6607 16.2936C12.4509 16.2056 12.2606 16.0768 12.1009 15.9148L12.0991 15.913L8.17576 12.011L7.99946 11.8357L7.82317 12.011L3.89984 15.913L3.89983 15.913L3.89797 15.9149C3.6555 16.1612 3.34443 16.3287 3.00534 16.3955C2.66624 16.4624 2.31486 16.4255 1.99704 16.2897Z" fill="#E6192A" fill-opacity="0.1" stroke="#E6192A" stroke-width="0.5"/>
  </g>
  <defs>
    <clipPath id="clip0_16265_4409">
      <rect width="16" height="16" fill="white" transform="translate(0 0.81958)"/>
    </clipPath>
  </defs>
</svg>