<svg width="50" height="50" viewBox="0 0 50 50" fill="none" xmlns="http://www.w3.org/2000/svg">
<circle cx="25" cy="25" r="24.5" fill="#D92E33" fill-opacity="0.1" stroke="#D92E33"/>
<path opacity="0.4" d="M19.447 35C16.996 35 15 32.9698 15 30.4755V25.5144C15 23.0252 16.99 21 19.437 21H30.553C33.005 21 35 23.0302 35 25.5256V30.4846C35 32.9748 33.01 35 30.563 35H29.623H19.447Z" fill="#E67B7E"/>
<path d="M24.4541 15.221L21.5451 18.0668C21.2451 18.3609 21.2451 18.8343 21.5471 19.1274C21.8491 19.4196 22.3361 19.4186 22.6361 19.1255L24.2291 17.5662V19.0612V27.4515C24.2291 27.8654 24.5741 28.2014 24.9991 28.2014C25.4251 28.2014 25.7691 27.8654 25.7691 27.4515V17.5662L27.3621 19.1255C27.6621 19.4186 28.1491 19.4196 28.4511 19.1274C28.6021 18.9804 28.6781 18.7885 28.6781 18.5957C28.6781 18.4048 28.6021 18.2129 28.4531 18.0668L25.5451 15.221C25.4001 15.0798 25.2041 15 24.9991 15C24.7951 15 24.5991 15.0798 24.4541 15.221Z" fill="#E67B7E"/>
</svg>
