<svg xmlns="http://www.w3.org/2000/svg" width="20" height="20" viewBox="0 0 20 20" fill="none">
  <path d="M12.2243 16.5927L10.7812 18.0188V10.7812C10.7812 10.3498 10.4315 10 9.99999 10C9.56851 10 9.21874 10.3498 9.21874 10.7812V17.9415L7.85382 16.5927C7.54691 16.2895 7.05226 16.2924 6.74898 16.5993C6.4457 16.9062 6.44867 17.4009 6.75554 17.7041L8.38011 19.3095C8.82335 19.7548 9.4123 20 10.0391 20C10.6658 20 11.2548 19.7548 11.698 19.3095L13.3226 17.7041C13.6294 17.4009 13.6324 16.9062 13.3291 16.5993C13.0258 16.2924 12.5312 16.2894 12.2243 16.5927Z" fill="#FBFCFC"/>
  <path d="M19.2188 10.7812C18.7873 10.7812 18.4375 11.131 18.4375 11.5625C18.4375 12.4241 17.7366 13.125 16.875 13.125H13.125C12.6935 13.125 12.3438 13.4748 12.3438 13.9062C12.3438 14.3377 12.6935 14.6875 13.125 14.6875H16.875C18.5981 14.6875 20 13.2856 20 11.5625C20 11.131 19.6502 10.7812 19.2188 10.7812Z" fill="#FBFCFC"/>
  <path d="M12.1552 9.91453C12.286 9.99879 12.4325 10.0391 12.5774 10.039C12.8341 10.039 13.0856 9.91258 13.235 9.68066C13.6997 8.95902 13.9453 8.1357 13.9453 7.29981C13.9453 4.97359 12.1754 3.08105 10 3.08105C7.82457 3.08105 6.05469 4.97359 6.05469 7.29981C6.05469 8.19457 6.28117 8.9966 6.72785 9.68355C6.96305 10.0453 7.44699 10.1479 7.80867 9.91266C8.17039 9.67746 8.27297 9.19355 8.03777 8.83184C7.75871 8.40258 7.61719 7.88719 7.61719 7.29981C7.61719 5.83516 8.68609 4.64355 10 4.64355C11.3139 4.64355 12.3828 5.83516 12.3828 7.29981C12.3828 7.83504 12.2232 8.36582 11.9213 8.83469C11.6877 9.1975 11.7924 9.68094 12.1552 9.91453Z" fill="#FBFCFC"/>
  <path d="M16.2109 8.08594C16.6424 8.08594 16.9922 7.73616 16.9922 7.30469C16.9922 6.87322 16.6424 6.52344 16.2109 6.52344C15.7795 6.52344 15.4297 6.87322 15.4297 7.30469C15.4297 7.73616 15.7795 8.08594 16.2109 8.08594Z" fill="#FBFCFC"/>
  <path d="M3.78906 8.08594C4.22053 8.08594 4.57031 7.73616 4.57031 7.30469C4.57031 6.87322 4.22053 6.52344 3.78906 6.52344C3.35759 6.52344 3.00781 6.87322 3.00781 7.30469C3.00781 7.73616 3.35759 8.08594 3.78906 8.08594Z" fill="#FBFCFC"/>
  <path d="M16.875 0H3.125C1.40188 0 0 1.40188 0 3.125V11.5625C0 13.2856 1.40188 14.6875 3.125 14.6875H6.875C7.30648 14.6875 7.65625 14.3377 7.65625 13.9062C7.65625 13.4748 7.30648 13.125 6.875 13.125H3.125C2.26344 13.125 1.5625 12.4241 1.5625 11.5625V3.125C1.5625 2.26344 2.26344 1.5625 3.125 1.5625H16.875C17.7366 1.5625 18.4375 2.26344 18.4375 3.125V7.65625C18.4375 8.08773 18.7873 8.4375 19.2188 8.4375C19.6502 8.4375 20 8.08773 20 7.65625V3.125C20 1.40188 18.5981 0 16.875 0Z" fill="#FBFCFC"/>
</svg>