<svg width="20" height="20" viewBox="0 0 20 20" fill="none" xmlns="http://www.w3.org/2000/svg">
<g clip-path="url(#clip0_10571_53903)">
<path d="M9.17316 2.14845L9.16732 15.0134C9.16732 15.2345 9.25512 15.4464 9.4114 15.6027C9.56768 15.759 9.77964 15.8468 10.0007 15.8468C10.2217 15.8468 10.4336 15.759 10.5899 15.6027C10.7462 15.4464 10.834 15.2345 10.834 15.0134L10.8398 2.16262L13.2665 4.59012C13.4228 4.74634 13.6347 4.83411 13.8557 4.83411C14.0766 4.83411 14.2885 4.74634 14.4448 4.59012C14.601 4.43384 14.6888 4.22192 14.6888 4.00095C14.6888 3.77998 14.601 3.56806 14.4448 3.41178L11.769 0.732616C11.5368 0.5003 11.2612 0.316008 10.9577 0.190271C10.6543 0.0645344 10.3291 -0.000183105 10.0007 -0.000183105C9.67222 -0.000183105 9.34699 0.0645344 9.04358 0.190271C8.74016 0.316008 8.46449 0.5003 8.23232 0.732616L5.55649 3.40928C5.40026 3.56556 5.3125 3.77748 5.3125 3.99845C5.3125 4.21942 5.40026 4.43134 5.55649 4.58762C5.71276 4.74384 5.92469 4.8316 6.14566 4.8316C6.36663 4.8316 6.57855 4.74384 6.73482 4.58762L9.17316 2.14845Z" fill="#4545FE"/>
<path d="M18.3333 14.1662V17.4995C18.3333 17.7205 18.2455 17.9325 18.0893 18.0887C17.933 18.245 17.721 18.3328 17.5 18.3328H2.5C2.27899 18.3328 2.06702 18.245 1.91074 18.0887C1.75446 17.9325 1.66667 17.7205 1.66667 17.4995V14.1662C1.66667 13.9451 1.57887 13.7332 1.42259 13.5769C1.26631 13.4206 1.05435 13.3328 0.833333 13.3328C0.61232 13.3328 0.400358 13.4206 0.244078 13.5769C0.0877974 13.7332 0 13.9451 0 14.1662L0 17.4995C0 18.1625 0.263392 18.7984 0.732233 19.2672C1.20107 19.7361 1.83696 19.9995 2.5 19.9995H17.5C18.163 19.9995 18.7989 19.7361 19.2678 19.2672C19.7366 18.7984 20 18.1625 20 17.4995V14.1662C20 13.9451 19.9122 13.7332 19.7559 13.5769C19.5996 13.4206 19.3877 13.3328 19.1667 13.3328C18.9457 13.3328 18.7337 13.4206 18.5774 13.5769C18.4211 13.7332 18.3333 13.9451 18.3333 14.1662Z" fill="#4545FE"/>
</g>
<defs>
<clipPath id="clip0_10571_53903">
<rect width="20" height="20" fill="white"/>
</clipPath>
</defs>
</svg>
