<svg xmlns="http://www.w3.org/2000/svg" width="16" height="16" viewBox="0 0 16 16" fill="none">
<path d="M11.826 15.1665H4.17268C2.51268 15.1665 1.16602 13.8198 1.16602 12.1598V7.67318C1.16602 6.01318 2.51268 4.6665 4.17268 4.6665H11.826C13.486 4.6665 14.8327 6.01318 14.8327 7.67318V8.63318C14.8327 8.90651 14.606 9.13318 14.3327 9.13318H12.986C12.7527 9.13318 12.5393 9.21984 12.386 9.37984L12.3793 9.38652C12.1927 9.56652 12.106 9.81315 12.126 10.0665C12.166 10.5065 12.586 10.8598 13.066 10.8598H14.3327C14.606 10.8598 14.8327 11.0865 14.8327 11.3598V12.1532C14.8327 13.8198 13.486 15.1665 11.826 15.1665ZM4.17268 5.6665C3.06602 5.6665 2.16602 6.56651 2.16602 7.67318V12.1598C2.16602 13.2665 3.06602 14.1665 4.17268 14.1665H11.826C12.9327 14.1665 13.8327 13.2665 13.8327 12.1598V11.8665H13.066C12.0594 11.8665 11.206 11.1198 11.126 10.1598C11.0727 9.61316 11.2727 9.07318 11.6727 8.67985C12.0193 8.32652 12.486 8.13318 12.986 8.13318H13.8327V7.67318C13.8327 6.56651 12.9327 5.6665 11.826 5.6665H4.17268Z" fill="#FFFFFF"/>
<path d="M1.66602 8.7735C1.39268 8.7735 1.16602 8.54683 1.16602 8.2735V5.22687C1.16602 4.23354 1.79268 3.3335 2.71935 2.98017L8.01268 0.980166C8.55935 0.7735 9.16602 0.846865 9.63935 1.1802C10.1193 1.51353 10.3993 2.05353 10.3993 2.63353V5.16685C10.3993 5.44019 10.1727 5.66685 9.89935 5.66685C9.62602 5.66685 9.39935 5.44019 9.39935 5.16685V2.63353C9.39935 2.38019 9.27935 2.14685 9.06602 2.00019C8.85268 1.85352 8.59935 1.82018 8.35935 1.91352L3.06602 3.91352C2.52602 4.12018 2.15935 4.64687 2.15935 5.22687V8.2735C2.16602 8.5535 1.93935 8.7735 1.66602 8.7735Z" fill="#FFFFFF"/>
<path d="M13.0676 11.8666C12.061 11.8666 11.2076 11.12 11.1276 10.16C11.0743 9.60662 11.2743 9.06663 11.6743 8.6733C12.0143 8.32663 12.481 8.1333 12.981 8.1333H14.3676C15.0276 8.1533 15.5343 8.67327 15.5343 9.31327V10.6866C15.5343 11.3266 15.0276 11.8466 14.3876 11.8666H13.0676ZM14.3543 9.1333H12.9876C12.7543 9.1333 12.541 9.21996 12.3876 9.37996C12.1943 9.56663 12.101 9.81995 12.1276 10.0733C12.1676 10.5133 12.5876 10.8666 13.0676 10.8666H14.3743C14.461 10.8666 14.541 10.7866 14.541 10.6866V9.31327C14.541 9.21327 14.461 9.13997 14.3543 9.1333Z" fill="#FFFFFF"/>
<path d="M9.33268 8.5H4.66602C4.39268 8.5 4.16602 8.27333 4.16602 8C4.16602 7.72667 4.39268 7.5 4.66602 7.5H9.33268C9.60602 7.5 9.83268 7.72667 9.83268 8C9.83268 8.27333 9.60602 8.5 9.33268 8.5Z" fill="#FFFFFF"/>
</svg>