<svg xmlns="http://www.w3.org/2000/svg" width="16" height="16" viewBox="0 0 16 16" fill="none">
<path d="M8.78715 12.4668C8.00715 12.4668 7.34715 11.9868 7.10048 11.2468L6.63381 9.86679C6.56048 9.62679 6.37381 9.44678 6.14715 9.37345L4.76048 8.90678C4.01381 8.65345 3.53381 7.98011 3.54715 7.19345C3.56048 6.40678 4.05381 5.74679 4.80715 5.51345L9.82715 3.95345C10.4605 3.76011 11.1471 3.92679 11.6138 4.40012C12.0805 4.87345 12.2471 5.55345 12.0538 6.18678L10.4938 11.2135C10.2605 11.9668 9.60048 12.4601 8.80715 12.4735C8.80048 12.4668 8.79381 12.4668 8.78715 12.4668ZM10.3471 4.86679C10.2671 4.86679 10.1938 4.88012 10.1138 4.90012L5.08715 6.46678C4.68048 6.59345 4.53381 6.92678 4.53381 7.20678C4.52715 7.48012 4.66715 7.82679 5.06715 7.96012L6.45381 8.42012C6.98715 8.59345 7.40715 9.01345 7.58048 9.55345L8.04048 10.9268C8.17381 11.3268 8.48715 11.4534 8.79381 11.4668C9.06715 11.4668 9.40715 11.3201 9.53381 10.9134L11.0938 5.88678C11.1805 5.60678 11.1071 5.31345 10.9005 5.10679C10.7471 4.94679 10.5538 4.86679 10.3471 4.86679Z" fill="#FFFFFF"/>
<path d="M10.0007 15.1668H6.00065C2.38065 15.1668 0.833984 13.6202 0.833984 10.0002V6.00016C0.833984 2.38016 2.38065 0.833496 6.00065 0.833496H10.0007C13.6207 0.833496 15.1673 2.38016 15.1673 6.00016V10.0002C15.1673 13.6202 13.6207 15.1668 10.0007 15.1668ZM6.00065 1.8335C2.92732 1.8335 1.83398 2.92683 1.83398 6.00016V10.0002C1.83398 13.0735 2.92732 14.1668 6.00065 14.1668H10.0007C13.074 14.1668 14.1673 13.0735 14.1673 10.0002V6.00016C14.1673 2.92683 13.074 1.8335 10.0007 1.8335H6.00065Z" fill="#FFFFFF"/>
</svg>