<svg xmlns="http://www.w3.org/2000/svg" width="16" height="16" viewBox="0 0 16 16" fill="none">
<path d="M7.99899 12.9132C6.80566 12.9132 5.61232 12.4599 4.69898 11.5466C2.87898 9.72656 2.87898 6.76654 4.69898 4.94654C6.51898 3.12654 9.479 3.12654 11.299 4.94654C13.119 6.76654 13.119 9.72656 11.299 11.5466C10.3857 12.4599 9.19233 12.9132 7.99899 12.9132ZM7.99899 4.57988C7.05899 4.57988 6.11898 4.93987 5.40565 5.65321C3.97898 7.08654 3.97898 9.40656 5.40565 10.8399C6.83898 12.2732 9.16567 12.2666 10.5923 10.8399C12.019 9.40656 12.019 7.08654 10.5923 5.65321C9.879 4.93987 8.93899 4.57988 7.99899 4.57988Z" fill="#FFFFFF"/>
<path d="M5.49872 14.9268C5.43872 14.9268 5.37206 14.9134 5.31206 14.8934C3.81206 14.2934 2.59872 13.2334 1.78538 11.8334C0.998716 10.4667 0.685385 8.92009 0.892052 7.34675C0.925385 7.07342 1.17872 6.88007 1.45205 6.9134C1.72538 6.94674 1.91871 7.20009 1.88538 7.47342C1.71205 8.82009 1.97873 10.1534 2.65206 11.3267C3.3454 12.5267 4.39205 13.4401 5.67871 13.9534C5.93205 14.0601 6.05872 14.3467 5.95872 14.6067C5.88539 14.8067 5.69205 14.9268 5.49872 14.9268Z" fill="#FFFFFF"/>
<path d="M3.89974 3.48657C3.75307 3.48657 3.60641 3.41992 3.50641 3.29325C3.33308 3.07325 3.37308 2.75993 3.59308 2.59326C4.86641 1.59993 6.3864 1.07324 7.99974 1.07324C9.57307 1.07324 11.0731 1.57992 12.3331 2.53992C12.5531 2.70658 12.5931 3.01991 12.4264 3.23991C12.2597 3.45991 11.9464 3.49992 11.7264 3.33325C10.6464 2.50659 9.35974 2.07324 7.99974 2.07324C6.61307 2.07324 5.29974 2.52659 4.2064 3.37992C4.11307 3.45326 4.00641 3.48657 3.89974 3.48657Z" fill="#FFFFFF"/>
<path d="M10.4998 14.9269C10.2998 14.9269 10.1131 14.8069 10.0331 14.6136C9.93314 14.3602 10.0531 14.0669 10.3131 13.9602C11.5998 13.4402 12.6465 12.5336 13.3398 11.3336C14.0198 10.1602 14.2865 8.82688 14.1065 7.48022C14.0732 7.20688 14.2665 6.95357 14.5398 6.92024C14.8065 6.88691 15.0665 7.08026 15.0998 7.35359C15.2998 8.92026 14.9931 10.4736 14.2065 11.8402C13.3998 13.2402 12.1798 14.2936 10.6798 14.9002C10.6265 14.9136 10.5665 14.9269 10.4998 14.9269Z" fill="#FFFFFF"/>
</svg>