<svg width="58" height="58" viewBox="0 0 58 58" fill="none" xmlns="http://www.w3.org/2000/svg">
<path d="M29 0C23.2644 0 17.6575 1.70082 12.8885 4.88738C8.11944 8.07394 4.40244 12.6031 2.2075 17.9022C0.0125596 23.2012 -0.561737 29.0322 0.557234 34.6576C1.67621 40.2831 4.43819 45.4504 8.49391 49.5061C12.5496 53.5618 17.7169 56.3238 23.3424 57.4428C28.9678 58.5617 34.7988 57.9875 40.0978 55.7925C45.3969 53.5976 49.9261 49.8806 53.1126 45.1115C56.2992 40.3425 58 34.7357 58 29C57.9917 21.3113 54.9337 13.9398 49.4969 8.50309C44.0602 3.06634 36.6887 0.00831595 29 0V0ZM48.8819 15.2951C51.4108 18.9573 52.8717 23.2504 53.1014 27.695L46.4894 23.0381L48.8819 15.2951ZM35.5516 5.76133L29 10.5222L22.4484 5.76133C26.7285 4.52404 31.2715 4.52404 35.5516 5.76133ZM35.0417 26.7187L32.741 33.8333H25.2493L22.9583 26.7187L29 22.3203L35.0417 26.7187ZM11.5106 23.0381L4.89859 27.695C5.12859 23.2509 6.58856 18.958 9.11567 15.2951L11.5106 23.0381ZM9.68359 43.4638L18.0815 43.5L20.7036 51.6683C16.3161 50.053 12.4892 47.2038 9.68359 43.4638ZM26.2039 52.9903L21.6098 38.6667L6.84159 38.6232C6.11082 36.9372 5.57645 35.1727 5.24901 33.3645L17.1583 24.9666L12.8663 11.0587C14.1957 9.85384 15.6546 8.80017 17.2163 7.917L28.8961 16.4333L17.2647 24.8917L21.75 38.6667H36.25L40.7329 24.8723L29.1039 16.4333L40.7933 7.92667C42.355 8.80984 43.814 9.86351 45.1433 11.0683L40.8417 24.9666L52.7583 33.3621C52.4309 35.1695 51.8966 36.9332 51.1657 38.6183L36.3902 38.6667L31.7985 52.9903C29.9419 53.2255 28.063 53.2255 26.2063 52.9903H26.2039ZM37.294 51.6683L39.9185 43.5L48.3164 43.4734C45.5101 47.2116 41.682 50.0577 37.294 51.6683Z" fill="#FFFFFF"/>
</svg>
