<svg width="58" height="50" viewBox="0 0 58 50" fill="none" xmlns="http://www.w3.org/2000/svg">
<path d="M24.1667 25.0007C24.1667 25.6416 23.9121 26.2563 23.4588 26.7095C23.0056 27.1627 22.3909 27.4173 21.75 27.4173H12.0833C11.4424 27.4173 10.8277 27.1627 10.3745 26.7095C9.92128 26.2563 9.66667 25.6416 9.66667 25.0007C9.66667 24.3597 9.92128 23.745 10.3745 23.2918C10.8277 22.8386 11.4424 22.584 12.0833 22.584H21.75C22.3909 22.584 23.0056 22.8386 23.4588 23.2918C23.9121 23.745 24.1667 24.3597 24.1667 25.0007ZM45.9167 22.584H43.5V20.1673C43.5 19.5264 43.2454 18.9117 42.7922 18.4585C42.339 18.0053 41.7243 17.7507 41.0833 17.7507C40.4424 17.7507 39.8277 18.0053 39.3745 18.4585C38.9213 18.9117 38.6667 19.5264 38.6667 20.1673V22.584H36.25C35.6091 22.584 34.9944 22.8386 34.5412 23.2918C34.0879 23.745 33.8333 24.3597 33.8333 25.0007C33.8333 25.6416 34.0879 26.2563 34.5412 26.7095C34.9944 27.1627 35.6091 27.4173 36.25 27.4173H38.6667V29.834C38.6667 30.4749 38.9213 31.0896 39.3745 31.5428C39.8277 31.996 40.4424 32.2507 41.0833 32.2507C41.7243 32.2507 42.339 31.996 42.7922 31.5428C43.2454 31.0896 43.5 30.4749 43.5 29.834V27.4173H45.9167C46.5576 27.4173 47.1723 27.1627 47.6255 26.7095C48.0787 26.2563 48.3333 25.6416 48.3333 25.0007C48.3333 24.3597 48.0787 23.745 47.6255 23.2918C47.1723 22.8386 46.5576 22.584 45.9167 22.584ZM58 17.7507V37.084C57.9962 40.2875 56.7219 43.3587 54.4566 45.624C52.1914 47.8892 49.1202 49.1635 45.9167 49.1673H12.0833C8.87981 49.1635 5.8086 47.8892 3.54336 45.624C1.27813 43.3587 0.00383732 40.2875 0 37.084L0 17.7507C0.00247553 15.6082 0.715549 13.5271 2.02751 11.8334C3.33948 10.1396 5.17622 8.92892 7.25 8.3909V5.66732C7.25 4.38544 7.75922 3.15606 8.66565 2.24963C9.57208 1.34321 10.8015 0.833984 12.0833 0.833984H21.75C23.0319 0.833984 24.2613 1.34321 25.1677 2.24963C26.0741 3.15606 26.5833 4.38544 26.5833 5.66732V8.08398H31.4167V5.66732C31.4167 4.38544 31.9259 3.15606 32.8323 2.24963C33.7387 1.34321 34.9681 0.833984 36.25 0.833984H45.9167C47.1985 0.833984 48.4279 1.34321 49.3344 2.24963C50.2408 3.15606 50.75 4.38544 50.75 5.66732V8.3909C52.8238 8.92892 54.6605 10.1396 55.9725 11.8334C57.2845 13.5271 57.9975 15.6082 58 17.7507ZM53.1667 17.7507C53.1667 16.4688 52.6574 15.2394 51.751 14.333C50.8446 13.4265 49.6152 12.9173 48.3333 12.9173C47.6924 12.9173 47.0777 12.6627 46.6245 12.2095C46.1713 11.7563 45.9167 11.1416 45.9167 10.5007V5.66732H36.25V10.5007C36.25 11.1416 35.9954 11.7563 35.5422 12.2095C35.089 12.6627 34.4743 12.9173 33.8333 12.9173H24.1667C23.5257 12.9173 22.911 12.6627 22.4578 12.2095C22.0046 11.7563 21.75 11.1416 21.75 10.5007V5.66732H12.0833V10.5007C12.0833 11.1416 11.8287 11.7563 11.3755 12.2095C10.9223 12.6627 10.3076 12.9173 9.66667 12.9173C8.38479 12.9173 7.15541 13.4265 6.24898 14.333C5.34256 15.2394 4.83333 16.4688 4.83333 17.7507V37.084C4.83333 39.0068 5.59717 40.8509 6.95681 42.2105C8.31645 43.5701 10.1605 44.334 12.0833 44.334H45.9167C47.8395 44.334 49.6836 43.5701 51.0432 42.2105C52.4028 40.8509 53.1667 39.0068 53.1667 37.084V17.7507Z" fill="#FFFFFF"/>
</svg>
