<svg width="58" height="58" viewBox="0 0 58 58" fill="none" xmlns="http://www.w3.org/2000/svg">
<g clip-path="url(#clip0_437_1506)">
<path d="M29.0338 57.9995H12.3709C9.09112 57.9956 5.94676 56.691 3.6276 54.3719C1.30843 52.0527 0.00383752 48.9083 0 45.6286L0 34.0286C0.000564279 32.1877 0.411781 30.3702 1.20369 28.7084C1.9956 27.0466 3.14825 25.5824 4.57767 24.4225C6.00709 23.2626 7.67726 22.4361 9.46651 22.0034C11.2558 21.5707 13.119 21.5425 14.9205 21.9211L48.3575 28.9511L53.2102 0.0429688L57.9758 0.842885L51.7167 38.1828C51.4648 40.2708 50.9223 42.3133 50.1048 44.2511C48.3073 48.3415 45.3575 51.82 41.6156 54.2615C37.8737 56.703 33.5018 58.0019 29.0338 57.9995ZM12.3588 26.4789C10.3614 26.4821 8.44694 27.278 7.03591 28.6917C5.62489 30.1055 4.83269 32.0215 4.83333 34.0189V45.6189C4.83269 47.6191 5.62631 49.5376 7.03975 50.9529C8.45318 52.3681 10.3707 53.1642 12.3709 53.1661H29.0459C32.5722 53.1656 36.0221 52.1389 38.9749 50.2113C41.9277 48.2837 44.2557 45.5385 45.675 42.3105C46.3174 40.7574 46.7412 39.1226 46.9341 37.453L47.56 33.7216L13.9248 26.6408C13.4098 26.5332 12.885 26.4789 12.3588 26.4789Z" fill="#FFFFFF"/>
<path d="M12.5035 31.581L11.5073 36.3105L36.9477 41.6689L37.9438 36.9393L12.5035 31.581Z" fill="#FFFFFF"/>
<path d="M10.1695 41.1357L9.16394 45.8633L26.0296 49.4506L27.0351 44.7231L10.1695 41.1357Z" fill="#FFFFFF"/>
</g>
<defs>
<clipPath id="clip0_437_1506">
<rect width="58" height="58" fill="white"/>
</clipPath>
</defs>
</svg>
