<svg width="54" height="58" viewBox="0 0 54 58" fill="none" xmlns="http://www.w3.org/2000/svg">
<path d="M45.125 21.7493H43.9167V16.9159C43.9167 16.275 43.6621 15.6603 43.2088 15.2071C42.7556 14.7539 42.1409 14.4993 41.5 14.4993C41.5307 12.7851 41.0933 11.095 40.2348 9.61093C39.3763 8.12688 38.1293 6.90512 36.628 6.07718C34.8922 5.11105 32.9056 4.68999 30.9271 4.86884C30.6815 4.89931 30.4323 4.86569 30.2036 4.77125C29.9749 4.67681 29.7746 4.52477 29.6221 4.32993C28.5702 2.95196 27.2048 1.84484 25.6392 1.10051C24.0736 0.356176 22.353 -0.00388371 20.6203 0.0502336C18.8876 0.104351 17.1928 0.571083 15.6767 1.41167C14.1606 2.25225 12.8669 3.44242 11.9031 4.88334C9.45148 5.03096 7.14842 6.10783 5.46322 7.89451C3.77802 9.6812 2.8375 12.0432 2.83333 14.4993C2.19239 14.4993 1.5777 14.7539 1.12449 15.2071C0.671278 15.6603 0.416666 16.275 0.416666 16.9159V45.9159C0.420503 49.1194 1.6948 52.1907 3.96003 54.4559C6.22526 56.7211 9.29648 57.9954 12.5 57.9993H31.8333C35.0369 57.9954 38.1081 56.7211 40.3733 54.4559C42.6385 52.1907 43.9128 49.1194 43.9167 45.9159H45.125C47.3683 45.9159 49.5197 45.0248 51.1059 43.4385C52.6922 41.8523 53.5833 39.7009 53.5833 37.4576V30.2076C53.5833 27.9643 52.6922 25.8129 51.1059 24.2266C49.5197 22.6404 47.3683 21.7493 45.125 21.7493ZM12.5 9.66593C12.639 9.67046 12.7773 9.68745 12.9132 9.71668C13.4341 9.80136 13.9683 9.71326 14.4343 9.46584C14.9004 9.21842 15.2726 8.82527 15.4942 8.34643C15.9361 7.40841 16.6119 6.5999 17.4567 5.99868C18.3014 5.39746 19.2867 5.02376 20.3177 4.91355C21.3487 4.80334 22.3907 4.96032 23.3435 5.36939C24.2962 5.77845 25.1277 6.42584 25.7578 7.24926C26.4055 8.1095 27.2652 8.78704 28.253 9.2157C29.2408 9.64436 30.3228 9.80948 31.3935 9.69493C32.4258 9.61362 33.459 9.84162 34.3612 10.3498C35.0803 10.7733 35.6732 11.3813 36.0786 12.1108C36.4839 12.8404 36.6869 13.6649 36.6667 14.4993H27C25.0772 14.4993 23.2331 15.2631 21.8735 16.6227C20.5138 17.9824 19.75 19.8264 19.75 21.7493V28.9993C19.75 29.6402 19.4954 30.2549 19.0422 30.7081C18.589 31.1613 17.9743 31.4159 17.3333 31.4159C16.6924 31.4159 16.0777 31.1613 15.6245 30.7081C15.1713 30.2549 14.9167 29.6402 14.9167 28.9993V21.7493C14.9167 19.8264 14.1528 17.9824 12.7932 16.6227C11.4336 15.2631 9.58949 14.4993 7.66667 14.4993C7.66667 13.2174 8.17589 11.988 9.08232 11.0816C9.98874 10.1751 11.2181 9.66593 12.5 9.66593ZM39.0833 45.9159C39.0833 47.8387 38.3195 49.6828 36.9599 51.0424C35.6002 52.4021 33.7562 53.1659 31.8333 53.1659H12.5C10.5772 53.1659 8.73311 52.4021 7.37348 51.0424C6.01384 49.6828 5.25 47.8387 5.25 45.9159V19.3326H7.66667C8.30761 19.3326 8.92229 19.5872 9.37551 20.0404C9.82872 20.4936 10.0833 21.1083 10.0833 21.7493V28.9993C10.0833 30.9221 10.8472 32.7661 12.2068 34.1258C13.5664 35.4854 15.4105 36.2493 17.3333 36.2493C19.2562 36.2493 21.1002 35.4854 22.4599 34.1258C23.8195 32.7661 24.5833 30.9221 24.5833 28.9993V21.7493C24.5833 21.1083 24.8379 20.4936 25.2912 20.0404C25.7444 19.5872 26.3591 19.3326 27 19.3326H39.0833V45.9159ZM48.75 37.4576C48.75 38.419 48.3681 39.341 47.6883 40.0209C47.0084 40.7007 46.0864 41.0826 45.125 41.0826H43.9167V26.5826H45.125C46.0864 26.5826 47.0084 26.9645 47.6883 27.6443C48.3681 28.3242 48.75 29.2462 48.75 30.2076V37.4576Z" fill="#FFFFFF"/>
</svg>
