<svg width="58" height="58" viewBox="0 0 58 58" fill="none" xmlns="http://www.w3.org/2000/svg">
<path d="M55.883 2.11729C55.1326 1.35988 54.2223 0.779921 53.2187 0.419891C52.2151 0.059861 51.1437 -0.0711216 50.083 0.036537C44.5923 0.57062 30.7158 2.93654 20.4474 13.1977C11.5567 22.0996 4.77005 32.8777 0.584833 44.7425L0 46.2118L11.7329 57.9447L13.2047 57.3695C25.0779 53.1976 35.8698 46.4273 44.7929 37.5529C55.0589 27.2869 57.42 13.408 57.9541 7.91729C58.0607 6.85743 57.9302 5.78712 57.572 4.78395C57.2138 3.78078 56.6368 2.86988 55.883 2.11729ZM41.383 34.1357C33.3423 42.2012 23.6256 48.3991 12.9219 52.2897L11.0248 50.3926L40.3753 21.0422L36.9581 17.625L7.60767 46.9755L5.67433 45.0421C9.60872 34.3615 15.8151 24.6623 23.8646 16.6149C33.0286 7.45329 45.5808 5.33145 50.5543 4.8457C50.9039 4.81352 51.2563 4.85853 51.5866 4.97754C51.9169 5.09656 52.2171 5.28667 52.4658 5.53445C52.7172 5.78112 52.9104 6.08064 53.0317 6.41127C53.1529 6.7419 53.199 7.09537 53.1667 7.44604C52.6688 12.4195 50.547 24.9741 41.3854 34.1357H41.383Z" fill="#FFFFFF"/>
</svg>
