<svg width="58" height="54" viewBox="0 0 58 54" fill="none" xmlns="http://www.w3.org/2000/svg">
<path d="M7.25 41.4994C5.87252 41.4986 4.51111 41.2034 3.25698 40.6337C2.00285 40.0639 0.884975 39.2327 -0.0217514 38.1958L3.625 35.0106C4.27329 35.7457 5.12976 36.2664 6.08078 36.5035C7.03181 36.7406 8.03245 36.6829 8.94997 36.3382C9.86748 35.9935 10.6585 35.378 11.2181 34.5733C11.7777 33.7686 12.0795 32.8128 12.0833 31.8327H16.9167C16.9167 33.1146 17.4259 34.3439 18.3323 35.2504C19.2387 36.1568 20.4681 36.666 21.75 36.666C23.0319 36.666 24.2613 36.1568 25.1677 35.2504C26.0741 34.3439 26.5833 33.1146 26.5833 31.8327H31.4167C31.4167 33.1146 31.9259 34.3439 32.8323 35.2504C33.7387 36.1568 34.9681 36.666 36.25 36.666C37.5319 36.666 38.7613 36.1568 39.6677 35.2504C40.5741 34.3439 41.0833 33.1146 41.0833 31.8327H45.9167C45.92 32.813 46.2214 33.7692 46.7809 34.5742C47.3403 35.3793 48.1313 35.9952 49.0489 36.3402C49.9665 36.6852 50.9674 36.7431 51.9186 36.506C52.8699 36.269 53.7266 35.7483 54.375 35.013L58.0145 38.1934C57.1114 39.2328 55.9952 40.0657 54.7416 40.6355C53.488 41.2052 52.1265 41.4984 50.7495 41.4952C49.3725 41.492 48.0124 41.1925 46.7615 40.6169C45.5106 40.0413 44.3982 39.2032 43.5 38.1595C42.6045 39.2069 41.4928 40.0478 40.2412 40.6244C38.9896 41.201 37.628 41.4995 36.25 41.4995C34.872 41.4995 33.5104 41.201 32.2588 40.6244C31.0072 40.0478 29.8955 39.2069 29 38.1595C28.1045 39.2069 26.9927 40.0478 25.7412 40.6244C24.4896 41.201 23.128 41.4995 21.75 41.4995C20.372 41.4995 19.0104 41.201 17.7588 40.6244C16.5072 40.0478 15.3955 39.2069 14.5 38.1595C13.6017 39.2035 12.4893 40.0421 11.2384 40.6183C9.9875 41.1946 8.62727 41.4951 7.25 41.4994ZM50.75 48.7494C49.4681 48.7494 48.2387 48.2401 47.3323 47.3337C46.4259 46.4273 45.9167 45.1979 45.9167 43.916H41.0833C41.0833 45.1979 40.5741 46.4273 39.6677 47.3337C38.7613 48.2401 37.5319 48.7494 36.25 48.7494C34.9681 48.7494 33.7387 48.2401 32.8323 47.3337C31.9259 46.4273 31.4167 45.1979 31.4167 43.916H26.5833C26.5833 45.1979 26.0741 46.4273 25.1677 47.3337C24.2613 48.2401 23.0319 48.7494 21.75 48.7494C20.4681 48.7494 19.2387 48.2401 18.3323 47.3337C17.4259 46.4273 16.9167 45.1979 16.9167 43.916H12.0833C12.0795 44.8961 11.7777 45.8519 11.2181 46.6566C10.6585 47.4613 9.86748 48.0768 8.94997 48.4216C8.03245 48.7663 7.03181 48.8239 6.08078 48.5868C5.12976 48.3497 4.27329 47.829 3.625 47.0939L-0.0217514 50.2791C0.881732 51.3193 1.99861 52.1528 3.25293 52.7228C4.50726 53.2929 5.86963 53.5861 7.24742 53.5827C8.6252 53.5793 9.98609 53.2792 11.2376 52.7029C12.489 52.1266 13.6017 51.2875 14.5 50.2429C15.3955 51.2902 16.5072 52.1311 17.7588 52.7077C19.0104 53.2843 20.372 53.5829 21.75 53.5829C23.128 53.5829 24.4896 53.2843 25.7412 52.7077C26.9927 52.1311 28.1045 51.2902 29 50.2429C29.8955 51.2902 31.0072 52.1311 32.2588 52.7077C33.5104 53.2843 34.872 53.5829 36.25 53.5829C37.628 53.5829 38.9896 53.2843 40.2412 52.7077C41.4928 52.1311 42.6045 51.2902 43.5 50.2429C44.3982 51.2878 45.511 52.1269 46.7626 52.7032C48.0142 53.2796 49.3752 53.5796 50.7531 53.5828C52.131 53.586 53.4935 53.2923 54.7477 52.7219C56.002 52.1514 57.1187 51.3174 58.0218 50.2767L54.375 47.0964C53.923 47.6137 53.3658 48.0287 52.7407 48.3137C52.1157 48.5988 51.437 48.7473 50.75 48.7494ZM11.4647 26.9993L29.3843 14.4544L38.2051 26.9993H44.1138L27.5887 3.49485H27.5766C26.9087 2.54529 26.0225 1.77002 24.9925 1.23424C23.9626 0.698468 22.8191 0.417858 21.6582 0.416016H4.83333V5.24935H21.6582C22.0453 5.24952 22.4267 5.34269 22.7703 5.52101C23.1139 5.69932 23.4096 5.95757 23.6326 6.27402L26.6051 10.4983L3.03533 26.9993H11.4647ZM44.7083 17.3327C45.9033 17.3327 47.0714 16.9783 48.0649 16.3145C49.0585 15.6506 49.8328 14.707 50.2901 13.6031C50.7474 12.4991 50.867 11.2843 50.6339 10.1123C50.4008 8.94038 49.8254 7.86385 48.9804 7.01891C48.1355 6.17397 47.059 5.59856 45.887 5.36544C44.715 5.13232 43.5003 5.25196 42.3963 5.70924C41.2923 6.16652 40.3487 6.9409 39.6849 7.93445C39.021 8.92799 38.6667 10.0961 38.6667 11.291C38.6667 12.8934 39.3032 14.4301 40.4362 15.5631C41.5693 16.6962 43.106 17.3327 44.7083 17.3327Z" fill="#FFFFFF"/>
</svg>
