<svg width="58" height="54" viewBox="0 0 58 54" fill="none" xmlns="http://www.w3.org/2000/svg">
<path d="M53.3044 10.64L35.4839 2.15026C31.5612 -0.192853 26.6788 -0.234428 22.7166 2.04151L4.69562 10.64C4.62799 10.6739 4.55787 10.7101 4.49262 10.7488C0.216027 13.194 -1.26864 18.6432 1.17665 22.9198C2.00553 24.3696 3.22478 25.5574 4.69562 26.3484L9.66674 28.7167V40.5584C9.66969 45.8535 13.1151 50.5315 18.171 52.1052C21.6894 53.1231 25.3376 53.6214 29.0001 53.5842C32.662 53.6253 36.3103 53.1311 39.8292 52.1174C44.8851 50.5438 48.3305 45.8656 48.3335 40.5705V28.7119L53.1669 26.4015V46.3341C53.1669 47.6688 54.2488 48.7508 55.5835 48.7508C56.9182 48.7508 58.0001 47.6688 58.0001 46.3341V17.3341C58.0162 14.4963 55.7755 11.8748 53.3044 10.64ZM43.5 40.5705C43.5012 43.7377 41.4463 46.5393 38.425 47.4894C35.3612 48.3648 32.1863 48.7897 29 48.7509C25.8137 48.7897 22.6388 48.3648 19.575 47.4894C16.5537 46.5392 14.4988 43.7377 14.5 40.5705V31.0199L22.5161 34.8382C24.494 36.0127 26.753 36.6299 29.0532 36.6241C31.2427 36.6396 33.3954 36.06 35.281 34.947L43.5 31.0198V40.5705ZM51.2334 21.9863L33.0069 30.6863C30.4655 32.166 27.3155 32.1241 24.8144 30.5775L6.98175 22.095C4.994 21.0231 4.25156 18.5428 5.32343 16.5552C5.68593 15.883 6.22945 15.3258 6.89237 14.9465L25.0052 6.29488C27.5474 4.81837 30.6957 4.86017 33.1978 6.40363L51.0182 14.8934C52.3288 15.6211 53.1487 16.9953 53.1666 18.4942C53.169 19.9141 52.4379 21.2345 51.2334 21.9863Z" fill="#FFFFFF"/>
</svg>
