<svg width="58" height="58" viewBox="0 0 58 58" fill="none" xmlns="http://www.w3.org/2000/svg">
<g clip-path="url(#clip0_437_1501)">
<path d="M41.0833 43.5C41.0833 41.5772 40.3195 39.7331 38.9599 38.3735C37.6002 37.0138 35.7562 36.25 33.8333 36.25C31.9105 36.25 30.0664 37.0138 28.7068 38.3735C27.3472 39.7331 26.5833 41.5772 26.5833 43.5H31.4167C31.4167 42.8591 31.6713 42.2444 32.1245 41.7912C32.5777 41.3379 33.1924 41.0833 33.8333 41.0833C34.4743 41.0833 35.089 41.3379 35.5422 41.7912C35.9954 42.2444 36.25 42.8591 36.25 43.5C36.25 44.7083 34.1958 46.2502 32.3833 47.6083C29.6646 49.648 26.5833 51.9583 26.5833 55.5833V58H41.0833V53.1667H33.1325C33.7874 52.5963 34.5559 52.0212 35.2833 51.475C38.0021 49.4353 41.0833 47.125 41.0833 43.5Z" fill="#FFFFFF"/>
<path d="M53.1667 45.9167H48.3333V36.25H43.5V45.9167C43.5 47.1985 44.0092 48.4279 44.9157 49.3343C45.8221 50.2408 47.0515 50.75 48.3333 50.75H53.1667V58H58V36.25H53.1667V45.9167Z" fill="#FFFFFF"/>
<path d="M31.4167 14.5H26.5833V26.5833H16.9167V31.4167H31.4167V14.5Z" fill="#FFFFFF"/>
<path d="M53.1667 4.83424V12.9881C50.572 9.06391 47.0612 5.8302 42.9374 3.56613C38.8137 1.30205 34.2008 0.0756437 29.4971 -0.00722075C24.7934 -0.0900852 20.1403 0.973085 15.9393 3.0905C11.7383 5.20792 8.11584 8.31596 5.38454 12.1463C2.65323 15.9766 0.895198 20.4142 0.262209 25.0758C-0.37078 29.7374 0.140297 34.4831 1.75132 38.9031C3.36234 43.323 6.02489 47.2845 9.50911 50.4455C12.9933 53.6064 17.1945 55.8719 21.75 57.0463V52.0535C17.9928 50.8848 14.5778 48.8164 11.8017 46.028C9.02558 43.2396 6.97229 39.8155 5.82023 36.0532C4.66817 32.2909 4.45219 28.3042 5.19104 24.4394C5.92989 20.5747 7.60124 16.9488 10.0599 13.8768C12.5185 10.8048 15.69 8.37955 19.299 6.81181C22.9079 5.24407 26.845 4.58124 30.7683 4.88091C34.6917 5.18058 38.4825 6.43368 41.8114 8.53134C45.1404 10.629 47.9068 13.5078 49.8703 16.9176H41.0833V21.7509H53.1667C54.4485 21.7509 55.6779 21.2417 56.5843 20.3353C57.4908 19.4288 58 18.1995 58 16.9176V4.83424H53.1667Z" fill="#FFFFFF"/>
</g>
<defs>
<clipPath id="clip0_437_1501">
<rect width="58" height="58" fill="white"/>
</clipPath>
</defs>
</svg>
