<svg width="58" height="58" viewBox="0 0 58 58" fill="none" xmlns="http://www.w3.org/2000/svg">
<path d="M45.3584 35.7981C50.1917 33.6158 53.1667 30.3582 53.1667 26.5833C53.1667 20.8317 46.2768 16.2738 36.3902 14.9229C37.8083 13.5367 38.6257 11.6493 38.6667 9.66667C38.6667 4.24608 32.2963 0 24.1667 0C16.037 0 9.66667 4.24608 9.66667 9.66667C9.78928 11.3272 10.3714 12.9209 11.3479 14.2695C12.3243 15.6181 13.6567 16.6686 15.196 17.3033C10.2805 19.4856 7.25 22.7723 7.25 26.5833C7.25 30.1358 9.889 33.2316 14.2293 35.4018C6.06825 37.2747 0 40.8054 0 45.9167C0 53.8506 14.5894 58 29 58C43.4106 58 58 53.8506 58 45.9167C58 41.1438 52.7051 37.7508 45.3584 35.7981ZM24.1667 4.83333C29.7008 4.83333 33.8333 7.38533 33.8333 9.66667C33.8333 11.948 29.7008 14.5 24.1667 14.5C18.6325 14.5 14.5 11.948 14.5 9.66667C14.5 7.38533 18.6325 4.83333 24.1667 4.83333ZM12.0833 26.5833C12.0833 23.5553 18.9781 19.3333 30.2083 19.3333C41.4386 19.3333 48.3333 23.5553 48.3333 26.5833C48.3333 29.6114 41.4362 33.8333 30.2083 33.8333C18.9805 33.8333 12.0833 29.6114 12.0833 26.5833ZM29 53.1667C14.471 53.1667 4.83333 48.8022 4.83333 45.9167C4.83333 43.0312 14.471 38.6667 29 38.6667C43.529 38.6667 53.1667 43.0312 53.1667 45.9167C53.1667 48.8022 43.529 53.1667 29 53.1667Z" fill="#FFFFFF"/></svg>
