<svg width="24" height="24" viewBox="0 0 24 24" fill="none" xmlns="http://www.w3.org/2000/svg">
<path d="M19.6239 1.99805H4.5177C3.131 1.99805 2 3.12905 2 4.48034V15.7746C2 17.1613 3.131 18.2569 4.5177 18.2569H8.29426V21.526C8.29426 21.9095 8.73682 22.1338 9.04642 21.9076L13.9599 18.2215H19.6247C21.0114 18.2215 22.1424 17.0905 22.1424 15.7392V4.48034C22.1416 3.12905 21.0441 1.99805 19.6239 1.99805ZM12.4209 13.3277H8.01495C7.49567 13.3277 7.07081 12.9068 7.07081 12.3836C7.07081 11.8604 7.49567 11.4394 8.01495 11.4394H12.4209C12.9441 11.4394 13.3651 11.8643 13.3651 12.3836C13.3651 12.9028 12.9441 13.3277 12.4209 13.3277ZM16.1975 9.55116H8.01495C7.49567 9.55116 7.07081 9.13023 7.07081 8.60702C7.07081 8.08381 7.49567 7.66288 8.01495 7.66288H16.1975C16.7207 7.66288 17.1416 8.08774 17.1416 8.60702C17.1416 9.12629 16.7207 9.55116 16.1975 9.55116Z" fill="#667085"/>
</svg>
