<svg width="13" height="14" viewBox="0 0 13 14" fill="none" xmlns="http://www.w3.org/2000/svg">
<path d="M4.70924 12.4833V10.5723C4.70924 10.0844 5.10761 9.68894 5.59902 9.68894H7.39538C7.63137 9.68894 7.85769 9.78201 8.02456 9.94766C8.19142 10.1133 8.28517 10.338 8.28517 10.5723V12.4833C8.28368 12.6862 8.36379 12.8812 8.50773 13.0251C8.65167 13.169 8.84753 13.25 9.05184 13.25H10.2774C10.8498 13.2515 11.3992 13.0268 11.8045 12.6255C12.2097 12.2242 12.4375 11.6794 12.4375 11.1111V5.66679C12.4375 5.20779 12.2325 4.7724 11.8779 4.47792L7.70877 1.17242C6.98354 0.592851 5.94445 0.611564 5.24087 1.21686L1.16688 4.47792C0.795463 4.76372 0.57347 5.2004 0.5625 5.66679V11.1056C0.5625 12.2899 1.52961 13.25 2.72261 13.25H3.92018C4.34452 13.25 4.68937 12.9101 4.69245 12.4889L4.70924 12.4833Z" fill="black"/>
</svg>
