<svg width="20" height="21" viewBox="0 0 20 21" fill="none" xmlns="http://www.w3.org/2000/svg">
<g clip-path="url(#clip0_14342_1794)">
<path d="M19.1667 9.82751H0.833333C0.373096 9.82751 0 10.2006 0 10.6609C0 11.1211 0.373096 11.4942 0.833333 11.4942H19.1667C19.6269 11.4942 20 11.1211 20 10.6609C20 10.2006 19.6269 9.82751 19.1667 9.82751Z" fill="#191919"/>
<path d="M19.1667 3.99475H0.833333C0.373096 3.99475 0 4.36785 0 4.82808C0 5.28832 0.373096 5.66141 0.833333 5.66141H19.1667C19.6269 5.66141 20 5.28832 20 4.82808C20 4.36785 19.6269 3.99475 19.1667 3.99475Z" fill="#191919"/>
<path d="M19.1667 15.6611H0.833333C0.373096 15.6611 0 16.0342 0 16.4945C0 16.9547 0.373096 17.3278 0.833333 17.3278H19.1667C19.6269 17.3278 20 16.9547 20 16.4945C20 16.0342 19.6269 15.6611 19.1667 15.6611Z" fill="#191919"/>
</g>
<defs>
<clipPath id="clip0_14342_1794">
<rect width="20" height="20" fill="white" transform="translate(0 0.661133)"/>
</clipPath>
</defs>
</svg>
