<svg xmlns="http://www.w3.org/2000/svg" width="23" height="27" viewBox="0 0 23 27" fill="none">
  <path d="M22.0247 12.8604C21.0507 11.7231 20.6081 10.7374 20.6081 9.06288V8.49351C20.6081 6.31138 20.1059 4.90542 19.014 3.49946C17.331 1.31599 14.4979 0 11.7243 0H11.6064C8.89117 0 6.14678 1.25556 4.43469 3.3504C3.28314 4.78456 2.7226 6.25095 2.7226 8.49351V9.06288C2.7226 10.7374 2.30915 11.7231 1.30602 12.8604C0.567908 13.6984 0.332031 14.7753 0.332031 15.9409C0.332031 17.1079 0.714999 18.213 1.48359 19.1114C2.48672 20.1884 3.90331 20.8759 5.35037 20.9954C7.44543 21.2344 9.54049 21.3244 11.666 21.3244C13.7902 21.3244 15.8853 21.174 17.9817 20.9954C19.4274 20.8759 20.844 20.1884 21.8471 19.1114C22.6144 18.213 22.9987 17.1079 22.9987 15.9409C22.9987 14.7753 22.7628 13.6984 22.0247 12.8604" fill="#191919"/>
  <path opacity="0.4" d="M14.3424 22.9712C13.6759 22.8289 9.61428 22.8289 8.94773 22.9712C8.37791 23.1028 7.76172 23.409 7.76172 24.0804C7.79485 24.7209 8.16986 25.2863 8.68932 25.6448L8.688 25.6461C9.35985 26.1699 10.1483 26.5029 10.9739 26.6224C11.4138 26.6828 11.8617 26.6801 12.3176 26.6224C13.1418 26.5029 13.9303 26.1699 14.6021 25.6461L14.6008 25.6448C15.1203 25.2863 15.4953 24.7209 15.5284 24.0804C15.5284 23.409 14.9122 23.1028 14.3424 22.9712" fill="#191919"/>
</svg>