<svg xmlns="http://www.w3.org/2000/svg" width="23" height="27" viewBox="0 0 23 27" fill="none">
  <path d="M22.0262 12.8604C21.0522 11.7231 20.6096 10.7374 20.6096 9.06288V8.49351C20.6096 6.31138 20.1074 4.90542 19.0154 3.49946C17.3325 1.31599 14.4993 0 11.7258 0H11.6079C8.89263 0 6.14825 1.25556 4.43616 3.3504C3.2846 4.78456 2.72406 6.25095 2.72406 8.49351V9.06288C2.72406 10.7374 2.31062 11.7231 1.30748 12.8604C0.569373 13.6984 0.333496 14.7753 0.333496 15.9409C0.333496 17.1079 0.716464 18.213 1.48505 19.1114C2.48819 20.1884 3.90477 20.8759 5.35183 20.9954C7.44689 21.2344 9.54195 21.3244 11.6675 21.3244C13.7917 21.3244 15.8868 21.174 17.9832 20.9954C19.4289 20.8759 20.8455 20.1884 21.8486 19.1114C22.6159 18.213 23.0002 17.1079 23.0002 15.9409C23.0002 14.7753 22.7643 13.6984 22.0262 12.8604" fill="white"/>
  <path opacity="0.4" d="M14.3448 22.9715C13.6783 22.8292 9.61672 22.8292 8.95017 22.9715C8.38035 23.1031 7.76416 23.4093 7.76416 24.0807C7.79729 24.7212 8.17231 25.2866 8.69176 25.6451L8.69044 25.6465C9.36229 26.1702 10.1508 26.5032 10.9763 26.6227C11.4163 26.6831 11.8642 26.6804 12.32 26.6227C13.1443 26.5032 13.9327 26.1702 14.6046 25.6465L14.6033 25.6451C15.1227 25.2866 15.4977 24.7212 15.5309 24.0807C15.5309 23.4093 14.9147 23.1031 14.3448 22.9715" fill="white"/>
</svg>