<svg width="14" height="12" viewBox="0 0 14 12" fill="none" xmlns="http://www.w3.org/2000/svg">
<path fill-rule="evenodd" clip-rule="evenodd" d="M10.8446 3.73863H13.6654C13.6654 1.61537 12.3083 0.375 10.0091 0.375H3.98833C1.68907 0.375 0.332031 1.61537 0.332031 3.71154V8.28846C0.332031 10.3846 1.68907 11.625 3.98833 11.625H10.0091C12.3083 11.625 13.6654 10.3846 13.6654 8.28846V8.09346H10.8446C9.5355 8.09346 8.47425 7.12345 8.47425 5.92688C8.47425 4.73031 9.5355 3.76029 10.8446 3.76029V3.73863ZM10.8454 4.67021H13.1684C13.4433 4.67021 13.6662 4.87391 13.6662 5.12519V6.7068C13.663 6.95686 13.442 7.15886 13.1684 7.16178H10.8988C10.236 7.16993 9.65649 6.75518 9.50617 6.16515C9.43089 5.79888 9.53657 5.42093 9.79489 5.13259C10.0532 4.84424 10.4377 4.675 10.8454 4.67021ZM10.9465 6.33307H11.1657C11.4472 6.33307 11.6754 6.12452 11.6754 5.86726C11.6754 5.60999 11.4472 5.40144 11.1657 5.40144H10.9465C10.8119 5.39999 10.6822 5.44786 10.5865 5.53436C10.4907 5.62086 10.4368 5.73879 10.4368 5.86184C10.4368 6.11999 10.6641 6.33011 10.9465 6.33307ZM3.4901 3.7386H7.25306C7.53452 3.7386 7.76269 3.53005 7.76269 3.27278C7.76269 3.01552 7.53452 2.80697 7.25306 2.80697H3.4901C3.21094 2.80695 2.98371 3.01222 2.98047 3.26737C2.98045 3.52552 3.20768 3.73563 3.4901 3.7386Z" fill="white"/>
</svg>
